%TF.GenerationSoftware,KiCad,Pcbnew,(5.1.12)-1*%
%TF.CreationDate,2021-11-29T00:37:47+03:00*%
%TF.ProjectId,lepetocontrol,6c657065-746f-4636-9f6e-74726f6c2e6b,rev?*%
%TF.SameCoordinates,Original*%
%TF.FileFunction,Copper,L2,Bot*%
%TF.FilePolarity,Positive*%
%FSLAX46Y46*%
G04 Gerber Fmt 4.6, Leading zero omitted, Abs format (unit mm)*
G04 Created by KiCad (PCBNEW (5.1.12)-1) date 2021-11-29 00:37:47*
%MOMM*%
%LPD*%
G01*
G04 APERTURE LIST*
%TA.AperFunction,ComponentPad*%
%ADD10O,1.727200X2.032000*%
%TD*%
%TA.AperFunction,ComponentPad*%
%ADD11R,1.727200X2.032000*%
%TD*%
%TA.AperFunction,ComponentPad*%
%ADD12C,1.422400*%
%TD*%
%TA.AperFunction,ComponentPad*%
%ADD13O,1.727200X1.727200*%
%TD*%
%TA.AperFunction,ComponentPad*%
%ADD14R,1.727200X1.727200*%
%TD*%
%TA.AperFunction,ComponentPad*%
%ADD15O,1.200000X1.500000*%
%TD*%
%TA.AperFunction,ComponentPad*%
%ADD16C,1.524000*%
%TD*%
%TA.AperFunction,ComponentPad*%
%ADD17C,2.100000*%
%TD*%
%TA.AperFunction,ComponentPad*%
%ADD18C,1.750000*%
%TD*%
%TA.AperFunction,ComponentPad*%
%ADD19O,2.032000X1.727200*%
%TD*%
%TA.AperFunction,ComponentPad*%
%ADD20R,2.032000X1.727200*%
%TD*%
%TA.AperFunction,ViaPad*%
%ADD21C,0.600000*%
%TD*%
%TA.AperFunction,Conductor*%
%ADD22C,0.400000*%
%TD*%
%TA.AperFunction,Conductor*%
%ADD23C,1.000000*%
%TD*%
%TA.AperFunction,Conductor*%
%ADD24C,0.250000*%
%TD*%
%TA.AperFunction,Conductor*%
%ADD25C,0.254000*%
%TD*%
%TA.AperFunction,Conductor*%
%ADD26C,0.100000*%
%TD*%
G04 APERTURE END LIST*
D10*
X216154000Y-85090000D03*
X213614000Y-85090000D03*
X211074000Y-85090000D03*
X208534000Y-85090000D03*
D11*
X205994000Y-85090000D03*
D12*
X224282000Y-107188000D03*
X229362000Y-107188000D03*
D13*
X264160000Y-99060000D03*
X261620000Y-99060000D03*
X264160000Y-101600000D03*
X261620000Y-101600000D03*
X264160000Y-104140000D03*
X261620000Y-104140000D03*
X264160000Y-106680000D03*
X261620000Y-106680000D03*
X264160000Y-109220000D03*
D14*
X261620000Y-109220000D03*
D13*
X179324000Y-99060000D03*
X181864000Y-99060000D03*
X179324000Y-101600000D03*
X181864000Y-101600000D03*
X179324000Y-104140000D03*
X181864000Y-104140000D03*
X179324000Y-106680000D03*
X181864000Y-106680000D03*
X179324000Y-109220000D03*
D14*
X181864000Y-109220000D03*
D10*
X196088000Y-81788000D03*
X193548000Y-81788000D03*
D11*
X191008000Y-81788000D03*
D15*
X219500000Y-107350000D03*
X219500000Y-100850000D03*
X215000000Y-107350000D03*
X215000000Y-100850000D03*
X184500000Y-129400000D03*
X184500000Y-135900000D03*
X189000000Y-129400000D03*
X189000000Y-135900000D03*
X219500000Y-135900000D03*
X219500000Y-129400000D03*
X215000000Y-135900000D03*
X215000000Y-129400000D03*
X184500000Y-100850000D03*
X184500000Y-107350000D03*
X189000000Y-100850000D03*
X189000000Y-107350000D03*
D16*
X209620000Y-103600000D03*
X207080000Y-103600000D03*
X204540000Y-103600000D03*
X202000000Y-103600000D03*
X199460000Y-103600000D03*
X196920000Y-103600000D03*
X194380000Y-103600000D03*
D17*
X233192000Y-83770000D03*
D18*
X234442000Y-81280000D03*
X238942000Y-81280000D03*
D17*
X240202000Y-83770000D03*
X255290000Y-83770000D03*
D18*
X256540000Y-81280000D03*
X261040000Y-81280000D03*
D17*
X262300000Y-83770000D03*
D19*
X176784000Y-95278000D03*
X176784000Y-92738000D03*
X176784000Y-90198000D03*
X176784000Y-87658000D03*
D20*
X176784000Y-85118000D03*
D19*
X273050000Y-95278000D03*
X273050000Y-92738000D03*
X273050000Y-90198000D03*
X273050000Y-87658000D03*
D20*
X273050000Y-85118000D03*
D21*
X234823000Y-100838000D03*
X227330000Y-88011000D03*
X204343000Y-96647000D03*
X216916000Y-87630000D03*
X206629000Y-93726000D03*
X214272001Y-94003001D03*
X204089000Y-83312000D03*
X224282000Y-85979000D03*
X191770000Y-94107000D03*
X210947000Y-94361000D03*
X213614000Y-88011000D03*
X218632136Y-94003001D03*
X195961000Y-87122000D03*
X191770000Y-91694000D03*
X218059000Y-86106000D03*
X256286000Y-89408000D03*
X224536000Y-84074000D03*
X182372000Y-86995000D03*
X221742000Y-81026000D03*
X213614000Y-91821000D03*
X218567000Y-87630000D03*
X228981000Y-84328000D03*
X231013000Y-81280000D03*
X235077000Y-87249000D03*
X243586000Y-90170000D03*
X191770000Y-96520000D03*
X211963000Y-87122000D03*
X204216000Y-94107000D03*
X186182000Y-87376000D03*
X232537000Y-100838000D03*
X186182000Y-93853000D03*
X186182000Y-92075000D03*
X238379000Y-88265000D03*
X258191000Y-92075000D03*
X232791000Y-90678000D03*
X186182000Y-89662000D03*
X230759000Y-92456000D03*
X229516520Y-91958951D03*
X246888000Y-84201000D03*
X236220000Y-91948000D03*
X258064000Y-83439000D03*
X266319000Y-88265000D03*
X185801000Y-96774000D03*
X191770000Y-88265000D03*
X191770000Y-90043000D03*
X220472000Y-84632857D03*
X191770000Y-84709000D03*
X198882000Y-99822000D03*
X211836000Y-89471500D03*
X241000000Y-105000000D03*
X221615000Y-101219000D03*
X217170000Y-107315000D03*
X217170000Y-102616000D03*
X237000000Y-104000000D03*
X247000000Y-95000000D03*
X250303483Y-94970019D03*
X203200000Y-114046000D03*
X203200000Y-108839000D03*
X205232000Y-89662000D03*
X200279000Y-114046000D03*
X200279000Y-108839000D03*
X199263000Y-84582000D03*
X199263000Y-82296000D03*
X227076000Y-112268000D03*
X239204500Y-100076000D03*
X228346000Y-108585000D03*
X225806000Y-108585000D03*
X240184001Y-95395999D03*
X236728000Y-98679000D03*
X224536000Y-81026000D03*
X227330000Y-100076000D03*
X178562000Y-96774000D03*
X223266000Y-96520000D03*
X206756000Y-87630000D03*
X241808000Y-92964000D03*
X228092000Y-90424000D03*
X231482913Y-88050009D03*
X248666000Y-90170000D03*
X254762000Y-86868000D03*
X255778000Y-87884000D03*
X194871306Y-99636593D03*
X250000000Y-102000000D03*
X197747989Y-104307966D03*
X220218000Y-102743000D03*
X202885051Y-101887989D03*
X217424000Y-97028000D03*
X216690517Y-89353989D03*
X224790000Y-99441000D03*
X227281807Y-93398294D03*
X226060000Y-91440000D03*
X212828244Y-88694121D03*
X217454530Y-89915116D03*
X225806000Y-95758000D03*
X236311198Y-84339176D03*
X212344000Y-94742000D03*
X237744000Y-94234000D03*
X221234000Y-93472000D03*
X224632683Y-96047418D03*
X200660000Y-87630000D03*
X226468307Y-96892287D03*
X203962000Y-88392000D03*
X243078000Y-96774000D03*
X225605100Y-94218396D03*
X225006242Y-94748856D03*
X225980160Y-93511750D03*
X197189378Y-89769018D03*
X197189378Y-88322009D03*
X235077000Y-106299000D03*
X235165987Y-109474000D03*
X236596414Y-105833010D03*
X236766013Y-109474000D03*
X236083010Y-106680000D03*
X235966000Y-109474000D03*
X188849000Y-111506000D03*
X235712000Y-112268000D03*
X240284000Y-108712000D03*
X239522000Y-102870000D03*
X238760000Y-102616000D03*
X239014000Y-109474000D03*
X233622821Y-95343043D03*
X238215999Y-109417316D03*
X201518510Y-99939010D03*
X201134241Y-97211959D03*
X236220000Y-86868000D03*
X243332000Y-88392000D03*
X231267000Y-105537000D03*
X230505000Y-104902000D03*
X224790000Y-103632000D03*
X223026126Y-104080031D03*
X222250000Y-103886000D03*
D22*
X213169500Y-89471500D02*
X211836000Y-89471500D01*
X213614000Y-89027000D02*
X213169500Y-89471500D01*
X213614000Y-88011000D02*
X213614000Y-89027000D01*
X218632136Y-94003001D02*
X214272001Y-94003001D01*
X212725000Y-87122000D02*
X213614000Y-88011000D01*
X216916000Y-87630000D02*
X218567000Y-87630000D01*
X211963000Y-87122000D02*
X212725000Y-87122000D01*
X191770000Y-88265000D02*
X191770000Y-90043000D01*
X197747989Y-102751989D02*
X197747989Y-104307966D01*
X194871306Y-99875306D02*
X194871306Y-99636593D01*
X197747989Y-102751989D02*
X194871306Y-99875306D01*
D23*
X248666000Y-101666000D02*
X248666000Y-110490000D01*
X248666000Y-92964000D02*
X248666000Y-101666000D01*
X250000000Y-102000000D02*
X249000000Y-102000000D01*
X249000000Y-102000000D02*
X248666000Y-101666000D01*
X233564011Y-104783204D02*
X233564011Y-110351989D01*
X233564011Y-110351989D02*
X233426000Y-110490000D01*
X227330000Y-100076000D02*
X228856807Y-100076000D01*
X228856807Y-100076000D02*
X233564011Y-104783204D01*
X233426000Y-110490000D02*
X248666000Y-110490000D01*
X227330000Y-110490000D02*
X233426000Y-110490000D01*
X227330000Y-110490000D02*
X228602807Y-110490000D01*
X224028000Y-102743000D02*
X220218000Y-102743000D01*
X226695000Y-100076000D02*
X224028000Y-102743000D01*
X227330000Y-100076000D02*
X226695000Y-100076000D01*
D22*
X198611989Y-101887989D02*
X202885051Y-101887989D01*
X197747989Y-102751989D02*
X198611989Y-101887989D01*
X206982043Y-82323957D02*
X229599955Y-82323957D01*
D24*
X206756000Y-87630000D02*
X205994000Y-86868000D01*
D22*
X205994000Y-85090000D02*
X205994000Y-83312000D01*
D23*
X176784000Y-98552000D02*
X178562000Y-96774000D01*
D22*
X241808000Y-92964000D02*
X248666000Y-92964000D01*
D23*
X176784000Y-109728000D02*
X176784000Y-98552000D01*
D22*
X232495999Y-85220001D02*
X233803999Y-85220001D01*
X228092000Y-90424000D02*
X230465991Y-88050009D01*
X205994000Y-83312000D02*
X206982043Y-82323957D01*
D24*
X205994000Y-86868000D02*
X205994000Y-85090000D01*
D23*
X177839601Y-110783601D02*
X176784000Y-109728000D01*
D22*
X230465991Y-88050009D02*
X231482913Y-88050009D01*
D23*
X248666000Y-90170000D02*
X248666000Y-92964000D01*
D22*
X227330000Y-100076000D02*
X223774000Y-96520000D01*
X233803999Y-85220001D02*
X237744000Y-81280000D01*
X223774000Y-96520000D02*
X223266000Y-96520000D01*
X237744000Y-81280000D02*
X238942000Y-81280000D01*
X229599955Y-82323957D02*
X232495999Y-85220001D01*
D23*
X182880000Y-110490000D02*
X227330000Y-110490000D01*
X181864000Y-109220000D02*
X181864000Y-109474000D01*
X181864000Y-109474000D02*
X182880000Y-110490000D01*
D22*
X181864000Y-109728000D02*
X182626000Y-110490000D01*
D23*
X182880000Y-110490000D02*
X182586399Y-110783601D01*
X182586399Y-110783601D02*
X177839601Y-110783601D01*
X261620000Y-104140000D02*
X261620000Y-106680000D01*
X248666000Y-110490000D02*
X260350000Y-110490000D01*
X260350000Y-110490000D02*
X261620000Y-109220000D01*
D22*
X181864000Y-109220000D02*
X181864000Y-109728000D01*
X255778000Y-87884000D02*
X254762000Y-86868000D01*
D23*
X261620000Y-109220000D02*
X261620000Y-106680000D01*
D24*
X224790000Y-99441000D02*
X224456932Y-99107932D01*
X224456932Y-99107932D02*
X224456932Y-99052428D01*
X238888003Y-83109999D02*
X236656477Y-83109999D01*
X255963999Y-82480001D02*
X254763998Y-81280000D01*
X208941684Y-82848968D02*
X207345390Y-84445262D01*
X222432504Y-97028000D02*
X217424000Y-97028000D01*
X207345390Y-84445262D02*
X207345390Y-85734738D01*
X215909999Y-85334001D02*
X215909999Y-88573471D01*
X259839999Y-82480001D02*
X255963999Y-82480001D01*
X236656477Y-83109999D02*
X234021464Y-85745012D01*
X232278533Y-85745012D02*
X229382490Y-82848968D01*
X224456932Y-99052428D02*
X222432504Y-97028000D01*
X214812990Y-86431010D02*
X216154000Y-85090000D01*
X215909999Y-88573471D02*
X216690517Y-89353989D01*
X207345390Y-85734738D02*
X208041662Y-86431010D01*
X254763998Y-81280000D02*
X240718002Y-81280000D01*
X234021464Y-85745012D02*
X232278533Y-85745012D01*
X261040000Y-81280000D02*
X259839999Y-82480001D01*
X240718002Y-81280000D02*
X238888003Y-83109999D01*
X208041662Y-86431010D02*
X214812990Y-86431010D01*
X216154000Y-85090000D02*
X215909999Y-85334001D01*
X229382490Y-82848968D02*
X208941684Y-82848968D01*
X217208239Y-83748990D02*
X226857543Y-93398294D01*
X226857543Y-93398294D02*
X227281807Y-93398294D01*
X214955010Y-83748990D02*
X217208239Y-83748990D01*
X213614000Y-85090000D02*
X214955010Y-83748990D01*
X217918979Y-83298979D02*
X210325021Y-83298979D01*
X226060000Y-91440000D02*
X217918979Y-83298979D01*
X210325021Y-83298979D02*
X208534000Y-85090000D01*
X206424532Y-88694121D02*
X212828244Y-88694121D01*
X193548000Y-81788000D02*
X195129989Y-83369989D01*
X201100400Y-83369989D02*
X206424532Y-88694121D01*
X195129989Y-83369989D02*
X201100400Y-83369989D01*
X217454530Y-89915116D02*
X217154531Y-90215115D01*
X217154531Y-90215115D02*
X207309115Y-90215115D01*
X207309115Y-90215115D02*
X200914000Y-83820000D01*
X193040000Y-83820000D02*
X191008000Y-81788000D01*
X200914000Y-83820000D02*
X193040000Y-83820000D01*
X228201991Y-93362009D02*
X228201991Y-92238533D01*
X228201991Y-92238533D02*
X236101348Y-84339176D01*
X236101348Y-84339176D02*
X236311198Y-84339176D01*
X225806000Y-95758000D02*
X228201991Y-93362009D01*
X237444001Y-93934001D02*
X228555001Y-93934001D01*
X221234000Y-93472000D02*
X219964000Y-94742000D01*
X219964000Y-94742000D02*
X212344000Y-94742000D01*
X226106001Y-96383001D02*
X224968266Y-96383001D01*
X237744000Y-94234000D02*
X237444001Y-93934001D01*
X228555001Y-93934001D02*
X226106001Y-96383001D01*
X224968266Y-96383001D02*
X224632683Y-96047418D01*
X203200000Y-87630000D02*
X200660000Y-87630000D01*
X203962000Y-88392000D02*
X203200000Y-87630000D01*
X228804607Y-94555987D02*
X226468307Y-96892287D01*
X237087402Y-94555987D02*
X228804607Y-94555987D01*
X243078000Y-96774000D02*
X239305415Y-96774000D01*
X239305415Y-96774000D02*
X237087402Y-94555987D01*
X176928416Y-95422416D02*
X225216582Y-95422416D01*
X225905099Y-94518395D02*
X225605100Y-94218396D01*
X176784000Y-95278000D02*
X176928416Y-95422416D01*
X225905099Y-94733899D02*
X225905099Y-94518395D01*
X225216582Y-95422416D02*
X225905099Y-94733899D01*
X176784000Y-92738000D02*
X222995386Y-92738000D01*
X222995386Y-92738000D02*
X225006242Y-94748856D01*
X176784000Y-90198000D02*
X177945002Y-89036998D01*
X223342419Y-90874009D02*
X225980160Y-93511750D01*
X177945002Y-89036998D02*
X186482002Y-89036998D01*
X188319013Y-90874009D02*
X223342419Y-90874009D01*
X186482002Y-89036998D02*
X188319013Y-90874009D01*
X197189378Y-88322009D02*
X197189378Y-89769018D01*
X197189378Y-89769018D02*
X197189378Y-89769018D01*
X197189378Y-89769018D02*
X197186376Y-89772020D01*
X235077000Y-106299000D02*
X235077000Y-109385013D01*
X235077000Y-109385013D02*
X235165987Y-109474000D01*
X236896413Y-109343600D02*
X236766013Y-109474000D01*
X236896413Y-106133009D02*
X236896413Y-109343600D01*
X236596414Y-105833010D02*
X236896413Y-106133009D01*
X184500000Y-100850000D02*
X184500000Y-107350000D01*
X235966000Y-109474000D02*
X235966000Y-106797010D01*
X235966000Y-106797010D02*
X236083010Y-106680000D01*
X234950000Y-113030000D02*
X235712000Y-112268000D01*
X190373000Y-113030000D02*
X234950000Y-113030000D01*
X188849000Y-111506000D02*
X190373000Y-113030000D01*
X239522000Y-102870000D02*
X239522000Y-107950000D01*
X239522000Y-107950000D02*
X240284000Y-108712000D01*
X238760000Y-102616000D02*
X238760000Y-108966000D01*
X238760000Y-108966000D02*
X239014000Y-109220000D01*
X239014000Y-109220000D02*
X239014000Y-109474000D01*
X237916000Y-96020996D02*
X236901002Y-95005998D01*
X233959866Y-95005998D02*
X233622821Y-95343043D01*
X238215999Y-109417316D02*
X237916000Y-109117317D01*
X236901002Y-95005998D02*
X233959866Y-95005998D01*
X237916000Y-109117317D02*
X237916000Y-96020996D01*
X201518510Y-99939010D02*
X201134241Y-99554741D01*
X201134241Y-99554741D02*
X201134241Y-97211959D01*
D22*
X241554000Y-86868000D02*
X243078000Y-88392000D01*
X243078000Y-88392000D02*
X243332000Y-88392000D01*
X236220000Y-86868000D02*
X241554000Y-86868000D01*
D24*
X209620000Y-103600000D02*
X210697630Y-103600000D01*
X230689991Y-106114009D02*
X231267000Y-105537000D01*
X213211639Y-106114009D02*
X230689991Y-106114009D01*
X210697630Y-103600000D02*
X213211639Y-106114009D01*
X213437213Y-105490033D02*
X229916967Y-105490033D01*
X207080000Y-103600000D02*
X208167001Y-102512999D01*
X210460179Y-102512999D02*
X213437213Y-105490033D01*
X208167001Y-102512999D02*
X210460179Y-102512999D01*
X229916967Y-105490033D02*
X230505000Y-104902000D01*
X223984736Y-104437264D02*
X224790000Y-103632000D01*
X223774000Y-104437264D02*
X223984736Y-104437264D01*
X204540000Y-103600000D02*
X206077012Y-102062988D01*
X206077012Y-102062988D02*
X210773578Y-102062988D01*
X210773578Y-102062988D02*
X213750612Y-105040022D01*
X223171242Y-105040022D02*
X223774000Y-104437264D01*
X213750612Y-105040022D02*
X223171242Y-105040022D01*
X202979410Y-103600000D02*
X204966433Y-101612977D01*
X222516146Y-104590011D02*
X223026126Y-104080031D01*
X204966433Y-101612977D02*
X211212566Y-101612977D01*
X211212566Y-101612977D02*
X214189600Y-104590011D01*
X214189600Y-104590011D02*
X222516146Y-104590011D01*
X202000000Y-103600000D02*
X202979410Y-103600000D01*
X200547001Y-102512999D02*
X199460000Y-103600000D01*
X214122000Y-103886000D02*
X211398966Y-101162966D01*
X211398966Y-101162966D02*
X204780032Y-101162968D01*
X204780032Y-101162968D02*
X203430001Y-102512999D01*
X203430001Y-102512999D02*
X200547001Y-102512999D01*
X222250000Y-103886000D02*
X214122000Y-103886000D01*
D25*
X274337146Y-83679312D02*
X274310180Y-83664898D01*
X274190482Y-83628588D01*
X274066000Y-83616328D01*
X273335750Y-83619400D01*
X273177000Y-83778150D01*
X273177000Y-84991000D01*
X273197000Y-84991000D01*
X273197000Y-85245000D01*
X273177000Y-85245000D01*
X273177000Y-87531000D01*
X273197000Y-87531000D01*
X273197000Y-87785000D01*
X273177000Y-87785000D01*
X273177000Y-90071000D01*
X273197000Y-90071000D01*
X273197000Y-90325000D01*
X273177000Y-90325000D01*
X273177000Y-92611000D01*
X273197000Y-92611000D01*
X273197000Y-92865000D01*
X273177000Y-92865000D01*
X273177000Y-95151000D01*
X273197000Y-95151000D01*
X273197000Y-95405000D01*
X273177000Y-95405000D01*
X273177000Y-96618925D01*
X273411914Y-96763185D01*
X273697633Y-96693773D01*
X273964321Y-96569954D01*
X274201729Y-96396486D01*
X274327385Y-96259813D01*
X274295513Y-137340000D01*
X175660000Y-137340000D01*
X175660000Y-134814344D01*
X176115000Y-134814344D01*
X176115000Y-135185656D01*
X176187439Y-135549834D01*
X176329534Y-135892882D01*
X176535825Y-136201618D01*
X176798382Y-136464175D01*
X177107118Y-136670466D01*
X177450166Y-136812561D01*
X177814344Y-136885000D01*
X178185656Y-136885000D01*
X178549834Y-136812561D01*
X178892882Y-136670466D01*
X179201618Y-136464175D01*
X179464175Y-136201618D01*
X179670466Y-135892882D01*
X179754777Y-135689335D01*
X183265000Y-135689335D01*
X183265000Y-136110664D01*
X183282870Y-136292101D01*
X183353489Y-136524900D01*
X183468167Y-136739448D01*
X183622498Y-136927502D01*
X183810551Y-137081833D01*
X184025099Y-137196511D01*
X184257898Y-137267130D01*
X184500000Y-137290975D01*
X184742101Y-137267130D01*
X184974900Y-137196511D01*
X185189448Y-137081833D01*
X185377502Y-136927502D01*
X185531833Y-136739449D01*
X185646511Y-136524901D01*
X185717130Y-136292102D01*
X185724166Y-136220664D01*
X187775440Y-136220664D01*
X187832264Y-136456285D01*
X187933964Y-136676292D01*
X188076631Y-136872231D01*
X188254783Y-137036572D01*
X188461573Y-137163000D01*
X188682391Y-137243462D01*
X188873000Y-137118731D01*
X188873000Y-136027000D01*
X189127000Y-136027000D01*
X189127000Y-137118731D01*
X189317609Y-137243462D01*
X189538427Y-137163000D01*
X189745217Y-137036572D01*
X189923369Y-136872231D01*
X190066036Y-136676292D01*
X190167736Y-136456285D01*
X190224560Y-136220664D01*
X213775440Y-136220664D01*
X213832264Y-136456285D01*
X213933964Y-136676292D01*
X214076631Y-136872231D01*
X214254783Y-137036572D01*
X214461573Y-137163000D01*
X214682391Y-137243462D01*
X214873000Y-137118731D01*
X214873000Y-136027000D01*
X215127000Y-136027000D01*
X215127000Y-137118731D01*
X215317609Y-137243462D01*
X215538427Y-137163000D01*
X215745217Y-137036572D01*
X215923369Y-136872231D01*
X216066036Y-136676292D01*
X216167736Y-136456285D01*
X216224560Y-136220664D01*
X216077431Y-136027000D01*
X215127000Y-136027000D01*
X214873000Y-136027000D01*
X213922569Y-136027000D01*
X213775440Y-136220664D01*
X190224560Y-136220664D01*
X190077431Y-136027000D01*
X189127000Y-136027000D01*
X188873000Y-136027000D01*
X187922569Y-136027000D01*
X187775440Y-136220664D01*
X185724166Y-136220664D01*
X185735000Y-136110665D01*
X185735000Y-135689336D01*
X185724166Y-135579336D01*
X187775440Y-135579336D01*
X187922569Y-135773000D01*
X188873000Y-135773000D01*
X188873000Y-134681269D01*
X189127000Y-134681269D01*
X189127000Y-135773000D01*
X190077431Y-135773000D01*
X190224560Y-135579336D01*
X213775440Y-135579336D01*
X213922569Y-135773000D01*
X214873000Y-135773000D01*
X214873000Y-134681269D01*
X215127000Y-134681269D01*
X215127000Y-135773000D01*
X216077431Y-135773000D01*
X216140991Y-135689336D01*
X218265000Y-135689336D01*
X218265000Y-136110665D01*
X218282870Y-136292102D01*
X218353489Y-136524901D01*
X218468168Y-136739449D01*
X218622499Y-136927502D01*
X218810552Y-137081833D01*
X219025100Y-137196511D01*
X219257899Y-137267130D01*
X219500000Y-137290975D01*
X219742102Y-137267130D01*
X219974901Y-137196511D01*
X220189449Y-137081833D01*
X220377502Y-136927502D01*
X220531833Y-136739448D01*
X220646511Y-136524900D01*
X220717130Y-136292101D01*
X220735000Y-136110664D01*
X220735000Y-135689335D01*
X220717130Y-135507898D01*
X220646511Y-135275099D01*
X220531833Y-135060551D01*
X220377502Y-134872498D01*
X220306641Y-134814344D01*
X270115000Y-134814344D01*
X270115000Y-135185656D01*
X270187439Y-135549834D01*
X270329534Y-135892882D01*
X270535825Y-136201618D01*
X270798382Y-136464175D01*
X271107118Y-136670466D01*
X271450166Y-136812561D01*
X271814344Y-136885000D01*
X272185656Y-136885000D01*
X272549834Y-136812561D01*
X272892882Y-136670466D01*
X273201618Y-136464175D01*
X273464175Y-136201618D01*
X273670466Y-135892882D01*
X273812561Y-135549834D01*
X273885000Y-135185656D01*
X273885000Y-134814344D01*
X273812561Y-134450166D01*
X273670466Y-134107118D01*
X273464175Y-133798382D01*
X273201618Y-133535825D01*
X272892882Y-133329534D01*
X272549834Y-133187439D01*
X272185656Y-133115000D01*
X271814344Y-133115000D01*
X271450166Y-133187439D01*
X271107118Y-133329534D01*
X270798382Y-133535825D01*
X270535825Y-133798382D01*
X270329534Y-134107118D01*
X270187439Y-134450166D01*
X270115000Y-134814344D01*
X220306641Y-134814344D01*
X220189448Y-134718167D01*
X219974900Y-134603489D01*
X219742101Y-134532870D01*
X219500000Y-134509025D01*
X219257898Y-134532870D01*
X219025099Y-134603489D01*
X218810551Y-134718167D01*
X218622498Y-134872498D01*
X218468167Y-135060552D01*
X218353489Y-135275100D01*
X218282870Y-135507899D01*
X218265000Y-135689336D01*
X216140991Y-135689336D01*
X216224560Y-135579336D01*
X216167736Y-135343715D01*
X216066036Y-135123708D01*
X215923369Y-134927769D01*
X215745217Y-134763428D01*
X215538427Y-134637000D01*
X215317609Y-134556538D01*
X215127000Y-134681269D01*
X214873000Y-134681269D01*
X214682391Y-134556538D01*
X214461573Y-134637000D01*
X214254783Y-134763428D01*
X214076631Y-134927769D01*
X213933964Y-135123708D01*
X213832264Y-135343715D01*
X213775440Y-135579336D01*
X190224560Y-135579336D01*
X190167736Y-135343715D01*
X190066036Y-135123708D01*
X189923369Y-134927769D01*
X189745217Y-134763428D01*
X189538427Y-134637000D01*
X189317609Y-134556538D01*
X189127000Y-134681269D01*
X188873000Y-134681269D01*
X188682391Y-134556538D01*
X188461573Y-134637000D01*
X188254783Y-134763428D01*
X188076631Y-134927769D01*
X187933964Y-135123708D01*
X187832264Y-135343715D01*
X187775440Y-135579336D01*
X185724166Y-135579336D01*
X185717130Y-135507899D01*
X185646511Y-135275100D01*
X185531833Y-135060552D01*
X185377502Y-134872498D01*
X185189449Y-134718167D01*
X184974901Y-134603489D01*
X184742102Y-134532870D01*
X184500000Y-134509025D01*
X184257899Y-134532870D01*
X184025100Y-134603489D01*
X183810552Y-134718167D01*
X183622499Y-134872498D01*
X183468168Y-135060551D01*
X183353489Y-135275099D01*
X183282870Y-135507898D01*
X183265000Y-135689335D01*
X179754777Y-135689335D01*
X179812561Y-135549834D01*
X179885000Y-135185656D01*
X179885000Y-134814344D01*
X179812561Y-134450166D01*
X179670466Y-134107118D01*
X179464175Y-133798382D01*
X179201618Y-133535825D01*
X178892882Y-133329534D01*
X178549834Y-133187439D01*
X178185656Y-133115000D01*
X177814344Y-133115000D01*
X177450166Y-133187439D01*
X177107118Y-133329534D01*
X176798382Y-133535825D01*
X176535825Y-133798382D01*
X176329534Y-134107118D01*
X176187439Y-134450166D01*
X176115000Y-134814344D01*
X175660000Y-134814344D01*
X175660000Y-129189335D01*
X183265000Y-129189335D01*
X183265000Y-129610664D01*
X183282870Y-129792101D01*
X183353489Y-130024900D01*
X183468167Y-130239448D01*
X183622498Y-130427502D01*
X183810551Y-130581833D01*
X184025099Y-130696511D01*
X184257898Y-130767130D01*
X184500000Y-130790975D01*
X184742101Y-130767130D01*
X184974900Y-130696511D01*
X185189448Y-130581833D01*
X185377502Y-130427502D01*
X185531833Y-130239449D01*
X185646511Y-130024901D01*
X185717130Y-129792102D01*
X185724166Y-129720664D01*
X187775440Y-129720664D01*
X187832264Y-129956285D01*
X187933964Y-130176292D01*
X188076631Y-130372231D01*
X188254783Y-130536572D01*
X188461573Y-130663000D01*
X188682391Y-130743462D01*
X188873000Y-130618731D01*
X188873000Y-129527000D01*
X189127000Y-129527000D01*
X189127000Y-130618731D01*
X189317609Y-130743462D01*
X189538427Y-130663000D01*
X189745217Y-130536572D01*
X189923369Y-130372231D01*
X190066036Y-130176292D01*
X190167736Y-129956285D01*
X190224560Y-129720664D01*
X213775440Y-129720664D01*
X213832264Y-129956285D01*
X213933964Y-130176292D01*
X214076631Y-130372231D01*
X214254783Y-130536572D01*
X214461573Y-130663000D01*
X214682391Y-130743462D01*
X214873000Y-130618731D01*
X214873000Y-129527000D01*
X215127000Y-129527000D01*
X215127000Y-130618731D01*
X215317609Y-130743462D01*
X215538427Y-130663000D01*
X215745217Y-130536572D01*
X215923369Y-130372231D01*
X216066036Y-130176292D01*
X216167736Y-129956285D01*
X216224560Y-129720664D01*
X216077431Y-129527000D01*
X215127000Y-129527000D01*
X214873000Y-129527000D01*
X213922569Y-129527000D01*
X213775440Y-129720664D01*
X190224560Y-129720664D01*
X190077431Y-129527000D01*
X189127000Y-129527000D01*
X188873000Y-129527000D01*
X187922569Y-129527000D01*
X187775440Y-129720664D01*
X185724166Y-129720664D01*
X185735000Y-129610665D01*
X185735000Y-129189336D01*
X185724166Y-129079336D01*
X187775440Y-129079336D01*
X187922569Y-129273000D01*
X188873000Y-129273000D01*
X188873000Y-128181269D01*
X189127000Y-128181269D01*
X189127000Y-129273000D01*
X190077431Y-129273000D01*
X190224560Y-129079336D01*
X213775440Y-129079336D01*
X213922569Y-129273000D01*
X214873000Y-129273000D01*
X214873000Y-128181269D01*
X215127000Y-128181269D01*
X215127000Y-129273000D01*
X216077431Y-129273000D01*
X216140991Y-129189336D01*
X218265000Y-129189336D01*
X218265000Y-129610665D01*
X218282870Y-129792102D01*
X218353489Y-130024901D01*
X218468168Y-130239449D01*
X218622499Y-130427502D01*
X218810552Y-130581833D01*
X219025100Y-130696511D01*
X219257899Y-130767130D01*
X219500000Y-130790975D01*
X219742102Y-130767130D01*
X219974901Y-130696511D01*
X220189449Y-130581833D01*
X220377502Y-130427502D01*
X220531833Y-130239448D01*
X220646511Y-130024900D01*
X220717130Y-129792101D01*
X220735000Y-129610664D01*
X220735000Y-129189335D01*
X220717130Y-129007898D01*
X220646511Y-128775099D01*
X220531833Y-128560551D01*
X220377502Y-128372498D01*
X220189448Y-128218167D01*
X219974900Y-128103489D01*
X219742101Y-128032870D01*
X219500000Y-128009025D01*
X219257898Y-128032870D01*
X219025099Y-128103489D01*
X218810551Y-128218167D01*
X218622498Y-128372498D01*
X218468167Y-128560552D01*
X218353489Y-128775100D01*
X218282870Y-129007899D01*
X218265000Y-129189336D01*
X216140991Y-129189336D01*
X216224560Y-129079336D01*
X216167736Y-128843715D01*
X216066036Y-128623708D01*
X215923369Y-128427769D01*
X215745217Y-128263428D01*
X215538427Y-128137000D01*
X215317609Y-128056538D01*
X215127000Y-128181269D01*
X214873000Y-128181269D01*
X214682391Y-128056538D01*
X214461573Y-128137000D01*
X214254783Y-128263428D01*
X214076631Y-128427769D01*
X213933964Y-128623708D01*
X213832264Y-128843715D01*
X213775440Y-129079336D01*
X190224560Y-129079336D01*
X190167736Y-128843715D01*
X190066036Y-128623708D01*
X189923369Y-128427769D01*
X189745217Y-128263428D01*
X189538427Y-128137000D01*
X189317609Y-128056538D01*
X189127000Y-128181269D01*
X188873000Y-128181269D01*
X188682391Y-128056538D01*
X188461573Y-128137000D01*
X188254783Y-128263428D01*
X188076631Y-128427769D01*
X187933964Y-128623708D01*
X187832264Y-128843715D01*
X187775440Y-129079336D01*
X185724166Y-129079336D01*
X185717130Y-129007899D01*
X185646511Y-128775100D01*
X185531833Y-128560552D01*
X185377502Y-128372498D01*
X185189449Y-128218167D01*
X184974901Y-128103489D01*
X184742102Y-128032870D01*
X184500000Y-128009025D01*
X184257899Y-128032870D01*
X184025100Y-128103489D01*
X183810552Y-128218167D01*
X183622499Y-128372498D01*
X183468168Y-128560551D01*
X183353489Y-128775099D01*
X183282870Y-129007898D01*
X183265000Y-129189335D01*
X175660000Y-129189335D01*
X175660000Y-109895437D01*
X175665423Y-109950498D01*
X175730324Y-110164446D01*
X175835716Y-110361623D01*
X175977551Y-110534449D01*
X176020864Y-110569996D01*
X176997609Y-111546741D01*
X177033152Y-111590050D01*
X177205978Y-111731885D01*
X177403154Y-111837277D01*
X177617102Y-111902178D01*
X177783849Y-111918601D01*
X177783858Y-111918601D01*
X177839600Y-111924091D01*
X177895342Y-111918601D01*
X182530648Y-111918601D01*
X182586399Y-111924092D01*
X182642150Y-111918601D01*
X182642151Y-111918601D01*
X182808898Y-111902178D01*
X183022846Y-111837277D01*
X183220022Y-111731885D01*
X183350261Y-111625000D01*
X187919353Y-111625000D01*
X187949932Y-111778729D01*
X188020414Y-111948889D01*
X188122738Y-112102028D01*
X188252972Y-112232262D01*
X188406111Y-112334586D01*
X188576271Y-112405068D01*
X188697351Y-112429153D01*
X189809205Y-113541008D01*
X189832999Y-113570001D01*
X189861992Y-113593795D01*
X189861996Y-113593799D01*
X189932685Y-113651811D01*
X189948724Y-113664974D01*
X190080753Y-113735546D01*
X190224014Y-113779003D01*
X190335667Y-113790000D01*
X190335676Y-113790000D01*
X190372999Y-113793676D01*
X190410322Y-113790000D01*
X234912678Y-113790000D01*
X234950000Y-113793676D01*
X234987322Y-113790000D01*
X234987333Y-113790000D01*
X235098986Y-113779003D01*
X235242247Y-113735546D01*
X235374276Y-113664974D01*
X235490001Y-113570001D01*
X235513803Y-113540998D01*
X235863649Y-113191153D01*
X235984729Y-113167068D01*
X236154889Y-113096586D01*
X236308028Y-112994262D01*
X236438262Y-112864028D01*
X236540586Y-112710889D01*
X236611068Y-112540729D01*
X236647000Y-112360089D01*
X236647000Y-112175911D01*
X236611068Y-111995271D01*
X236540586Y-111825111D01*
X236438262Y-111671972D01*
X236391290Y-111625000D01*
X248610249Y-111625000D01*
X248666000Y-111630491D01*
X248721752Y-111625000D01*
X260294249Y-111625000D01*
X260350000Y-111630491D01*
X260405751Y-111625000D01*
X260405752Y-111625000D01*
X260572499Y-111608577D01*
X260786447Y-111543676D01*
X260983623Y-111438284D01*
X261156449Y-111296449D01*
X261191996Y-111253135D01*
X261723459Y-110721672D01*
X262483600Y-110721672D01*
X262608082Y-110709412D01*
X262727780Y-110673102D01*
X262838094Y-110614137D01*
X262934785Y-110534785D01*
X263014137Y-110438094D01*
X263073102Y-110327780D01*
X263090636Y-110269977D01*
X263204698Y-110384039D01*
X263450147Y-110548042D01*
X263722875Y-110661010D01*
X264012401Y-110718600D01*
X264307599Y-110718600D01*
X264597125Y-110661010D01*
X264869853Y-110548042D01*
X265115302Y-110384039D01*
X265324039Y-110175302D01*
X265488042Y-109929853D01*
X265601010Y-109657125D01*
X265658600Y-109367599D01*
X265658600Y-109072401D01*
X265601010Y-108782875D01*
X265488042Y-108510147D01*
X265324039Y-108264698D01*
X265115302Y-108055961D01*
X264956719Y-107950000D01*
X265115302Y-107844039D01*
X265324039Y-107635302D01*
X265488042Y-107389853D01*
X265601010Y-107117125D01*
X265658600Y-106827599D01*
X265658600Y-106532401D01*
X265601010Y-106242875D01*
X265488042Y-105970147D01*
X265324039Y-105724698D01*
X265115302Y-105515961D01*
X264956719Y-105410000D01*
X265115302Y-105304039D01*
X265324039Y-105095302D01*
X265488042Y-104849853D01*
X265601010Y-104577125D01*
X265658600Y-104287599D01*
X265658600Y-103992401D01*
X265601010Y-103702875D01*
X265488042Y-103430147D01*
X265324039Y-103184698D01*
X265115302Y-102975961D01*
X264956719Y-102870000D01*
X265115302Y-102764039D01*
X265324039Y-102555302D01*
X265488042Y-102309853D01*
X265601010Y-102037125D01*
X265658600Y-101747599D01*
X265658600Y-101452401D01*
X265601010Y-101162875D01*
X265488042Y-100890147D01*
X265324039Y-100644698D01*
X265115302Y-100435961D01*
X264956719Y-100330000D01*
X265115302Y-100224039D01*
X265324039Y-100015302D01*
X265488042Y-99769853D01*
X265601010Y-99497125D01*
X265658600Y-99207599D01*
X265658600Y-98912401D01*
X265601010Y-98622875D01*
X265488042Y-98350147D01*
X265324039Y-98104698D01*
X265115302Y-97895961D01*
X264869853Y-97731958D01*
X264597125Y-97618990D01*
X264307599Y-97561400D01*
X264012401Y-97561400D01*
X263722875Y-97618990D01*
X263450147Y-97731958D01*
X263204698Y-97895961D01*
X262995961Y-98104698D01*
X262885441Y-98270103D01*
X262826817Y-98171512D01*
X262630293Y-97953146D01*
X262394944Y-97777316D01*
X262129814Y-97650778D01*
X261979026Y-97605042D01*
X261747000Y-97726183D01*
X261747000Y-98933000D01*
X261767000Y-98933000D01*
X261767000Y-99187000D01*
X261747000Y-99187000D01*
X261747000Y-101473000D01*
X261767000Y-101473000D01*
X261767000Y-101727000D01*
X261747000Y-101727000D01*
X261747000Y-101747000D01*
X261493000Y-101747000D01*
X261493000Y-101727000D01*
X260285536Y-101727000D01*
X260165037Y-101959027D01*
X260263036Y-102235978D01*
X260413183Y-102488488D01*
X260609707Y-102706854D01*
X260825813Y-102868308D01*
X260664698Y-102975961D01*
X260455961Y-103184698D01*
X260291958Y-103430147D01*
X260178990Y-103702875D01*
X260121400Y-103992401D01*
X260121400Y-104287599D01*
X260178990Y-104577125D01*
X260291958Y-104849853D01*
X260455961Y-105095302D01*
X260485000Y-105124341D01*
X260485001Y-105695658D01*
X260455961Y-105724698D01*
X260291958Y-105970147D01*
X260178990Y-106242875D01*
X260121400Y-106532401D01*
X260121400Y-106827599D01*
X260178990Y-107117125D01*
X260291958Y-107389853D01*
X260455961Y-107635302D01*
X260485001Y-107664342D01*
X260485001Y-107781447D01*
X260401906Y-107825863D01*
X260305215Y-107905215D01*
X260225863Y-108001906D01*
X260166898Y-108112220D01*
X260130588Y-108231918D01*
X260118328Y-108356400D01*
X260118328Y-109116541D01*
X259879869Y-109355000D01*
X249801000Y-109355000D01*
X249801000Y-103135000D01*
X250055752Y-103135000D01*
X250222499Y-103118577D01*
X250436447Y-103053676D01*
X250633623Y-102948284D01*
X250806449Y-102806449D01*
X250948284Y-102633623D01*
X251053676Y-102436447D01*
X251118577Y-102222499D01*
X251140491Y-102000000D01*
X251118577Y-101777501D01*
X251053676Y-101563553D01*
X250948284Y-101366377D01*
X250806449Y-101193551D01*
X250633623Y-101051716D01*
X250436447Y-100946324D01*
X250222499Y-100881423D01*
X250055752Y-100865000D01*
X249801000Y-100865000D01*
X249801000Y-99419027D01*
X260165037Y-99419027D01*
X260263036Y-99695978D01*
X260413183Y-99948488D01*
X260609707Y-100166854D01*
X260828078Y-100330000D01*
X260609707Y-100493146D01*
X260413183Y-100711512D01*
X260263036Y-100964022D01*
X260165037Y-101240973D01*
X260285536Y-101473000D01*
X261493000Y-101473000D01*
X261493000Y-99187000D01*
X260285536Y-99187000D01*
X260165037Y-99419027D01*
X249801000Y-99419027D01*
X249801000Y-98700973D01*
X260165037Y-98700973D01*
X260285536Y-98933000D01*
X261493000Y-98933000D01*
X261493000Y-97726183D01*
X261260974Y-97605042D01*
X261110186Y-97650778D01*
X260845056Y-97777316D01*
X260609707Y-97953146D01*
X260413183Y-98171512D01*
X260263036Y-98424022D01*
X260165037Y-98700973D01*
X249801000Y-98700973D01*
X249801000Y-95637026D01*
X271442642Y-95637026D01*
X271445291Y-95652789D01*
X271546314Y-95928919D01*
X271699267Y-96180035D01*
X271898271Y-96396486D01*
X272135679Y-96569954D01*
X272402367Y-96693773D01*
X272688086Y-96763185D01*
X272923000Y-96618925D01*
X272923000Y-95405000D01*
X271563783Y-95405000D01*
X271442642Y-95637026D01*
X249801000Y-95637026D01*
X249801000Y-93097026D01*
X271442642Y-93097026D01*
X271445291Y-93112789D01*
X271546314Y-93388919D01*
X271699267Y-93640035D01*
X271898271Y-93856486D01*
X272105633Y-94008000D01*
X271898271Y-94159514D01*
X271699267Y-94375965D01*
X271546314Y-94627081D01*
X271445291Y-94903211D01*
X271442642Y-94918974D01*
X271563783Y-95151000D01*
X272923000Y-95151000D01*
X272923000Y-92865000D01*
X271563783Y-92865000D01*
X271442642Y-93097026D01*
X249801000Y-93097026D01*
X249801000Y-90557026D01*
X271442642Y-90557026D01*
X271445291Y-90572789D01*
X271546314Y-90848919D01*
X271699267Y-91100035D01*
X271898271Y-91316486D01*
X272105633Y-91468000D01*
X271898271Y-91619514D01*
X271699267Y-91835965D01*
X271546314Y-92087081D01*
X271445291Y-92363211D01*
X271442642Y-92378974D01*
X271563783Y-92611000D01*
X272923000Y-92611000D01*
X272923000Y-90325000D01*
X271563783Y-90325000D01*
X271442642Y-90557026D01*
X249801000Y-90557026D01*
X249801000Y-90114248D01*
X249784577Y-89947501D01*
X249719676Y-89733553D01*
X249614284Y-89536377D01*
X249472449Y-89363551D01*
X249299623Y-89221716D01*
X249102446Y-89116324D01*
X248888498Y-89051423D01*
X248666000Y-89029509D01*
X248443501Y-89051423D01*
X248229553Y-89116324D01*
X248032377Y-89221716D01*
X247859551Y-89363551D01*
X247717716Y-89536377D01*
X247612324Y-89733554D01*
X247547423Y-89947502D01*
X247531000Y-90114249D01*
X247531001Y-92129000D01*
X242235404Y-92129000D01*
X242080729Y-92064932D01*
X241900089Y-92029000D01*
X241715911Y-92029000D01*
X241535271Y-92064932D01*
X241365111Y-92135414D01*
X241211972Y-92237738D01*
X241081738Y-92367972D01*
X240979414Y-92521111D01*
X240908932Y-92691271D01*
X240873000Y-92871911D01*
X240873000Y-93056089D01*
X240908932Y-93236729D01*
X240979414Y-93406889D01*
X241081738Y-93560028D01*
X241211972Y-93690262D01*
X241365111Y-93792586D01*
X241535271Y-93863068D01*
X241715911Y-93899000D01*
X241900089Y-93899000D01*
X242080729Y-93863068D01*
X242235404Y-93799000D01*
X247531000Y-93799000D01*
X247531001Y-101610239D01*
X247525509Y-101666000D01*
X247531000Y-101721752D01*
X247531001Y-109355000D01*
X240963290Y-109355000D01*
X241010262Y-109308028D01*
X241112586Y-109154889D01*
X241183068Y-108984729D01*
X241219000Y-108804089D01*
X241219000Y-108619911D01*
X241183068Y-108439271D01*
X241112586Y-108269111D01*
X241010262Y-108115972D01*
X240880028Y-107985738D01*
X240726889Y-107883414D01*
X240556729Y-107812932D01*
X240435649Y-107788847D01*
X240282000Y-107635199D01*
X240282000Y-103415535D01*
X240350586Y-103312889D01*
X240421068Y-103142729D01*
X240457000Y-102962089D01*
X240457000Y-102777911D01*
X240421068Y-102597271D01*
X240350586Y-102427111D01*
X240248262Y-102273972D01*
X240118028Y-102143738D01*
X239964889Y-102041414D01*
X239794729Y-101970932D01*
X239614089Y-101935000D01*
X239429911Y-101935000D01*
X239406039Y-101939749D01*
X239356028Y-101889738D01*
X239202889Y-101787414D01*
X239032729Y-101716932D01*
X238852089Y-101681000D01*
X238676000Y-101681000D01*
X238676000Y-97219387D01*
X238741616Y-97285003D01*
X238765414Y-97314001D01*
X238794412Y-97337799D01*
X238881138Y-97408974D01*
X238926879Y-97433423D01*
X239013168Y-97479546D01*
X239156429Y-97523003D01*
X239268082Y-97534000D01*
X239268091Y-97534000D01*
X239305414Y-97537676D01*
X239342737Y-97534000D01*
X242532465Y-97534000D01*
X242635111Y-97602586D01*
X242805271Y-97673068D01*
X242985911Y-97709000D01*
X243170089Y-97709000D01*
X243350729Y-97673068D01*
X243520889Y-97602586D01*
X243674028Y-97500262D01*
X243804262Y-97370028D01*
X243906586Y-97216889D01*
X243977068Y-97046729D01*
X244013000Y-96866089D01*
X244013000Y-96681911D01*
X243977068Y-96501271D01*
X243906586Y-96331111D01*
X243804262Y-96177972D01*
X243674028Y-96047738D01*
X243520889Y-95945414D01*
X243350729Y-95874932D01*
X243170089Y-95839000D01*
X242985911Y-95839000D01*
X242805271Y-95874932D01*
X242635111Y-95945414D01*
X242532465Y-96014000D01*
X239620217Y-96014000D01*
X238453253Y-94847037D01*
X238470262Y-94830028D01*
X238572586Y-94676889D01*
X238643068Y-94506729D01*
X238679000Y-94326089D01*
X238679000Y-94141911D01*
X238643068Y-93961271D01*
X238572586Y-93791111D01*
X238470262Y-93637972D01*
X238340028Y-93507738D01*
X238186889Y-93405414D01*
X238016729Y-93334932D01*
X237878531Y-93307442D01*
X237868277Y-93299027D01*
X237736248Y-93228455D01*
X237592987Y-93184998D01*
X237481334Y-93174001D01*
X237481323Y-93174001D01*
X237444001Y-93170325D01*
X237406679Y-93174001D01*
X228961991Y-93174001D01*
X228961991Y-92553334D01*
X234739414Y-86775911D01*
X235285000Y-86775911D01*
X235285000Y-86960089D01*
X235320932Y-87140729D01*
X235391414Y-87310889D01*
X235493738Y-87464028D01*
X235623972Y-87594262D01*
X235777111Y-87696586D01*
X235947271Y-87767068D01*
X236127911Y-87803000D01*
X236312089Y-87803000D01*
X236492729Y-87767068D01*
X236647404Y-87703000D01*
X241208133Y-87703000D01*
X242458559Y-88953426D01*
X242484709Y-88985291D01*
X242611854Y-89089636D01*
X242756913Y-89167172D01*
X242852622Y-89196205D01*
X242889111Y-89220586D01*
X243059271Y-89291068D01*
X243239911Y-89327000D01*
X243424089Y-89327000D01*
X243604729Y-89291068D01*
X243774889Y-89220586D01*
X243928028Y-89118262D01*
X244058262Y-88988028D01*
X244160586Y-88834889D01*
X244231068Y-88664729D01*
X244267000Y-88484089D01*
X244267000Y-88299911D01*
X244231068Y-88119271D01*
X244160586Y-87949111D01*
X244058262Y-87795972D01*
X243928028Y-87665738D01*
X243774889Y-87563414D01*
X243604729Y-87492932D01*
X243424089Y-87457000D01*
X243323868Y-87457000D01*
X242642779Y-86775911D01*
X253827000Y-86775911D01*
X253827000Y-86960089D01*
X253862932Y-87140729D01*
X253933414Y-87310889D01*
X254035738Y-87464028D01*
X254165972Y-87594262D01*
X254319111Y-87696586D01*
X254473787Y-87760654D01*
X254885346Y-88172214D01*
X254949414Y-88326889D01*
X255051738Y-88480028D01*
X255181972Y-88610262D01*
X255335111Y-88712586D01*
X255505271Y-88783068D01*
X255685911Y-88819000D01*
X255870089Y-88819000D01*
X256050729Y-88783068D01*
X256220889Y-88712586D01*
X256374028Y-88610262D01*
X256504262Y-88480028D01*
X256606586Y-88326889D01*
X256677068Y-88156729D01*
X256704857Y-88017026D01*
X271442642Y-88017026D01*
X271445291Y-88032789D01*
X271546314Y-88308919D01*
X271699267Y-88560035D01*
X271898271Y-88776486D01*
X272105633Y-88928000D01*
X271898271Y-89079514D01*
X271699267Y-89295965D01*
X271546314Y-89547081D01*
X271445291Y-89823211D01*
X271442642Y-89838974D01*
X271563783Y-90071000D01*
X272923000Y-90071000D01*
X272923000Y-87785000D01*
X271563783Y-87785000D01*
X271442642Y-88017026D01*
X256704857Y-88017026D01*
X256713000Y-87976089D01*
X256713000Y-87791911D01*
X256677068Y-87611271D01*
X256606586Y-87441111D01*
X256504262Y-87287972D01*
X256374028Y-87157738D01*
X256220889Y-87055414D01*
X256066214Y-86991346D01*
X255654654Y-86579787D01*
X255590586Y-86425111D01*
X255488262Y-86271972D01*
X255358028Y-86141738D01*
X255204889Y-86039414D01*
X255065313Y-85981600D01*
X271395928Y-85981600D01*
X271408188Y-86106082D01*
X271444498Y-86225780D01*
X271503463Y-86336094D01*
X271582815Y-86432785D01*
X271679506Y-86512137D01*
X271789820Y-86571102D01*
X271851912Y-86589937D01*
X271699267Y-86755965D01*
X271546314Y-87007081D01*
X271445291Y-87283211D01*
X271442642Y-87298974D01*
X271563783Y-87531000D01*
X272923000Y-87531000D01*
X272923000Y-85245000D01*
X271557750Y-85245000D01*
X271399000Y-85403750D01*
X271395928Y-85981600D01*
X255065313Y-85981600D01*
X255034729Y-85968932D01*
X254854089Y-85933000D01*
X254669911Y-85933000D01*
X254489271Y-85968932D01*
X254319111Y-86039414D01*
X254165972Y-86141738D01*
X254035738Y-86271972D01*
X253933414Y-86425111D01*
X253862932Y-86595271D01*
X253827000Y-86775911D01*
X242642779Y-86775911D01*
X242173446Y-86306579D01*
X242147291Y-86274709D01*
X242020146Y-86170364D01*
X241875087Y-86092828D01*
X241717689Y-86045082D01*
X241595019Y-86033000D01*
X241595018Y-86033000D01*
X241554000Y-86028960D01*
X241512982Y-86033000D01*
X236647404Y-86033000D01*
X236492729Y-85968932D01*
X236312089Y-85933000D01*
X236127911Y-85933000D01*
X235947271Y-85968932D01*
X235777111Y-86039414D01*
X235623972Y-86141738D01*
X235493738Y-86271972D01*
X235391414Y-86425111D01*
X235320932Y-86595271D01*
X235285000Y-86775911D01*
X234739414Y-86775911D01*
X236241150Y-85274176D01*
X236403287Y-85274176D01*
X236583927Y-85238244D01*
X236754087Y-85167762D01*
X236907226Y-85065438D01*
X237037460Y-84935204D01*
X237139784Y-84782065D01*
X237210266Y-84611905D01*
X237246198Y-84431265D01*
X237246198Y-84247087D01*
X237210266Y-84066447D01*
X237139784Y-83896287D01*
X237122219Y-83869999D01*
X238517000Y-83869999D01*
X238517000Y-83935958D01*
X238581754Y-84261496D01*
X238708772Y-84568147D01*
X238893175Y-84844125D01*
X239127875Y-85078825D01*
X239403853Y-85263228D01*
X239710504Y-85390246D01*
X240036042Y-85455000D01*
X240367958Y-85455000D01*
X240693496Y-85390246D01*
X241000147Y-85263228D01*
X241276125Y-85078825D01*
X241510825Y-84844125D01*
X241695228Y-84568147D01*
X241822246Y-84261496D01*
X241887000Y-83935958D01*
X241887000Y-83604042D01*
X241822246Y-83278504D01*
X241695228Y-82971853D01*
X241510825Y-82695875D01*
X241276125Y-82461175D01*
X241000147Y-82276772D01*
X240855816Y-82216989D01*
X241032805Y-82040000D01*
X254449197Y-82040000D01*
X254629114Y-82219917D01*
X254491853Y-82276772D01*
X254215875Y-82461175D01*
X253981175Y-82695875D01*
X253796772Y-82971853D01*
X253669754Y-83278504D01*
X253605000Y-83604042D01*
X253605000Y-83935958D01*
X253669754Y-84261496D01*
X253796772Y-84568147D01*
X253981175Y-84844125D01*
X254215875Y-85078825D01*
X254491853Y-85263228D01*
X254798504Y-85390246D01*
X255124042Y-85455000D01*
X255455958Y-85455000D01*
X255781496Y-85390246D01*
X256088147Y-85263228D01*
X256364125Y-85078825D01*
X256598825Y-84844125D01*
X256783228Y-84568147D01*
X256910246Y-84261496D01*
X256975000Y-83935958D01*
X256975000Y-83604042D01*
X256910246Y-83278504D01*
X256894298Y-83240001D01*
X259802677Y-83240001D01*
X259839999Y-83243677D01*
X259877321Y-83240001D01*
X259877332Y-83240001D01*
X259988985Y-83229004D01*
X260132246Y-83185547D01*
X260264275Y-83114975D01*
X260380000Y-83020002D01*
X260403803Y-82990998D01*
X260652331Y-82742470D01*
X260891278Y-82790000D01*
X260928283Y-82790000D01*
X260806772Y-82971853D01*
X260679754Y-83278504D01*
X260615000Y-83604042D01*
X260615000Y-83935958D01*
X260679754Y-84261496D01*
X260806772Y-84568147D01*
X260991175Y-84844125D01*
X261225875Y-85078825D01*
X261501853Y-85263228D01*
X261808504Y-85390246D01*
X262134042Y-85455000D01*
X262465958Y-85455000D01*
X262791496Y-85390246D01*
X263098147Y-85263228D01*
X263374125Y-85078825D01*
X263608825Y-84844125D01*
X263793228Y-84568147D01*
X263920246Y-84261496D01*
X263985000Y-83935958D01*
X263985000Y-83604042D01*
X263920246Y-83278504D01*
X263793228Y-82971853D01*
X263687984Y-82814344D01*
X266115000Y-82814344D01*
X266115000Y-83185656D01*
X266187439Y-83549834D01*
X266329534Y-83892882D01*
X266535825Y-84201618D01*
X266798382Y-84464175D01*
X267107118Y-84670466D01*
X267450166Y-84812561D01*
X267814344Y-84885000D01*
X268185656Y-84885000D01*
X268549834Y-84812561D01*
X268892882Y-84670466D01*
X269201618Y-84464175D01*
X269411393Y-84254400D01*
X271395928Y-84254400D01*
X271399000Y-84832250D01*
X271557750Y-84991000D01*
X272923000Y-84991000D01*
X272923000Y-83778150D01*
X272764250Y-83619400D01*
X272034000Y-83616328D01*
X271909518Y-83628588D01*
X271789820Y-83664898D01*
X271679506Y-83723863D01*
X271582815Y-83803215D01*
X271503463Y-83899906D01*
X271444498Y-84010220D01*
X271408188Y-84129918D01*
X271395928Y-84254400D01*
X269411393Y-84254400D01*
X269464175Y-84201618D01*
X269670466Y-83892882D01*
X269812561Y-83549834D01*
X269885000Y-83185656D01*
X269885000Y-82814344D01*
X269812561Y-82450166D01*
X269670466Y-82107118D01*
X269464175Y-81798382D01*
X269201618Y-81535825D01*
X268892882Y-81329534D01*
X268549834Y-81187439D01*
X268185656Y-81115000D01*
X267814344Y-81115000D01*
X267450166Y-81187439D01*
X267107118Y-81329534D01*
X266798382Y-81535825D01*
X266535825Y-81798382D01*
X266329534Y-82107118D01*
X266187439Y-82450166D01*
X266115000Y-82814344D01*
X263687984Y-82814344D01*
X263608825Y-82695875D01*
X263374125Y-82461175D01*
X263098147Y-82276772D01*
X262791496Y-82149754D01*
X262465958Y-82085000D01*
X262318177Y-82085000D01*
X262378144Y-81995253D01*
X262491971Y-81720451D01*
X262550000Y-81428722D01*
X262550000Y-81131278D01*
X262491971Y-80839549D01*
X262417599Y-80660000D01*
X274339488Y-80660000D01*
X274337146Y-83679312D01*
%TA.AperFunction,Conductor*%
D26*
G36*
X274337146Y-83679312D02*
G01*
X274310180Y-83664898D01*
X274190482Y-83628588D01*
X274066000Y-83616328D01*
X273335750Y-83619400D01*
X273177000Y-83778150D01*
X273177000Y-84991000D01*
X273197000Y-84991000D01*
X273197000Y-85245000D01*
X273177000Y-85245000D01*
X273177000Y-87531000D01*
X273197000Y-87531000D01*
X273197000Y-87785000D01*
X273177000Y-87785000D01*
X273177000Y-90071000D01*
X273197000Y-90071000D01*
X273197000Y-90325000D01*
X273177000Y-90325000D01*
X273177000Y-92611000D01*
X273197000Y-92611000D01*
X273197000Y-92865000D01*
X273177000Y-92865000D01*
X273177000Y-95151000D01*
X273197000Y-95151000D01*
X273197000Y-95405000D01*
X273177000Y-95405000D01*
X273177000Y-96618925D01*
X273411914Y-96763185D01*
X273697633Y-96693773D01*
X273964321Y-96569954D01*
X274201729Y-96396486D01*
X274327385Y-96259813D01*
X274295513Y-137340000D01*
X175660000Y-137340000D01*
X175660000Y-134814344D01*
X176115000Y-134814344D01*
X176115000Y-135185656D01*
X176187439Y-135549834D01*
X176329534Y-135892882D01*
X176535825Y-136201618D01*
X176798382Y-136464175D01*
X177107118Y-136670466D01*
X177450166Y-136812561D01*
X177814344Y-136885000D01*
X178185656Y-136885000D01*
X178549834Y-136812561D01*
X178892882Y-136670466D01*
X179201618Y-136464175D01*
X179464175Y-136201618D01*
X179670466Y-135892882D01*
X179754777Y-135689335D01*
X183265000Y-135689335D01*
X183265000Y-136110664D01*
X183282870Y-136292101D01*
X183353489Y-136524900D01*
X183468167Y-136739448D01*
X183622498Y-136927502D01*
X183810551Y-137081833D01*
X184025099Y-137196511D01*
X184257898Y-137267130D01*
X184500000Y-137290975D01*
X184742101Y-137267130D01*
X184974900Y-137196511D01*
X185189448Y-137081833D01*
X185377502Y-136927502D01*
X185531833Y-136739449D01*
X185646511Y-136524901D01*
X185717130Y-136292102D01*
X185724166Y-136220664D01*
X187775440Y-136220664D01*
X187832264Y-136456285D01*
X187933964Y-136676292D01*
X188076631Y-136872231D01*
X188254783Y-137036572D01*
X188461573Y-137163000D01*
X188682391Y-137243462D01*
X188873000Y-137118731D01*
X188873000Y-136027000D01*
X189127000Y-136027000D01*
X189127000Y-137118731D01*
X189317609Y-137243462D01*
X189538427Y-137163000D01*
X189745217Y-137036572D01*
X189923369Y-136872231D01*
X190066036Y-136676292D01*
X190167736Y-136456285D01*
X190224560Y-136220664D01*
X213775440Y-136220664D01*
X213832264Y-136456285D01*
X213933964Y-136676292D01*
X214076631Y-136872231D01*
X214254783Y-137036572D01*
X214461573Y-137163000D01*
X214682391Y-137243462D01*
X214873000Y-137118731D01*
X214873000Y-136027000D01*
X215127000Y-136027000D01*
X215127000Y-137118731D01*
X215317609Y-137243462D01*
X215538427Y-137163000D01*
X215745217Y-137036572D01*
X215923369Y-136872231D01*
X216066036Y-136676292D01*
X216167736Y-136456285D01*
X216224560Y-136220664D01*
X216077431Y-136027000D01*
X215127000Y-136027000D01*
X214873000Y-136027000D01*
X213922569Y-136027000D01*
X213775440Y-136220664D01*
X190224560Y-136220664D01*
X190077431Y-136027000D01*
X189127000Y-136027000D01*
X188873000Y-136027000D01*
X187922569Y-136027000D01*
X187775440Y-136220664D01*
X185724166Y-136220664D01*
X185735000Y-136110665D01*
X185735000Y-135689336D01*
X185724166Y-135579336D01*
X187775440Y-135579336D01*
X187922569Y-135773000D01*
X188873000Y-135773000D01*
X188873000Y-134681269D01*
X189127000Y-134681269D01*
X189127000Y-135773000D01*
X190077431Y-135773000D01*
X190224560Y-135579336D01*
X213775440Y-135579336D01*
X213922569Y-135773000D01*
X214873000Y-135773000D01*
X214873000Y-134681269D01*
X215127000Y-134681269D01*
X215127000Y-135773000D01*
X216077431Y-135773000D01*
X216140991Y-135689336D01*
X218265000Y-135689336D01*
X218265000Y-136110665D01*
X218282870Y-136292102D01*
X218353489Y-136524901D01*
X218468168Y-136739449D01*
X218622499Y-136927502D01*
X218810552Y-137081833D01*
X219025100Y-137196511D01*
X219257899Y-137267130D01*
X219500000Y-137290975D01*
X219742102Y-137267130D01*
X219974901Y-137196511D01*
X220189449Y-137081833D01*
X220377502Y-136927502D01*
X220531833Y-136739448D01*
X220646511Y-136524900D01*
X220717130Y-136292101D01*
X220735000Y-136110664D01*
X220735000Y-135689335D01*
X220717130Y-135507898D01*
X220646511Y-135275099D01*
X220531833Y-135060551D01*
X220377502Y-134872498D01*
X220306641Y-134814344D01*
X270115000Y-134814344D01*
X270115000Y-135185656D01*
X270187439Y-135549834D01*
X270329534Y-135892882D01*
X270535825Y-136201618D01*
X270798382Y-136464175D01*
X271107118Y-136670466D01*
X271450166Y-136812561D01*
X271814344Y-136885000D01*
X272185656Y-136885000D01*
X272549834Y-136812561D01*
X272892882Y-136670466D01*
X273201618Y-136464175D01*
X273464175Y-136201618D01*
X273670466Y-135892882D01*
X273812561Y-135549834D01*
X273885000Y-135185656D01*
X273885000Y-134814344D01*
X273812561Y-134450166D01*
X273670466Y-134107118D01*
X273464175Y-133798382D01*
X273201618Y-133535825D01*
X272892882Y-133329534D01*
X272549834Y-133187439D01*
X272185656Y-133115000D01*
X271814344Y-133115000D01*
X271450166Y-133187439D01*
X271107118Y-133329534D01*
X270798382Y-133535825D01*
X270535825Y-133798382D01*
X270329534Y-134107118D01*
X270187439Y-134450166D01*
X270115000Y-134814344D01*
X220306641Y-134814344D01*
X220189448Y-134718167D01*
X219974900Y-134603489D01*
X219742101Y-134532870D01*
X219500000Y-134509025D01*
X219257898Y-134532870D01*
X219025099Y-134603489D01*
X218810551Y-134718167D01*
X218622498Y-134872498D01*
X218468167Y-135060552D01*
X218353489Y-135275100D01*
X218282870Y-135507899D01*
X218265000Y-135689336D01*
X216140991Y-135689336D01*
X216224560Y-135579336D01*
X216167736Y-135343715D01*
X216066036Y-135123708D01*
X215923369Y-134927769D01*
X215745217Y-134763428D01*
X215538427Y-134637000D01*
X215317609Y-134556538D01*
X215127000Y-134681269D01*
X214873000Y-134681269D01*
X214682391Y-134556538D01*
X214461573Y-134637000D01*
X214254783Y-134763428D01*
X214076631Y-134927769D01*
X213933964Y-135123708D01*
X213832264Y-135343715D01*
X213775440Y-135579336D01*
X190224560Y-135579336D01*
X190167736Y-135343715D01*
X190066036Y-135123708D01*
X189923369Y-134927769D01*
X189745217Y-134763428D01*
X189538427Y-134637000D01*
X189317609Y-134556538D01*
X189127000Y-134681269D01*
X188873000Y-134681269D01*
X188682391Y-134556538D01*
X188461573Y-134637000D01*
X188254783Y-134763428D01*
X188076631Y-134927769D01*
X187933964Y-135123708D01*
X187832264Y-135343715D01*
X187775440Y-135579336D01*
X185724166Y-135579336D01*
X185717130Y-135507899D01*
X185646511Y-135275100D01*
X185531833Y-135060552D01*
X185377502Y-134872498D01*
X185189449Y-134718167D01*
X184974901Y-134603489D01*
X184742102Y-134532870D01*
X184500000Y-134509025D01*
X184257899Y-134532870D01*
X184025100Y-134603489D01*
X183810552Y-134718167D01*
X183622499Y-134872498D01*
X183468168Y-135060551D01*
X183353489Y-135275099D01*
X183282870Y-135507898D01*
X183265000Y-135689335D01*
X179754777Y-135689335D01*
X179812561Y-135549834D01*
X179885000Y-135185656D01*
X179885000Y-134814344D01*
X179812561Y-134450166D01*
X179670466Y-134107118D01*
X179464175Y-133798382D01*
X179201618Y-133535825D01*
X178892882Y-133329534D01*
X178549834Y-133187439D01*
X178185656Y-133115000D01*
X177814344Y-133115000D01*
X177450166Y-133187439D01*
X177107118Y-133329534D01*
X176798382Y-133535825D01*
X176535825Y-133798382D01*
X176329534Y-134107118D01*
X176187439Y-134450166D01*
X176115000Y-134814344D01*
X175660000Y-134814344D01*
X175660000Y-129189335D01*
X183265000Y-129189335D01*
X183265000Y-129610664D01*
X183282870Y-129792101D01*
X183353489Y-130024900D01*
X183468167Y-130239448D01*
X183622498Y-130427502D01*
X183810551Y-130581833D01*
X184025099Y-130696511D01*
X184257898Y-130767130D01*
X184500000Y-130790975D01*
X184742101Y-130767130D01*
X184974900Y-130696511D01*
X185189448Y-130581833D01*
X185377502Y-130427502D01*
X185531833Y-130239449D01*
X185646511Y-130024901D01*
X185717130Y-129792102D01*
X185724166Y-129720664D01*
X187775440Y-129720664D01*
X187832264Y-129956285D01*
X187933964Y-130176292D01*
X188076631Y-130372231D01*
X188254783Y-130536572D01*
X188461573Y-130663000D01*
X188682391Y-130743462D01*
X188873000Y-130618731D01*
X188873000Y-129527000D01*
X189127000Y-129527000D01*
X189127000Y-130618731D01*
X189317609Y-130743462D01*
X189538427Y-130663000D01*
X189745217Y-130536572D01*
X189923369Y-130372231D01*
X190066036Y-130176292D01*
X190167736Y-129956285D01*
X190224560Y-129720664D01*
X213775440Y-129720664D01*
X213832264Y-129956285D01*
X213933964Y-130176292D01*
X214076631Y-130372231D01*
X214254783Y-130536572D01*
X214461573Y-130663000D01*
X214682391Y-130743462D01*
X214873000Y-130618731D01*
X214873000Y-129527000D01*
X215127000Y-129527000D01*
X215127000Y-130618731D01*
X215317609Y-130743462D01*
X215538427Y-130663000D01*
X215745217Y-130536572D01*
X215923369Y-130372231D01*
X216066036Y-130176292D01*
X216167736Y-129956285D01*
X216224560Y-129720664D01*
X216077431Y-129527000D01*
X215127000Y-129527000D01*
X214873000Y-129527000D01*
X213922569Y-129527000D01*
X213775440Y-129720664D01*
X190224560Y-129720664D01*
X190077431Y-129527000D01*
X189127000Y-129527000D01*
X188873000Y-129527000D01*
X187922569Y-129527000D01*
X187775440Y-129720664D01*
X185724166Y-129720664D01*
X185735000Y-129610665D01*
X185735000Y-129189336D01*
X185724166Y-129079336D01*
X187775440Y-129079336D01*
X187922569Y-129273000D01*
X188873000Y-129273000D01*
X188873000Y-128181269D01*
X189127000Y-128181269D01*
X189127000Y-129273000D01*
X190077431Y-129273000D01*
X190224560Y-129079336D01*
X213775440Y-129079336D01*
X213922569Y-129273000D01*
X214873000Y-129273000D01*
X214873000Y-128181269D01*
X215127000Y-128181269D01*
X215127000Y-129273000D01*
X216077431Y-129273000D01*
X216140991Y-129189336D01*
X218265000Y-129189336D01*
X218265000Y-129610665D01*
X218282870Y-129792102D01*
X218353489Y-130024901D01*
X218468168Y-130239449D01*
X218622499Y-130427502D01*
X218810552Y-130581833D01*
X219025100Y-130696511D01*
X219257899Y-130767130D01*
X219500000Y-130790975D01*
X219742102Y-130767130D01*
X219974901Y-130696511D01*
X220189449Y-130581833D01*
X220377502Y-130427502D01*
X220531833Y-130239448D01*
X220646511Y-130024900D01*
X220717130Y-129792101D01*
X220735000Y-129610664D01*
X220735000Y-129189335D01*
X220717130Y-129007898D01*
X220646511Y-128775099D01*
X220531833Y-128560551D01*
X220377502Y-128372498D01*
X220189448Y-128218167D01*
X219974900Y-128103489D01*
X219742101Y-128032870D01*
X219500000Y-128009025D01*
X219257898Y-128032870D01*
X219025099Y-128103489D01*
X218810551Y-128218167D01*
X218622498Y-128372498D01*
X218468167Y-128560552D01*
X218353489Y-128775100D01*
X218282870Y-129007899D01*
X218265000Y-129189336D01*
X216140991Y-129189336D01*
X216224560Y-129079336D01*
X216167736Y-128843715D01*
X216066036Y-128623708D01*
X215923369Y-128427769D01*
X215745217Y-128263428D01*
X215538427Y-128137000D01*
X215317609Y-128056538D01*
X215127000Y-128181269D01*
X214873000Y-128181269D01*
X214682391Y-128056538D01*
X214461573Y-128137000D01*
X214254783Y-128263428D01*
X214076631Y-128427769D01*
X213933964Y-128623708D01*
X213832264Y-128843715D01*
X213775440Y-129079336D01*
X190224560Y-129079336D01*
X190167736Y-128843715D01*
X190066036Y-128623708D01*
X189923369Y-128427769D01*
X189745217Y-128263428D01*
X189538427Y-128137000D01*
X189317609Y-128056538D01*
X189127000Y-128181269D01*
X188873000Y-128181269D01*
X188682391Y-128056538D01*
X188461573Y-128137000D01*
X188254783Y-128263428D01*
X188076631Y-128427769D01*
X187933964Y-128623708D01*
X187832264Y-128843715D01*
X187775440Y-129079336D01*
X185724166Y-129079336D01*
X185717130Y-129007899D01*
X185646511Y-128775100D01*
X185531833Y-128560552D01*
X185377502Y-128372498D01*
X185189449Y-128218167D01*
X184974901Y-128103489D01*
X184742102Y-128032870D01*
X184500000Y-128009025D01*
X184257899Y-128032870D01*
X184025100Y-128103489D01*
X183810552Y-128218167D01*
X183622499Y-128372498D01*
X183468168Y-128560551D01*
X183353489Y-128775099D01*
X183282870Y-129007898D01*
X183265000Y-129189335D01*
X175660000Y-129189335D01*
X175660000Y-109895437D01*
X175665423Y-109950498D01*
X175730324Y-110164446D01*
X175835716Y-110361623D01*
X175977551Y-110534449D01*
X176020864Y-110569996D01*
X176997609Y-111546741D01*
X177033152Y-111590050D01*
X177205978Y-111731885D01*
X177403154Y-111837277D01*
X177617102Y-111902178D01*
X177783849Y-111918601D01*
X177783858Y-111918601D01*
X177839600Y-111924091D01*
X177895342Y-111918601D01*
X182530648Y-111918601D01*
X182586399Y-111924092D01*
X182642150Y-111918601D01*
X182642151Y-111918601D01*
X182808898Y-111902178D01*
X183022846Y-111837277D01*
X183220022Y-111731885D01*
X183350261Y-111625000D01*
X187919353Y-111625000D01*
X187949932Y-111778729D01*
X188020414Y-111948889D01*
X188122738Y-112102028D01*
X188252972Y-112232262D01*
X188406111Y-112334586D01*
X188576271Y-112405068D01*
X188697351Y-112429153D01*
X189809205Y-113541008D01*
X189832999Y-113570001D01*
X189861992Y-113593795D01*
X189861996Y-113593799D01*
X189932685Y-113651811D01*
X189948724Y-113664974D01*
X190080753Y-113735546D01*
X190224014Y-113779003D01*
X190335667Y-113790000D01*
X190335676Y-113790000D01*
X190372999Y-113793676D01*
X190410322Y-113790000D01*
X234912678Y-113790000D01*
X234950000Y-113793676D01*
X234987322Y-113790000D01*
X234987333Y-113790000D01*
X235098986Y-113779003D01*
X235242247Y-113735546D01*
X235374276Y-113664974D01*
X235490001Y-113570001D01*
X235513803Y-113540998D01*
X235863649Y-113191153D01*
X235984729Y-113167068D01*
X236154889Y-113096586D01*
X236308028Y-112994262D01*
X236438262Y-112864028D01*
X236540586Y-112710889D01*
X236611068Y-112540729D01*
X236647000Y-112360089D01*
X236647000Y-112175911D01*
X236611068Y-111995271D01*
X236540586Y-111825111D01*
X236438262Y-111671972D01*
X236391290Y-111625000D01*
X248610249Y-111625000D01*
X248666000Y-111630491D01*
X248721752Y-111625000D01*
X260294249Y-111625000D01*
X260350000Y-111630491D01*
X260405751Y-111625000D01*
X260405752Y-111625000D01*
X260572499Y-111608577D01*
X260786447Y-111543676D01*
X260983623Y-111438284D01*
X261156449Y-111296449D01*
X261191996Y-111253135D01*
X261723459Y-110721672D01*
X262483600Y-110721672D01*
X262608082Y-110709412D01*
X262727780Y-110673102D01*
X262838094Y-110614137D01*
X262934785Y-110534785D01*
X263014137Y-110438094D01*
X263073102Y-110327780D01*
X263090636Y-110269977D01*
X263204698Y-110384039D01*
X263450147Y-110548042D01*
X263722875Y-110661010D01*
X264012401Y-110718600D01*
X264307599Y-110718600D01*
X264597125Y-110661010D01*
X264869853Y-110548042D01*
X265115302Y-110384039D01*
X265324039Y-110175302D01*
X265488042Y-109929853D01*
X265601010Y-109657125D01*
X265658600Y-109367599D01*
X265658600Y-109072401D01*
X265601010Y-108782875D01*
X265488042Y-108510147D01*
X265324039Y-108264698D01*
X265115302Y-108055961D01*
X264956719Y-107950000D01*
X265115302Y-107844039D01*
X265324039Y-107635302D01*
X265488042Y-107389853D01*
X265601010Y-107117125D01*
X265658600Y-106827599D01*
X265658600Y-106532401D01*
X265601010Y-106242875D01*
X265488042Y-105970147D01*
X265324039Y-105724698D01*
X265115302Y-105515961D01*
X264956719Y-105410000D01*
X265115302Y-105304039D01*
X265324039Y-105095302D01*
X265488042Y-104849853D01*
X265601010Y-104577125D01*
X265658600Y-104287599D01*
X265658600Y-103992401D01*
X265601010Y-103702875D01*
X265488042Y-103430147D01*
X265324039Y-103184698D01*
X265115302Y-102975961D01*
X264956719Y-102870000D01*
X265115302Y-102764039D01*
X265324039Y-102555302D01*
X265488042Y-102309853D01*
X265601010Y-102037125D01*
X265658600Y-101747599D01*
X265658600Y-101452401D01*
X265601010Y-101162875D01*
X265488042Y-100890147D01*
X265324039Y-100644698D01*
X265115302Y-100435961D01*
X264956719Y-100330000D01*
X265115302Y-100224039D01*
X265324039Y-100015302D01*
X265488042Y-99769853D01*
X265601010Y-99497125D01*
X265658600Y-99207599D01*
X265658600Y-98912401D01*
X265601010Y-98622875D01*
X265488042Y-98350147D01*
X265324039Y-98104698D01*
X265115302Y-97895961D01*
X264869853Y-97731958D01*
X264597125Y-97618990D01*
X264307599Y-97561400D01*
X264012401Y-97561400D01*
X263722875Y-97618990D01*
X263450147Y-97731958D01*
X263204698Y-97895961D01*
X262995961Y-98104698D01*
X262885441Y-98270103D01*
X262826817Y-98171512D01*
X262630293Y-97953146D01*
X262394944Y-97777316D01*
X262129814Y-97650778D01*
X261979026Y-97605042D01*
X261747000Y-97726183D01*
X261747000Y-98933000D01*
X261767000Y-98933000D01*
X261767000Y-99187000D01*
X261747000Y-99187000D01*
X261747000Y-101473000D01*
X261767000Y-101473000D01*
X261767000Y-101727000D01*
X261747000Y-101727000D01*
X261747000Y-101747000D01*
X261493000Y-101747000D01*
X261493000Y-101727000D01*
X260285536Y-101727000D01*
X260165037Y-101959027D01*
X260263036Y-102235978D01*
X260413183Y-102488488D01*
X260609707Y-102706854D01*
X260825813Y-102868308D01*
X260664698Y-102975961D01*
X260455961Y-103184698D01*
X260291958Y-103430147D01*
X260178990Y-103702875D01*
X260121400Y-103992401D01*
X260121400Y-104287599D01*
X260178990Y-104577125D01*
X260291958Y-104849853D01*
X260455961Y-105095302D01*
X260485000Y-105124341D01*
X260485001Y-105695658D01*
X260455961Y-105724698D01*
X260291958Y-105970147D01*
X260178990Y-106242875D01*
X260121400Y-106532401D01*
X260121400Y-106827599D01*
X260178990Y-107117125D01*
X260291958Y-107389853D01*
X260455961Y-107635302D01*
X260485001Y-107664342D01*
X260485001Y-107781447D01*
X260401906Y-107825863D01*
X260305215Y-107905215D01*
X260225863Y-108001906D01*
X260166898Y-108112220D01*
X260130588Y-108231918D01*
X260118328Y-108356400D01*
X260118328Y-109116541D01*
X259879869Y-109355000D01*
X249801000Y-109355000D01*
X249801000Y-103135000D01*
X250055752Y-103135000D01*
X250222499Y-103118577D01*
X250436447Y-103053676D01*
X250633623Y-102948284D01*
X250806449Y-102806449D01*
X250948284Y-102633623D01*
X251053676Y-102436447D01*
X251118577Y-102222499D01*
X251140491Y-102000000D01*
X251118577Y-101777501D01*
X251053676Y-101563553D01*
X250948284Y-101366377D01*
X250806449Y-101193551D01*
X250633623Y-101051716D01*
X250436447Y-100946324D01*
X250222499Y-100881423D01*
X250055752Y-100865000D01*
X249801000Y-100865000D01*
X249801000Y-99419027D01*
X260165037Y-99419027D01*
X260263036Y-99695978D01*
X260413183Y-99948488D01*
X260609707Y-100166854D01*
X260828078Y-100330000D01*
X260609707Y-100493146D01*
X260413183Y-100711512D01*
X260263036Y-100964022D01*
X260165037Y-101240973D01*
X260285536Y-101473000D01*
X261493000Y-101473000D01*
X261493000Y-99187000D01*
X260285536Y-99187000D01*
X260165037Y-99419027D01*
X249801000Y-99419027D01*
X249801000Y-98700973D01*
X260165037Y-98700973D01*
X260285536Y-98933000D01*
X261493000Y-98933000D01*
X261493000Y-97726183D01*
X261260974Y-97605042D01*
X261110186Y-97650778D01*
X260845056Y-97777316D01*
X260609707Y-97953146D01*
X260413183Y-98171512D01*
X260263036Y-98424022D01*
X260165037Y-98700973D01*
X249801000Y-98700973D01*
X249801000Y-95637026D01*
X271442642Y-95637026D01*
X271445291Y-95652789D01*
X271546314Y-95928919D01*
X271699267Y-96180035D01*
X271898271Y-96396486D01*
X272135679Y-96569954D01*
X272402367Y-96693773D01*
X272688086Y-96763185D01*
X272923000Y-96618925D01*
X272923000Y-95405000D01*
X271563783Y-95405000D01*
X271442642Y-95637026D01*
X249801000Y-95637026D01*
X249801000Y-93097026D01*
X271442642Y-93097026D01*
X271445291Y-93112789D01*
X271546314Y-93388919D01*
X271699267Y-93640035D01*
X271898271Y-93856486D01*
X272105633Y-94008000D01*
X271898271Y-94159514D01*
X271699267Y-94375965D01*
X271546314Y-94627081D01*
X271445291Y-94903211D01*
X271442642Y-94918974D01*
X271563783Y-95151000D01*
X272923000Y-95151000D01*
X272923000Y-92865000D01*
X271563783Y-92865000D01*
X271442642Y-93097026D01*
X249801000Y-93097026D01*
X249801000Y-90557026D01*
X271442642Y-90557026D01*
X271445291Y-90572789D01*
X271546314Y-90848919D01*
X271699267Y-91100035D01*
X271898271Y-91316486D01*
X272105633Y-91468000D01*
X271898271Y-91619514D01*
X271699267Y-91835965D01*
X271546314Y-92087081D01*
X271445291Y-92363211D01*
X271442642Y-92378974D01*
X271563783Y-92611000D01*
X272923000Y-92611000D01*
X272923000Y-90325000D01*
X271563783Y-90325000D01*
X271442642Y-90557026D01*
X249801000Y-90557026D01*
X249801000Y-90114248D01*
X249784577Y-89947501D01*
X249719676Y-89733553D01*
X249614284Y-89536377D01*
X249472449Y-89363551D01*
X249299623Y-89221716D01*
X249102446Y-89116324D01*
X248888498Y-89051423D01*
X248666000Y-89029509D01*
X248443501Y-89051423D01*
X248229553Y-89116324D01*
X248032377Y-89221716D01*
X247859551Y-89363551D01*
X247717716Y-89536377D01*
X247612324Y-89733554D01*
X247547423Y-89947502D01*
X247531000Y-90114249D01*
X247531001Y-92129000D01*
X242235404Y-92129000D01*
X242080729Y-92064932D01*
X241900089Y-92029000D01*
X241715911Y-92029000D01*
X241535271Y-92064932D01*
X241365111Y-92135414D01*
X241211972Y-92237738D01*
X241081738Y-92367972D01*
X240979414Y-92521111D01*
X240908932Y-92691271D01*
X240873000Y-92871911D01*
X240873000Y-93056089D01*
X240908932Y-93236729D01*
X240979414Y-93406889D01*
X241081738Y-93560028D01*
X241211972Y-93690262D01*
X241365111Y-93792586D01*
X241535271Y-93863068D01*
X241715911Y-93899000D01*
X241900089Y-93899000D01*
X242080729Y-93863068D01*
X242235404Y-93799000D01*
X247531000Y-93799000D01*
X247531001Y-101610239D01*
X247525509Y-101666000D01*
X247531000Y-101721752D01*
X247531001Y-109355000D01*
X240963290Y-109355000D01*
X241010262Y-109308028D01*
X241112586Y-109154889D01*
X241183068Y-108984729D01*
X241219000Y-108804089D01*
X241219000Y-108619911D01*
X241183068Y-108439271D01*
X241112586Y-108269111D01*
X241010262Y-108115972D01*
X240880028Y-107985738D01*
X240726889Y-107883414D01*
X240556729Y-107812932D01*
X240435649Y-107788847D01*
X240282000Y-107635199D01*
X240282000Y-103415535D01*
X240350586Y-103312889D01*
X240421068Y-103142729D01*
X240457000Y-102962089D01*
X240457000Y-102777911D01*
X240421068Y-102597271D01*
X240350586Y-102427111D01*
X240248262Y-102273972D01*
X240118028Y-102143738D01*
X239964889Y-102041414D01*
X239794729Y-101970932D01*
X239614089Y-101935000D01*
X239429911Y-101935000D01*
X239406039Y-101939749D01*
X239356028Y-101889738D01*
X239202889Y-101787414D01*
X239032729Y-101716932D01*
X238852089Y-101681000D01*
X238676000Y-101681000D01*
X238676000Y-97219387D01*
X238741616Y-97285003D01*
X238765414Y-97314001D01*
X238794412Y-97337799D01*
X238881138Y-97408974D01*
X238926879Y-97433423D01*
X239013168Y-97479546D01*
X239156429Y-97523003D01*
X239268082Y-97534000D01*
X239268091Y-97534000D01*
X239305414Y-97537676D01*
X239342737Y-97534000D01*
X242532465Y-97534000D01*
X242635111Y-97602586D01*
X242805271Y-97673068D01*
X242985911Y-97709000D01*
X243170089Y-97709000D01*
X243350729Y-97673068D01*
X243520889Y-97602586D01*
X243674028Y-97500262D01*
X243804262Y-97370028D01*
X243906586Y-97216889D01*
X243977068Y-97046729D01*
X244013000Y-96866089D01*
X244013000Y-96681911D01*
X243977068Y-96501271D01*
X243906586Y-96331111D01*
X243804262Y-96177972D01*
X243674028Y-96047738D01*
X243520889Y-95945414D01*
X243350729Y-95874932D01*
X243170089Y-95839000D01*
X242985911Y-95839000D01*
X242805271Y-95874932D01*
X242635111Y-95945414D01*
X242532465Y-96014000D01*
X239620217Y-96014000D01*
X238453253Y-94847037D01*
X238470262Y-94830028D01*
X238572586Y-94676889D01*
X238643068Y-94506729D01*
X238679000Y-94326089D01*
X238679000Y-94141911D01*
X238643068Y-93961271D01*
X238572586Y-93791111D01*
X238470262Y-93637972D01*
X238340028Y-93507738D01*
X238186889Y-93405414D01*
X238016729Y-93334932D01*
X237878531Y-93307442D01*
X237868277Y-93299027D01*
X237736248Y-93228455D01*
X237592987Y-93184998D01*
X237481334Y-93174001D01*
X237481323Y-93174001D01*
X237444001Y-93170325D01*
X237406679Y-93174001D01*
X228961991Y-93174001D01*
X228961991Y-92553334D01*
X234739414Y-86775911D01*
X235285000Y-86775911D01*
X235285000Y-86960089D01*
X235320932Y-87140729D01*
X235391414Y-87310889D01*
X235493738Y-87464028D01*
X235623972Y-87594262D01*
X235777111Y-87696586D01*
X235947271Y-87767068D01*
X236127911Y-87803000D01*
X236312089Y-87803000D01*
X236492729Y-87767068D01*
X236647404Y-87703000D01*
X241208133Y-87703000D01*
X242458559Y-88953426D01*
X242484709Y-88985291D01*
X242611854Y-89089636D01*
X242756913Y-89167172D01*
X242852622Y-89196205D01*
X242889111Y-89220586D01*
X243059271Y-89291068D01*
X243239911Y-89327000D01*
X243424089Y-89327000D01*
X243604729Y-89291068D01*
X243774889Y-89220586D01*
X243928028Y-89118262D01*
X244058262Y-88988028D01*
X244160586Y-88834889D01*
X244231068Y-88664729D01*
X244267000Y-88484089D01*
X244267000Y-88299911D01*
X244231068Y-88119271D01*
X244160586Y-87949111D01*
X244058262Y-87795972D01*
X243928028Y-87665738D01*
X243774889Y-87563414D01*
X243604729Y-87492932D01*
X243424089Y-87457000D01*
X243323868Y-87457000D01*
X242642779Y-86775911D01*
X253827000Y-86775911D01*
X253827000Y-86960089D01*
X253862932Y-87140729D01*
X253933414Y-87310889D01*
X254035738Y-87464028D01*
X254165972Y-87594262D01*
X254319111Y-87696586D01*
X254473787Y-87760654D01*
X254885346Y-88172214D01*
X254949414Y-88326889D01*
X255051738Y-88480028D01*
X255181972Y-88610262D01*
X255335111Y-88712586D01*
X255505271Y-88783068D01*
X255685911Y-88819000D01*
X255870089Y-88819000D01*
X256050729Y-88783068D01*
X256220889Y-88712586D01*
X256374028Y-88610262D01*
X256504262Y-88480028D01*
X256606586Y-88326889D01*
X256677068Y-88156729D01*
X256704857Y-88017026D01*
X271442642Y-88017026D01*
X271445291Y-88032789D01*
X271546314Y-88308919D01*
X271699267Y-88560035D01*
X271898271Y-88776486D01*
X272105633Y-88928000D01*
X271898271Y-89079514D01*
X271699267Y-89295965D01*
X271546314Y-89547081D01*
X271445291Y-89823211D01*
X271442642Y-89838974D01*
X271563783Y-90071000D01*
X272923000Y-90071000D01*
X272923000Y-87785000D01*
X271563783Y-87785000D01*
X271442642Y-88017026D01*
X256704857Y-88017026D01*
X256713000Y-87976089D01*
X256713000Y-87791911D01*
X256677068Y-87611271D01*
X256606586Y-87441111D01*
X256504262Y-87287972D01*
X256374028Y-87157738D01*
X256220889Y-87055414D01*
X256066214Y-86991346D01*
X255654654Y-86579787D01*
X255590586Y-86425111D01*
X255488262Y-86271972D01*
X255358028Y-86141738D01*
X255204889Y-86039414D01*
X255065313Y-85981600D01*
X271395928Y-85981600D01*
X271408188Y-86106082D01*
X271444498Y-86225780D01*
X271503463Y-86336094D01*
X271582815Y-86432785D01*
X271679506Y-86512137D01*
X271789820Y-86571102D01*
X271851912Y-86589937D01*
X271699267Y-86755965D01*
X271546314Y-87007081D01*
X271445291Y-87283211D01*
X271442642Y-87298974D01*
X271563783Y-87531000D01*
X272923000Y-87531000D01*
X272923000Y-85245000D01*
X271557750Y-85245000D01*
X271399000Y-85403750D01*
X271395928Y-85981600D01*
X255065313Y-85981600D01*
X255034729Y-85968932D01*
X254854089Y-85933000D01*
X254669911Y-85933000D01*
X254489271Y-85968932D01*
X254319111Y-86039414D01*
X254165972Y-86141738D01*
X254035738Y-86271972D01*
X253933414Y-86425111D01*
X253862932Y-86595271D01*
X253827000Y-86775911D01*
X242642779Y-86775911D01*
X242173446Y-86306579D01*
X242147291Y-86274709D01*
X242020146Y-86170364D01*
X241875087Y-86092828D01*
X241717689Y-86045082D01*
X241595019Y-86033000D01*
X241595018Y-86033000D01*
X241554000Y-86028960D01*
X241512982Y-86033000D01*
X236647404Y-86033000D01*
X236492729Y-85968932D01*
X236312089Y-85933000D01*
X236127911Y-85933000D01*
X235947271Y-85968932D01*
X235777111Y-86039414D01*
X235623972Y-86141738D01*
X235493738Y-86271972D01*
X235391414Y-86425111D01*
X235320932Y-86595271D01*
X235285000Y-86775911D01*
X234739414Y-86775911D01*
X236241150Y-85274176D01*
X236403287Y-85274176D01*
X236583927Y-85238244D01*
X236754087Y-85167762D01*
X236907226Y-85065438D01*
X237037460Y-84935204D01*
X237139784Y-84782065D01*
X237210266Y-84611905D01*
X237246198Y-84431265D01*
X237246198Y-84247087D01*
X237210266Y-84066447D01*
X237139784Y-83896287D01*
X237122219Y-83869999D01*
X238517000Y-83869999D01*
X238517000Y-83935958D01*
X238581754Y-84261496D01*
X238708772Y-84568147D01*
X238893175Y-84844125D01*
X239127875Y-85078825D01*
X239403853Y-85263228D01*
X239710504Y-85390246D01*
X240036042Y-85455000D01*
X240367958Y-85455000D01*
X240693496Y-85390246D01*
X241000147Y-85263228D01*
X241276125Y-85078825D01*
X241510825Y-84844125D01*
X241695228Y-84568147D01*
X241822246Y-84261496D01*
X241887000Y-83935958D01*
X241887000Y-83604042D01*
X241822246Y-83278504D01*
X241695228Y-82971853D01*
X241510825Y-82695875D01*
X241276125Y-82461175D01*
X241000147Y-82276772D01*
X240855816Y-82216989D01*
X241032805Y-82040000D01*
X254449197Y-82040000D01*
X254629114Y-82219917D01*
X254491853Y-82276772D01*
X254215875Y-82461175D01*
X253981175Y-82695875D01*
X253796772Y-82971853D01*
X253669754Y-83278504D01*
X253605000Y-83604042D01*
X253605000Y-83935958D01*
X253669754Y-84261496D01*
X253796772Y-84568147D01*
X253981175Y-84844125D01*
X254215875Y-85078825D01*
X254491853Y-85263228D01*
X254798504Y-85390246D01*
X255124042Y-85455000D01*
X255455958Y-85455000D01*
X255781496Y-85390246D01*
X256088147Y-85263228D01*
X256364125Y-85078825D01*
X256598825Y-84844125D01*
X256783228Y-84568147D01*
X256910246Y-84261496D01*
X256975000Y-83935958D01*
X256975000Y-83604042D01*
X256910246Y-83278504D01*
X256894298Y-83240001D01*
X259802677Y-83240001D01*
X259839999Y-83243677D01*
X259877321Y-83240001D01*
X259877332Y-83240001D01*
X259988985Y-83229004D01*
X260132246Y-83185547D01*
X260264275Y-83114975D01*
X260380000Y-83020002D01*
X260403803Y-82990998D01*
X260652331Y-82742470D01*
X260891278Y-82790000D01*
X260928283Y-82790000D01*
X260806772Y-82971853D01*
X260679754Y-83278504D01*
X260615000Y-83604042D01*
X260615000Y-83935958D01*
X260679754Y-84261496D01*
X260806772Y-84568147D01*
X260991175Y-84844125D01*
X261225875Y-85078825D01*
X261501853Y-85263228D01*
X261808504Y-85390246D01*
X262134042Y-85455000D01*
X262465958Y-85455000D01*
X262791496Y-85390246D01*
X263098147Y-85263228D01*
X263374125Y-85078825D01*
X263608825Y-84844125D01*
X263793228Y-84568147D01*
X263920246Y-84261496D01*
X263985000Y-83935958D01*
X263985000Y-83604042D01*
X263920246Y-83278504D01*
X263793228Y-82971853D01*
X263687984Y-82814344D01*
X266115000Y-82814344D01*
X266115000Y-83185656D01*
X266187439Y-83549834D01*
X266329534Y-83892882D01*
X266535825Y-84201618D01*
X266798382Y-84464175D01*
X267107118Y-84670466D01*
X267450166Y-84812561D01*
X267814344Y-84885000D01*
X268185656Y-84885000D01*
X268549834Y-84812561D01*
X268892882Y-84670466D01*
X269201618Y-84464175D01*
X269411393Y-84254400D01*
X271395928Y-84254400D01*
X271399000Y-84832250D01*
X271557750Y-84991000D01*
X272923000Y-84991000D01*
X272923000Y-83778150D01*
X272764250Y-83619400D01*
X272034000Y-83616328D01*
X271909518Y-83628588D01*
X271789820Y-83664898D01*
X271679506Y-83723863D01*
X271582815Y-83803215D01*
X271503463Y-83899906D01*
X271444498Y-84010220D01*
X271408188Y-84129918D01*
X271395928Y-84254400D01*
X269411393Y-84254400D01*
X269464175Y-84201618D01*
X269670466Y-83892882D01*
X269812561Y-83549834D01*
X269885000Y-83185656D01*
X269885000Y-82814344D01*
X269812561Y-82450166D01*
X269670466Y-82107118D01*
X269464175Y-81798382D01*
X269201618Y-81535825D01*
X268892882Y-81329534D01*
X268549834Y-81187439D01*
X268185656Y-81115000D01*
X267814344Y-81115000D01*
X267450166Y-81187439D01*
X267107118Y-81329534D01*
X266798382Y-81535825D01*
X266535825Y-81798382D01*
X266329534Y-82107118D01*
X266187439Y-82450166D01*
X266115000Y-82814344D01*
X263687984Y-82814344D01*
X263608825Y-82695875D01*
X263374125Y-82461175D01*
X263098147Y-82276772D01*
X262791496Y-82149754D01*
X262465958Y-82085000D01*
X262318177Y-82085000D01*
X262378144Y-81995253D01*
X262491971Y-81720451D01*
X262550000Y-81428722D01*
X262550000Y-81131278D01*
X262491971Y-80839549D01*
X262417599Y-80660000D01*
X274339488Y-80660000D01*
X274337146Y-83679312D01*
G37*
%TD.AperFunction*%
D25*
X233426000Y-111630491D02*
X233481751Y-111625000D01*
X235032710Y-111625000D01*
X234985738Y-111671972D01*
X234883414Y-111825111D01*
X234812932Y-111995271D01*
X234788847Y-112116351D01*
X234635199Y-112270000D01*
X190687803Y-112270000D01*
X190042802Y-111625000D01*
X233370249Y-111625000D01*
X233426000Y-111630491D01*
%TA.AperFunction,Conductor*%
D26*
G36*
X233426000Y-111630491D02*
G01*
X233481751Y-111625000D01*
X235032710Y-111625000D01*
X234985738Y-111671972D01*
X234883414Y-111825111D01*
X234812932Y-111995271D01*
X234788847Y-112116351D01*
X234635199Y-112270000D01*
X190687803Y-112270000D01*
X190042802Y-111625000D01*
X233370249Y-111625000D01*
X233426000Y-111630491D01*
G37*
%TD.AperFunction*%
D25*
X216981111Y-96199414D02*
X216827972Y-96301738D01*
X216697738Y-96431972D01*
X216595414Y-96585111D01*
X216524932Y-96755271D01*
X216489000Y-96935911D01*
X216489000Y-97120089D01*
X216524932Y-97300729D01*
X216595414Y-97470889D01*
X216697738Y-97624028D01*
X216827972Y-97754262D01*
X216981111Y-97856586D01*
X217151271Y-97927068D01*
X217331911Y-97963000D01*
X217516089Y-97963000D01*
X217696729Y-97927068D01*
X217866889Y-97856586D01*
X217969535Y-97788000D01*
X222117703Y-97788000D01*
X223776081Y-99446379D01*
X223821958Y-99532208D01*
X223840023Y-99554220D01*
X223865339Y-99585068D01*
X223890932Y-99713729D01*
X223961414Y-99883889D01*
X224063738Y-100037028D01*
X224193972Y-100167262D01*
X224347111Y-100269586D01*
X224517271Y-100340068D01*
X224697911Y-100376000D01*
X224789868Y-100376000D01*
X223557869Y-101608000D01*
X220575368Y-101608000D01*
X220646511Y-101474900D01*
X220717130Y-101242101D01*
X220735000Y-101060664D01*
X220735000Y-100639335D01*
X220717130Y-100457898D01*
X220646511Y-100225099D01*
X220531833Y-100010551D01*
X220377502Y-99822498D01*
X220189448Y-99668167D01*
X219974900Y-99553489D01*
X219742101Y-99482870D01*
X219500000Y-99459025D01*
X219257898Y-99482870D01*
X219025099Y-99553489D01*
X218810551Y-99668167D01*
X218622498Y-99822498D01*
X218468167Y-100010552D01*
X218353489Y-100225100D01*
X218282870Y-100457899D01*
X218265000Y-100639336D01*
X218265000Y-101060665D01*
X218282870Y-101242102D01*
X218353489Y-101474901D01*
X218468168Y-101689449D01*
X218622499Y-101877502D01*
X218810552Y-102031833D01*
X219025100Y-102146511D01*
X219218508Y-102205181D01*
X219164324Y-102306553D01*
X219099423Y-102520501D01*
X219077509Y-102743000D01*
X219099423Y-102965499D01*
X219148111Y-103126000D01*
X214436802Y-103126000D01*
X212481466Y-101170664D01*
X213775440Y-101170664D01*
X213832264Y-101406285D01*
X213933964Y-101626292D01*
X214076631Y-101822231D01*
X214254783Y-101986572D01*
X214461573Y-102113000D01*
X214682391Y-102193462D01*
X214873000Y-102068731D01*
X214873000Y-100977000D01*
X215127000Y-100977000D01*
X215127000Y-102068731D01*
X215317609Y-102193462D01*
X215538427Y-102113000D01*
X215745217Y-101986572D01*
X215923369Y-101822231D01*
X216066036Y-101626292D01*
X216167736Y-101406285D01*
X216224560Y-101170664D01*
X216077431Y-100977000D01*
X215127000Y-100977000D01*
X214873000Y-100977000D01*
X213922569Y-100977000D01*
X213775440Y-101170664D01*
X212481466Y-101170664D01*
X211962764Y-100651963D01*
X211938966Y-100622965D01*
X211898441Y-100589707D01*
X211824880Y-100529336D01*
X213775440Y-100529336D01*
X213922569Y-100723000D01*
X214873000Y-100723000D01*
X214873000Y-99631269D01*
X215127000Y-99631269D01*
X215127000Y-100723000D01*
X216077431Y-100723000D01*
X216224560Y-100529336D01*
X216167736Y-100293715D01*
X216066036Y-100073708D01*
X215923369Y-99877769D01*
X215745217Y-99713428D01*
X215538427Y-99587000D01*
X215317609Y-99506538D01*
X215127000Y-99631269D01*
X214873000Y-99631269D01*
X214682391Y-99506538D01*
X214461573Y-99587000D01*
X214254783Y-99713428D01*
X214076631Y-99877769D01*
X213933964Y-100073708D01*
X213832264Y-100293715D01*
X213775440Y-100529336D01*
X211824880Y-100529336D01*
X211823242Y-100527992D01*
X211691212Y-100457420D01*
X211547951Y-100413963D01*
X211436298Y-100402966D01*
X211436288Y-100402966D01*
X211398966Y-100399290D01*
X211361643Y-100402966D01*
X204817363Y-100402969D01*
X204780031Y-100399292D01*
X204631045Y-100413966D01*
X204487785Y-100457422D01*
X204355755Y-100527994D01*
X204269029Y-100599169D01*
X204269024Y-100599174D01*
X204240031Y-100622968D01*
X204216237Y-100651961D01*
X203593775Y-101274423D01*
X203481079Y-101161727D01*
X203327940Y-101059403D01*
X203157780Y-100988921D01*
X202977140Y-100952989D01*
X202792962Y-100952989D01*
X202612322Y-100988921D01*
X202457647Y-101052989D01*
X198653007Y-101052989D01*
X198611989Y-101048949D01*
X198570971Y-101052989D01*
X198570970Y-101052989D01*
X198448300Y-101065071D01*
X198290902Y-101112817D01*
X198145843Y-101190353D01*
X198018698Y-101294698D01*
X197992552Y-101326557D01*
X197747989Y-101571121D01*
X195806306Y-99629439D01*
X195806306Y-99544504D01*
X195770374Y-99363864D01*
X195699892Y-99193704D01*
X195597568Y-99040565D01*
X195467334Y-98910331D01*
X195314195Y-98808007D01*
X195144035Y-98737525D01*
X194963395Y-98701593D01*
X194779217Y-98701593D01*
X194598577Y-98737525D01*
X194428417Y-98808007D01*
X194275278Y-98910331D01*
X194145044Y-99040565D01*
X194042720Y-99193704D01*
X193972238Y-99363864D01*
X193936306Y-99544504D01*
X193936306Y-99728682D01*
X193972238Y-99909322D01*
X194042720Y-100079482D01*
X194075595Y-100128682D01*
X194096134Y-100196392D01*
X194173670Y-100341451D01*
X194278015Y-100468597D01*
X194309885Y-100494752D01*
X196209630Y-102394497D01*
X196029465Y-102514880D01*
X195834880Y-102709465D01*
X195681995Y-102938273D01*
X195652308Y-103009943D01*
X195647636Y-102996977D01*
X195585656Y-102881020D01*
X195345565Y-102814040D01*
X194559605Y-103600000D01*
X195345565Y-104385960D01*
X195585656Y-104318980D01*
X195649485Y-104183240D01*
X195681995Y-104261727D01*
X195834880Y-104490535D01*
X196029465Y-104685120D01*
X196258273Y-104838005D01*
X196512510Y-104943314D01*
X196782408Y-104997000D01*
X197057592Y-104997000D01*
X197105253Y-104987520D01*
X197151961Y-105034228D01*
X197305100Y-105136552D01*
X197475260Y-105207034D01*
X197655900Y-105242966D01*
X197840078Y-105242966D01*
X198020718Y-105207034D01*
X198190878Y-105136552D01*
X198344017Y-105034228D01*
X198474251Y-104903994D01*
X198576575Y-104750855D01*
X198596360Y-104703090D01*
X198798273Y-104838005D01*
X199052510Y-104943314D01*
X199322408Y-104997000D01*
X199597592Y-104997000D01*
X199867490Y-104943314D01*
X200121727Y-104838005D01*
X200350535Y-104685120D01*
X200545120Y-104490535D01*
X200698005Y-104261727D01*
X200730000Y-104184485D01*
X200761995Y-104261727D01*
X200914880Y-104490535D01*
X201109465Y-104685120D01*
X201338273Y-104838005D01*
X201592510Y-104943314D01*
X201862408Y-104997000D01*
X202137592Y-104997000D01*
X202407490Y-104943314D01*
X202661727Y-104838005D01*
X202890535Y-104685120D01*
X203085120Y-104490535D01*
X203192728Y-104329488D01*
X203271657Y-104305546D01*
X203315585Y-104282066D01*
X203454880Y-104490535D01*
X203649465Y-104685120D01*
X203878273Y-104838005D01*
X204132510Y-104943314D01*
X204402408Y-104997000D01*
X204677592Y-104997000D01*
X204947490Y-104943314D01*
X205201727Y-104838005D01*
X205430535Y-104685120D01*
X205625120Y-104490535D01*
X205778005Y-104261727D01*
X205810000Y-104184485D01*
X205841995Y-104261727D01*
X205994880Y-104490535D01*
X206189465Y-104685120D01*
X206418273Y-104838005D01*
X206672510Y-104943314D01*
X206942408Y-104997000D01*
X207217592Y-104997000D01*
X207487490Y-104943314D01*
X207741727Y-104838005D01*
X207970535Y-104685120D01*
X208165120Y-104490535D01*
X208318005Y-104261727D01*
X208350000Y-104184485D01*
X208381995Y-104261727D01*
X208534880Y-104490535D01*
X208729465Y-104685120D01*
X208958273Y-104838005D01*
X209212510Y-104943314D01*
X209482408Y-104997000D01*
X209757592Y-104997000D01*
X210027490Y-104943314D01*
X210281727Y-104838005D01*
X210510535Y-104685120D01*
X210609242Y-104586413D01*
X212647840Y-106625012D01*
X212671638Y-106654010D01*
X212700636Y-106677808D01*
X212787363Y-106748983D01*
X212919392Y-106819555D01*
X213062653Y-106863012D01*
X213211639Y-106877686D01*
X213248972Y-106874009D01*
X213812900Y-106874009D01*
X213775440Y-107029336D01*
X213922569Y-107223000D01*
X214873000Y-107223000D01*
X214873000Y-107203000D01*
X215127000Y-107203000D01*
X215127000Y-107223000D01*
X216077431Y-107223000D01*
X216224560Y-107029336D01*
X216187100Y-106874009D01*
X218308318Y-106874009D01*
X218282870Y-106957899D01*
X218265000Y-107139336D01*
X218265000Y-107560665D01*
X218282870Y-107742102D01*
X218353489Y-107974901D01*
X218468168Y-108189449D01*
X218622499Y-108377502D01*
X218810552Y-108531833D01*
X219025100Y-108646511D01*
X219257899Y-108717130D01*
X219500000Y-108740975D01*
X219742102Y-108717130D01*
X219974901Y-108646511D01*
X220189449Y-108531833D01*
X220377502Y-108377502D01*
X220531833Y-108189448D01*
X220646511Y-107974900D01*
X220717130Y-107742101D01*
X220735000Y-107560664D01*
X220735000Y-107139335D01*
X220717130Y-106957898D01*
X220691682Y-106874009D01*
X222971883Y-106874009D01*
X222935800Y-107055411D01*
X222935800Y-107320589D01*
X222987533Y-107580672D01*
X223089013Y-107825665D01*
X223236338Y-108046153D01*
X223423847Y-108233662D01*
X223644335Y-108380987D01*
X223889328Y-108482467D01*
X224149411Y-108534200D01*
X224414589Y-108534200D01*
X224674672Y-108482467D01*
X224919665Y-108380987D01*
X225140153Y-108233662D01*
X225327662Y-108046153D01*
X225474987Y-107825665D01*
X225576467Y-107580672D01*
X225628200Y-107320589D01*
X225628200Y-107055411D01*
X225592117Y-106874009D01*
X228051883Y-106874009D01*
X228015800Y-107055411D01*
X228015800Y-107320589D01*
X228067533Y-107580672D01*
X228169013Y-107825665D01*
X228316338Y-108046153D01*
X228503847Y-108233662D01*
X228724335Y-108380987D01*
X228969328Y-108482467D01*
X229229411Y-108534200D01*
X229494589Y-108534200D01*
X229754672Y-108482467D01*
X229999665Y-108380987D01*
X230220153Y-108233662D01*
X230407662Y-108046153D01*
X230554987Y-107825665D01*
X230656467Y-107580672D01*
X230708200Y-107320589D01*
X230708200Y-107055411D01*
X230672506Y-106875963D01*
X230689991Y-106877685D01*
X230727313Y-106874009D01*
X230727324Y-106874009D01*
X230838977Y-106863012D01*
X230982238Y-106819555D01*
X231114267Y-106748983D01*
X231229992Y-106654010D01*
X231253794Y-106625007D01*
X231418649Y-106460153D01*
X231539729Y-106436068D01*
X231709889Y-106365586D01*
X231863028Y-106263262D01*
X231993262Y-106133028D01*
X232095586Y-105979889D01*
X232166068Y-105809729D01*
X232202000Y-105629089D01*
X232202000Y-105444911D01*
X232166068Y-105264271D01*
X232095586Y-105094111D01*
X231993262Y-104940972D01*
X231863028Y-104810738D01*
X231709889Y-104708414D01*
X231539729Y-104637932D01*
X231395797Y-104609302D01*
X231333586Y-104459111D01*
X231231262Y-104305972D01*
X231101028Y-104175738D01*
X230947889Y-104073414D01*
X230777729Y-104002932D01*
X230597089Y-103967000D01*
X230412911Y-103967000D01*
X230232271Y-104002932D01*
X230062111Y-104073414D01*
X229908972Y-104175738D01*
X229778738Y-104305972D01*
X229676414Y-104459111D01*
X229605932Y-104629271D01*
X229585889Y-104730033D01*
X224766768Y-104730033D01*
X224941649Y-104555153D01*
X225062729Y-104531068D01*
X225232889Y-104460586D01*
X225386028Y-104358262D01*
X225516262Y-104228028D01*
X225618586Y-104074889D01*
X225689068Y-103904729D01*
X225725000Y-103724089D01*
X225725000Y-103539911D01*
X225689068Y-103359271D01*
X225618586Y-103189111D01*
X225516262Y-103035972D01*
X225428211Y-102947921D01*
X227165133Y-101211000D01*
X228386676Y-101211000D01*
X232429011Y-105253336D01*
X232429012Y-109355000D01*
X183365672Y-109355000D01*
X183365672Y-108356400D01*
X183353412Y-108231918D01*
X183317102Y-108112220D01*
X183258137Y-108001906D01*
X183178785Y-107905215D01*
X183082094Y-107825863D01*
X182971780Y-107766898D01*
X182913977Y-107749364D01*
X183028039Y-107635302D01*
X183192042Y-107389853D01*
X183265000Y-107213717D01*
X183265000Y-107560664D01*
X183282870Y-107742101D01*
X183353489Y-107974900D01*
X183468167Y-108189448D01*
X183622498Y-108377502D01*
X183810551Y-108531833D01*
X184025099Y-108646511D01*
X184257898Y-108717130D01*
X184500000Y-108740975D01*
X184742101Y-108717130D01*
X184974900Y-108646511D01*
X185189448Y-108531833D01*
X185377502Y-108377502D01*
X185531833Y-108189449D01*
X185646511Y-107974901D01*
X185717130Y-107742102D01*
X185724166Y-107670664D01*
X187775440Y-107670664D01*
X187832264Y-107906285D01*
X187933964Y-108126292D01*
X188076631Y-108322231D01*
X188254783Y-108486572D01*
X188461573Y-108613000D01*
X188682391Y-108693462D01*
X188873000Y-108568731D01*
X188873000Y-107477000D01*
X189127000Y-107477000D01*
X189127000Y-108568731D01*
X189317609Y-108693462D01*
X189538427Y-108613000D01*
X189745217Y-108486572D01*
X189923369Y-108322231D01*
X190066036Y-108126292D01*
X190167736Y-107906285D01*
X190224560Y-107670664D01*
X213775440Y-107670664D01*
X213832264Y-107906285D01*
X213933964Y-108126292D01*
X214076631Y-108322231D01*
X214254783Y-108486572D01*
X214461573Y-108613000D01*
X214682391Y-108693462D01*
X214873000Y-108568731D01*
X214873000Y-107477000D01*
X215127000Y-107477000D01*
X215127000Y-108568731D01*
X215317609Y-108693462D01*
X215538427Y-108613000D01*
X215745217Y-108486572D01*
X215923369Y-108322231D01*
X216066036Y-108126292D01*
X216167736Y-107906285D01*
X216224560Y-107670664D01*
X216077431Y-107477000D01*
X215127000Y-107477000D01*
X214873000Y-107477000D01*
X213922569Y-107477000D01*
X213775440Y-107670664D01*
X190224560Y-107670664D01*
X190077431Y-107477000D01*
X189127000Y-107477000D01*
X188873000Y-107477000D01*
X187922569Y-107477000D01*
X187775440Y-107670664D01*
X185724166Y-107670664D01*
X185735000Y-107560665D01*
X185735000Y-107139336D01*
X185724166Y-107029336D01*
X187775440Y-107029336D01*
X187922569Y-107223000D01*
X188873000Y-107223000D01*
X188873000Y-106131269D01*
X189127000Y-106131269D01*
X189127000Y-107223000D01*
X190077431Y-107223000D01*
X190224560Y-107029336D01*
X190167736Y-106793715D01*
X190066036Y-106573708D01*
X189923369Y-106377769D01*
X189745217Y-106213428D01*
X189538427Y-106087000D01*
X189317609Y-106006538D01*
X189127000Y-106131269D01*
X188873000Y-106131269D01*
X188682391Y-106006538D01*
X188461573Y-106087000D01*
X188254783Y-106213428D01*
X188076631Y-106377769D01*
X187933964Y-106573708D01*
X187832264Y-106793715D01*
X187775440Y-107029336D01*
X185724166Y-107029336D01*
X185717130Y-106957899D01*
X185646511Y-106725100D01*
X185531833Y-106510552D01*
X185377502Y-106322498D01*
X185260000Y-106226067D01*
X185260000Y-104565565D01*
X193594040Y-104565565D01*
X193661020Y-104805656D01*
X193910048Y-104922756D01*
X194177135Y-104989023D01*
X194452017Y-105001910D01*
X194724133Y-104960922D01*
X194983023Y-104867636D01*
X195098980Y-104805656D01*
X195165960Y-104565565D01*
X194380000Y-103779605D01*
X193594040Y-104565565D01*
X185260000Y-104565565D01*
X185260000Y-103672017D01*
X192978090Y-103672017D01*
X193019078Y-103944133D01*
X193112364Y-104203023D01*
X193174344Y-104318980D01*
X193414435Y-104385960D01*
X194200395Y-103600000D01*
X193414435Y-102814040D01*
X193174344Y-102881020D01*
X193057244Y-103130048D01*
X192990977Y-103397135D01*
X192978090Y-103672017D01*
X185260000Y-103672017D01*
X185260000Y-102634435D01*
X193594040Y-102634435D01*
X194380000Y-103420395D01*
X195165960Y-102634435D01*
X195098980Y-102394344D01*
X194849952Y-102277244D01*
X194582865Y-102210977D01*
X194307983Y-102198090D01*
X194035867Y-102239078D01*
X193776977Y-102332364D01*
X193661020Y-102394344D01*
X193594040Y-102634435D01*
X185260000Y-102634435D01*
X185260000Y-101973933D01*
X185377502Y-101877502D01*
X185531833Y-101689449D01*
X185646511Y-101474901D01*
X185717130Y-101242102D01*
X185724166Y-101170664D01*
X187775440Y-101170664D01*
X187832264Y-101406285D01*
X187933964Y-101626292D01*
X188076631Y-101822231D01*
X188254783Y-101986572D01*
X188461573Y-102113000D01*
X188682391Y-102193462D01*
X188873000Y-102068731D01*
X188873000Y-100977000D01*
X189127000Y-100977000D01*
X189127000Y-102068731D01*
X189317609Y-102193462D01*
X189538427Y-102113000D01*
X189745217Y-101986572D01*
X189923369Y-101822231D01*
X190066036Y-101626292D01*
X190167736Y-101406285D01*
X190224560Y-101170664D01*
X190077431Y-100977000D01*
X189127000Y-100977000D01*
X188873000Y-100977000D01*
X187922569Y-100977000D01*
X187775440Y-101170664D01*
X185724166Y-101170664D01*
X185735000Y-101060665D01*
X185735000Y-100639336D01*
X185724166Y-100529336D01*
X187775440Y-100529336D01*
X187922569Y-100723000D01*
X188873000Y-100723000D01*
X188873000Y-99631269D01*
X189127000Y-99631269D01*
X189127000Y-100723000D01*
X190077431Y-100723000D01*
X190224560Y-100529336D01*
X190167736Y-100293715D01*
X190066036Y-100073708D01*
X189923369Y-99877769D01*
X189745217Y-99713428D01*
X189538427Y-99587000D01*
X189317609Y-99506538D01*
X189127000Y-99631269D01*
X188873000Y-99631269D01*
X188682391Y-99506538D01*
X188461573Y-99587000D01*
X188254783Y-99713428D01*
X188076631Y-99877769D01*
X187933964Y-100073708D01*
X187832264Y-100293715D01*
X187775440Y-100529336D01*
X185724166Y-100529336D01*
X185717130Y-100457899D01*
X185646511Y-100225100D01*
X185531833Y-100010552D01*
X185377502Y-99822498D01*
X185189449Y-99668167D01*
X184974901Y-99553489D01*
X184742102Y-99482870D01*
X184500000Y-99459025D01*
X184257899Y-99482870D01*
X184025100Y-99553489D01*
X183810552Y-99668167D01*
X183622499Y-99822498D01*
X183468168Y-100010551D01*
X183353489Y-100225099D01*
X183282870Y-100457898D01*
X183265000Y-100639335D01*
X183265000Y-101060664D01*
X183266526Y-101076156D01*
X183146684Y-100825056D01*
X182970854Y-100589707D01*
X182752488Y-100393183D01*
X182646230Y-100330000D01*
X182752488Y-100266817D01*
X182970854Y-100070293D01*
X183146684Y-99834944D01*
X183273222Y-99569814D01*
X183318958Y-99419026D01*
X183197817Y-99187000D01*
X181991000Y-99187000D01*
X181991000Y-101473000D01*
X183197817Y-101473000D01*
X183295916Y-101285107D01*
X183353489Y-101474900D01*
X183468167Y-101689448D01*
X183622498Y-101877502D01*
X183740000Y-101973933D01*
X183740001Y-106226067D01*
X183622499Y-106322498D01*
X183468168Y-106510551D01*
X183362600Y-106708054D01*
X183362600Y-106532401D01*
X183305010Y-106242875D01*
X183192042Y-105970147D01*
X183028039Y-105724698D01*
X182819302Y-105515961D01*
X182660719Y-105410000D01*
X182819302Y-105304039D01*
X183028039Y-105095302D01*
X183192042Y-104849853D01*
X183305010Y-104577125D01*
X183362600Y-104287599D01*
X183362600Y-103992401D01*
X183305010Y-103702875D01*
X183192042Y-103430147D01*
X183028039Y-103184698D01*
X182819302Y-102975961D01*
X182653897Y-102865441D01*
X182752488Y-102806817D01*
X182970854Y-102610293D01*
X183146684Y-102374944D01*
X183273222Y-102109814D01*
X183318958Y-101959026D01*
X183197817Y-101727000D01*
X181991000Y-101727000D01*
X181991000Y-101747000D01*
X181737000Y-101747000D01*
X181737000Y-101727000D01*
X181717000Y-101727000D01*
X181717000Y-101473000D01*
X181737000Y-101473000D01*
X181737000Y-99187000D01*
X181717000Y-99187000D01*
X181717000Y-98933000D01*
X181737000Y-98933000D01*
X181737000Y-97725536D01*
X181991000Y-97725536D01*
X181991000Y-98933000D01*
X183197817Y-98933000D01*
X183318958Y-98700974D01*
X183273222Y-98550186D01*
X183146684Y-98285056D01*
X182970854Y-98049707D01*
X182752488Y-97853183D01*
X182499978Y-97703036D01*
X182223027Y-97605037D01*
X181991000Y-97725536D01*
X181737000Y-97725536D01*
X181504973Y-97605037D01*
X181228022Y-97703036D01*
X180975512Y-97853183D01*
X180757146Y-98049707D01*
X180595692Y-98265813D01*
X180488039Y-98104698D01*
X180279302Y-97895961D01*
X180033853Y-97731958D01*
X179761125Y-97618990D01*
X179471599Y-97561400D01*
X179379733Y-97561400D01*
X179403989Y-97537144D01*
X179510284Y-97407623D01*
X179615676Y-97210447D01*
X179643152Y-97119870D01*
X200199241Y-97119870D01*
X200199241Y-97304048D01*
X200235173Y-97484688D01*
X200305655Y-97654848D01*
X200374242Y-97757496D01*
X200374241Y-99517418D01*
X200370565Y-99554741D01*
X200374241Y-99592063D01*
X200374241Y-99592073D01*
X200385238Y-99703726D01*
X200425042Y-99834944D01*
X200428695Y-99846987D01*
X200499267Y-99979017D01*
X200529046Y-100015302D01*
X200594240Y-100094742D01*
X200596546Y-100096634D01*
X200619442Y-100211739D01*
X200689924Y-100381899D01*
X200792248Y-100535038D01*
X200922482Y-100665272D01*
X201075621Y-100767596D01*
X201245781Y-100838078D01*
X201426421Y-100874010D01*
X201610599Y-100874010D01*
X201791239Y-100838078D01*
X201961399Y-100767596D01*
X202114538Y-100665272D01*
X202244772Y-100535038D01*
X202347096Y-100381899D01*
X202417578Y-100211739D01*
X202453510Y-100031099D01*
X202453510Y-99846921D01*
X202417578Y-99666281D01*
X202347096Y-99496121D01*
X202244772Y-99342982D01*
X202114538Y-99212748D01*
X201961399Y-99110424D01*
X201894241Y-99082606D01*
X201894241Y-97757494D01*
X201962827Y-97654848D01*
X202033309Y-97484688D01*
X202069241Y-97304048D01*
X202069241Y-97119870D01*
X202033309Y-96939230D01*
X201962827Y-96769070D01*
X201860503Y-96615931D01*
X201730269Y-96485697D01*
X201577130Y-96383373D01*
X201406970Y-96312891D01*
X201226330Y-96276959D01*
X201042152Y-96276959D01*
X200861512Y-96312891D01*
X200691352Y-96383373D01*
X200538213Y-96485697D01*
X200407979Y-96615931D01*
X200305655Y-96769070D01*
X200235173Y-96939230D01*
X200199241Y-97119870D01*
X179643152Y-97119870D01*
X179680577Y-96996499D01*
X179702491Y-96774000D01*
X179680577Y-96551501D01*
X179615676Y-96337553D01*
X179532754Y-96182416D01*
X217022148Y-96182416D01*
X216981111Y-96199414D01*
%TA.AperFunction,Conductor*%
D26*
G36*
X216981111Y-96199414D02*
G01*
X216827972Y-96301738D01*
X216697738Y-96431972D01*
X216595414Y-96585111D01*
X216524932Y-96755271D01*
X216489000Y-96935911D01*
X216489000Y-97120089D01*
X216524932Y-97300729D01*
X216595414Y-97470889D01*
X216697738Y-97624028D01*
X216827972Y-97754262D01*
X216981111Y-97856586D01*
X217151271Y-97927068D01*
X217331911Y-97963000D01*
X217516089Y-97963000D01*
X217696729Y-97927068D01*
X217866889Y-97856586D01*
X217969535Y-97788000D01*
X222117703Y-97788000D01*
X223776081Y-99446379D01*
X223821958Y-99532208D01*
X223840023Y-99554220D01*
X223865339Y-99585068D01*
X223890932Y-99713729D01*
X223961414Y-99883889D01*
X224063738Y-100037028D01*
X224193972Y-100167262D01*
X224347111Y-100269586D01*
X224517271Y-100340068D01*
X224697911Y-100376000D01*
X224789868Y-100376000D01*
X223557869Y-101608000D01*
X220575368Y-101608000D01*
X220646511Y-101474900D01*
X220717130Y-101242101D01*
X220735000Y-101060664D01*
X220735000Y-100639335D01*
X220717130Y-100457898D01*
X220646511Y-100225099D01*
X220531833Y-100010551D01*
X220377502Y-99822498D01*
X220189448Y-99668167D01*
X219974900Y-99553489D01*
X219742101Y-99482870D01*
X219500000Y-99459025D01*
X219257898Y-99482870D01*
X219025099Y-99553489D01*
X218810551Y-99668167D01*
X218622498Y-99822498D01*
X218468167Y-100010552D01*
X218353489Y-100225100D01*
X218282870Y-100457899D01*
X218265000Y-100639336D01*
X218265000Y-101060665D01*
X218282870Y-101242102D01*
X218353489Y-101474901D01*
X218468168Y-101689449D01*
X218622499Y-101877502D01*
X218810552Y-102031833D01*
X219025100Y-102146511D01*
X219218508Y-102205181D01*
X219164324Y-102306553D01*
X219099423Y-102520501D01*
X219077509Y-102743000D01*
X219099423Y-102965499D01*
X219148111Y-103126000D01*
X214436802Y-103126000D01*
X212481466Y-101170664D01*
X213775440Y-101170664D01*
X213832264Y-101406285D01*
X213933964Y-101626292D01*
X214076631Y-101822231D01*
X214254783Y-101986572D01*
X214461573Y-102113000D01*
X214682391Y-102193462D01*
X214873000Y-102068731D01*
X214873000Y-100977000D01*
X215127000Y-100977000D01*
X215127000Y-102068731D01*
X215317609Y-102193462D01*
X215538427Y-102113000D01*
X215745217Y-101986572D01*
X215923369Y-101822231D01*
X216066036Y-101626292D01*
X216167736Y-101406285D01*
X216224560Y-101170664D01*
X216077431Y-100977000D01*
X215127000Y-100977000D01*
X214873000Y-100977000D01*
X213922569Y-100977000D01*
X213775440Y-101170664D01*
X212481466Y-101170664D01*
X211962764Y-100651963D01*
X211938966Y-100622965D01*
X211898441Y-100589707D01*
X211824880Y-100529336D01*
X213775440Y-100529336D01*
X213922569Y-100723000D01*
X214873000Y-100723000D01*
X214873000Y-99631269D01*
X215127000Y-99631269D01*
X215127000Y-100723000D01*
X216077431Y-100723000D01*
X216224560Y-100529336D01*
X216167736Y-100293715D01*
X216066036Y-100073708D01*
X215923369Y-99877769D01*
X215745217Y-99713428D01*
X215538427Y-99587000D01*
X215317609Y-99506538D01*
X215127000Y-99631269D01*
X214873000Y-99631269D01*
X214682391Y-99506538D01*
X214461573Y-99587000D01*
X214254783Y-99713428D01*
X214076631Y-99877769D01*
X213933964Y-100073708D01*
X213832264Y-100293715D01*
X213775440Y-100529336D01*
X211824880Y-100529336D01*
X211823242Y-100527992D01*
X211691212Y-100457420D01*
X211547951Y-100413963D01*
X211436298Y-100402966D01*
X211436288Y-100402966D01*
X211398966Y-100399290D01*
X211361643Y-100402966D01*
X204817363Y-100402969D01*
X204780031Y-100399292D01*
X204631045Y-100413966D01*
X204487785Y-100457422D01*
X204355755Y-100527994D01*
X204269029Y-100599169D01*
X204269024Y-100599174D01*
X204240031Y-100622968D01*
X204216237Y-100651961D01*
X203593775Y-101274423D01*
X203481079Y-101161727D01*
X203327940Y-101059403D01*
X203157780Y-100988921D01*
X202977140Y-100952989D01*
X202792962Y-100952989D01*
X202612322Y-100988921D01*
X202457647Y-101052989D01*
X198653007Y-101052989D01*
X198611989Y-101048949D01*
X198570971Y-101052989D01*
X198570970Y-101052989D01*
X198448300Y-101065071D01*
X198290902Y-101112817D01*
X198145843Y-101190353D01*
X198018698Y-101294698D01*
X197992552Y-101326557D01*
X197747989Y-101571121D01*
X195806306Y-99629439D01*
X195806306Y-99544504D01*
X195770374Y-99363864D01*
X195699892Y-99193704D01*
X195597568Y-99040565D01*
X195467334Y-98910331D01*
X195314195Y-98808007D01*
X195144035Y-98737525D01*
X194963395Y-98701593D01*
X194779217Y-98701593D01*
X194598577Y-98737525D01*
X194428417Y-98808007D01*
X194275278Y-98910331D01*
X194145044Y-99040565D01*
X194042720Y-99193704D01*
X193972238Y-99363864D01*
X193936306Y-99544504D01*
X193936306Y-99728682D01*
X193972238Y-99909322D01*
X194042720Y-100079482D01*
X194075595Y-100128682D01*
X194096134Y-100196392D01*
X194173670Y-100341451D01*
X194278015Y-100468597D01*
X194309885Y-100494752D01*
X196209630Y-102394497D01*
X196029465Y-102514880D01*
X195834880Y-102709465D01*
X195681995Y-102938273D01*
X195652308Y-103009943D01*
X195647636Y-102996977D01*
X195585656Y-102881020D01*
X195345565Y-102814040D01*
X194559605Y-103600000D01*
X195345565Y-104385960D01*
X195585656Y-104318980D01*
X195649485Y-104183240D01*
X195681995Y-104261727D01*
X195834880Y-104490535D01*
X196029465Y-104685120D01*
X196258273Y-104838005D01*
X196512510Y-104943314D01*
X196782408Y-104997000D01*
X197057592Y-104997000D01*
X197105253Y-104987520D01*
X197151961Y-105034228D01*
X197305100Y-105136552D01*
X197475260Y-105207034D01*
X197655900Y-105242966D01*
X197840078Y-105242966D01*
X198020718Y-105207034D01*
X198190878Y-105136552D01*
X198344017Y-105034228D01*
X198474251Y-104903994D01*
X198576575Y-104750855D01*
X198596360Y-104703090D01*
X198798273Y-104838005D01*
X199052510Y-104943314D01*
X199322408Y-104997000D01*
X199597592Y-104997000D01*
X199867490Y-104943314D01*
X200121727Y-104838005D01*
X200350535Y-104685120D01*
X200545120Y-104490535D01*
X200698005Y-104261727D01*
X200730000Y-104184485D01*
X200761995Y-104261727D01*
X200914880Y-104490535D01*
X201109465Y-104685120D01*
X201338273Y-104838005D01*
X201592510Y-104943314D01*
X201862408Y-104997000D01*
X202137592Y-104997000D01*
X202407490Y-104943314D01*
X202661727Y-104838005D01*
X202890535Y-104685120D01*
X203085120Y-104490535D01*
X203192728Y-104329488D01*
X203271657Y-104305546D01*
X203315585Y-104282066D01*
X203454880Y-104490535D01*
X203649465Y-104685120D01*
X203878273Y-104838005D01*
X204132510Y-104943314D01*
X204402408Y-104997000D01*
X204677592Y-104997000D01*
X204947490Y-104943314D01*
X205201727Y-104838005D01*
X205430535Y-104685120D01*
X205625120Y-104490535D01*
X205778005Y-104261727D01*
X205810000Y-104184485D01*
X205841995Y-104261727D01*
X205994880Y-104490535D01*
X206189465Y-104685120D01*
X206418273Y-104838005D01*
X206672510Y-104943314D01*
X206942408Y-104997000D01*
X207217592Y-104997000D01*
X207487490Y-104943314D01*
X207741727Y-104838005D01*
X207970535Y-104685120D01*
X208165120Y-104490535D01*
X208318005Y-104261727D01*
X208350000Y-104184485D01*
X208381995Y-104261727D01*
X208534880Y-104490535D01*
X208729465Y-104685120D01*
X208958273Y-104838005D01*
X209212510Y-104943314D01*
X209482408Y-104997000D01*
X209757592Y-104997000D01*
X210027490Y-104943314D01*
X210281727Y-104838005D01*
X210510535Y-104685120D01*
X210609242Y-104586413D01*
X212647840Y-106625012D01*
X212671638Y-106654010D01*
X212700636Y-106677808D01*
X212787363Y-106748983D01*
X212919392Y-106819555D01*
X213062653Y-106863012D01*
X213211639Y-106877686D01*
X213248972Y-106874009D01*
X213812900Y-106874009D01*
X213775440Y-107029336D01*
X213922569Y-107223000D01*
X214873000Y-107223000D01*
X214873000Y-107203000D01*
X215127000Y-107203000D01*
X215127000Y-107223000D01*
X216077431Y-107223000D01*
X216224560Y-107029336D01*
X216187100Y-106874009D01*
X218308318Y-106874009D01*
X218282870Y-106957899D01*
X218265000Y-107139336D01*
X218265000Y-107560665D01*
X218282870Y-107742102D01*
X218353489Y-107974901D01*
X218468168Y-108189449D01*
X218622499Y-108377502D01*
X218810552Y-108531833D01*
X219025100Y-108646511D01*
X219257899Y-108717130D01*
X219500000Y-108740975D01*
X219742102Y-108717130D01*
X219974901Y-108646511D01*
X220189449Y-108531833D01*
X220377502Y-108377502D01*
X220531833Y-108189448D01*
X220646511Y-107974900D01*
X220717130Y-107742101D01*
X220735000Y-107560664D01*
X220735000Y-107139335D01*
X220717130Y-106957898D01*
X220691682Y-106874009D01*
X222971883Y-106874009D01*
X222935800Y-107055411D01*
X222935800Y-107320589D01*
X222987533Y-107580672D01*
X223089013Y-107825665D01*
X223236338Y-108046153D01*
X223423847Y-108233662D01*
X223644335Y-108380987D01*
X223889328Y-108482467D01*
X224149411Y-108534200D01*
X224414589Y-108534200D01*
X224674672Y-108482467D01*
X224919665Y-108380987D01*
X225140153Y-108233662D01*
X225327662Y-108046153D01*
X225474987Y-107825665D01*
X225576467Y-107580672D01*
X225628200Y-107320589D01*
X225628200Y-107055411D01*
X225592117Y-106874009D01*
X228051883Y-106874009D01*
X228015800Y-107055411D01*
X228015800Y-107320589D01*
X228067533Y-107580672D01*
X228169013Y-107825665D01*
X228316338Y-108046153D01*
X228503847Y-108233662D01*
X228724335Y-108380987D01*
X228969328Y-108482467D01*
X229229411Y-108534200D01*
X229494589Y-108534200D01*
X229754672Y-108482467D01*
X229999665Y-108380987D01*
X230220153Y-108233662D01*
X230407662Y-108046153D01*
X230554987Y-107825665D01*
X230656467Y-107580672D01*
X230708200Y-107320589D01*
X230708200Y-107055411D01*
X230672506Y-106875963D01*
X230689991Y-106877685D01*
X230727313Y-106874009D01*
X230727324Y-106874009D01*
X230838977Y-106863012D01*
X230982238Y-106819555D01*
X231114267Y-106748983D01*
X231229992Y-106654010D01*
X231253794Y-106625007D01*
X231418649Y-106460153D01*
X231539729Y-106436068D01*
X231709889Y-106365586D01*
X231863028Y-106263262D01*
X231993262Y-106133028D01*
X232095586Y-105979889D01*
X232166068Y-105809729D01*
X232202000Y-105629089D01*
X232202000Y-105444911D01*
X232166068Y-105264271D01*
X232095586Y-105094111D01*
X231993262Y-104940972D01*
X231863028Y-104810738D01*
X231709889Y-104708414D01*
X231539729Y-104637932D01*
X231395797Y-104609302D01*
X231333586Y-104459111D01*
X231231262Y-104305972D01*
X231101028Y-104175738D01*
X230947889Y-104073414D01*
X230777729Y-104002932D01*
X230597089Y-103967000D01*
X230412911Y-103967000D01*
X230232271Y-104002932D01*
X230062111Y-104073414D01*
X229908972Y-104175738D01*
X229778738Y-104305972D01*
X229676414Y-104459111D01*
X229605932Y-104629271D01*
X229585889Y-104730033D01*
X224766768Y-104730033D01*
X224941649Y-104555153D01*
X225062729Y-104531068D01*
X225232889Y-104460586D01*
X225386028Y-104358262D01*
X225516262Y-104228028D01*
X225618586Y-104074889D01*
X225689068Y-103904729D01*
X225725000Y-103724089D01*
X225725000Y-103539911D01*
X225689068Y-103359271D01*
X225618586Y-103189111D01*
X225516262Y-103035972D01*
X225428211Y-102947921D01*
X227165133Y-101211000D01*
X228386676Y-101211000D01*
X232429011Y-105253336D01*
X232429012Y-109355000D01*
X183365672Y-109355000D01*
X183365672Y-108356400D01*
X183353412Y-108231918D01*
X183317102Y-108112220D01*
X183258137Y-108001906D01*
X183178785Y-107905215D01*
X183082094Y-107825863D01*
X182971780Y-107766898D01*
X182913977Y-107749364D01*
X183028039Y-107635302D01*
X183192042Y-107389853D01*
X183265000Y-107213717D01*
X183265000Y-107560664D01*
X183282870Y-107742101D01*
X183353489Y-107974900D01*
X183468167Y-108189448D01*
X183622498Y-108377502D01*
X183810551Y-108531833D01*
X184025099Y-108646511D01*
X184257898Y-108717130D01*
X184500000Y-108740975D01*
X184742101Y-108717130D01*
X184974900Y-108646511D01*
X185189448Y-108531833D01*
X185377502Y-108377502D01*
X185531833Y-108189449D01*
X185646511Y-107974901D01*
X185717130Y-107742102D01*
X185724166Y-107670664D01*
X187775440Y-107670664D01*
X187832264Y-107906285D01*
X187933964Y-108126292D01*
X188076631Y-108322231D01*
X188254783Y-108486572D01*
X188461573Y-108613000D01*
X188682391Y-108693462D01*
X188873000Y-108568731D01*
X188873000Y-107477000D01*
X189127000Y-107477000D01*
X189127000Y-108568731D01*
X189317609Y-108693462D01*
X189538427Y-108613000D01*
X189745217Y-108486572D01*
X189923369Y-108322231D01*
X190066036Y-108126292D01*
X190167736Y-107906285D01*
X190224560Y-107670664D01*
X213775440Y-107670664D01*
X213832264Y-107906285D01*
X213933964Y-108126292D01*
X214076631Y-108322231D01*
X214254783Y-108486572D01*
X214461573Y-108613000D01*
X214682391Y-108693462D01*
X214873000Y-108568731D01*
X214873000Y-107477000D01*
X215127000Y-107477000D01*
X215127000Y-108568731D01*
X215317609Y-108693462D01*
X215538427Y-108613000D01*
X215745217Y-108486572D01*
X215923369Y-108322231D01*
X216066036Y-108126292D01*
X216167736Y-107906285D01*
X216224560Y-107670664D01*
X216077431Y-107477000D01*
X215127000Y-107477000D01*
X214873000Y-107477000D01*
X213922569Y-107477000D01*
X213775440Y-107670664D01*
X190224560Y-107670664D01*
X190077431Y-107477000D01*
X189127000Y-107477000D01*
X188873000Y-107477000D01*
X187922569Y-107477000D01*
X187775440Y-107670664D01*
X185724166Y-107670664D01*
X185735000Y-107560665D01*
X185735000Y-107139336D01*
X185724166Y-107029336D01*
X187775440Y-107029336D01*
X187922569Y-107223000D01*
X188873000Y-107223000D01*
X188873000Y-106131269D01*
X189127000Y-106131269D01*
X189127000Y-107223000D01*
X190077431Y-107223000D01*
X190224560Y-107029336D01*
X190167736Y-106793715D01*
X190066036Y-106573708D01*
X189923369Y-106377769D01*
X189745217Y-106213428D01*
X189538427Y-106087000D01*
X189317609Y-106006538D01*
X189127000Y-106131269D01*
X188873000Y-106131269D01*
X188682391Y-106006538D01*
X188461573Y-106087000D01*
X188254783Y-106213428D01*
X188076631Y-106377769D01*
X187933964Y-106573708D01*
X187832264Y-106793715D01*
X187775440Y-107029336D01*
X185724166Y-107029336D01*
X185717130Y-106957899D01*
X185646511Y-106725100D01*
X185531833Y-106510552D01*
X185377502Y-106322498D01*
X185260000Y-106226067D01*
X185260000Y-104565565D01*
X193594040Y-104565565D01*
X193661020Y-104805656D01*
X193910048Y-104922756D01*
X194177135Y-104989023D01*
X194452017Y-105001910D01*
X194724133Y-104960922D01*
X194983023Y-104867636D01*
X195098980Y-104805656D01*
X195165960Y-104565565D01*
X194380000Y-103779605D01*
X193594040Y-104565565D01*
X185260000Y-104565565D01*
X185260000Y-103672017D01*
X192978090Y-103672017D01*
X193019078Y-103944133D01*
X193112364Y-104203023D01*
X193174344Y-104318980D01*
X193414435Y-104385960D01*
X194200395Y-103600000D01*
X193414435Y-102814040D01*
X193174344Y-102881020D01*
X193057244Y-103130048D01*
X192990977Y-103397135D01*
X192978090Y-103672017D01*
X185260000Y-103672017D01*
X185260000Y-102634435D01*
X193594040Y-102634435D01*
X194380000Y-103420395D01*
X195165960Y-102634435D01*
X195098980Y-102394344D01*
X194849952Y-102277244D01*
X194582865Y-102210977D01*
X194307983Y-102198090D01*
X194035867Y-102239078D01*
X193776977Y-102332364D01*
X193661020Y-102394344D01*
X193594040Y-102634435D01*
X185260000Y-102634435D01*
X185260000Y-101973933D01*
X185377502Y-101877502D01*
X185531833Y-101689449D01*
X185646511Y-101474901D01*
X185717130Y-101242102D01*
X185724166Y-101170664D01*
X187775440Y-101170664D01*
X187832264Y-101406285D01*
X187933964Y-101626292D01*
X188076631Y-101822231D01*
X188254783Y-101986572D01*
X188461573Y-102113000D01*
X188682391Y-102193462D01*
X188873000Y-102068731D01*
X188873000Y-100977000D01*
X189127000Y-100977000D01*
X189127000Y-102068731D01*
X189317609Y-102193462D01*
X189538427Y-102113000D01*
X189745217Y-101986572D01*
X189923369Y-101822231D01*
X190066036Y-101626292D01*
X190167736Y-101406285D01*
X190224560Y-101170664D01*
X190077431Y-100977000D01*
X189127000Y-100977000D01*
X188873000Y-100977000D01*
X187922569Y-100977000D01*
X187775440Y-101170664D01*
X185724166Y-101170664D01*
X185735000Y-101060665D01*
X185735000Y-100639336D01*
X185724166Y-100529336D01*
X187775440Y-100529336D01*
X187922569Y-100723000D01*
X188873000Y-100723000D01*
X188873000Y-99631269D01*
X189127000Y-99631269D01*
X189127000Y-100723000D01*
X190077431Y-100723000D01*
X190224560Y-100529336D01*
X190167736Y-100293715D01*
X190066036Y-100073708D01*
X189923369Y-99877769D01*
X189745217Y-99713428D01*
X189538427Y-99587000D01*
X189317609Y-99506538D01*
X189127000Y-99631269D01*
X188873000Y-99631269D01*
X188682391Y-99506538D01*
X188461573Y-99587000D01*
X188254783Y-99713428D01*
X188076631Y-99877769D01*
X187933964Y-100073708D01*
X187832264Y-100293715D01*
X187775440Y-100529336D01*
X185724166Y-100529336D01*
X185717130Y-100457899D01*
X185646511Y-100225100D01*
X185531833Y-100010552D01*
X185377502Y-99822498D01*
X185189449Y-99668167D01*
X184974901Y-99553489D01*
X184742102Y-99482870D01*
X184500000Y-99459025D01*
X184257899Y-99482870D01*
X184025100Y-99553489D01*
X183810552Y-99668167D01*
X183622499Y-99822498D01*
X183468168Y-100010551D01*
X183353489Y-100225099D01*
X183282870Y-100457898D01*
X183265000Y-100639335D01*
X183265000Y-101060664D01*
X183266526Y-101076156D01*
X183146684Y-100825056D01*
X182970854Y-100589707D01*
X182752488Y-100393183D01*
X182646230Y-100330000D01*
X182752488Y-100266817D01*
X182970854Y-100070293D01*
X183146684Y-99834944D01*
X183273222Y-99569814D01*
X183318958Y-99419026D01*
X183197817Y-99187000D01*
X181991000Y-99187000D01*
X181991000Y-101473000D01*
X183197817Y-101473000D01*
X183295916Y-101285107D01*
X183353489Y-101474900D01*
X183468167Y-101689448D01*
X183622498Y-101877502D01*
X183740000Y-101973933D01*
X183740001Y-106226067D01*
X183622499Y-106322498D01*
X183468168Y-106510551D01*
X183362600Y-106708054D01*
X183362600Y-106532401D01*
X183305010Y-106242875D01*
X183192042Y-105970147D01*
X183028039Y-105724698D01*
X182819302Y-105515961D01*
X182660719Y-105410000D01*
X182819302Y-105304039D01*
X183028039Y-105095302D01*
X183192042Y-104849853D01*
X183305010Y-104577125D01*
X183362600Y-104287599D01*
X183362600Y-103992401D01*
X183305010Y-103702875D01*
X183192042Y-103430147D01*
X183028039Y-103184698D01*
X182819302Y-102975961D01*
X182653897Y-102865441D01*
X182752488Y-102806817D01*
X182970854Y-102610293D01*
X183146684Y-102374944D01*
X183273222Y-102109814D01*
X183318958Y-101959026D01*
X183197817Y-101727000D01*
X181991000Y-101727000D01*
X181991000Y-101747000D01*
X181737000Y-101747000D01*
X181737000Y-101727000D01*
X181717000Y-101727000D01*
X181717000Y-101473000D01*
X181737000Y-101473000D01*
X181737000Y-99187000D01*
X181717000Y-99187000D01*
X181717000Y-98933000D01*
X181737000Y-98933000D01*
X181737000Y-97725536D01*
X181991000Y-97725536D01*
X181991000Y-98933000D01*
X183197817Y-98933000D01*
X183318958Y-98700974D01*
X183273222Y-98550186D01*
X183146684Y-98285056D01*
X182970854Y-98049707D01*
X182752488Y-97853183D01*
X182499978Y-97703036D01*
X182223027Y-97605037D01*
X181991000Y-97725536D01*
X181737000Y-97725536D01*
X181504973Y-97605037D01*
X181228022Y-97703036D01*
X180975512Y-97853183D01*
X180757146Y-98049707D01*
X180595692Y-98265813D01*
X180488039Y-98104698D01*
X180279302Y-97895961D01*
X180033853Y-97731958D01*
X179761125Y-97618990D01*
X179471599Y-97561400D01*
X179379733Y-97561400D01*
X179403989Y-97537144D01*
X179510284Y-97407623D01*
X179615676Y-97210447D01*
X179643152Y-97119870D01*
X200199241Y-97119870D01*
X200199241Y-97304048D01*
X200235173Y-97484688D01*
X200305655Y-97654848D01*
X200374242Y-97757496D01*
X200374241Y-99517418D01*
X200370565Y-99554741D01*
X200374241Y-99592063D01*
X200374241Y-99592073D01*
X200385238Y-99703726D01*
X200425042Y-99834944D01*
X200428695Y-99846987D01*
X200499267Y-99979017D01*
X200529046Y-100015302D01*
X200594240Y-100094742D01*
X200596546Y-100096634D01*
X200619442Y-100211739D01*
X200689924Y-100381899D01*
X200792248Y-100535038D01*
X200922482Y-100665272D01*
X201075621Y-100767596D01*
X201245781Y-100838078D01*
X201426421Y-100874010D01*
X201610599Y-100874010D01*
X201791239Y-100838078D01*
X201961399Y-100767596D01*
X202114538Y-100665272D01*
X202244772Y-100535038D01*
X202347096Y-100381899D01*
X202417578Y-100211739D01*
X202453510Y-100031099D01*
X202453510Y-99846921D01*
X202417578Y-99666281D01*
X202347096Y-99496121D01*
X202244772Y-99342982D01*
X202114538Y-99212748D01*
X201961399Y-99110424D01*
X201894241Y-99082606D01*
X201894241Y-97757494D01*
X201962827Y-97654848D01*
X202033309Y-97484688D01*
X202069241Y-97304048D01*
X202069241Y-97119870D01*
X202033309Y-96939230D01*
X201962827Y-96769070D01*
X201860503Y-96615931D01*
X201730269Y-96485697D01*
X201577130Y-96383373D01*
X201406970Y-96312891D01*
X201226330Y-96276959D01*
X201042152Y-96276959D01*
X200861512Y-96312891D01*
X200691352Y-96383373D01*
X200538213Y-96485697D01*
X200407979Y-96615931D01*
X200305655Y-96769070D01*
X200235173Y-96939230D01*
X200199241Y-97119870D01*
X179643152Y-97119870D01*
X179680577Y-96996499D01*
X179702491Y-96774000D01*
X179680577Y-96551501D01*
X179615676Y-96337553D01*
X179532754Y-96182416D01*
X217022148Y-96182416D01*
X216981111Y-96199414D01*
G37*
%TD.AperFunction*%
D25*
X232687821Y-95435132D02*
X232723753Y-95615772D01*
X232794235Y-95785932D01*
X232896559Y-95939071D01*
X233026793Y-96069305D01*
X233179932Y-96171629D01*
X233350092Y-96242111D01*
X233530732Y-96278043D01*
X233714910Y-96278043D01*
X233895550Y-96242111D01*
X234065710Y-96171629D01*
X234218849Y-96069305D01*
X234349083Y-95939071D01*
X234451407Y-95785932D01*
X234459664Y-95765998D01*
X236586201Y-95765998D01*
X237156001Y-96335799D01*
X237156000Y-105082398D01*
X237039303Y-105004424D01*
X236869143Y-104933942D01*
X236688503Y-104898010D01*
X236504325Y-104898010D01*
X236323685Y-104933942D01*
X236153525Y-105004424D01*
X236000386Y-105106748D01*
X235870152Y-105236982D01*
X235767828Y-105390121D01*
X235697346Y-105560281D01*
X235691245Y-105590955D01*
X235673028Y-105572738D01*
X235519889Y-105470414D01*
X235349729Y-105399932D01*
X235169089Y-105364000D01*
X234984911Y-105364000D01*
X234804271Y-105399932D01*
X234699011Y-105443532D01*
X234699011Y-104838956D01*
X234704502Y-104783204D01*
X234682588Y-104560705D01*
X234617687Y-104346757D01*
X234512295Y-104149581D01*
X234458677Y-104084248D01*
X234370460Y-103976755D01*
X234327152Y-103941213D01*
X229698803Y-99312865D01*
X229663256Y-99269551D01*
X229490430Y-99127716D01*
X229293254Y-99022324D01*
X229079306Y-98957423D01*
X228912559Y-98941000D01*
X228912558Y-98941000D01*
X228856807Y-98935509D01*
X228801056Y-98941000D01*
X227375868Y-98941000D01*
X226233832Y-97798964D01*
X226376218Y-97827287D01*
X226560396Y-97827287D01*
X226741036Y-97791355D01*
X226911196Y-97720873D01*
X227064335Y-97618549D01*
X227194569Y-97488315D01*
X227296893Y-97335176D01*
X227367375Y-97165016D01*
X227391460Y-97043935D01*
X229119409Y-95315987D01*
X232687821Y-95315987D01*
X232687821Y-95435132D01*
%TA.AperFunction,Conductor*%
D26*
G36*
X232687821Y-95435132D02*
G01*
X232723753Y-95615772D01*
X232794235Y-95785932D01*
X232896559Y-95939071D01*
X233026793Y-96069305D01*
X233179932Y-96171629D01*
X233350092Y-96242111D01*
X233530732Y-96278043D01*
X233714910Y-96278043D01*
X233895550Y-96242111D01*
X234065710Y-96171629D01*
X234218849Y-96069305D01*
X234349083Y-95939071D01*
X234451407Y-95785932D01*
X234459664Y-95765998D01*
X236586201Y-95765998D01*
X237156001Y-96335799D01*
X237156000Y-105082398D01*
X237039303Y-105004424D01*
X236869143Y-104933942D01*
X236688503Y-104898010D01*
X236504325Y-104898010D01*
X236323685Y-104933942D01*
X236153525Y-105004424D01*
X236000386Y-105106748D01*
X235870152Y-105236982D01*
X235767828Y-105390121D01*
X235697346Y-105560281D01*
X235691245Y-105590955D01*
X235673028Y-105572738D01*
X235519889Y-105470414D01*
X235349729Y-105399932D01*
X235169089Y-105364000D01*
X234984911Y-105364000D01*
X234804271Y-105399932D01*
X234699011Y-105443532D01*
X234699011Y-104838956D01*
X234704502Y-104783204D01*
X234682588Y-104560705D01*
X234617687Y-104346757D01*
X234512295Y-104149581D01*
X234458677Y-104084248D01*
X234370460Y-103976755D01*
X234327152Y-103941213D01*
X229698803Y-99312865D01*
X229663256Y-99269551D01*
X229490430Y-99127716D01*
X229293254Y-99022324D01*
X229079306Y-98957423D01*
X228912559Y-98941000D01*
X228912558Y-98941000D01*
X228856807Y-98935509D01*
X228801056Y-98941000D01*
X227375868Y-98941000D01*
X226233832Y-97798964D01*
X226376218Y-97827287D01*
X226560396Y-97827287D01*
X226741036Y-97791355D01*
X226911196Y-97720873D01*
X227064335Y-97618549D01*
X227194569Y-97488315D01*
X227296893Y-97335176D01*
X227367375Y-97165016D01*
X227391460Y-97043935D01*
X229119409Y-95315987D01*
X232687821Y-95315987D01*
X232687821Y-95435132D01*
G37*
%TD.AperFunction*%
D25*
X219649199Y-93982000D02*
X212889535Y-93982000D01*
X212786889Y-93913414D01*
X212616729Y-93842932D01*
X212436089Y-93807000D01*
X212251911Y-93807000D01*
X212071271Y-93842932D01*
X211901111Y-93913414D01*
X211747972Y-94015738D01*
X211617738Y-94145972D01*
X211515414Y-94299111D01*
X211444932Y-94469271D01*
X211409000Y-94649911D01*
X211409000Y-94662416D01*
X178306608Y-94662416D01*
X178188469Y-94441394D01*
X178001197Y-94213203D01*
X177773006Y-94025931D01*
X177739460Y-94008000D01*
X177773006Y-93990069D01*
X178001197Y-93802797D01*
X178188469Y-93574606D01*
X178229416Y-93498000D01*
X220133198Y-93498000D01*
X219649199Y-93982000D01*
%TA.AperFunction,Conductor*%
D26*
G36*
X219649199Y-93982000D02*
G01*
X212889535Y-93982000D01*
X212786889Y-93913414D01*
X212616729Y-93842932D01*
X212436089Y-93807000D01*
X212251911Y-93807000D01*
X212071271Y-93842932D01*
X211901111Y-93913414D01*
X211747972Y-94015738D01*
X211617738Y-94145972D01*
X211515414Y-94299111D01*
X211444932Y-94469271D01*
X211409000Y-94649911D01*
X211409000Y-94662416D01*
X178306608Y-94662416D01*
X178188469Y-94441394D01*
X178001197Y-94213203D01*
X177773006Y-94025931D01*
X177739460Y-94008000D01*
X177773006Y-93990069D01*
X178001197Y-93802797D01*
X178188469Y-93574606D01*
X178229416Y-93498000D01*
X220133198Y-93498000D01*
X219649199Y-93982000D01*
G37*
%TD.AperFunction*%
D25*
X187755213Y-91385011D02*
X187779012Y-91414010D01*
X187894737Y-91508983D01*
X188026766Y-91579555D01*
X188170027Y-91623012D01*
X188281680Y-91634009D01*
X188281690Y-91634009D01*
X188319013Y-91637685D01*
X188356336Y-91634009D01*
X223027618Y-91634009D01*
X224947407Y-93553799D01*
X224916697Y-93584509D01*
X223559190Y-92227003D01*
X223535387Y-92197999D01*
X223419662Y-92103026D01*
X223287633Y-92032454D01*
X223144372Y-91988997D01*
X223032719Y-91978000D01*
X223032708Y-91978000D01*
X222995386Y-91974324D01*
X222958064Y-91978000D01*
X178229416Y-91978000D01*
X178188469Y-91901394D01*
X178001197Y-91673203D01*
X177773006Y-91485931D01*
X177739460Y-91468000D01*
X177773006Y-91450069D01*
X178001197Y-91262797D01*
X178188469Y-91034606D01*
X178327625Y-90774264D01*
X178413316Y-90491777D01*
X178442251Y-90198000D01*
X178413316Y-89904223D01*
X178380790Y-89796998D01*
X186167201Y-89796998D01*
X187755213Y-91385011D01*
%TA.AperFunction,Conductor*%
D26*
G36*
X187755213Y-91385011D02*
G01*
X187779012Y-91414010D01*
X187894737Y-91508983D01*
X188026766Y-91579555D01*
X188170027Y-91623012D01*
X188281680Y-91634009D01*
X188281690Y-91634009D01*
X188319013Y-91637685D01*
X188356336Y-91634009D01*
X223027618Y-91634009D01*
X224947407Y-93553799D01*
X224916697Y-93584509D01*
X223559190Y-92227003D01*
X223535387Y-92197999D01*
X223419662Y-92103026D01*
X223287633Y-92032454D01*
X223144372Y-91988997D01*
X223032719Y-91978000D01*
X223032708Y-91978000D01*
X222995386Y-91974324D01*
X222958064Y-91978000D01*
X178229416Y-91978000D01*
X178188469Y-91901394D01*
X178001197Y-91673203D01*
X177773006Y-91485931D01*
X177739460Y-91468000D01*
X177773006Y-91450069D01*
X178001197Y-91262797D01*
X178188469Y-91034606D01*
X178327625Y-90774264D01*
X178413316Y-90491777D01*
X178442251Y-90198000D01*
X178413316Y-89904223D01*
X178380790Y-89796998D01*
X186167201Y-89796998D01*
X187755213Y-91385011D01*
G37*
%TD.AperFunction*%
D25*
X231714734Y-86256015D02*
X231738532Y-86285013D01*
X231767530Y-86308811D01*
X231854256Y-86379986D01*
X231967065Y-86440284D01*
X231986286Y-86450558D01*
X232129547Y-86494015D01*
X232241200Y-86505012D01*
X232241209Y-86505012D01*
X232278532Y-86508688D01*
X232315855Y-86505012D01*
X232860710Y-86505012D01*
X232056782Y-87308941D01*
X231925802Y-87221423D01*
X231755642Y-87150941D01*
X231575002Y-87115009D01*
X231390824Y-87115009D01*
X231210184Y-87150941D01*
X231055509Y-87215009D01*
X230506998Y-87215009D01*
X230465990Y-87210970D01*
X230424982Y-87215009D01*
X230424972Y-87215009D01*
X230302302Y-87227091D01*
X230144904Y-87274837D01*
X229999845Y-87352373D01*
X229872700Y-87456718D01*
X229846550Y-87488582D01*
X227803787Y-89531345D01*
X227649111Y-89595414D01*
X227495972Y-89697738D01*
X227365738Y-89827972D01*
X227263414Y-89981111D01*
X227192932Y-90151271D01*
X227157000Y-90331911D01*
X227157000Y-90516089D01*
X227192932Y-90696729D01*
X227263414Y-90866889D01*
X227365738Y-91020028D01*
X227495972Y-91150262D01*
X227649111Y-91252586D01*
X227819271Y-91323068D01*
X227999911Y-91359000D01*
X228006723Y-91359000D01*
X227690989Y-91674734D01*
X227661991Y-91698532D01*
X227638193Y-91727530D01*
X227638192Y-91727531D01*
X227567017Y-91814257D01*
X227496445Y-91946287D01*
X227466171Y-92046091D01*
X227452989Y-92089547D01*
X227447913Y-92141082D01*
X227438315Y-92238533D01*
X227441992Y-92275865D01*
X227441992Y-92476839D01*
X227373896Y-92463294D01*
X227189718Y-92463294D01*
X227029262Y-92495211D01*
X226678170Y-92144120D01*
X226786262Y-92036028D01*
X226888586Y-91882889D01*
X226959068Y-91712729D01*
X226995000Y-91532089D01*
X226995000Y-91347911D01*
X226959068Y-91167271D01*
X226888586Y-90997111D01*
X226786262Y-90843972D01*
X226656028Y-90713738D01*
X226502889Y-90611414D01*
X226332729Y-90540932D01*
X226211649Y-90516847D01*
X222207997Y-86513195D01*
X222229538Y-86517480D01*
X222443182Y-86517480D01*
X222652720Y-86475800D01*
X222850101Y-86394042D01*
X223027740Y-86275348D01*
X223178808Y-86124280D01*
X223297502Y-85946641D01*
X223379260Y-85749260D01*
X223420940Y-85539722D01*
X223420940Y-85326078D01*
X225651060Y-85326078D01*
X225651060Y-85539722D01*
X225692740Y-85749260D01*
X225774498Y-85946641D01*
X225893192Y-86124280D01*
X226044260Y-86275348D01*
X226221899Y-86394042D01*
X226419280Y-86475800D01*
X226628818Y-86517480D01*
X226842462Y-86517480D01*
X227052000Y-86475800D01*
X227249381Y-86394042D01*
X227427020Y-86275348D01*
X227578088Y-86124280D01*
X227696782Y-85946641D01*
X227778540Y-85749260D01*
X227820220Y-85539722D01*
X227820220Y-85326078D01*
X227778540Y-85116540D01*
X227696782Y-84919159D01*
X227578088Y-84741520D01*
X227427020Y-84590452D01*
X227249381Y-84471758D01*
X227052000Y-84390000D01*
X226842462Y-84348320D01*
X226628818Y-84348320D01*
X226419280Y-84390000D01*
X226221899Y-84471758D01*
X226044260Y-84590452D01*
X225893192Y-84741520D01*
X225774498Y-84919159D01*
X225692740Y-85116540D01*
X225651060Y-85326078D01*
X223420940Y-85326078D01*
X223379260Y-85116540D01*
X223297502Y-84919159D01*
X223178808Y-84741520D01*
X223027740Y-84590452D01*
X222850101Y-84471758D01*
X222652720Y-84390000D01*
X222443182Y-84348320D01*
X222229538Y-84348320D01*
X222020000Y-84390000D01*
X221822619Y-84471758D01*
X221644980Y-84590452D01*
X221493912Y-84741520D01*
X221375218Y-84919159D01*
X221293460Y-85116540D01*
X221251780Y-85326078D01*
X221251780Y-85539722D01*
X221256065Y-85561264D01*
X219303769Y-83608968D01*
X229067689Y-83608968D01*
X231714734Y-86256015D01*
%TA.AperFunction,Conductor*%
D26*
G36*
X231714734Y-86256015D02*
G01*
X231738532Y-86285013D01*
X231767530Y-86308811D01*
X231854256Y-86379986D01*
X231967065Y-86440284D01*
X231986286Y-86450558D01*
X232129547Y-86494015D01*
X232241200Y-86505012D01*
X232241209Y-86505012D01*
X232278532Y-86508688D01*
X232315855Y-86505012D01*
X232860710Y-86505012D01*
X232056782Y-87308941D01*
X231925802Y-87221423D01*
X231755642Y-87150941D01*
X231575002Y-87115009D01*
X231390824Y-87115009D01*
X231210184Y-87150941D01*
X231055509Y-87215009D01*
X230506998Y-87215009D01*
X230465990Y-87210970D01*
X230424982Y-87215009D01*
X230424972Y-87215009D01*
X230302302Y-87227091D01*
X230144904Y-87274837D01*
X229999845Y-87352373D01*
X229872700Y-87456718D01*
X229846550Y-87488582D01*
X227803787Y-89531345D01*
X227649111Y-89595414D01*
X227495972Y-89697738D01*
X227365738Y-89827972D01*
X227263414Y-89981111D01*
X227192932Y-90151271D01*
X227157000Y-90331911D01*
X227157000Y-90516089D01*
X227192932Y-90696729D01*
X227263414Y-90866889D01*
X227365738Y-91020028D01*
X227495972Y-91150262D01*
X227649111Y-91252586D01*
X227819271Y-91323068D01*
X227999911Y-91359000D01*
X228006723Y-91359000D01*
X227690989Y-91674734D01*
X227661991Y-91698532D01*
X227638193Y-91727530D01*
X227638192Y-91727531D01*
X227567017Y-91814257D01*
X227496445Y-91946287D01*
X227466171Y-92046091D01*
X227452989Y-92089547D01*
X227447913Y-92141082D01*
X227438315Y-92238533D01*
X227441992Y-92275865D01*
X227441992Y-92476839D01*
X227373896Y-92463294D01*
X227189718Y-92463294D01*
X227029262Y-92495211D01*
X226678170Y-92144120D01*
X226786262Y-92036028D01*
X226888586Y-91882889D01*
X226959068Y-91712729D01*
X226995000Y-91532089D01*
X226995000Y-91347911D01*
X226959068Y-91167271D01*
X226888586Y-90997111D01*
X226786262Y-90843972D01*
X226656028Y-90713738D01*
X226502889Y-90611414D01*
X226332729Y-90540932D01*
X226211649Y-90516847D01*
X222207997Y-86513195D01*
X222229538Y-86517480D01*
X222443182Y-86517480D01*
X222652720Y-86475800D01*
X222850101Y-86394042D01*
X223027740Y-86275348D01*
X223178808Y-86124280D01*
X223297502Y-85946641D01*
X223379260Y-85749260D01*
X223420940Y-85539722D01*
X223420940Y-85326078D01*
X225651060Y-85326078D01*
X225651060Y-85539722D01*
X225692740Y-85749260D01*
X225774498Y-85946641D01*
X225893192Y-86124280D01*
X226044260Y-86275348D01*
X226221899Y-86394042D01*
X226419280Y-86475800D01*
X226628818Y-86517480D01*
X226842462Y-86517480D01*
X227052000Y-86475800D01*
X227249381Y-86394042D01*
X227427020Y-86275348D01*
X227578088Y-86124280D01*
X227696782Y-85946641D01*
X227778540Y-85749260D01*
X227820220Y-85539722D01*
X227820220Y-85326078D01*
X227778540Y-85116540D01*
X227696782Y-84919159D01*
X227578088Y-84741520D01*
X227427020Y-84590452D01*
X227249381Y-84471758D01*
X227052000Y-84390000D01*
X226842462Y-84348320D01*
X226628818Y-84348320D01*
X226419280Y-84390000D01*
X226221899Y-84471758D01*
X226044260Y-84590452D01*
X225893192Y-84741520D01*
X225774498Y-84919159D01*
X225692740Y-85116540D01*
X225651060Y-85326078D01*
X223420940Y-85326078D01*
X223379260Y-85116540D01*
X223297502Y-84919159D01*
X223178808Y-84741520D01*
X223027740Y-84590452D01*
X222850101Y-84471758D01*
X222652720Y-84390000D01*
X222443182Y-84348320D01*
X222229538Y-84348320D01*
X222020000Y-84390000D01*
X221822619Y-84471758D01*
X221644980Y-84590452D01*
X221493912Y-84741520D01*
X221375218Y-84919159D01*
X221293460Y-85116540D01*
X221251780Y-85326078D01*
X221251780Y-85539722D01*
X221256065Y-85561264D01*
X219303769Y-83608968D01*
X229067689Y-83608968D01*
X231714734Y-86256015D01*
G37*
%TD.AperFunction*%
D25*
X189506328Y-80772000D02*
X189506328Y-82804000D01*
X189518588Y-82928482D01*
X189554898Y-83048180D01*
X189613863Y-83158494D01*
X189693215Y-83255185D01*
X189789906Y-83334537D01*
X189900220Y-83393502D01*
X190019918Y-83429812D01*
X190144400Y-83442072D01*
X191587270Y-83442072D01*
X192476200Y-84331002D01*
X192499999Y-84360001D01*
X192528997Y-84383799D01*
X192615723Y-84454974D01*
X192716779Y-84508990D01*
X192747753Y-84525546D01*
X192891014Y-84569003D01*
X193002667Y-84580000D01*
X193002677Y-84580000D01*
X193040000Y-84583676D01*
X193077323Y-84580000D01*
X200599199Y-84580000D01*
X202889199Y-86870000D01*
X201205535Y-86870000D01*
X201102889Y-86801414D01*
X200932729Y-86730932D01*
X200752089Y-86695000D01*
X200567911Y-86695000D01*
X200387271Y-86730932D01*
X200217111Y-86801414D01*
X200063972Y-86903738D01*
X199933738Y-87033972D01*
X199831414Y-87187111D01*
X199760932Y-87357271D01*
X199725000Y-87537911D01*
X199725000Y-87722089D01*
X199760932Y-87902729D01*
X199831414Y-88072889D01*
X199933738Y-88226028D01*
X200063972Y-88356262D01*
X200217111Y-88458586D01*
X200387271Y-88529068D01*
X200567911Y-88565000D01*
X200752089Y-88565000D01*
X200932729Y-88529068D01*
X201102889Y-88458586D01*
X201205535Y-88390000D01*
X202885199Y-88390000D01*
X203038847Y-88543649D01*
X203062932Y-88664729D01*
X203133414Y-88834889D01*
X203235738Y-88988028D01*
X203365972Y-89118262D01*
X203519111Y-89220586D01*
X203689271Y-89291068D01*
X203869911Y-89327000D01*
X204054089Y-89327000D01*
X204234729Y-89291068D01*
X204404889Y-89220586D01*
X204558028Y-89118262D01*
X204688262Y-88988028D01*
X204790586Y-88834889D01*
X204809185Y-88789987D01*
X206133207Y-90114009D01*
X198058514Y-90114009D01*
X198088446Y-90041747D01*
X198124378Y-89861107D01*
X198124378Y-89676929D01*
X198088446Y-89496289D01*
X198017964Y-89326129D01*
X197949378Y-89223483D01*
X197949378Y-88867544D01*
X198017964Y-88764898D01*
X198088446Y-88594738D01*
X198124378Y-88414098D01*
X198124378Y-88229920D01*
X198088446Y-88049280D01*
X198017964Y-87879120D01*
X197915640Y-87725981D01*
X197785406Y-87595747D01*
X197632267Y-87493423D01*
X197462107Y-87422941D01*
X197281467Y-87387009D01*
X197097289Y-87387009D01*
X196916649Y-87422941D01*
X196746489Y-87493423D01*
X196593350Y-87595747D01*
X196463116Y-87725981D01*
X196360792Y-87879120D01*
X196290310Y-88049280D01*
X196254378Y-88229920D01*
X196254378Y-88414098D01*
X196290310Y-88594738D01*
X196360792Y-88764898D01*
X196429378Y-88867545D01*
X196429379Y-89223482D01*
X196360792Y-89326129D01*
X196290310Y-89496289D01*
X196254378Y-89676929D01*
X196254378Y-89861107D01*
X196290310Y-90041747D01*
X196320242Y-90114009D01*
X188633815Y-90114009D01*
X187045806Y-88526001D01*
X187022003Y-88496997D01*
X186906278Y-88402024D01*
X186774249Y-88331452D01*
X186630988Y-88287995D01*
X186519335Y-88276998D01*
X186519324Y-88276998D01*
X186482002Y-88273322D01*
X186444680Y-88276998D01*
X178304783Y-88276998D01*
X178327625Y-88234264D01*
X178413316Y-87951777D01*
X178442251Y-87658000D01*
X178413316Y-87364223D01*
X178327625Y-87081736D01*
X178188469Y-86821394D01*
X178001197Y-86593203D01*
X177993135Y-86586586D01*
X178044180Y-86571102D01*
X178154494Y-86512137D01*
X178251185Y-86432785D01*
X178330537Y-86336094D01*
X178389502Y-86225780D01*
X178425812Y-86106082D01*
X178438072Y-85981600D01*
X178435000Y-85403750D01*
X178276250Y-85245000D01*
X176911000Y-85245000D01*
X176911000Y-85265000D01*
X176657000Y-85265000D01*
X176657000Y-85245000D01*
X176637000Y-85245000D01*
X176637000Y-84991000D01*
X176657000Y-84991000D01*
X176657000Y-83778150D01*
X176911000Y-83778150D01*
X176911000Y-84991000D01*
X178276250Y-84991000D01*
X178435000Y-84832250D01*
X178438072Y-84254400D01*
X178425812Y-84129918D01*
X178389502Y-84010220D01*
X178330537Y-83899906D01*
X178251185Y-83803215D01*
X178154494Y-83723863D01*
X178044180Y-83664898D01*
X177924482Y-83628588D01*
X177800000Y-83616328D01*
X177069750Y-83619400D01*
X176911000Y-83778150D01*
X176657000Y-83778150D01*
X176498250Y-83619400D01*
X175768000Y-83616328D01*
X175660000Y-83626965D01*
X175660000Y-82814344D01*
X180115000Y-82814344D01*
X180115000Y-83185656D01*
X180187439Y-83549834D01*
X180329534Y-83892882D01*
X180535825Y-84201618D01*
X180798382Y-84464175D01*
X181107118Y-84670466D01*
X181450166Y-84812561D01*
X181814344Y-84885000D01*
X182185656Y-84885000D01*
X182549834Y-84812561D01*
X182892882Y-84670466D01*
X183201618Y-84464175D01*
X183464175Y-84201618D01*
X183670466Y-83892882D01*
X183812561Y-83549834D01*
X183885000Y-83185656D01*
X183885000Y-82814344D01*
X183812561Y-82450166D01*
X183670466Y-82107118D01*
X183464175Y-81798382D01*
X183201618Y-81535825D01*
X182892882Y-81329534D01*
X182549834Y-81187439D01*
X182185656Y-81115000D01*
X181814344Y-81115000D01*
X181450166Y-81187439D01*
X181107118Y-81329534D01*
X180798382Y-81535825D01*
X180535825Y-81798382D01*
X180329534Y-82107118D01*
X180187439Y-82450166D01*
X180115000Y-82814344D01*
X175660000Y-82814344D01*
X175660000Y-80660000D01*
X189517359Y-80660000D01*
X189506328Y-80772000D01*
%TA.AperFunction,Conductor*%
D26*
G36*
X189506328Y-80772000D02*
G01*
X189506328Y-82804000D01*
X189518588Y-82928482D01*
X189554898Y-83048180D01*
X189613863Y-83158494D01*
X189693215Y-83255185D01*
X189789906Y-83334537D01*
X189900220Y-83393502D01*
X190019918Y-83429812D01*
X190144400Y-83442072D01*
X191587270Y-83442072D01*
X192476200Y-84331002D01*
X192499999Y-84360001D01*
X192528997Y-84383799D01*
X192615723Y-84454974D01*
X192716779Y-84508990D01*
X192747753Y-84525546D01*
X192891014Y-84569003D01*
X193002667Y-84580000D01*
X193002677Y-84580000D01*
X193040000Y-84583676D01*
X193077323Y-84580000D01*
X200599199Y-84580000D01*
X202889199Y-86870000D01*
X201205535Y-86870000D01*
X201102889Y-86801414D01*
X200932729Y-86730932D01*
X200752089Y-86695000D01*
X200567911Y-86695000D01*
X200387271Y-86730932D01*
X200217111Y-86801414D01*
X200063972Y-86903738D01*
X199933738Y-87033972D01*
X199831414Y-87187111D01*
X199760932Y-87357271D01*
X199725000Y-87537911D01*
X199725000Y-87722089D01*
X199760932Y-87902729D01*
X199831414Y-88072889D01*
X199933738Y-88226028D01*
X200063972Y-88356262D01*
X200217111Y-88458586D01*
X200387271Y-88529068D01*
X200567911Y-88565000D01*
X200752089Y-88565000D01*
X200932729Y-88529068D01*
X201102889Y-88458586D01*
X201205535Y-88390000D01*
X202885199Y-88390000D01*
X203038847Y-88543649D01*
X203062932Y-88664729D01*
X203133414Y-88834889D01*
X203235738Y-88988028D01*
X203365972Y-89118262D01*
X203519111Y-89220586D01*
X203689271Y-89291068D01*
X203869911Y-89327000D01*
X204054089Y-89327000D01*
X204234729Y-89291068D01*
X204404889Y-89220586D01*
X204558028Y-89118262D01*
X204688262Y-88988028D01*
X204790586Y-88834889D01*
X204809185Y-88789987D01*
X206133207Y-90114009D01*
X198058514Y-90114009D01*
X198088446Y-90041747D01*
X198124378Y-89861107D01*
X198124378Y-89676929D01*
X198088446Y-89496289D01*
X198017964Y-89326129D01*
X197949378Y-89223483D01*
X197949378Y-88867544D01*
X198017964Y-88764898D01*
X198088446Y-88594738D01*
X198124378Y-88414098D01*
X198124378Y-88229920D01*
X198088446Y-88049280D01*
X198017964Y-87879120D01*
X197915640Y-87725981D01*
X197785406Y-87595747D01*
X197632267Y-87493423D01*
X197462107Y-87422941D01*
X197281467Y-87387009D01*
X197097289Y-87387009D01*
X196916649Y-87422941D01*
X196746489Y-87493423D01*
X196593350Y-87595747D01*
X196463116Y-87725981D01*
X196360792Y-87879120D01*
X196290310Y-88049280D01*
X196254378Y-88229920D01*
X196254378Y-88414098D01*
X196290310Y-88594738D01*
X196360792Y-88764898D01*
X196429378Y-88867545D01*
X196429379Y-89223482D01*
X196360792Y-89326129D01*
X196290310Y-89496289D01*
X196254378Y-89676929D01*
X196254378Y-89861107D01*
X196290310Y-90041747D01*
X196320242Y-90114009D01*
X188633815Y-90114009D01*
X187045806Y-88526001D01*
X187022003Y-88496997D01*
X186906278Y-88402024D01*
X186774249Y-88331452D01*
X186630988Y-88287995D01*
X186519335Y-88276998D01*
X186519324Y-88276998D01*
X186482002Y-88273322D01*
X186444680Y-88276998D01*
X178304783Y-88276998D01*
X178327625Y-88234264D01*
X178413316Y-87951777D01*
X178442251Y-87658000D01*
X178413316Y-87364223D01*
X178327625Y-87081736D01*
X178188469Y-86821394D01*
X178001197Y-86593203D01*
X177993135Y-86586586D01*
X178044180Y-86571102D01*
X178154494Y-86512137D01*
X178251185Y-86432785D01*
X178330537Y-86336094D01*
X178389502Y-86225780D01*
X178425812Y-86106082D01*
X178438072Y-85981600D01*
X178435000Y-85403750D01*
X178276250Y-85245000D01*
X176911000Y-85245000D01*
X176911000Y-85265000D01*
X176657000Y-85265000D01*
X176657000Y-85245000D01*
X176637000Y-85245000D01*
X176637000Y-84991000D01*
X176657000Y-84991000D01*
X176657000Y-83778150D01*
X176911000Y-83778150D01*
X176911000Y-84991000D01*
X178276250Y-84991000D01*
X178435000Y-84832250D01*
X178438072Y-84254400D01*
X178425812Y-84129918D01*
X178389502Y-84010220D01*
X178330537Y-83899906D01*
X178251185Y-83803215D01*
X178154494Y-83723863D01*
X178044180Y-83664898D01*
X177924482Y-83628588D01*
X177800000Y-83616328D01*
X177069750Y-83619400D01*
X176911000Y-83778150D01*
X176657000Y-83778150D01*
X176498250Y-83619400D01*
X175768000Y-83616328D01*
X175660000Y-83626965D01*
X175660000Y-82814344D01*
X180115000Y-82814344D01*
X180115000Y-83185656D01*
X180187439Y-83549834D01*
X180329534Y-83892882D01*
X180535825Y-84201618D01*
X180798382Y-84464175D01*
X181107118Y-84670466D01*
X181450166Y-84812561D01*
X181814344Y-84885000D01*
X182185656Y-84885000D01*
X182549834Y-84812561D01*
X182892882Y-84670466D01*
X183201618Y-84464175D01*
X183464175Y-84201618D01*
X183670466Y-83892882D01*
X183812561Y-83549834D01*
X183885000Y-83185656D01*
X183885000Y-82814344D01*
X183812561Y-82450166D01*
X183670466Y-82107118D01*
X183464175Y-81798382D01*
X183201618Y-81535825D01*
X182892882Y-81329534D01*
X182549834Y-81187439D01*
X182185656Y-81115000D01*
X181814344Y-81115000D01*
X181450166Y-81187439D01*
X181107118Y-81329534D01*
X180798382Y-81535825D01*
X180535825Y-81798382D01*
X180329534Y-82107118D01*
X180187439Y-82450166D01*
X180115000Y-82814344D01*
X175660000Y-82814344D01*
X175660000Y-80660000D01*
X189517359Y-80660000D01*
X189506328Y-80772000D01*
G37*
%TD.AperFunction*%
D25*
X222498456Y-90114009D02*
X218368285Y-90114009D01*
X218389530Y-90007205D01*
X218389530Y-89823027D01*
X218353598Y-89642387D01*
X218283116Y-89472227D01*
X218180792Y-89319088D01*
X218050558Y-89188854D01*
X217897419Y-89086530D01*
X217727259Y-89016048D01*
X217547786Y-88980348D01*
X217519103Y-88911100D01*
X217416779Y-88757961D01*
X217286545Y-88627727D01*
X217133406Y-88525403D01*
X216963246Y-88454921D01*
X216842166Y-88430836D01*
X216669999Y-88258670D01*
X216669999Y-86651906D01*
X216730264Y-86633625D01*
X216990606Y-86494469D01*
X217218797Y-86307197D01*
X217406069Y-86079006D01*
X217545225Y-85818663D01*
X217630916Y-85536176D01*
X217652600Y-85316018D01*
X217652600Y-85268152D01*
X222498456Y-90114009D01*
%TA.AperFunction,Conductor*%
D26*
G36*
X222498456Y-90114009D02*
G01*
X218368285Y-90114009D01*
X218389530Y-90007205D01*
X218389530Y-89823027D01*
X218353598Y-89642387D01*
X218283116Y-89472227D01*
X218180792Y-89319088D01*
X218050558Y-89188854D01*
X217897419Y-89086530D01*
X217727259Y-89016048D01*
X217547786Y-88980348D01*
X217519103Y-88911100D01*
X217416779Y-88757961D01*
X217286545Y-88627727D01*
X217133406Y-88525403D01*
X216963246Y-88454921D01*
X216842166Y-88430836D01*
X216669999Y-88258670D01*
X216669999Y-86651906D01*
X216730264Y-86633625D01*
X216990606Y-86494469D01*
X217218797Y-86307197D01*
X217406069Y-86079006D01*
X217545225Y-85818663D01*
X217630916Y-85536176D01*
X217652600Y-85316018D01*
X217652600Y-85268152D01*
X222498456Y-90114009D01*
G37*
%TD.AperFunction*%
D25*
X207477863Y-86942012D02*
X207501661Y-86971011D01*
X207617386Y-87065984D01*
X207749415Y-87136556D01*
X207892676Y-87180013D01*
X208004329Y-87191010D01*
X208004338Y-87191010D01*
X208041661Y-87194686D01*
X208078984Y-87191010D01*
X214775668Y-87191010D01*
X214812990Y-87194686D01*
X214850312Y-87191010D01*
X214850323Y-87191010D01*
X214961976Y-87180013D01*
X215105237Y-87136556D01*
X215150000Y-87112630D01*
X215150000Y-88536139D01*
X215146323Y-88573471D01*
X215150000Y-88610804D01*
X215157234Y-88684246D01*
X215160997Y-88722456D01*
X215204453Y-88865717D01*
X215275025Y-88997747D01*
X215327545Y-89061742D01*
X215369999Y-89113472D01*
X215398997Y-89137270D01*
X215716842Y-89455115D01*
X213372292Y-89455115D01*
X213424272Y-89420383D01*
X213554506Y-89290149D01*
X213656830Y-89137010D01*
X213727312Y-88966850D01*
X213763244Y-88786210D01*
X213763244Y-88602032D01*
X213727312Y-88421392D01*
X213656830Y-88251232D01*
X213554506Y-88098093D01*
X213424272Y-87967859D01*
X213271133Y-87865535D01*
X213100973Y-87795053D01*
X212920333Y-87759121D01*
X212736155Y-87759121D01*
X212555515Y-87795053D01*
X212385355Y-87865535D01*
X212282709Y-87934121D01*
X207642065Y-87934121D01*
X207655068Y-87902729D01*
X207691000Y-87722089D01*
X207691000Y-87537911D01*
X207655068Y-87357271D01*
X207584586Y-87187111D01*
X207482262Y-87033972D01*
X207352028Y-86903738D01*
X207198889Y-86801414D01*
X207028729Y-86730932D01*
X207002308Y-86725676D01*
X207101780Y-86695502D01*
X207186218Y-86650368D01*
X207477863Y-86942012D01*
%TA.AperFunction,Conductor*%
D26*
G36*
X207477863Y-86942012D02*
G01*
X207501661Y-86971011D01*
X207617386Y-87065984D01*
X207749415Y-87136556D01*
X207892676Y-87180013D01*
X208004329Y-87191010D01*
X208004338Y-87191010D01*
X208041661Y-87194686D01*
X208078984Y-87191010D01*
X214775668Y-87191010D01*
X214812990Y-87194686D01*
X214850312Y-87191010D01*
X214850323Y-87191010D01*
X214961976Y-87180013D01*
X215105237Y-87136556D01*
X215150000Y-87112630D01*
X215150000Y-88536139D01*
X215146323Y-88573471D01*
X215150000Y-88610804D01*
X215157234Y-88684246D01*
X215160997Y-88722456D01*
X215204453Y-88865717D01*
X215275025Y-88997747D01*
X215327545Y-89061742D01*
X215369999Y-89113472D01*
X215398997Y-89137270D01*
X215716842Y-89455115D01*
X213372292Y-89455115D01*
X213424272Y-89420383D01*
X213554506Y-89290149D01*
X213656830Y-89137010D01*
X213727312Y-88966850D01*
X213763244Y-88786210D01*
X213763244Y-88602032D01*
X213727312Y-88421392D01*
X213656830Y-88251232D01*
X213554506Y-88098093D01*
X213424272Y-87967859D01*
X213271133Y-87865535D01*
X213100973Y-87795053D01*
X212920333Y-87759121D01*
X212736155Y-87759121D01*
X212555515Y-87795053D01*
X212385355Y-87865535D01*
X212282709Y-87934121D01*
X207642065Y-87934121D01*
X207655068Y-87902729D01*
X207691000Y-87722089D01*
X207691000Y-87537911D01*
X207655068Y-87357271D01*
X207584586Y-87187111D01*
X207482262Y-87033972D01*
X207352028Y-86903738D01*
X207198889Y-86801414D01*
X207028729Y-86730932D01*
X207002308Y-86725676D01*
X207101780Y-86695502D01*
X207186218Y-86650368D01*
X207477863Y-86942012D01*
G37*
%TD.AperFunction*%
D25*
X232990029Y-80839549D02*
X232932000Y-81131278D01*
X232932000Y-81428722D01*
X232990029Y-81720451D01*
X233103856Y-81995253D01*
X233163823Y-82085000D01*
X233026042Y-82085000D01*
X232700504Y-82149754D01*
X232393853Y-82276772D01*
X232117875Y-82461175D01*
X231883175Y-82695875D01*
X231698772Y-82971853D01*
X231619676Y-83162810D01*
X230219401Y-81762536D01*
X230193246Y-81730666D01*
X230066101Y-81626321D01*
X229921042Y-81548785D01*
X229763644Y-81501039D01*
X229640974Y-81488957D01*
X229640973Y-81488957D01*
X229599955Y-81484917D01*
X229558937Y-81488957D01*
X207023061Y-81488957D01*
X206982043Y-81484917D01*
X206941024Y-81488957D01*
X206818354Y-81501039D01*
X206660956Y-81548785D01*
X206515897Y-81626321D01*
X206388752Y-81730666D01*
X206362606Y-81762525D01*
X205432574Y-82692559D01*
X205400710Y-82718709D01*
X205342119Y-82790103D01*
X205296364Y-82845855D01*
X205218828Y-82990914D01*
X205171082Y-83148312D01*
X205154960Y-83312000D01*
X205159001Y-83353028D01*
X205159001Y-83435928D01*
X205130400Y-83435928D01*
X205005918Y-83448188D01*
X204886220Y-83484498D01*
X204775906Y-83543463D01*
X204679215Y-83622815D01*
X204599863Y-83719506D01*
X204540898Y-83829820D01*
X204504588Y-83949518D01*
X204492328Y-84074000D01*
X204492328Y-85687115D01*
X201664204Y-82858992D01*
X201640401Y-82829988D01*
X201524676Y-82735015D01*
X201392647Y-82664443D01*
X201249386Y-82620986D01*
X201137733Y-82609989D01*
X201137722Y-82609989D01*
X201100400Y-82606313D01*
X201063078Y-82609989D01*
X197422822Y-82609989D01*
X197503773Y-82435633D01*
X197573185Y-82149914D01*
X197428925Y-81915000D01*
X196215000Y-81915000D01*
X196215000Y-81935000D01*
X195961000Y-81935000D01*
X195961000Y-81915000D01*
X195941000Y-81915000D01*
X195941000Y-81661000D01*
X195961000Y-81661000D01*
X195961000Y-81641000D01*
X196215000Y-81641000D01*
X196215000Y-81661000D01*
X197428925Y-81661000D01*
X197573185Y-81426086D01*
X197503773Y-81140367D01*
X197379954Y-80873679D01*
X197223824Y-80660000D01*
X233064401Y-80660000D01*
X232990029Y-80839549D01*
%TA.AperFunction,Conductor*%
D26*
G36*
X232990029Y-80839549D02*
G01*
X232932000Y-81131278D01*
X232932000Y-81428722D01*
X232990029Y-81720451D01*
X233103856Y-81995253D01*
X233163823Y-82085000D01*
X233026042Y-82085000D01*
X232700504Y-82149754D01*
X232393853Y-82276772D01*
X232117875Y-82461175D01*
X231883175Y-82695875D01*
X231698772Y-82971853D01*
X231619676Y-83162810D01*
X230219401Y-81762536D01*
X230193246Y-81730666D01*
X230066101Y-81626321D01*
X229921042Y-81548785D01*
X229763644Y-81501039D01*
X229640974Y-81488957D01*
X229640973Y-81488957D01*
X229599955Y-81484917D01*
X229558937Y-81488957D01*
X207023061Y-81488957D01*
X206982043Y-81484917D01*
X206941024Y-81488957D01*
X206818354Y-81501039D01*
X206660956Y-81548785D01*
X206515897Y-81626321D01*
X206388752Y-81730666D01*
X206362606Y-81762525D01*
X205432574Y-82692559D01*
X205400710Y-82718709D01*
X205342119Y-82790103D01*
X205296364Y-82845855D01*
X205218828Y-82990914D01*
X205171082Y-83148312D01*
X205154960Y-83312000D01*
X205159001Y-83353028D01*
X205159001Y-83435928D01*
X205130400Y-83435928D01*
X205005918Y-83448188D01*
X204886220Y-83484498D01*
X204775906Y-83543463D01*
X204679215Y-83622815D01*
X204599863Y-83719506D01*
X204540898Y-83829820D01*
X204504588Y-83949518D01*
X204492328Y-84074000D01*
X204492328Y-85687115D01*
X201664204Y-82858992D01*
X201640401Y-82829988D01*
X201524676Y-82735015D01*
X201392647Y-82664443D01*
X201249386Y-82620986D01*
X201137733Y-82609989D01*
X201137722Y-82609989D01*
X201100400Y-82606313D01*
X201063078Y-82609989D01*
X197422822Y-82609989D01*
X197503773Y-82435633D01*
X197573185Y-82149914D01*
X197428925Y-81915000D01*
X196215000Y-81915000D01*
X196215000Y-81935000D01*
X195961000Y-81935000D01*
X195961000Y-81915000D01*
X195941000Y-81915000D01*
X195941000Y-81661000D01*
X195961000Y-81661000D01*
X195961000Y-81641000D01*
X196215000Y-81641000D01*
X196215000Y-81661000D01*
X197428925Y-81661000D01*
X197573185Y-81426086D01*
X197503773Y-81140367D01*
X197379954Y-80873679D01*
X197223824Y-80660000D01*
X233064401Y-80660000D01*
X232990029Y-80839549D01*
G37*
%TD.AperFunction*%
D25*
X211201000Y-84963000D02*
X211221000Y-84963000D01*
X211221000Y-85217000D01*
X211201000Y-85217000D01*
X211201000Y-85237000D01*
X210947000Y-85237000D01*
X210947000Y-85217000D01*
X210927000Y-85217000D01*
X210927000Y-84963000D01*
X210947000Y-84963000D01*
X210947000Y-84943000D01*
X211201000Y-84943000D01*
X211201000Y-84963000D01*
%TA.AperFunction,Conductor*%
D26*
G36*
X211201000Y-84963000D02*
G01*
X211221000Y-84963000D01*
X211221000Y-85217000D01*
X211201000Y-85217000D01*
X211201000Y-85237000D01*
X210947000Y-85237000D01*
X210947000Y-85217000D01*
X210927000Y-85217000D01*
X210927000Y-84963000D01*
X210947000Y-84963000D01*
X210947000Y-84943000D01*
X211201000Y-84943000D01*
X211201000Y-84963000D01*
G37*
%TD.AperFunction*%
D25*
X256733748Y-81265858D02*
X256719605Y-81280000D01*
X256733748Y-81294143D01*
X256554143Y-81473748D01*
X256540000Y-81459605D01*
X256525858Y-81473748D01*
X256346253Y-81294143D01*
X256360395Y-81280000D01*
X256346253Y-81265858D01*
X256525858Y-81086253D01*
X256540000Y-81100395D01*
X256554143Y-81086253D01*
X256733748Y-81265858D01*
%TA.AperFunction,Conductor*%
D26*
G36*
X256733748Y-81265858D02*
G01*
X256719605Y-81280000D01*
X256733748Y-81294143D01*
X256554143Y-81473748D01*
X256540000Y-81459605D01*
X256525858Y-81473748D01*
X256346253Y-81294143D01*
X256360395Y-81280000D01*
X256346253Y-81265858D01*
X256525858Y-81086253D01*
X256540000Y-81100395D01*
X256554143Y-81086253D01*
X256733748Y-81265858D01*
G37*
%TD.AperFunction*%
M02*
