M48
; DRILL file {KiCad (5.1.12)-1} date 11/29/21 00:38:06
; FORMAT={-:-/ absolute / metric / decimal}
; #@! TF.CreationDate,2021-11-29T00:38:06+03:00
; #@! TF.GenerationSoftware,Kicad,Pcbnew,(5.1.12)-1
; #@! TF.FileFunction,Plated,1,2,PTH
FMAT,2
METRIC
T1C0.300
T2C0.762
T3C0.800
T4C0.990
T5C1.016
T6C1.300
%
G90
G05
T1
X178.562Y-96.774
X182.372Y-86.995
X185.801Y-96.774
X186.182Y-87.376
X186.182Y-89.662
X186.182Y-92.075
X186.182Y-93.853
X188.849Y-111.506
X191.77Y-84.709
X191.77Y-88.265
X191.77Y-90.043
X191.77Y-91.694
X191.77Y-94.107
X191.77Y-96.52
X194.871Y-99.637
X195.961Y-87.122
X197.189Y-88.322
X197.189Y-89.769
X197.748Y-104.308
X198.882Y-99.822
X199.263Y-82.296
X199.263Y-84.582
X200.279Y-108.839
X200.279Y-114.046
X200.66Y-87.63
X201.134Y-97.212
X201.519Y-99.939
X202.885Y-101.888
X203.2Y-108.839
X203.2Y-114.046
X203.962Y-88.392
X204.089Y-83.312
X204.216Y-94.107
X204.343Y-96.647
X205.232Y-89.662
X206.629Y-93.726
X206.756Y-87.63
X210.947Y-94.361
X211.836Y-89.471
X211.963Y-87.122
X212.344Y-94.742
X212.828Y-88.694
X213.614Y-88.011
X213.614Y-91.821
X214.272Y-94.003
X216.691Y-89.354
X216.916Y-87.63
X217.17Y-102.616
X217.17Y-107.315
X217.424Y-97.028
X217.455Y-89.915
X218.059Y-86.106
X218.567Y-87.63
X218.632Y-94.003
X220.218Y-102.743
X220.472Y-84.633
X221.234Y-93.472
X221.615Y-101.219
X221.742Y-81.026
X222.25Y-103.886
X223.026Y-104.08
X223.266Y-96.52
X224.282Y-85.979
X224.536Y-81.026
X224.536Y-84.074
X224.633Y-96.047
X224.79Y-99.441
X224.79Y-103.632
X225.006Y-94.749
X225.605Y-94.218
X225.806Y-95.758
X225.806Y-108.585
X225.98Y-93.512
X226.06Y-91.44
X226.468Y-96.892
X227.076Y-112.268
X227.282Y-93.398
X227.33Y-88.011
X227.33Y-100.076
X228.092Y-90.424
X228.346Y-108.585
X228.981Y-84.328
X229.517Y-91.959
X230.505Y-104.902
X230.759Y-92.456
X231.013Y-81.28
X231.267Y-105.537
X231.483Y-88.05
X232.537Y-100.838
X232.791Y-90.678
X233.623Y-95.343
X234.823Y-100.838
X235.077Y-87.249
X235.077Y-106.299
X235.166Y-109.474
X235.712Y-112.268
X235.966Y-109.474
X236.083Y-106.68
X236.22Y-86.868
X236.22Y-91.948
X236.311Y-84.339
X236.596Y-105.833
X236.728Y-98.679
X236.766Y-109.474
X237.0Y-104.0
X237.744Y-94.234
X238.216Y-109.417
X238.379Y-88.265
X238.76Y-102.616
X239.014Y-109.474
X239.204Y-100.076
X239.522Y-102.87
X240.184Y-95.396
X240.284Y-108.712
X241.0Y-105.0
X241.808Y-92.964
X243.078Y-96.774
X243.332Y-88.392
X243.586Y-90.17
X246.888Y-84.201
X247.0Y-95.0
X248.666Y-90.17
X250.0Y-102.0
X250.303Y-94.97
X254.762Y-86.868
X255.778Y-87.884
X256.286Y-89.408
X258.064Y-83.439
X258.191Y-92.075
X266.319Y-88.265
T2
X194.38Y-103.6
X196.92Y-103.6
X199.46Y-103.6
X202.0Y-103.6
X204.54Y-103.6
X207.08Y-103.6
X209.62Y-103.6
X224.282Y-107.188
X229.362Y-107.188
T3
X184.5Y-100.85
X184.5Y-107.35
X184.5Y-129.4
X184.5Y-135.9
X189.0Y-100.85
X189.0Y-107.35
X189.0Y-129.4
X189.0Y-135.9
X215.0Y-100.85
X215.0Y-107.35
X215.0Y-129.4
X215.0Y-135.9
X219.5Y-100.85
X219.5Y-107.35
X219.5Y-129.4
X219.5Y-135.9
T4
X234.442Y-81.28
X238.942Y-81.28
X256.54Y-81.28
X261.04Y-81.28
T5
X176.784Y-85.118
X176.784Y-87.658
X176.784Y-90.198
X176.784Y-92.738
X176.784Y-95.278
X179.324Y-99.06
X179.324Y-101.6
X179.324Y-104.14
X179.324Y-106.68
X179.324Y-109.22
X181.864Y-99.06
X181.864Y-101.6
X181.864Y-104.14
X181.864Y-106.68
X181.864Y-109.22
X191.008Y-81.788
X193.548Y-81.788
X196.088Y-81.788
X205.994Y-85.09
X208.534Y-85.09
X211.074Y-85.09
X213.614Y-85.09
X216.154Y-85.09
X261.62Y-99.06
X261.62Y-101.6
X261.62Y-104.14
X261.62Y-106.68
X261.62Y-109.22
X264.16Y-99.06
X264.16Y-101.6
X264.16Y-104.14
X264.16Y-106.68
X264.16Y-109.22
X273.05Y-85.118
X273.05Y-87.658
X273.05Y-90.198
X273.05Y-92.738
X273.05Y-95.278
T6
X233.192Y-83.77
X240.202Y-83.77
X255.29Y-83.77
X262.3Y-83.77
T0
M30
