%TF.GenerationSoftware,KiCad,Pcbnew,(5.1.12)-1*%
%TF.CreationDate,2021-11-29T00:24:33+03:00*%
%TF.ProjectId,lepetocontrol,6c657065-746f-4636-9f6e-74726f6c2e6b,rev?*%
%TF.SameCoordinates,Original*%
%TF.FileFunction,Legend,Top*%
%TF.FilePolarity,Positive*%
%FSLAX46Y46*%
G04 Gerber Fmt 4.6, Leading zero omitted, Abs format (unit mm)*
G04 Created by KiCad (PCBNEW (5.1.12)-1) date 2021-11-29 00:24:33*
%MOMM*%
%LPD*%
G01*
G04 APERTURE LIST*
%ADD10C,0.120000*%
G04 APERTURE END LIST*
D10*
X267214072Y-36642003D02*
X268146114Y-37752768D01*
X266524632Y-37220512D02*
X267456674Y-38331277D01*
X267214072Y-36642003D02*
X266524632Y-37220512D01*
X268582276Y-34594289D02*
X269838013Y-35319289D01*
X268132276Y-35373711D02*
X269388013Y-36098711D01*
X268582276Y-34594289D02*
X268132276Y-35373711D01*
X269322574Y-32250871D02*
X270750546Y-32502661D01*
X269166291Y-33137198D02*
X270594262Y-33388988D01*
X269322574Y-32250871D02*
X269166291Y-33137198D01*
X269166291Y-29780802D02*
X270594262Y-29529012D01*
X269322574Y-30667129D02*
X270750546Y-30415339D01*
X269166291Y-29780802D02*
X269322574Y-30667129D01*
X268132276Y-27544289D02*
X269388013Y-26819289D01*
X268582276Y-28323711D02*
X269838013Y-27598711D01*
X268132276Y-27544289D02*
X268582276Y-28323711D01*
X266424632Y-25797488D02*
X267356674Y-24686723D01*
X267114072Y-26375997D02*
X268046114Y-25265232D01*
X266424632Y-25797488D02*
X267114072Y-26375997D01*
X264232219Y-24597799D02*
X264728148Y-23235245D01*
X265077943Y-24905617D02*
X265573872Y-23543063D01*
X264232219Y-24597799D02*
X265077943Y-24905617D01*
X261830000Y-24409000D02*
X261830000Y-22959000D01*
X262730000Y-24409000D02*
X262730000Y-22959000D01*
X261830000Y-24409000D02*
X262730000Y-24409000D01*
X259432057Y-25005617D02*
X258936128Y-23643063D01*
X260277781Y-24697799D02*
X259781852Y-23335245D01*
X259432057Y-25005617D02*
X260277781Y-24697799D01*
X257345928Y-26275997D02*
X256413886Y-25165232D01*
X258035368Y-25697488D02*
X257103326Y-24586723D01*
X257345928Y-26275997D02*
X258035368Y-25697488D01*
X255877724Y-28323711D02*
X254621987Y-27598711D01*
X256327724Y-27544289D02*
X255071987Y-26819289D01*
X255877724Y-28323711D02*
X256327724Y-27544289D01*
X255237426Y-30667129D02*
X253809454Y-30415339D01*
X255393709Y-29780802D02*
X253965738Y-29529012D01*
X255237426Y-30667129D02*
X255393709Y-29780802D01*
X255493709Y-33037198D02*
X254065738Y-33288988D01*
X255337426Y-32150871D02*
X253909454Y-32402661D01*
X255493709Y-33037198D02*
X255337426Y-32150871D01*
X256427724Y-35373711D02*
X255171987Y-36098711D01*
X255977724Y-34594289D02*
X254721987Y-35319289D01*
X256427724Y-35373711D02*
X255977724Y-34594289D01*
X258035368Y-37220512D02*
X257103326Y-38331277D01*
X257345928Y-36642003D02*
X256413886Y-37752768D01*
X258035368Y-37220512D02*
X257345928Y-36642003D01*
X242214072Y-36642003D02*
X243146114Y-37752768D01*
X241524632Y-37220512D02*
X242456674Y-38331277D01*
X242214072Y-36642003D02*
X241524632Y-37220512D01*
X243582276Y-34594289D02*
X244838013Y-35319289D01*
X243132276Y-35373711D02*
X244388013Y-36098711D01*
X243582276Y-34594289D02*
X243132276Y-35373711D01*
X244322574Y-32250871D02*
X245750546Y-32502661D01*
X244166291Y-33137198D02*
X245594262Y-33388988D01*
X244322574Y-32250871D02*
X244166291Y-33137198D01*
X244166291Y-29780802D02*
X245594262Y-29529012D01*
X244322574Y-30667129D02*
X245750546Y-30415339D01*
X244166291Y-29780802D02*
X244322574Y-30667129D01*
X243132276Y-27544289D02*
X244388013Y-26819289D01*
X243582276Y-28323711D02*
X244838013Y-27598711D01*
X243132276Y-27544289D02*
X243582276Y-28323711D01*
X241424632Y-25797488D02*
X242356674Y-24686723D01*
X242114072Y-26375997D02*
X243046114Y-25265232D01*
X241424632Y-25797488D02*
X242114072Y-26375997D01*
X239232219Y-24597799D02*
X239728148Y-23235245D01*
X240077943Y-24905617D02*
X240573872Y-23543063D01*
X239232219Y-24597799D02*
X240077943Y-24905617D01*
X236830000Y-24409000D02*
X236830000Y-22959000D01*
X237730000Y-24409000D02*
X237730000Y-22959000D01*
X236830000Y-24409000D02*
X237730000Y-24409000D01*
X234432057Y-25005617D02*
X233936128Y-23643063D01*
X235277781Y-24697799D02*
X234781852Y-23335245D01*
X234432057Y-25005617D02*
X235277781Y-24697799D01*
X232345928Y-26275997D02*
X231413886Y-25165232D01*
X233035368Y-25697488D02*
X232103326Y-24586723D01*
X232345928Y-26275997D02*
X233035368Y-25697488D01*
X230877724Y-28323711D02*
X229621987Y-27598711D01*
X231327724Y-27544289D02*
X230071987Y-26819289D01*
X230877724Y-28323711D02*
X231327724Y-27544289D01*
X230237426Y-30667129D02*
X228809454Y-30415339D01*
X230393709Y-29780802D02*
X228965738Y-29529012D01*
X230237426Y-30667129D02*
X230393709Y-29780802D01*
X230493709Y-33037198D02*
X229065738Y-33288988D01*
X230337426Y-32150871D02*
X228909454Y-32402661D01*
X230493709Y-33037198D02*
X230337426Y-32150871D01*
X231427724Y-35373711D02*
X230171987Y-36098711D01*
X230977724Y-34594289D02*
X229721987Y-35319289D01*
X231427724Y-35373711D02*
X230977724Y-34594289D01*
X233035368Y-37220512D02*
X232103326Y-38331277D01*
X232345928Y-36642003D02*
X231413886Y-37752768D01*
X233035368Y-37220512D02*
X232345928Y-36642003D01*
X217214072Y-36642003D02*
X218146114Y-37752768D01*
X216524632Y-37220512D02*
X217456674Y-38331277D01*
X217214072Y-36642003D02*
X216524632Y-37220512D01*
X218582276Y-34594289D02*
X219838013Y-35319289D01*
X218132276Y-35373711D02*
X219388013Y-36098711D01*
X218582276Y-34594289D02*
X218132276Y-35373711D01*
X219322574Y-32250871D02*
X220750546Y-32502661D01*
X219166291Y-33137198D02*
X220594262Y-33388988D01*
X219322574Y-32250871D02*
X219166291Y-33137198D01*
X219166291Y-29780802D02*
X220594262Y-29529012D01*
X219322574Y-30667129D02*
X220750546Y-30415339D01*
X219166291Y-29780802D02*
X219322574Y-30667129D01*
X218132276Y-27544289D02*
X219388013Y-26819289D01*
X218582276Y-28323711D02*
X219838013Y-27598711D01*
X218132276Y-27544289D02*
X218582276Y-28323711D01*
X216424632Y-25797488D02*
X217356674Y-24686723D01*
X217114072Y-26375997D02*
X218046114Y-25265232D01*
X216424632Y-25797488D02*
X217114072Y-26375997D01*
X214232219Y-24597799D02*
X214728148Y-23235245D01*
X215077943Y-24905617D02*
X215573872Y-23543063D01*
X214232219Y-24597799D02*
X215077943Y-24905617D01*
X211830000Y-24409000D02*
X211830000Y-22959000D01*
X212730000Y-24409000D02*
X212730000Y-22959000D01*
X211830000Y-24409000D02*
X212730000Y-24409000D01*
X209432057Y-25005617D02*
X208936128Y-23643063D01*
X210277781Y-24697799D02*
X209781852Y-23335245D01*
X209432057Y-25005617D02*
X210277781Y-24697799D01*
X207345928Y-26275997D02*
X206413886Y-25165232D01*
X208035368Y-25697488D02*
X207103326Y-24586723D01*
X207345928Y-26275997D02*
X208035368Y-25697488D01*
X205877724Y-28323711D02*
X204621987Y-27598711D01*
X206327724Y-27544289D02*
X205071987Y-26819289D01*
X205877724Y-28323711D02*
X206327724Y-27544289D01*
X205237426Y-30667129D02*
X203809454Y-30415339D01*
X205393709Y-29780802D02*
X203965738Y-29529012D01*
X205237426Y-30667129D02*
X205393709Y-29780802D01*
X205493709Y-33037198D02*
X204065738Y-33288988D01*
X205337426Y-32150871D02*
X203909454Y-32402661D01*
X205493709Y-33037198D02*
X205337426Y-32150871D01*
X206427724Y-35373711D02*
X205171987Y-36098711D01*
X205977724Y-34594289D02*
X204721987Y-35319289D01*
X206427724Y-35373711D02*
X205977724Y-34594289D01*
X208035368Y-37220512D02*
X207103326Y-38331277D01*
X207345928Y-36642003D02*
X206413886Y-37752768D01*
X208035368Y-37220512D02*
X207345928Y-36642003D01*
X192214072Y-36642003D02*
X193146114Y-37752768D01*
X191524632Y-37220512D02*
X192456674Y-38331277D01*
X192214072Y-36642003D02*
X191524632Y-37220512D01*
X193582276Y-34594289D02*
X194838013Y-35319289D01*
X193132276Y-35373711D02*
X194388013Y-36098711D01*
X193582276Y-34594289D02*
X193132276Y-35373711D01*
X194322574Y-32250871D02*
X195750546Y-32502661D01*
X194166291Y-33137198D02*
X195594262Y-33388988D01*
X194322574Y-32250871D02*
X194166291Y-33137198D01*
X194166291Y-29780802D02*
X195594262Y-29529012D01*
X194322574Y-30667129D02*
X195750546Y-30415339D01*
X194166291Y-29780802D02*
X194322574Y-30667129D01*
X193132276Y-27544289D02*
X194388013Y-26819289D01*
X193582276Y-28323711D02*
X194838013Y-27598711D01*
X193132276Y-27544289D02*
X193582276Y-28323711D01*
X191424632Y-25797488D02*
X192356674Y-24686723D01*
X192114072Y-26375997D02*
X193046114Y-25265232D01*
X191424632Y-25797488D02*
X192114072Y-26375997D01*
X189232219Y-24597799D02*
X189728148Y-23235245D01*
X190077943Y-24905617D02*
X190573872Y-23543063D01*
X189232219Y-24597799D02*
X190077943Y-24905617D01*
X186830000Y-24409000D02*
X186830000Y-22959000D01*
X187730000Y-24409000D02*
X187730000Y-22959000D01*
X186830000Y-24409000D02*
X187730000Y-24409000D01*
X184432057Y-25005617D02*
X183936128Y-23643063D01*
X185277781Y-24697799D02*
X184781852Y-23335245D01*
X184432057Y-25005617D02*
X185277781Y-24697799D01*
X182345928Y-26275997D02*
X181413886Y-25165232D01*
X183035368Y-25697488D02*
X182103326Y-24586723D01*
X182345928Y-26275997D02*
X183035368Y-25697488D01*
X180877724Y-28323711D02*
X179621987Y-27598711D01*
X181327724Y-27544289D02*
X180071987Y-26819289D01*
X180877724Y-28323711D02*
X181327724Y-27544289D01*
X180237426Y-30667129D02*
X178809454Y-30415339D01*
X180393709Y-29780802D02*
X178965738Y-29529012D01*
X180237426Y-30667129D02*
X180393709Y-29780802D01*
X180493709Y-33037198D02*
X179065738Y-33288988D01*
X180337426Y-32150871D02*
X178909454Y-32402661D01*
X180493709Y-33037198D02*
X180337426Y-32150871D01*
X181427724Y-35373711D02*
X180171987Y-36098711D01*
X180977724Y-34594289D02*
X179721987Y-35319289D01*
X181427724Y-35373711D02*
X180977724Y-34594289D01*
X183035368Y-37220512D02*
X182103326Y-38331277D01*
X182345928Y-36642003D02*
X181413886Y-37752768D01*
X183035368Y-37220512D02*
X182345928Y-36642003D01*
M02*
