%TF.GenerationSoftware,KiCad,Pcbnew,(5.1.12)-1*%
%TF.CreationDate,2021-11-29T00:24:33+03:00*%
%TF.ProjectId,lepetocontrol,6c657065-746f-4636-9f6e-74726f6c2e6b,rev?*%
%TF.SameCoordinates,Original*%
%TF.FileFunction,Soldermask,Top*%
%TF.FilePolarity,Negative*%
%FSLAX46Y46*%
G04 Gerber Fmt 4.6, Leading zero omitted, Abs format (unit mm)*
G04 Created by KiCad (PCBNEW (5.1.12)-1) date 2021-11-29 00:24:33*
%MOMM*%
%LPD*%
G01*
G04 APERTURE LIST*
%ADD10O,2.032000X1.727200*%
%ADD11R,2.032000X1.727200*%
%ADD12O,3.000000X1.500000*%
%ADD13C,12.000000*%
%ADD14C,0.100000*%
%ADD15R,0.700000X0.600000*%
G04 APERTURE END LIST*
D10*
X176530000Y-36576000D03*
X176530000Y-34036000D03*
X176530000Y-31496000D03*
X176530000Y-28956000D03*
D11*
X176530000Y-26416000D03*
D10*
X273050000Y-36576000D03*
X273050000Y-34036000D03*
X273050000Y-31496000D03*
X273050000Y-28956000D03*
D11*
X273050000Y-26416000D03*
D12*
X187280000Y-39259000D03*
D13*
X187280000Y-31459000D03*
D12*
X212280000Y-39259000D03*
D13*
X212280000Y-31459000D03*
D12*
X237280000Y-39259000D03*
D13*
X237280000Y-31459000D03*
D12*
X262280000Y-39259000D03*
D13*
X262280000Y-31459000D03*
D14*
G36*
X267587419Y-37242514D02*
G01*
X267051188Y-37692465D01*
X266665515Y-37232838D01*
X267201746Y-36782887D01*
X267587419Y-37242514D01*
G37*
G36*
X268294485Y-38085162D02*
G01*
X267758254Y-38535113D01*
X267372581Y-38075486D01*
X267908812Y-37625535D01*
X268294485Y-38085162D01*
G37*
G36*
X269138494Y-35030891D02*
G01*
X268788494Y-35637109D01*
X268268878Y-35337109D01*
X268618878Y-34730891D01*
X269138494Y-35030891D01*
G37*
G36*
X270091122Y-35580891D02*
G01*
X269741122Y-36187109D01*
X269221506Y-35887109D01*
X269571506Y-35280891D01*
X270091122Y-35580891D01*
G37*
G36*
X269994575Y-32470906D02*
G01*
X269873021Y-33160271D01*
X269282137Y-33056082D01*
X269403691Y-32366717D01*
X269994575Y-32470906D01*
G37*
G36*
X271077863Y-32661918D02*
G01*
X270956309Y-33351283D01*
X270365425Y-33247094D01*
X270486979Y-32557729D01*
X271077863Y-32661918D01*
G37*
G36*
X269873021Y-29757729D02*
G01*
X269994575Y-30447094D01*
X269403691Y-30551283D01*
X269282137Y-29861918D01*
X269873021Y-29757729D01*
G37*
G36*
X270956309Y-29566717D02*
G01*
X271077863Y-30256082D01*
X270486979Y-30360271D01*
X270365425Y-29670906D01*
X270956309Y-29566717D01*
G37*
G36*
X268788494Y-27280891D02*
G01*
X269138494Y-27887109D01*
X268618878Y-28187109D01*
X268268878Y-27580891D01*
X268788494Y-27280891D01*
G37*
G36*
X269741122Y-26730891D02*
G01*
X270091122Y-27337109D01*
X269571506Y-27637109D01*
X269221506Y-27030891D01*
X269741122Y-26730891D01*
G37*
G36*
X266951188Y-25325535D02*
G01*
X267487419Y-25775486D01*
X267101746Y-26235113D01*
X266565515Y-25785162D01*
X266951188Y-25325535D01*
G37*
G36*
X267658254Y-24482887D02*
G01*
X268194485Y-24932838D01*
X267808812Y-25392465D01*
X267272581Y-24942514D01*
X267658254Y-24482887D01*
G37*
G36*
X264565603Y-23974216D02*
G01*
X265223387Y-24213630D01*
X265018175Y-24777446D01*
X264360391Y-24538032D01*
X264565603Y-23974216D01*
G37*
G36*
X264941825Y-22940554D02*
G01*
X265599609Y-23179968D01*
X265394397Y-23743784D01*
X264736613Y-23504370D01*
X264941825Y-22940554D01*
G37*
D15*
X262280000Y-24009000D03*
X262280000Y-22909000D03*
D14*
G36*
X259286613Y-24313630D02*
G01*
X259944397Y-24074216D01*
X260149609Y-24638032D01*
X259491825Y-24877446D01*
X259286613Y-24313630D01*
G37*
G36*
X258910391Y-23279968D02*
G01*
X259568175Y-23040554D01*
X259773387Y-23604370D01*
X259115603Y-23843784D01*
X258910391Y-23279968D01*
G37*
G36*
X256972581Y-25675486D02*
G01*
X257508812Y-25225535D01*
X257894485Y-25685162D01*
X257358254Y-26135113D01*
X256972581Y-25675486D01*
G37*
G36*
X256265515Y-24832838D02*
G01*
X256801746Y-24382887D01*
X257187419Y-24842514D01*
X256651188Y-25292465D01*
X256265515Y-24832838D01*
G37*
G36*
X255321506Y-27887109D02*
G01*
X255671506Y-27280891D01*
X256191122Y-27580891D01*
X255841122Y-28187109D01*
X255321506Y-27887109D01*
G37*
G36*
X254368878Y-27337109D02*
G01*
X254718878Y-26730891D01*
X255238494Y-27030891D01*
X254888494Y-27637109D01*
X254368878Y-27337109D01*
G37*
G36*
X254565425Y-30447094D02*
G01*
X254686979Y-29757729D01*
X255277863Y-29861918D01*
X255156309Y-30551283D01*
X254565425Y-30447094D01*
G37*
G36*
X253482137Y-30256082D02*
G01*
X253603691Y-29566717D01*
X254194575Y-29670906D01*
X254073021Y-30360271D01*
X253482137Y-30256082D01*
G37*
G36*
X254786979Y-33060271D02*
G01*
X254665425Y-32370906D01*
X255256309Y-32266717D01*
X255377863Y-32956082D01*
X254786979Y-33060271D01*
G37*
G36*
X253703691Y-33251283D02*
G01*
X253582137Y-32561918D01*
X254173021Y-32457729D01*
X254294575Y-33147094D01*
X253703691Y-33251283D01*
G37*
G36*
X255771506Y-35637109D02*
G01*
X255421506Y-35030891D01*
X255941122Y-34730891D01*
X256291122Y-35337109D01*
X255771506Y-35637109D01*
G37*
G36*
X254818878Y-36187109D02*
G01*
X254468878Y-35580891D01*
X254988494Y-35280891D01*
X255338494Y-35887109D01*
X254818878Y-36187109D01*
G37*
G36*
X257508812Y-37692465D02*
G01*
X256972581Y-37242514D01*
X257358254Y-36782887D01*
X257894485Y-37232838D01*
X257508812Y-37692465D01*
G37*
G36*
X256801746Y-38535113D02*
G01*
X256265515Y-38085162D01*
X256651188Y-37625535D01*
X257187419Y-38075486D01*
X256801746Y-38535113D01*
G37*
G36*
X242587419Y-37242514D02*
G01*
X242051188Y-37692465D01*
X241665515Y-37232838D01*
X242201746Y-36782887D01*
X242587419Y-37242514D01*
G37*
G36*
X243294485Y-38085162D02*
G01*
X242758254Y-38535113D01*
X242372581Y-38075486D01*
X242908812Y-37625535D01*
X243294485Y-38085162D01*
G37*
G36*
X244138494Y-35030891D02*
G01*
X243788494Y-35637109D01*
X243268878Y-35337109D01*
X243618878Y-34730891D01*
X244138494Y-35030891D01*
G37*
G36*
X245091122Y-35580891D02*
G01*
X244741122Y-36187109D01*
X244221506Y-35887109D01*
X244571506Y-35280891D01*
X245091122Y-35580891D01*
G37*
G36*
X244994575Y-32470906D02*
G01*
X244873021Y-33160271D01*
X244282137Y-33056082D01*
X244403691Y-32366717D01*
X244994575Y-32470906D01*
G37*
G36*
X246077863Y-32661918D02*
G01*
X245956309Y-33351283D01*
X245365425Y-33247094D01*
X245486979Y-32557729D01*
X246077863Y-32661918D01*
G37*
G36*
X244873021Y-29757729D02*
G01*
X244994575Y-30447094D01*
X244403691Y-30551283D01*
X244282137Y-29861918D01*
X244873021Y-29757729D01*
G37*
G36*
X245956309Y-29566717D02*
G01*
X246077863Y-30256082D01*
X245486979Y-30360271D01*
X245365425Y-29670906D01*
X245956309Y-29566717D01*
G37*
G36*
X243788494Y-27280891D02*
G01*
X244138494Y-27887109D01*
X243618878Y-28187109D01*
X243268878Y-27580891D01*
X243788494Y-27280891D01*
G37*
G36*
X244741122Y-26730891D02*
G01*
X245091122Y-27337109D01*
X244571506Y-27637109D01*
X244221506Y-27030891D01*
X244741122Y-26730891D01*
G37*
G36*
X241951188Y-25325535D02*
G01*
X242487419Y-25775486D01*
X242101746Y-26235113D01*
X241565515Y-25785162D01*
X241951188Y-25325535D01*
G37*
G36*
X242658254Y-24482887D02*
G01*
X243194485Y-24932838D01*
X242808812Y-25392465D01*
X242272581Y-24942514D01*
X242658254Y-24482887D01*
G37*
G36*
X239565603Y-23974216D02*
G01*
X240223387Y-24213630D01*
X240018175Y-24777446D01*
X239360391Y-24538032D01*
X239565603Y-23974216D01*
G37*
G36*
X239941825Y-22940554D02*
G01*
X240599609Y-23179968D01*
X240394397Y-23743784D01*
X239736613Y-23504370D01*
X239941825Y-22940554D01*
G37*
D15*
X237280000Y-24009000D03*
X237280000Y-22909000D03*
D14*
G36*
X234286613Y-24313630D02*
G01*
X234944397Y-24074216D01*
X235149609Y-24638032D01*
X234491825Y-24877446D01*
X234286613Y-24313630D01*
G37*
G36*
X233910391Y-23279968D02*
G01*
X234568175Y-23040554D01*
X234773387Y-23604370D01*
X234115603Y-23843784D01*
X233910391Y-23279968D01*
G37*
G36*
X231972581Y-25675486D02*
G01*
X232508812Y-25225535D01*
X232894485Y-25685162D01*
X232358254Y-26135113D01*
X231972581Y-25675486D01*
G37*
G36*
X231265515Y-24832838D02*
G01*
X231801746Y-24382887D01*
X232187419Y-24842514D01*
X231651188Y-25292465D01*
X231265515Y-24832838D01*
G37*
G36*
X230321506Y-27887109D02*
G01*
X230671506Y-27280891D01*
X231191122Y-27580891D01*
X230841122Y-28187109D01*
X230321506Y-27887109D01*
G37*
G36*
X229368878Y-27337109D02*
G01*
X229718878Y-26730891D01*
X230238494Y-27030891D01*
X229888494Y-27637109D01*
X229368878Y-27337109D01*
G37*
G36*
X229565425Y-30447094D02*
G01*
X229686979Y-29757729D01*
X230277863Y-29861918D01*
X230156309Y-30551283D01*
X229565425Y-30447094D01*
G37*
G36*
X228482137Y-30256082D02*
G01*
X228603691Y-29566717D01*
X229194575Y-29670906D01*
X229073021Y-30360271D01*
X228482137Y-30256082D01*
G37*
G36*
X229786979Y-33060271D02*
G01*
X229665425Y-32370906D01*
X230256309Y-32266717D01*
X230377863Y-32956082D01*
X229786979Y-33060271D01*
G37*
G36*
X228703691Y-33251283D02*
G01*
X228582137Y-32561918D01*
X229173021Y-32457729D01*
X229294575Y-33147094D01*
X228703691Y-33251283D01*
G37*
G36*
X230771506Y-35637109D02*
G01*
X230421506Y-35030891D01*
X230941122Y-34730891D01*
X231291122Y-35337109D01*
X230771506Y-35637109D01*
G37*
G36*
X229818878Y-36187109D02*
G01*
X229468878Y-35580891D01*
X229988494Y-35280891D01*
X230338494Y-35887109D01*
X229818878Y-36187109D01*
G37*
G36*
X232508812Y-37692465D02*
G01*
X231972581Y-37242514D01*
X232358254Y-36782887D01*
X232894485Y-37232838D01*
X232508812Y-37692465D01*
G37*
G36*
X231801746Y-38535113D02*
G01*
X231265515Y-38085162D01*
X231651188Y-37625535D01*
X232187419Y-38075486D01*
X231801746Y-38535113D01*
G37*
G36*
X217587419Y-37242514D02*
G01*
X217051188Y-37692465D01*
X216665515Y-37232838D01*
X217201746Y-36782887D01*
X217587419Y-37242514D01*
G37*
G36*
X218294485Y-38085162D02*
G01*
X217758254Y-38535113D01*
X217372581Y-38075486D01*
X217908812Y-37625535D01*
X218294485Y-38085162D01*
G37*
G36*
X219138494Y-35030891D02*
G01*
X218788494Y-35637109D01*
X218268878Y-35337109D01*
X218618878Y-34730891D01*
X219138494Y-35030891D01*
G37*
G36*
X220091122Y-35580891D02*
G01*
X219741122Y-36187109D01*
X219221506Y-35887109D01*
X219571506Y-35280891D01*
X220091122Y-35580891D01*
G37*
G36*
X219994575Y-32470906D02*
G01*
X219873021Y-33160271D01*
X219282137Y-33056082D01*
X219403691Y-32366717D01*
X219994575Y-32470906D01*
G37*
G36*
X221077863Y-32661918D02*
G01*
X220956309Y-33351283D01*
X220365425Y-33247094D01*
X220486979Y-32557729D01*
X221077863Y-32661918D01*
G37*
G36*
X219873021Y-29757729D02*
G01*
X219994575Y-30447094D01*
X219403691Y-30551283D01*
X219282137Y-29861918D01*
X219873021Y-29757729D01*
G37*
G36*
X220956309Y-29566717D02*
G01*
X221077863Y-30256082D01*
X220486979Y-30360271D01*
X220365425Y-29670906D01*
X220956309Y-29566717D01*
G37*
G36*
X218788494Y-27280891D02*
G01*
X219138494Y-27887109D01*
X218618878Y-28187109D01*
X218268878Y-27580891D01*
X218788494Y-27280891D01*
G37*
G36*
X219741122Y-26730891D02*
G01*
X220091122Y-27337109D01*
X219571506Y-27637109D01*
X219221506Y-27030891D01*
X219741122Y-26730891D01*
G37*
G36*
X216951188Y-25325535D02*
G01*
X217487419Y-25775486D01*
X217101746Y-26235113D01*
X216565515Y-25785162D01*
X216951188Y-25325535D01*
G37*
G36*
X217658254Y-24482887D02*
G01*
X218194485Y-24932838D01*
X217808812Y-25392465D01*
X217272581Y-24942514D01*
X217658254Y-24482887D01*
G37*
G36*
X214565603Y-23974216D02*
G01*
X215223387Y-24213630D01*
X215018175Y-24777446D01*
X214360391Y-24538032D01*
X214565603Y-23974216D01*
G37*
G36*
X214941825Y-22940554D02*
G01*
X215599609Y-23179968D01*
X215394397Y-23743784D01*
X214736613Y-23504370D01*
X214941825Y-22940554D01*
G37*
D15*
X212280000Y-24009000D03*
X212280000Y-22909000D03*
D14*
G36*
X209286613Y-24313630D02*
G01*
X209944397Y-24074216D01*
X210149609Y-24638032D01*
X209491825Y-24877446D01*
X209286613Y-24313630D01*
G37*
G36*
X208910391Y-23279968D02*
G01*
X209568175Y-23040554D01*
X209773387Y-23604370D01*
X209115603Y-23843784D01*
X208910391Y-23279968D01*
G37*
G36*
X206972581Y-25675486D02*
G01*
X207508812Y-25225535D01*
X207894485Y-25685162D01*
X207358254Y-26135113D01*
X206972581Y-25675486D01*
G37*
G36*
X206265515Y-24832838D02*
G01*
X206801746Y-24382887D01*
X207187419Y-24842514D01*
X206651188Y-25292465D01*
X206265515Y-24832838D01*
G37*
G36*
X205321506Y-27887109D02*
G01*
X205671506Y-27280891D01*
X206191122Y-27580891D01*
X205841122Y-28187109D01*
X205321506Y-27887109D01*
G37*
G36*
X204368878Y-27337109D02*
G01*
X204718878Y-26730891D01*
X205238494Y-27030891D01*
X204888494Y-27637109D01*
X204368878Y-27337109D01*
G37*
G36*
X204565425Y-30447094D02*
G01*
X204686979Y-29757729D01*
X205277863Y-29861918D01*
X205156309Y-30551283D01*
X204565425Y-30447094D01*
G37*
G36*
X203482137Y-30256082D02*
G01*
X203603691Y-29566717D01*
X204194575Y-29670906D01*
X204073021Y-30360271D01*
X203482137Y-30256082D01*
G37*
G36*
X204786979Y-33060271D02*
G01*
X204665425Y-32370906D01*
X205256309Y-32266717D01*
X205377863Y-32956082D01*
X204786979Y-33060271D01*
G37*
G36*
X203703691Y-33251283D02*
G01*
X203582137Y-32561918D01*
X204173021Y-32457729D01*
X204294575Y-33147094D01*
X203703691Y-33251283D01*
G37*
G36*
X205771506Y-35637109D02*
G01*
X205421506Y-35030891D01*
X205941122Y-34730891D01*
X206291122Y-35337109D01*
X205771506Y-35637109D01*
G37*
G36*
X204818878Y-36187109D02*
G01*
X204468878Y-35580891D01*
X204988494Y-35280891D01*
X205338494Y-35887109D01*
X204818878Y-36187109D01*
G37*
G36*
X207508812Y-37692465D02*
G01*
X206972581Y-37242514D01*
X207358254Y-36782887D01*
X207894485Y-37232838D01*
X207508812Y-37692465D01*
G37*
G36*
X206801746Y-38535113D02*
G01*
X206265515Y-38085162D01*
X206651188Y-37625535D01*
X207187419Y-38075486D01*
X206801746Y-38535113D01*
G37*
G36*
X192587419Y-37242514D02*
G01*
X192051188Y-37692465D01*
X191665515Y-37232838D01*
X192201746Y-36782887D01*
X192587419Y-37242514D01*
G37*
G36*
X193294485Y-38085162D02*
G01*
X192758254Y-38535113D01*
X192372581Y-38075486D01*
X192908812Y-37625535D01*
X193294485Y-38085162D01*
G37*
G36*
X194138494Y-35030891D02*
G01*
X193788494Y-35637109D01*
X193268878Y-35337109D01*
X193618878Y-34730891D01*
X194138494Y-35030891D01*
G37*
G36*
X195091122Y-35580891D02*
G01*
X194741122Y-36187109D01*
X194221506Y-35887109D01*
X194571506Y-35280891D01*
X195091122Y-35580891D01*
G37*
G36*
X194994575Y-32470906D02*
G01*
X194873021Y-33160271D01*
X194282137Y-33056082D01*
X194403691Y-32366717D01*
X194994575Y-32470906D01*
G37*
G36*
X196077863Y-32661918D02*
G01*
X195956309Y-33351283D01*
X195365425Y-33247094D01*
X195486979Y-32557729D01*
X196077863Y-32661918D01*
G37*
G36*
X194873021Y-29757729D02*
G01*
X194994575Y-30447094D01*
X194403691Y-30551283D01*
X194282137Y-29861918D01*
X194873021Y-29757729D01*
G37*
G36*
X195956309Y-29566717D02*
G01*
X196077863Y-30256082D01*
X195486979Y-30360271D01*
X195365425Y-29670906D01*
X195956309Y-29566717D01*
G37*
G36*
X193788494Y-27280891D02*
G01*
X194138494Y-27887109D01*
X193618878Y-28187109D01*
X193268878Y-27580891D01*
X193788494Y-27280891D01*
G37*
G36*
X194741122Y-26730891D02*
G01*
X195091122Y-27337109D01*
X194571506Y-27637109D01*
X194221506Y-27030891D01*
X194741122Y-26730891D01*
G37*
G36*
X191951188Y-25325535D02*
G01*
X192487419Y-25775486D01*
X192101746Y-26235113D01*
X191565515Y-25785162D01*
X191951188Y-25325535D01*
G37*
G36*
X192658254Y-24482887D02*
G01*
X193194485Y-24932838D01*
X192808812Y-25392465D01*
X192272581Y-24942514D01*
X192658254Y-24482887D01*
G37*
G36*
X189565603Y-23974216D02*
G01*
X190223387Y-24213630D01*
X190018175Y-24777446D01*
X189360391Y-24538032D01*
X189565603Y-23974216D01*
G37*
G36*
X189941825Y-22940554D02*
G01*
X190599609Y-23179968D01*
X190394397Y-23743784D01*
X189736613Y-23504370D01*
X189941825Y-22940554D01*
G37*
D15*
X187280000Y-24009000D03*
X187280000Y-22909000D03*
D14*
G36*
X184286613Y-24313630D02*
G01*
X184944397Y-24074216D01*
X185149609Y-24638032D01*
X184491825Y-24877446D01*
X184286613Y-24313630D01*
G37*
G36*
X183910391Y-23279968D02*
G01*
X184568175Y-23040554D01*
X184773387Y-23604370D01*
X184115603Y-23843784D01*
X183910391Y-23279968D01*
G37*
G36*
X181972581Y-25675486D02*
G01*
X182508812Y-25225535D01*
X182894485Y-25685162D01*
X182358254Y-26135113D01*
X181972581Y-25675486D01*
G37*
G36*
X181265515Y-24832838D02*
G01*
X181801746Y-24382887D01*
X182187419Y-24842514D01*
X181651188Y-25292465D01*
X181265515Y-24832838D01*
G37*
G36*
X180321506Y-27887109D02*
G01*
X180671506Y-27280891D01*
X181191122Y-27580891D01*
X180841122Y-28187109D01*
X180321506Y-27887109D01*
G37*
G36*
X179368878Y-27337109D02*
G01*
X179718878Y-26730891D01*
X180238494Y-27030891D01*
X179888494Y-27637109D01*
X179368878Y-27337109D01*
G37*
G36*
X179565425Y-30447094D02*
G01*
X179686979Y-29757729D01*
X180277863Y-29861918D01*
X180156309Y-30551283D01*
X179565425Y-30447094D01*
G37*
G36*
X178482137Y-30256082D02*
G01*
X178603691Y-29566717D01*
X179194575Y-29670906D01*
X179073021Y-30360271D01*
X178482137Y-30256082D01*
G37*
G36*
X179786979Y-33060271D02*
G01*
X179665425Y-32370906D01*
X180256309Y-32266717D01*
X180377863Y-32956082D01*
X179786979Y-33060271D01*
G37*
G36*
X178703691Y-33251283D02*
G01*
X178582137Y-32561918D01*
X179173021Y-32457729D01*
X179294575Y-33147094D01*
X178703691Y-33251283D01*
G37*
G36*
X180771506Y-35637109D02*
G01*
X180421506Y-35030891D01*
X180941122Y-34730891D01*
X181291122Y-35337109D01*
X180771506Y-35637109D01*
G37*
G36*
X179818878Y-36187109D02*
G01*
X179468878Y-35580891D01*
X179988494Y-35280891D01*
X180338494Y-35887109D01*
X179818878Y-36187109D01*
G37*
G36*
X182508812Y-37692465D02*
G01*
X181972581Y-37242514D01*
X182358254Y-36782887D01*
X182894485Y-37232838D01*
X182508812Y-37692465D01*
G37*
G36*
X181801746Y-38535113D02*
G01*
X181265515Y-38085162D01*
X181651188Y-37625535D01*
X182187419Y-38075486D01*
X181801746Y-38535113D01*
G37*
M02*
