%TF.GenerationSoftware,KiCad,Pcbnew,(5.1.12)-1*%
%TF.CreationDate,2021-11-29T00:24:33+03:00*%
%TF.ProjectId,lepetocontrol,6c657065-746f-4636-9f6e-74726f6c2e6b,rev?*%
%TF.SameCoordinates,Original*%
%TF.FileFunction,Copper,L2,Bot*%
%TF.FilePolarity,Positive*%
%FSLAX46Y46*%
G04 Gerber Fmt 4.6, Leading zero omitted, Abs format (unit mm)*
G04 Created by KiCad (PCBNEW (5.1.12)-1) date 2021-11-29 00:24:33*
%MOMM*%
%LPD*%
G01*
G04 APERTURE LIST*
%TA.AperFunction,ComponentPad*%
%ADD10O,2.032000X1.727200*%
%TD*%
%TA.AperFunction,ComponentPad*%
%ADD11R,2.032000X1.727200*%
%TD*%
%TA.AperFunction,ComponentPad*%
%ADD12C,12.000000*%
%TD*%
%TA.AperFunction,SMDPad,CuDef*%
%ADD13R,0.700000X1.300000*%
%TD*%
%TA.AperFunction,SMDPad,CuDef*%
%ADD14R,1.300000X0.700000*%
%TD*%
%TA.AperFunction,SMDPad,CuDef*%
%ADD15R,1.500000X0.600000*%
%TD*%
%TA.AperFunction,SMDPad,CuDef*%
%ADD16R,0.900000X0.800000*%
%TD*%
%TA.AperFunction,ViaPad*%
%ADD17C,0.600000*%
%TD*%
%TA.AperFunction,Conductor*%
%ADD18C,0.200000*%
%TD*%
%TA.AperFunction,Conductor*%
%ADD19C,0.300000*%
%TD*%
%TA.AperFunction,Conductor*%
%ADD20C,0.250000*%
%TD*%
G04 APERTURE END LIST*
D10*
X176530000Y-36576000D03*
X176530000Y-34036000D03*
X176530000Y-31496000D03*
X176530000Y-28956000D03*
D11*
X176530000Y-26416000D03*
D10*
X273050000Y-36576000D03*
X273050000Y-34036000D03*
X273050000Y-31496000D03*
X273050000Y-28956000D03*
D11*
X273050000Y-26416000D03*
D12*
X187280000Y-31459000D03*
X212280000Y-31459000D03*
X237280000Y-31459000D03*
X262280000Y-31459000D03*
D13*
X184772000Y-39465000D03*
X182872000Y-39465000D03*
D14*
X197858000Y-29559000D03*
X197858000Y-27659000D03*
X199763000Y-29681000D03*
X199763000Y-27781000D03*
D13*
X196649000Y-33623000D03*
X194749000Y-33623000D03*
D14*
X201668000Y-29620000D03*
X201668000Y-27720000D03*
D13*
X196710000Y-35528000D03*
X194810000Y-35528000D03*
X196972000Y-37433000D03*
X195072000Y-37433000D03*
X196972000Y-39338000D03*
X195072000Y-39338000D03*
X205991001Y-38703000D03*
X207891001Y-38703000D03*
D15*
X204147000Y-39973000D03*
X204147000Y-38703000D03*
X204147000Y-37433000D03*
X204147000Y-36163000D03*
X204147000Y-34893000D03*
X204147000Y-33623000D03*
X204147000Y-32353000D03*
X204147000Y-31083000D03*
X198747000Y-31083000D03*
X198747000Y-32353000D03*
X198747000Y-33623000D03*
X198747000Y-34893000D03*
X198747000Y-36163000D03*
X198747000Y-37433000D03*
X198747000Y-38703000D03*
X198747000Y-39973000D03*
X227515000Y-39973000D03*
X227515000Y-38703000D03*
X227515000Y-37433000D03*
X227515000Y-36163000D03*
X227515000Y-34893000D03*
X227515000Y-33623000D03*
X227515000Y-32353000D03*
X227515000Y-31083000D03*
X222115000Y-31083000D03*
X222115000Y-32353000D03*
X222115000Y-33623000D03*
X222115000Y-34893000D03*
X222115000Y-36163000D03*
X222115000Y-37433000D03*
X222115000Y-38703000D03*
X222115000Y-39973000D03*
D14*
X250436000Y-37565001D03*
X250436000Y-39465001D03*
D13*
X252153000Y-35782000D03*
X254053000Y-35782000D03*
X244853001Y-36036000D03*
X246753001Y-36036000D03*
D14*
X229862000Y-33054000D03*
X229862000Y-34954000D03*
X225671000Y-29559001D03*
X225671000Y-27659001D03*
X219321000Y-39018000D03*
X219321000Y-37118000D03*
X193548000Y-39846000D03*
X193548000Y-37946000D03*
D16*
X254230000Y-38449000D03*
X252230000Y-37499000D03*
X252230000Y-39399000D03*
X254230000Y-32861000D03*
X252230000Y-31911000D03*
X252230000Y-33811000D03*
X246848000Y-33176000D03*
X244848000Y-32226000D03*
X244848000Y-34126000D03*
X231608000Y-37626000D03*
X229608000Y-36676000D03*
X229608000Y-38576000D03*
X223988000Y-28477000D03*
X221988000Y-27527000D03*
X221988000Y-29427000D03*
X217543000Y-38896000D03*
X215543000Y-37946000D03*
X215543000Y-39846000D03*
X191881000Y-39592000D03*
X189881000Y-38642000D03*
X189881000Y-40542000D03*
X181570000Y-39150000D03*
X179570000Y-38200000D03*
X179570000Y-40100000D03*
D17*
X181610000Y-39973000D03*
X213733000Y-25114000D03*
X264279000Y-25241000D03*
X252560010Y-25368000D03*
X239052123Y-25205232D03*
X189603000Y-25241000D03*
X207002000Y-38830000D03*
X226433398Y-26308990D03*
X202105962Y-26369989D03*
X180991018Y-36140307D03*
X192024000Y-38830000D03*
X218829673Y-25732327D03*
X253041059Y-24728773D03*
X193421039Y-25867961D03*
X201252010Y-25767951D03*
X243435120Y-25276233D03*
X202896998Y-33623000D03*
X226578994Y-25522339D03*
X266468032Y-24956976D03*
X180000928Y-33634674D03*
X220672674Y-25032326D03*
X253905143Y-24367980D03*
X244065259Y-24384054D03*
X193994040Y-25167960D03*
X201757448Y-25147829D03*
X195064000Y-28035000D03*
X227297880Y-25171310D03*
X268673373Y-26596617D03*
X179296031Y-31459000D03*
X202545959Y-24467959D03*
X254903831Y-23967968D03*
X227873272Y-24522272D03*
X194488255Y-24524663D03*
X245019509Y-23963420D03*
X222218942Y-24340957D03*
X195318000Y-30956000D03*
X180780000Y-23959000D03*
X270399099Y-28873305D03*
X228711316Y-23684228D03*
X194501133Y-23688998D03*
X203420993Y-23810801D03*
X255893152Y-23569681D03*
X245294162Y-23212032D03*
X222818952Y-23706320D03*
X201668000Y-28543000D03*
X200525000Y-23590000D03*
X204335000Y-28543000D03*
X181780000Y-23358990D03*
X270777863Y-31972000D03*
X195220537Y-23339032D03*
X204133512Y-23447021D03*
X229781001Y-23212032D03*
X256659194Y-23339030D03*
X246094175Y-23212032D03*
X223424959Y-23184042D03*
X195398989Y-33884097D03*
X182310444Y-22760118D03*
X270462728Y-35615728D03*
X263136000Y-22193000D03*
X217933062Y-22812021D03*
X234434000Y-22784037D03*
X259300857Y-22812021D03*
X242689000Y-22784031D03*
X207891000Y-23082000D03*
X199763000Y-28543000D03*
X185129656Y-22258946D03*
X192675301Y-22441358D03*
X208056746Y-37552988D03*
X222863032Y-30090344D03*
X231640000Y-36798000D03*
X244228010Y-33242000D03*
X255770000Y-33496000D03*
X266184000Y-37941000D03*
X226500870Y-38452693D03*
X192610341Y-40604968D03*
X222610603Y-36117770D03*
X225683997Y-34989757D03*
X223171670Y-34879649D03*
X225171703Y-34375287D03*
X224979023Y-33598825D03*
X223208372Y-33549276D03*
X224655000Y-32353000D03*
X223385000Y-32353000D03*
X205279981Y-31337000D03*
X226129670Y-37744012D03*
X226306000Y-39973000D03*
X225544000Y-32480000D03*
X201668000Y-33115000D03*
X202811000Y-39973000D03*
X202692000Y-41751000D03*
X205986000Y-40253012D03*
X197858000Y-28416000D03*
X198769355Y-23436222D03*
X197865813Y-24243830D03*
X223766000Y-39211000D03*
X226052000Y-36290000D03*
X201676000Y-39211000D03*
X209410947Y-40133969D03*
X225010648Y-36558761D03*
X200533000Y-36925000D03*
X201803000Y-37560000D03*
D18*
X181610000Y-39190000D02*
X181570000Y-39150000D01*
X181610000Y-39973000D02*
X181610000Y-39190000D01*
X213860004Y-25114000D02*
X213987002Y-24987002D01*
X213733000Y-25114000D02*
X213860004Y-25114000D01*
X189603000Y-25241000D02*
X189603000Y-25114000D01*
X260417303Y-25412077D02*
X257736949Y-25412077D01*
X252860009Y-25667999D02*
X252560010Y-25368000D01*
X257736949Y-25412077D02*
X257481027Y-25667999D01*
X264279000Y-25241000D02*
X264152000Y-25114000D01*
X257481027Y-25667999D02*
X252860009Y-25667999D01*
X264152000Y-25114000D02*
X260715380Y-25114000D01*
X260715380Y-25114000D02*
X260417303Y-25412077D01*
X243147119Y-25876234D02*
X252051776Y-25876234D01*
X252051776Y-25876234D02*
X252560010Y-25368000D01*
X239052123Y-25205232D02*
X239352122Y-25505231D01*
X239352122Y-25505231D02*
X242776116Y-25505231D01*
X242776116Y-25505231D02*
X243147119Y-25876234D01*
X207129000Y-38703000D02*
X207002000Y-38830000D01*
X207891001Y-38703000D02*
X207129000Y-38703000D01*
X239052123Y-25205232D02*
X238833891Y-24987000D01*
X235947533Y-24987000D02*
X235550446Y-25384087D01*
X235550446Y-25384087D02*
X230759750Y-25384087D01*
X229834847Y-26308990D02*
X226433398Y-26308990D01*
X208121542Y-26567962D02*
X209261447Y-25428057D01*
X210404447Y-25428057D02*
X210845502Y-24987002D01*
X210845502Y-24987002D02*
X215132004Y-24987002D01*
X215132004Y-24987002D02*
X216713991Y-26568989D01*
X209261447Y-25428057D02*
X210404447Y-25428057D01*
X216713991Y-26568989D02*
X223072477Y-26568989D01*
X238833891Y-24987000D02*
X235947533Y-24987000D01*
X230759750Y-25384087D02*
X229834847Y-26308990D01*
X223332476Y-26308990D02*
X226433398Y-26308990D01*
X223072477Y-26568989D02*
X223332476Y-26308990D01*
X199957599Y-26441991D02*
X199890602Y-26508988D01*
X199890602Y-26508988D02*
X191653990Y-26508988D01*
X191653990Y-26508988D02*
X190259002Y-25114000D01*
X201126041Y-26441991D02*
X199957599Y-26441991D01*
X190259002Y-25114000D02*
X189603000Y-25114000D01*
X201252012Y-26567962D02*
X201126041Y-26441991D01*
X201907989Y-26567962D02*
X202105962Y-26369989D01*
X201738038Y-26567962D02*
X201907989Y-26567962D01*
X208121542Y-26567962D02*
X201738038Y-26567962D01*
X201738038Y-26567962D02*
X201252012Y-26567962D01*
X184797999Y-24941001D02*
X180791019Y-28947981D01*
X180791019Y-28947981D02*
X180791019Y-35940308D01*
X180791019Y-35940308D02*
X180991018Y-36140307D01*
X189603000Y-25241000D02*
X189303001Y-24941001D01*
X189303001Y-24941001D02*
X184797999Y-24941001D01*
X192024000Y-39449000D02*
X191881000Y-39592000D01*
X192024000Y-38830000D02*
X192024000Y-39449000D01*
X201252010Y-25885078D02*
X201264966Y-25898034D01*
X201252010Y-25767951D02*
X201252010Y-25885078D01*
X230594055Y-24984082D02*
X229755799Y-25822338D01*
X229755799Y-25822338D02*
X226878993Y-25822338D01*
X235384757Y-24984082D02*
X230594055Y-24984082D01*
X235781850Y-24586989D02*
X235384757Y-24984082D01*
X218829673Y-25732327D02*
X225944742Y-25732327D01*
X247162328Y-24728773D02*
X246809048Y-25082053D01*
X226878993Y-25822338D02*
X226578994Y-25522339D01*
X241860553Y-25082053D02*
X241365489Y-24586989D01*
X225944742Y-25732327D02*
X226154730Y-25522339D01*
X226154730Y-25522339D02*
X226578994Y-25522339D01*
X241365489Y-24586989D02*
X235781850Y-24586989D01*
X253041059Y-24728773D02*
X247162328Y-24728773D01*
X209095758Y-25028046D02*
X210238758Y-25028046D01*
X215224701Y-24513999D02*
X216443029Y-25732327D01*
X216443029Y-25732327D02*
X218829673Y-25732327D01*
X210238758Y-25028046D02*
X210752805Y-24513999D01*
X210752805Y-24513999D02*
X215224701Y-24513999D01*
X201264966Y-25898034D02*
X201393016Y-25769984D01*
X201393016Y-25769984D02*
X208353820Y-25769984D01*
X208353820Y-25769984D02*
X209095758Y-25028046D01*
X199538064Y-25898034D02*
X201264966Y-25898034D01*
X199327121Y-26108977D02*
X199538064Y-25898034D01*
X193662055Y-26108977D02*
X199327121Y-26108977D01*
X193421039Y-25867961D02*
X193662055Y-26108977D01*
X257444262Y-25139064D02*
X257571260Y-25012066D01*
X257571260Y-25012066D02*
X260251614Y-25012066D01*
X253041059Y-24728773D02*
X253451350Y-25139064D01*
X253451350Y-25139064D02*
X257444262Y-25139064D01*
X260251614Y-25012066D02*
X260670203Y-24593477D01*
X266104533Y-24593477D02*
X266468032Y-24956976D01*
X260670203Y-24593477D02*
X266104533Y-24593477D01*
X243435120Y-25276233D02*
X243435120Y-25090120D01*
X243435120Y-25090120D02*
X243427053Y-25082053D01*
X243427053Y-25082053D02*
X241860553Y-25082053D01*
X246809048Y-25082053D02*
X243427053Y-25082053D01*
X180000928Y-29172372D02*
X180000928Y-33634674D01*
X184714300Y-24459000D02*
X180000928Y-29172372D01*
X191581599Y-24459000D02*
X184714300Y-24459000D01*
X193421039Y-25867961D02*
X192990560Y-25867961D01*
X192990560Y-25867961D02*
X191581599Y-24459000D01*
X200051999Y-40573001D02*
X196045001Y-40573001D01*
X202896998Y-33623000D02*
X199932998Y-36587000D01*
X199932998Y-36587000D02*
X199932998Y-37213002D01*
X199932998Y-37213002D02*
X200051999Y-37332003D01*
X200051999Y-37332003D02*
X200051999Y-40573001D01*
X196045001Y-40573001D02*
X194810000Y-39338000D01*
X244065259Y-24204259D02*
X244045055Y-24184055D01*
X244065259Y-24384054D02*
X244065259Y-24204259D01*
X253605144Y-24067981D02*
X253905143Y-24367980D01*
X244045055Y-24184055D02*
X244473056Y-24612056D01*
X246713345Y-24612056D02*
X247257420Y-24067981D01*
X247257420Y-24067981D02*
X253605144Y-24067981D01*
X244473056Y-24612056D02*
X246713345Y-24612056D01*
X210587116Y-24113988D02*
X210073069Y-24628035D01*
X208410275Y-25147829D02*
X201757448Y-25147829D01*
X215390390Y-24113988D02*
X210587116Y-24113988D01*
X208930069Y-24628035D02*
X208410275Y-25147829D01*
X216308728Y-25032326D02*
X215390390Y-24113988D01*
X210073069Y-24628035D02*
X208930069Y-24628035D01*
X220672674Y-25032326D02*
X216308728Y-25032326D01*
X229680112Y-25332325D02*
X230428366Y-24584071D01*
X220672674Y-25032326D02*
X226181005Y-25032326D01*
X226181005Y-25032326D02*
X226290993Y-24922338D01*
X226290993Y-24922338D02*
X226866995Y-24922338D01*
X226866995Y-24922338D02*
X227276982Y-25332325D01*
X227276982Y-25332325D02*
X229680112Y-25332325D01*
X230428366Y-24584071D02*
X235219068Y-24584071D01*
X235219068Y-24584071D02*
X235616161Y-24186978D01*
X241531178Y-24186978D02*
X242026242Y-24682042D01*
X242026242Y-24682042D02*
X243351758Y-24682042D01*
X243351758Y-24682042D02*
X243849745Y-24184055D01*
X243849745Y-24184055D02*
X244045055Y-24184055D01*
X235616161Y-24186978D02*
X241531178Y-24186978D01*
X194810000Y-37433000D02*
X195998999Y-36244001D01*
X195998999Y-36244001D02*
X195998999Y-28969999D01*
X195998999Y-28969999D02*
X195064000Y-28035000D01*
X199161432Y-25708966D02*
X194535046Y-25708966D01*
X194535046Y-25708966D02*
X193994040Y-25167960D01*
X199722569Y-25147829D02*
X199161432Y-25708966D01*
X201757448Y-25147829D02*
X199722569Y-25147829D01*
X260085925Y-24612055D02*
X260691982Y-24005998D01*
X253905143Y-24367980D02*
X254276216Y-24739053D01*
X254276216Y-24739053D02*
X257278573Y-24739053D01*
X257278573Y-24739053D02*
X257405571Y-24612055D01*
X266365598Y-24005998D02*
X268673373Y-26313773D01*
X268673373Y-26313773D02*
X268673373Y-26596617D01*
X257405571Y-24612055D02*
X260085925Y-24612055D01*
X260691982Y-24005998D02*
X266365598Y-24005998D01*
X191747288Y-24058989D02*
X184548611Y-24058989D01*
X192856259Y-25167960D02*
X191747288Y-24058989D01*
X193994040Y-25167960D02*
X192856259Y-25167960D01*
X184548611Y-24058989D02*
X179296031Y-29311569D01*
X179296031Y-29311569D02*
X179296031Y-31459000D01*
X235453395Y-23784044D02*
X235053379Y-24184060D01*
X246547656Y-24212045D02*
X245501291Y-24212045D01*
X245073290Y-23784044D02*
X243684056Y-23784044D01*
X242191931Y-24282031D02*
X241693944Y-23784044D01*
X245501291Y-24212045D02*
X245073290Y-23784044D01*
X247091732Y-23667969D02*
X246547656Y-24212045D01*
X243684056Y-23784044D02*
X243186069Y-24282031D01*
X241693944Y-23784044D02*
X235453395Y-23784044D01*
X254603832Y-23667969D02*
X247091732Y-23667969D01*
X243186069Y-24282031D02*
X242191931Y-24282031D01*
X254903831Y-23967968D02*
X254603832Y-23667969D01*
X230262677Y-24184060D02*
X229924465Y-24522272D01*
X235053379Y-24184060D02*
X230262677Y-24184060D01*
X229924465Y-24522272D02*
X227873272Y-24522272D01*
X227873272Y-24522272D02*
X222400257Y-24522272D01*
X222400257Y-24522272D02*
X222218942Y-24340957D01*
X194937000Y-35401000D02*
X194810000Y-35401000D01*
X194260000Y-35528000D02*
X194048000Y-35316000D01*
X194810000Y-35528000D02*
X194260000Y-35528000D01*
X194048000Y-35316000D02*
X194098999Y-35265001D01*
X194098999Y-35265001D02*
X194098999Y-32732999D01*
X194098999Y-32732999D02*
X194732998Y-32099000D01*
X194732998Y-31541002D02*
X195318000Y-30956000D01*
X194732998Y-32099000D02*
X194732998Y-31541002D01*
X180780000Y-23959000D02*
X184082900Y-23959000D01*
X184082900Y-23959000D02*
X184382922Y-23658978D01*
X191912977Y-23658978D02*
X192778662Y-24524663D01*
X184382922Y-23658978D02*
X191912977Y-23658978D01*
X192778662Y-24524663D02*
X194488255Y-24524663D01*
X208764380Y-24228024D02*
X209907380Y-24228024D01*
X194488255Y-24524663D02*
X195272547Y-25308955D01*
X195272547Y-25308955D02*
X198995744Y-25308956D01*
X198995744Y-25308956D02*
X199780037Y-24524663D01*
X209907380Y-24228024D02*
X210421427Y-23713977D01*
X216308057Y-24340957D02*
X222218942Y-24340957D01*
X215681077Y-23713977D02*
X216308057Y-24340957D01*
X210421427Y-23713977D02*
X215681077Y-23713977D01*
X199780037Y-24524663D02*
X208467741Y-24524663D01*
X208467741Y-24524663D02*
X208764380Y-24228024D01*
X260526293Y-23605987D02*
X266531287Y-23605987D01*
X255274905Y-24339042D02*
X257112884Y-24339042D01*
X259920236Y-24212044D02*
X260526293Y-23605987D01*
X266531287Y-23605987D02*
X270399099Y-27473799D01*
X257112884Y-24339042D02*
X257239882Y-24212044D01*
X257239882Y-24212044D02*
X259920236Y-24212044D01*
X270399099Y-27473799D02*
X270399099Y-28873305D01*
X254903831Y-23967968D02*
X255274905Y-24339042D01*
X229896810Y-23984227D02*
X230096988Y-23784049D01*
X228711316Y-23684228D02*
X229011315Y-23984227D01*
X235287705Y-23384033D02*
X241859633Y-23384033D01*
X242357620Y-23882020D02*
X243020380Y-23882020D01*
X234887690Y-23784049D02*
X235287705Y-23384033D01*
X243690368Y-23212032D02*
X245294162Y-23212032D01*
X243020380Y-23882020D02*
X243690368Y-23212032D01*
X241859633Y-23384033D02*
X242357620Y-23882020D01*
X230096988Y-23784049D02*
X234887690Y-23784049D01*
X229011315Y-23984227D02*
X229896810Y-23984227D01*
X222924666Y-23812034D02*
X222818952Y-23706320D01*
X228583510Y-23812034D02*
X222924666Y-23812034D01*
X228711316Y-23684228D02*
X228583510Y-23812034D01*
X209741691Y-23828013D02*
X210255738Y-23313966D01*
X203420993Y-23810801D02*
X203720992Y-24110800D01*
X203720992Y-24110800D02*
X208315904Y-24110800D01*
X215846766Y-23313966D02*
X216344834Y-23812034D01*
X208598691Y-23828013D02*
X209741691Y-23828013D01*
X216344834Y-23812034D02*
X218386753Y-23812034D01*
X208315904Y-24110800D02*
X208598691Y-23828013D01*
X210255738Y-23313966D02*
X215846766Y-23313966D01*
X218492467Y-23706320D02*
X222818952Y-23706320D01*
X218386753Y-23812034D02*
X218492467Y-23706320D01*
X201668000Y-27720000D02*
X201668000Y-28543000D01*
X201668000Y-28543000D02*
X204335000Y-28543000D01*
X181979999Y-23558989D02*
X181780000Y-23358990D01*
X192078666Y-23258967D02*
X184217233Y-23258967D01*
X183917211Y-23558989D02*
X181979999Y-23558989D01*
X184217233Y-23258967D02*
X183917211Y-23558989D01*
X192508697Y-23688998D02*
X192078666Y-23258967D01*
X194501133Y-23688998D02*
X192508697Y-23688998D01*
X200745801Y-23810801D02*
X200525000Y-23590000D01*
X203420993Y-23810801D02*
X200745801Y-23810801D01*
X200149000Y-23590000D02*
X200525000Y-23590000D01*
X198830055Y-24908945D02*
X200149000Y-23590000D01*
X195729945Y-24908945D02*
X198830055Y-24908945D01*
X195280000Y-24459000D02*
X195729945Y-24908945D01*
X195271135Y-24459000D02*
X195280000Y-24459000D01*
X194501133Y-23688998D02*
X195271135Y-24459000D01*
X266696976Y-23205976D02*
X271063979Y-27572979D01*
X257074193Y-23812033D02*
X259754547Y-23812033D01*
X271063979Y-31685884D02*
X270777863Y-31972000D01*
X260360604Y-23205976D02*
X266696976Y-23205976D01*
X259754547Y-23812033D02*
X260360604Y-23205976D01*
X245294162Y-23263379D02*
X245842817Y-23812034D01*
X245842817Y-23812034D02*
X246381967Y-23812034D01*
X256371193Y-23939031D02*
X256947195Y-23939031D01*
X271063979Y-27572979D02*
X271063979Y-31685884D01*
X247077002Y-23116999D02*
X255549161Y-23116999D01*
X245294162Y-23212032D02*
X245294162Y-23263379D01*
X255549161Y-23116999D02*
X256371193Y-23939031D01*
X256947195Y-23939031D02*
X257074193Y-23812033D01*
X246381967Y-23812034D02*
X247077002Y-23116999D01*
X195441980Y-23117589D02*
X195220537Y-23339032D01*
X195441980Y-22697980D02*
X195441980Y-23117589D01*
X246314998Y-22516998D02*
X246314998Y-22991209D01*
X246314998Y-22991209D02*
X246094175Y-23212032D01*
X229781001Y-23212032D02*
X229481002Y-22912033D01*
X223696968Y-22912033D02*
X223424959Y-23184042D01*
X229481002Y-22912033D02*
X223696968Y-22912033D01*
X216012455Y-22913955D02*
X216510523Y-23412023D01*
X204133512Y-23447021D02*
X204368493Y-23682002D01*
X204368493Y-23682002D02*
X208179002Y-23682002D01*
X208179002Y-23682002D02*
X208433002Y-23428002D01*
X208433002Y-23428002D02*
X209576002Y-23428002D01*
X209576002Y-23428002D02*
X210090049Y-22913955D01*
X216510523Y-23412023D02*
X218221064Y-23412023D01*
X218749044Y-22884043D02*
X223124960Y-22884043D01*
X223124960Y-22884043D02*
X223424959Y-23184042D01*
X210090049Y-22913955D02*
X216012455Y-22913955D01*
X218221064Y-23412023D02*
X218749044Y-22884043D01*
X203406502Y-22720011D02*
X204133512Y-23447021D01*
X195441980Y-22697980D02*
X195464011Y-22720011D01*
X195464011Y-22720011D02*
X203406502Y-22720011D01*
X194749000Y-33623000D02*
X195137892Y-33623000D01*
X195137892Y-33623000D02*
X195398989Y-33884097D01*
X193686736Y-22697980D02*
X193225738Y-23158978D01*
X192544377Y-23158978D02*
X192244355Y-22858956D01*
X182409282Y-22858956D02*
X182310444Y-22760118D01*
X192244355Y-22858956D02*
X182409282Y-22858956D01*
X195441980Y-22697980D02*
X193686736Y-22697980D01*
X193225738Y-23158978D02*
X192544377Y-23158978D01*
X229953007Y-23384038D02*
X234722001Y-23384038D01*
X271463990Y-27293920D02*
X271463990Y-34614466D01*
X235122015Y-22984022D02*
X242025322Y-22984022D01*
X266976035Y-22805965D02*
X271463990Y-27293920D01*
X242025322Y-22984022D02*
X242523309Y-23482009D01*
X243819702Y-22516998D02*
X255719140Y-22516998D01*
X242523309Y-23482009D02*
X242854691Y-23482009D01*
X229781001Y-23212032D02*
X229953007Y-23384038D01*
X255719140Y-22516998D02*
X256614164Y-23412022D01*
X259588858Y-23412022D02*
X260194915Y-22805965D01*
X260194915Y-22805965D02*
X266976035Y-22805965D01*
X256614164Y-23412022D02*
X259588858Y-23412022D01*
X271463990Y-34614466D02*
X270462728Y-35615728D01*
X242854691Y-23482009D02*
X243819702Y-22516998D01*
X234722001Y-23384038D02*
X235122015Y-22984022D01*
X234834017Y-22384020D02*
X235133020Y-22384020D01*
X234434000Y-22784037D02*
X234834017Y-22384020D01*
X235133020Y-22384020D02*
X235108854Y-22384020D01*
X263136000Y-22193000D02*
X259919878Y-22193000D01*
X259919878Y-22193000D02*
X259300857Y-22812021D01*
X235133020Y-22384020D02*
X241991020Y-22384020D01*
X242391031Y-22784031D02*
X242689000Y-22784031D01*
X241991020Y-22384020D02*
X242391031Y-22784031D01*
X217933062Y-22812021D02*
X217337771Y-22216730D01*
X217337771Y-22216730D02*
X210564970Y-22216730D01*
X210564970Y-22216730D02*
X210026270Y-22216730D01*
X210026270Y-22216730D02*
X209415000Y-22828000D01*
X209415000Y-22828000D02*
X209288000Y-22828000D01*
X208145000Y-22828000D02*
X207891000Y-23082000D01*
X209288000Y-22828000D02*
X208145000Y-22828000D01*
X199763000Y-27781000D02*
X199763000Y-28543000D01*
X192492889Y-22258946D02*
X192675301Y-22441358D01*
X185129656Y-22258946D02*
X192492889Y-22258946D01*
X213464928Y-40309010D02*
X214877938Y-38896000D01*
X214877938Y-38896000D02*
X217543000Y-38896000D01*
X211095072Y-40309010D02*
X213464928Y-40309010D01*
X210557337Y-39771275D02*
X211095072Y-40309010D01*
X210557337Y-39680279D02*
X210557337Y-39771275D01*
X209561047Y-38683989D02*
X210557337Y-39680279D01*
X209352725Y-38683989D02*
X209561047Y-38683989D01*
X208221724Y-37552988D02*
X209352725Y-38683989D01*
X208056746Y-37552988D02*
X208221724Y-37552988D01*
X222863032Y-29601968D02*
X223988000Y-28477000D01*
X222863032Y-30090344D02*
X222863032Y-29601968D01*
X231608000Y-36830000D02*
X231640000Y-36798000D01*
X231608000Y-37626000D02*
X231608000Y-36830000D01*
X246848000Y-33176000D02*
X244294010Y-33176000D01*
X244294010Y-33176000D02*
X244228010Y-33242000D01*
X255389000Y-33115000D02*
X255770000Y-33496000D01*
X254230000Y-33115000D02*
X255389000Y-33115000D01*
X254738000Y-37941000D02*
X266184000Y-37941000D01*
X254230000Y-38449000D02*
X254738000Y-37941000D01*
X228592000Y-36163000D02*
X227515000Y-36163000D01*
D19*
X251429999Y-32711001D02*
X251429999Y-34743999D01*
X252230000Y-31911000D02*
X251429999Y-32711001D01*
X251429999Y-34743999D02*
X251452000Y-34766000D01*
X252767002Y-34766000D02*
X253103000Y-35101998D01*
X251452000Y-34766000D02*
X252767002Y-34766000D01*
X253103000Y-36626000D02*
X252230000Y-37499000D01*
X253103000Y-35101998D02*
X253103000Y-36626000D01*
X251915000Y-32226000D02*
X252230000Y-31911000D01*
X244848000Y-32226000D02*
X251915000Y-32226000D01*
X222115000Y-31083000D02*
X221607000Y-31083000D01*
X221187999Y-30663999D02*
X221187999Y-28327001D01*
X221607000Y-31083000D02*
X221187999Y-30663999D01*
X221187999Y-28327001D02*
X221988000Y-27527000D01*
X228565000Y-36163000D02*
X227515000Y-36163000D01*
X228719000Y-36009000D02*
X228565000Y-36163000D01*
X229386000Y-36676000D02*
X228719000Y-36009000D01*
X229608000Y-36676000D02*
X229386000Y-36676000D01*
X223318876Y-26959000D02*
X222750876Y-27527000D01*
X230862001Y-31220000D02*
X226601001Y-26959000D01*
X226601001Y-26959000D02*
X223318876Y-26959000D01*
X230862001Y-33684001D02*
X230862001Y-31220000D01*
X222750876Y-27527000D02*
X221988000Y-27527000D01*
X229181998Y-34004000D02*
X230542002Y-34004000D01*
X228719000Y-34466998D02*
X229181998Y-34004000D01*
X228719000Y-36009000D02*
X228719000Y-34466998D01*
X244848000Y-32226000D02*
X243959000Y-32226000D01*
X243959000Y-32226000D02*
X243578000Y-32607000D01*
X243578000Y-32607000D02*
X243578000Y-34385000D01*
X243578000Y-34385000D02*
X240403000Y-37560000D01*
X240403000Y-37560000D02*
X239514000Y-37560000D01*
X239514000Y-37560000D02*
X239006000Y-38068000D01*
X234490998Y-38068000D02*
X230646501Y-34223503D01*
X239006000Y-38068000D02*
X234490998Y-38068000D01*
X230646501Y-34223503D02*
X230646501Y-33899501D01*
X230646501Y-33899501D02*
X230862001Y-33684001D01*
X230542002Y-34004000D02*
X230646501Y-33899501D01*
X215543000Y-38261000D02*
X215543000Y-37655000D01*
X215543000Y-37655000D02*
X219067000Y-34131000D01*
X219067000Y-34131000D02*
X219067000Y-32734000D01*
X220718000Y-31083000D02*
X222115000Y-31083000D01*
X219067000Y-32734000D02*
X220718000Y-31083000D01*
X213485639Y-38158990D02*
X209581988Y-38158990D01*
X209581988Y-38158990D02*
X207585998Y-36163000D01*
X213587649Y-38261000D02*
X213485639Y-38158990D01*
X215543000Y-38261000D02*
X213587649Y-38261000D01*
X205478000Y-36163000D02*
X204147000Y-36163000D01*
X207585998Y-36163000D02*
X205478000Y-36163000D01*
X196461000Y-30321000D02*
X196461000Y-27146000D01*
X196461000Y-27146000D02*
X196648001Y-26958999D01*
X197223000Y-31083000D02*
X196461000Y-30321000D01*
X198747000Y-31083000D02*
X197223000Y-31083000D01*
X205929999Y-35711001D02*
X205478000Y-36163000D01*
X196648001Y-26958999D02*
X201006638Y-26958999D01*
X201006638Y-26958999D02*
X201067638Y-27019999D01*
X201067638Y-27019999D02*
X203901003Y-27019999D01*
X203901003Y-27019999D02*
X205929999Y-29048995D01*
X205929999Y-29048995D02*
X205929999Y-35711001D01*
X179570000Y-38200000D02*
X179570000Y-38076000D01*
X179570000Y-38076000D02*
X180658004Y-36987996D01*
X178646021Y-28325021D02*
X178646021Y-34976013D01*
X176780000Y-26459000D02*
X178646021Y-28325021D01*
X178646021Y-34976013D02*
X180658004Y-36987996D01*
X180658004Y-36987996D02*
X181491997Y-37821989D01*
X181491997Y-37821989D02*
X189982601Y-37821989D01*
X189982601Y-37821989D02*
X193648988Y-34155602D01*
X193648988Y-27291012D02*
X193981001Y-26958999D01*
X193648988Y-34155602D02*
X193648988Y-27291012D01*
X193981001Y-26958999D02*
X196648001Y-26958999D01*
D18*
X189881000Y-37923590D02*
X189982601Y-37821989D01*
X189881000Y-38642000D02*
X189881000Y-37923590D01*
X182872000Y-40315000D02*
X182613999Y-40573001D01*
X180043001Y-40573001D02*
X179570000Y-40100000D01*
X182872000Y-39465000D02*
X182872000Y-40315000D01*
X182613999Y-40573001D02*
X180043001Y-40573001D01*
X189881000Y-40542000D02*
X189881000Y-39942000D01*
X191877000Y-37946000D02*
X192156000Y-37946000D01*
X189881000Y-39942000D02*
X191877000Y-37946000D01*
X192156000Y-37946000D02*
X191902000Y-37946000D01*
X193548000Y-37946000D02*
X192156000Y-37946000D01*
X218370999Y-38068001D02*
X218370999Y-39907001D01*
X219321000Y-37118000D02*
X218370999Y-38068001D01*
X218117000Y-40161000D02*
X215543000Y-40161000D01*
X218370999Y-39907001D02*
X218117000Y-40161000D01*
D19*
X223325997Y-27659001D02*
X225671000Y-27659001D01*
X221988000Y-28996998D02*
X223325997Y-27659001D01*
X221988000Y-29427000D02*
X221988000Y-28996998D01*
D18*
X230358001Y-37825999D02*
X229608000Y-38576000D01*
X230358001Y-35450001D02*
X230358001Y-37825999D01*
X229862000Y-34954000D02*
X230358001Y-35450001D01*
X244848000Y-34130999D02*
X246753001Y-36036000D01*
X244848000Y-34126000D02*
X244848000Y-34130999D01*
X252230000Y-34065000D02*
X253186000Y-34065000D01*
X253186000Y-34065000D02*
X254053000Y-34932000D01*
X254053000Y-34932000D02*
X254053000Y-35782000D01*
X250502001Y-39399000D02*
X250436000Y-39465001D01*
X252230000Y-39399000D02*
X250502001Y-39399000D01*
X226751177Y-38703000D02*
X226500870Y-38452693D01*
X227515000Y-38703000D02*
X226751177Y-38703000D01*
X191914319Y-41300990D02*
X192610341Y-40604968D01*
X184772000Y-39465000D02*
X186607990Y-41300990D01*
X186607990Y-41300990D02*
X191914319Y-41300990D01*
X202980002Y-41150998D02*
X203082037Y-41253033D01*
X194852998Y-41150998D02*
X202980002Y-41150998D01*
X220834967Y-41253033D02*
X222115000Y-39973000D01*
X203082037Y-41253033D02*
X220834967Y-41253033D01*
X193548000Y-39846000D02*
X194852998Y-41150998D01*
X219636000Y-38703000D02*
X219321000Y-39018000D01*
X222115000Y-38703000D02*
X219636000Y-38703000D01*
X223985001Y-31245000D02*
X223985001Y-33139143D01*
X223210613Y-37287387D02*
X223065000Y-37433000D01*
X223771680Y-33755908D02*
X223771680Y-35212625D01*
X223985001Y-33139143D02*
X223979010Y-33145134D01*
X225671000Y-29559001D02*
X223985001Y-31245000D01*
X223979010Y-33548578D02*
X223771680Y-33755908D01*
X223771680Y-35212625D02*
X223210613Y-35773692D01*
X223979010Y-33145134D02*
X223979010Y-33548578D01*
X223210613Y-35773692D02*
X223210613Y-37287387D01*
X223065000Y-37433000D02*
X222115000Y-37433000D01*
X222115000Y-36163000D02*
X222565373Y-36163000D01*
X222565373Y-36163000D02*
X222610603Y-36117770D01*
X226340999Y-32953001D02*
X225983996Y-33310004D01*
X225983996Y-33310004D02*
X225983996Y-34689758D01*
X229761001Y-32953001D02*
X226340999Y-32953001D01*
X225983996Y-34689758D02*
X225683997Y-34989757D01*
X229862000Y-33054000D02*
X229761001Y-32953001D01*
X224722646Y-37158763D02*
X224410646Y-36846763D01*
X222115000Y-34893000D02*
X223158319Y-34893000D01*
X225083996Y-35597409D02*
X225083996Y-34462994D01*
X228505001Y-36832999D02*
X226524005Y-36832999D01*
X228565001Y-38867299D02*
X228565001Y-36892999D01*
X225298650Y-37158763D02*
X224722646Y-37158763D01*
X225320854Y-37136559D02*
X225298650Y-37158763D01*
X240579991Y-40309010D02*
X230006712Y-40309010D01*
X223158319Y-34893000D02*
X223171670Y-34879649D01*
X225083996Y-34462994D02*
X225171703Y-34375287D01*
X224410646Y-36846763D02*
X224410646Y-36270759D01*
X226220445Y-37136559D02*
X225320854Y-37136559D01*
X226524005Y-36832999D02*
X226220445Y-37136559D01*
X230006712Y-40309010D02*
X228565001Y-38867299D01*
X244853001Y-36036000D02*
X240579991Y-40309010D01*
X224410646Y-36270759D02*
X225083996Y-35597409D01*
X228565001Y-36892999D02*
X228505001Y-36832999D01*
X226336183Y-39338000D02*
X224010635Y-37012452D01*
X224571702Y-35544003D02*
X224571702Y-34087286D01*
X224571702Y-34087286D02*
X224979023Y-33679965D01*
X222115000Y-33623000D02*
X223134648Y-33623000D01*
X223134648Y-33623000D02*
X223208372Y-33549276D01*
X248531000Y-35782000D02*
X243603979Y-40709021D01*
X228470002Y-39338000D02*
X226336183Y-39338000D01*
X224979023Y-33679965D02*
X224979023Y-33598825D01*
X229841023Y-40709021D02*
X228470002Y-39338000D01*
X243603979Y-40709021D02*
X229841023Y-40709021D01*
X252153000Y-35782000D02*
X248531000Y-35782000D01*
X224010635Y-37012452D02*
X224010635Y-36105070D01*
X224010635Y-36105070D02*
X224571702Y-35544003D01*
X223385000Y-32353000D02*
X222115000Y-32353000D01*
X226554030Y-41109032D02*
X223610624Y-38165626D01*
X246891969Y-41109032D02*
X226554030Y-41109032D01*
X223610624Y-38165626D02*
X223610624Y-35939381D01*
X223610624Y-35939381D02*
X224171691Y-35378314D01*
X224171691Y-35378314D02*
X224171691Y-33921597D01*
X224171691Y-33921597D02*
X224379021Y-33714267D01*
X250436000Y-37565001D02*
X246891969Y-41109032D01*
X224379021Y-33714267D02*
X224379021Y-33310823D01*
X224379021Y-33310823D02*
X224655000Y-33034844D01*
X224655000Y-33034844D02*
X224655000Y-32353000D01*
X205025981Y-31083000D02*
X205279981Y-31337000D01*
X204147000Y-31083000D02*
X205025981Y-31083000D01*
D19*
X227203988Y-37744012D02*
X226129670Y-37744012D01*
X227515000Y-37433000D02*
X227203988Y-37744012D01*
X226306000Y-39973000D02*
X227515000Y-39973000D01*
D18*
X225671000Y-32353000D02*
X225544000Y-32480000D01*
X227515000Y-32353000D02*
X225671000Y-32353000D01*
X204147000Y-32353000D02*
X202557000Y-32353000D01*
X202557000Y-32353000D02*
X201795000Y-33115000D01*
X201795000Y-33115000D02*
X201668000Y-33115000D01*
X202811000Y-39973000D02*
X204147000Y-39973000D01*
D19*
X178146010Y-29049010D02*
X178146010Y-38414010D01*
X178096000Y-28999000D02*
X178146010Y-29049010D01*
X176780000Y-28999000D02*
X178096000Y-28999000D01*
X178682001Y-38950001D02*
X180346999Y-38950001D01*
X178146010Y-38414010D02*
X178682001Y-38950001D01*
X180346999Y-38950001D02*
X180975000Y-38322000D01*
X184071999Y-39034997D02*
X184071999Y-41164999D01*
X183359002Y-38322000D02*
X184071999Y-39034997D01*
X180975000Y-38322000D02*
X183359002Y-38322000D01*
X184658000Y-41751000D02*
X202692000Y-41751000D01*
X204427012Y-40253012D02*
X205986000Y-40253012D01*
X204147000Y-39973000D02*
X204427012Y-40253012D01*
X184071999Y-41164999D02*
X184658000Y-41751000D01*
D18*
X204147000Y-38703000D02*
X205991001Y-38703000D01*
X197345000Y-39973000D02*
X196710000Y-39338000D01*
X198747000Y-39973000D02*
X197345000Y-39973000D01*
X197980000Y-38703000D02*
X196710000Y-37433000D01*
X198747000Y-38703000D02*
X197980000Y-38703000D01*
X196710000Y-35846000D02*
X196710000Y-35528000D01*
X198747000Y-37433000D02*
X198297000Y-37433000D01*
D20*
X198381998Y-37433000D02*
X198747000Y-37433000D01*
X197647001Y-36698003D02*
X198381998Y-37433000D01*
X197647001Y-36465001D02*
X197647001Y-36698003D01*
X196710000Y-35528000D02*
X197647001Y-36465001D01*
D18*
X201067998Y-34792002D02*
X201067998Y-30220002D01*
X198747000Y-36163000D02*
X199697000Y-36163000D01*
X199697000Y-36163000D02*
X201067998Y-34792002D01*
X201067998Y-30220002D02*
X201668000Y-29620000D01*
X197919000Y-34893000D02*
X196649000Y-33623000D01*
X198747000Y-34893000D02*
X197919000Y-34893000D01*
X199797001Y-29842001D02*
X199636000Y-29681000D01*
X198747000Y-33623000D02*
X199697000Y-33623000D01*
X199697000Y-33623000D02*
X200197012Y-33122988D01*
X200197012Y-33122988D02*
X200197012Y-30115012D01*
X200197012Y-30115012D02*
X199763000Y-29681000D01*
X198630001Y-30331001D02*
X197858000Y-29559000D01*
X199585003Y-30331001D02*
X198630001Y-30331001D01*
X199797001Y-30542999D02*
X199585003Y-30331001D01*
X199697000Y-32353000D02*
X199797001Y-32252999D01*
X199797001Y-32252999D02*
X199797001Y-30542999D01*
X198747000Y-32353000D02*
X199697000Y-32353000D01*
X197858000Y-27659000D02*
X197858000Y-28416000D01*
X198769355Y-23436222D02*
X197961747Y-24243830D01*
X197961747Y-24243830D02*
X197865813Y-24243830D01*
X226052000Y-36290000D02*
X226052000Y-36035998D01*
X226052000Y-36035998D02*
X227194998Y-34893000D01*
X227194998Y-34893000D02*
X227515000Y-34893000D01*
X210874001Y-40709021D02*
X219600979Y-40709021D01*
X205401000Y-39653001D02*
X209003913Y-39653001D01*
X219600979Y-40709021D02*
X221006999Y-39303001D01*
X203156999Y-39303001D02*
X205051000Y-39303001D01*
X223673999Y-39303001D02*
X223766000Y-39211000D01*
X205051000Y-39303001D02*
X205401000Y-39653001D01*
X209629980Y-39465000D02*
X210874001Y-40709021D01*
X209191914Y-39465000D02*
X209629980Y-39465000D01*
X221006999Y-39303001D02*
X223673999Y-39303001D01*
X209003913Y-39653001D02*
X209191914Y-39465000D01*
X201768001Y-39303001D02*
X201676000Y-39211000D01*
X203156999Y-39303001D02*
X201768001Y-39303001D01*
X201202998Y-37848002D02*
X202657997Y-39303001D01*
X201202998Y-36887002D02*
X201202998Y-37848002D01*
X203197000Y-34893000D02*
X201202998Y-36887002D01*
X204147000Y-34893000D02*
X203197000Y-34893000D01*
X202657997Y-39303001D02*
X203156999Y-39303001D01*
X225636999Y-35689999D02*
X225010648Y-36316350D01*
X226464999Y-35057299D02*
X225832299Y-35689999D01*
X227515000Y-33623000D02*
X226565000Y-33623000D01*
X225832299Y-35689999D02*
X225636999Y-35689999D01*
X226464999Y-33723001D02*
X226464999Y-35057299D01*
X226565000Y-33623000D02*
X226464999Y-33723001D01*
X225010648Y-36316350D02*
X225010648Y-36558761D01*
X203826998Y-33623000D02*
X202210999Y-35238999D01*
X204147000Y-33623000D02*
X203826998Y-33623000D01*
X202210999Y-35247001D02*
X200533000Y-36925000D01*
X202210999Y-35238999D02*
X202210999Y-35247001D01*
X208691894Y-40853022D02*
X209410947Y-40133969D01*
X202327983Y-40750987D02*
X203145691Y-40750987D01*
X202210999Y-35238999D02*
X200802987Y-36647011D01*
X203247726Y-40853022D02*
X208691894Y-40853022D01*
X200802987Y-39225991D02*
X202327983Y-40750987D01*
X200802987Y-36647011D02*
X200802987Y-39225991D01*
X203145691Y-40750987D02*
X203247726Y-40853022D01*
X201930000Y-37433000D02*
X201803000Y-37560000D01*
X204147000Y-37433000D02*
X201930000Y-37433000D01*
M02*
