%TF.GenerationSoftware,KiCad,Pcbnew,(5.1.12)-1*%
%TF.CreationDate,2021-11-29T00:24:33+03:00*%
%TF.ProjectId,lepetocontrol,6c657065-746f-4636-9f6e-74726f6c2e6b,rev?*%
%TF.SameCoordinates,Original*%
%TF.FileFunction,Soldermask,Bot*%
%TF.FilePolarity,Negative*%
%FSLAX46Y46*%
G04 Gerber Fmt 4.6, Leading zero omitted, Abs format (unit mm)*
G04 Created by KiCad (PCBNEW (5.1.12)-1) date 2021-11-29 00:24:33*
%MOMM*%
%LPD*%
G01*
G04 APERTURE LIST*
%ADD10O,2.032000X1.727200*%
%ADD11R,2.032000X1.727200*%
%ADD12O,3.000000X1.500000*%
%ADD13C,12.000000*%
%ADD14R,0.700000X1.300000*%
%ADD15R,1.300000X0.700000*%
%ADD16R,1.500000X0.600000*%
%ADD17R,0.900000X0.800000*%
G04 APERTURE END LIST*
D10*
X176530000Y-36576000D03*
X176530000Y-34036000D03*
X176530000Y-31496000D03*
X176530000Y-28956000D03*
D11*
X176530000Y-26416000D03*
D10*
X273050000Y-36576000D03*
X273050000Y-34036000D03*
X273050000Y-31496000D03*
X273050000Y-28956000D03*
D11*
X273050000Y-26416000D03*
D12*
X187280000Y-39259000D03*
D13*
X187280000Y-31459000D03*
D12*
X212280000Y-39259000D03*
D13*
X212280000Y-31459000D03*
D12*
X237280000Y-39259000D03*
D13*
X237280000Y-31459000D03*
D12*
X262280000Y-39259000D03*
D13*
X262280000Y-31459000D03*
D14*
X184772000Y-39465000D03*
X182872000Y-39465000D03*
D15*
X197858000Y-29559000D03*
X197858000Y-27659000D03*
X199763000Y-29681000D03*
X199763000Y-27781000D03*
D14*
X196649000Y-33623000D03*
X194749000Y-33623000D03*
D15*
X201668000Y-29620000D03*
X201668000Y-27720000D03*
D14*
X196710000Y-35528000D03*
X194810000Y-35528000D03*
X196972000Y-37433000D03*
X195072000Y-37433000D03*
X196972000Y-39338000D03*
X195072000Y-39338000D03*
X205991001Y-38703000D03*
X207891001Y-38703000D03*
D16*
X204147000Y-39973000D03*
X204147000Y-38703000D03*
X204147000Y-37433000D03*
X204147000Y-36163000D03*
X204147000Y-34893000D03*
X204147000Y-33623000D03*
X204147000Y-32353000D03*
X204147000Y-31083000D03*
X198747000Y-31083000D03*
X198747000Y-32353000D03*
X198747000Y-33623000D03*
X198747000Y-34893000D03*
X198747000Y-36163000D03*
X198747000Y-37433000D03*
X198747000Y-38703000D03*
X198747000Y-39973000D03*
X227515000Y-39973000D03*
X227515000Y-38703000D03*
X227515000Y-37433000D03*
X227515000Y-36163000D03*
X227515000Y-34893000D03*
X227515000Y-33623000D03*
X227515000Y-32353000D03*
X227515000Y-31083000D03*
X222115000Y-31083000D03*
X222115000Y-32353000D03*
X222115000Y-33623000D03*
X222115000Y-34893000D03*
X222115000Y-36163000D03*
X222115000Y-37433000D03*
X222115000Y-38703000D03*
X222115000Y-39973000D03*
D15*
X250436000Y-37565001D03*
X250436000Y-39465001D03*
D14*
X252153000Y-35782000D03*
X254053000Y-35782000D03*
X244853001Y-36036000D03*
X246753001Y-36036000D03*
D15*
X229862000Y-33054000D03*
X229862000Y-34954000D03*
X225671000Y-29559001D03*
X225671000Y-27659001D03*
X219321000Y-39018000D03*
X219321000Y-37118000D03*
X193548000Y-39846000D03*
X193548000Y-37946000D03*
D17*
X254230000Y-38449000D03*
X252230000Y-37499000D03*
X252230000Y-39399000D03*
X254230000Y-32861000D03*
X252230000Y-31911000D03*
X252230000Y-33811000D03*
X246848000Y-33176000D03*
X244848000Y-32226000D03*
X244848000Y-34126000D03*
X231608000Y-37626000D03*
X229608000Y-36676000D03*
X229608000Y-38576000D03*
X223988000Y-28477000D03*
X221988000Y-27527000D03*
X221988000Y-29427000D03*
X217543000Y-38896000D03*
X215543000Y-37946000D03*
X215543000Y-39846000D03*
X191881000Y-39592000D03*
X189881000Y-38642000D03*
X189881000Y-40542000D03*
X181570000Y-39150000D03*
X179570000Y-38200000D03*
X179570000Y-40100000D03*
M02*
