M48
; DRILL file {KiCad (5.1.12)-1} date 11/29/21 00:25:55
; FORMAT={-:-/ absolute / metric / decimal}
; #@! TF.CreationDate,2021-11-29T00:25:55+03:00
; #@! TF.GenerationSoftware,Kicad,Pcbnew,(5.1.12)-1
; #@! TF.FileFunction,Plated,1,2,PTH
FMAT,2
METRIC
T1C0.300
T2C1.016
T3C7.200
%
G90
G05
T1
X179.296Y-31.459
X180.001Y-33.635
X180.78Y-23.959
X180.991Y-36.14
X181.61Y-39.973
X181.78Y-23.359
X182.31Y-22.76
X185.13Y-22.259
X189.603Y-25.241
X192.024Y-38.83
X192.61Y-40.605
X192.675Y-22.441
X193.421Y-25.868
X193.994Y-25.168
X194.488Y-24.525
X194.501Y-23.689
X195.064Y-28.035
X195.221Y-23.339
X195.318Y-30.956
X195.399Y-33.884
X197.858Y-28.416
X197.866Y-24.244
X198.769Y-23.436
X199.763Y-28.543
X200.525Y-23.59
X200.533Y-36.925
X201.252Y-25.768
X201.668Y-28.543
X201.668Y-33.115
X201.676Y-39.211
X201.757Y-25.148
X201.803Y-37.56
X202.106Y-26.37
X202.546Y-24.468
X202.692Y-41.751
X202.811Y-39.973
X202.897Y-33.623
X203.421Y-23.811
X204.134Y-23.447
X204.335Y-28.543
X205.28Y-31.337
X205.986Y-40.253
X207.002Y-38.83
X207.891Y-23.082
X208.057Y-37.553
X209.411Y-40.134
X213.733Y-25.114
X217.933Y-22.812
X218.83Y-25.732
X220.673Y-25.032
X222.219Y-24.341
X222.611Y-36.118
X222.819Y-23.706
X222.863Y-30.09
X223.172Y-34.88
X223.208Y-33.549
X223.385Y-32.353
X223.425Y-23.184
X223.766Y-39.211
X224.655Y-32.353
X224.979Y-33.599
X225.011Y-36.559
X225.172Y-34.375
X225.544Y-32.48
X225.684Y-34.99
X226.052Y-36.29
X226.13Y-37.744
X226.306Y-39.973
X226.433Y-26.309
X226.501Y-38.453
X226.579Y-25.522
X227.298Y-25.171
X227.873Y-24.522
X228.711Y-23.684
X229.781Y-23.212
X231.64Y-36.798
X234.434Y-22.784
X239.052Y-25.205
X242.689Y-22.784
X243.435Y-25.276
X244.065Y-24.384
X244.228Y-33.242
X245.02Y-23.963
X245.294Y-23.212
X246.094Y-23.212
X252.56Y-25.368
X253.041Y-24.729
X253.905Y-24.368
X254.904Y-23.968
X255.77Y-33.496
X255.893Y-23.57
X256.659Y-23.339
X259.301Y-22.812
X263.136Y-22.193
X264.279Y-25.241
X266.184Y-37.941
X266.468Y-24.957
X268.673Y-26.597
X270.399Y-28.873
X270.463Y-35.616
X270.778Y-31.972
T2
X176.53Y-26.416
X176.53Y-28.956
X176.53Y-31.496
X176.53Y-34.036
X176.53Y-36.576
X273.05Y-26.416
X273.05Y-28.956
X273.05Y-31.496
X273.05Y-34.036
X273.05Y-36.576
T3
X187.28Y-31.459
X212.28Y-31.459
X237.28Y-31.459
X262.28Y-31.459
T0
M30
