%TF.GenerationSoftware,KiCad,Pcbnew,(5.1.12)-1*%
%TF.CreationDate,2021-11-29T00:24:33+03:00*%
%TF.ProjectId,lepetocontrol,6c657065-746f-4636-9f6e-74726f6c2e6b,rev?*%
%TF.SameCoordinates,Original*%
%TF.FileFunction,Copper,L1,Top*%
%TF.FilePolarity,Positive*%
%FSLAX46Y46*%
G04 Gerber Fmt 4.6, Leading zero omitted, Abs format (unit mm)*
G04 Created by KiCad (PCBNEW (5.1.12)-1) date 2021-11-29 00:24:33*
%MOMM*%
%LPD*%
G01*
G04 APERTURE LIST*
%TA.AperFunction,ComponentPad*%
%ADD10O,2.032000X1.727200*%
%TD*%
%TA.AperFunction,ComponentPad*%
%ADD11R,2.032000X1.727200*%
%TD*%
%TA.AperFunction,ComponentPad*%
%ADD12C,12.000000*%
%TD*%
%TA.AperFunction,SMDPad,CuDef*%
%ADD13C,0.100000*%
%TD*%
%TA.AperFunction,SMDPad,CuDef*%
%ADD14R,0.700000X0.600000*%
%TD*%
%TA.AperFunction,ViaPad*%
%ADD15C,0.600000*%
%TD*%
%TA.AperFunction,Conductor*%
%ADD16C,0.250000*%
%TD*%
%TA.AperFunction,Conductor*%
%ADD17C,0.200000*%
%TD*%
%TA.AperFunction,Conductor*%
%ADD18C,0.300000*%
%TD*%
G04 APERTURE END LIST*
D10*
X176530000Y-36576000D03*
X176530000Y-34036000D03*
X176530000Y-31496000D03*
X176530000Y-28956000D03*
D11*
X176530000Y-26416000D03*
D10*
X273050000Y-36576000D03*
X273050000Y-34036000D03*
X273050000Y-31496000D03*
X273050000Y-28956000D03*
D11*
X273050000Y-26416000D03*
D12*
X187280000Y-31459000D03*
X212280000Y-31459000D03*
X237280000Y-31459000D03*
X262280000Y-31459000D03*
%TA.AperFunction,SMDPad,CuDef*%
D13*
G36*
X267587419Y-37242514D02*
G01*
X267051188Y-37692465D01*
X266665515Y-37232838D01*
X267201746Y-36782887D01*
X267587419Y-37242514D01*
G37*
%TD.AperFunction*%
%TA.AperFunction,SMDPad,CuDef*%
G36*
X268294485Y-38085162D02*
G01*
X267758254Y-38535113D01*
X267372581Y-38075486D01*
X267908812Y-37625535D01*
X268294485Y-38085162D01*
G37*
%TD.AperFunction*%
%TA.AperFunction,SMDPad,CuDef*%
G36*
X269138494Y-35030891D02*
G01*
X268788494Y-35637109D01*
X268268878Y-35337109D01*
X268618878Y-34730891D01*
X269138494Y-35030891D01*
G37*
%TD.AperFunction*%
%TA.AperFunction,SMDPad,CuDef*%
G36*
X270091122Y-35580891D02*
G01*
X269741122Y-36187109D01*
X269221506Y-35887109D01*
X269571506Y-35280891D01*
X270091122Y-35580891D01*
G37*
%TD.AperFunction*%
%TA.AperFunction,SMDPad,CuDef*%
G36*
X269994575Y-32470906D02*
G01*
X269873021Y-33160271D01*
X269282137Y-33056082D01*
X269403691Y-32366717D01*
X269994575Y-32470906D01*
G37*
%TD.AperFunction*%
%TA.AperFunction,SMDPad,CuDef*%
G36*
X271077863Y-32661918D02*
G01*
X270956309Y-33351283D01*
X270365425Y-33247094D01*
X270486979Y-32557729D01*
X271077863Y-32661918D01*
G37*
%TD.AperFunction*%
%TA.AperFunction,SMDPad,CuDef*%
G36*
X269873021Y-29757729D02*
G01*
X269994575Y-30447094D01*
X269403691Y-30551283D01*
X269282137Y-29861918D01*
X269873021Y-29757729D01*
G37*
%TD.AperFunction*%
%TA.AperFunction,SMDPad,CuDef*%
G36*
X270956309Y-29566717D02*
G01*
X271077863Y-30256082D01*
X270486979Y-30360271D01*
X270365425Y-29670906D01*
X270956309Y-29566717D01*
G37*
%TD.AperFunction*%
%TA.AperFunction,SMDPad,CuDef*%
G36*
X268788494Y-27280891D02*
G01*
X269138494Y-27887109D01*
X268618878Y-28187109D01*
X268268878Y-27580891D01*
X268788494Y-27280891D01*
G37*
%TD.AperFunction*%
%TA.AperFunction,SMDPad,CuDef*%
G36*
X269741122Y-26730891D02*
G01*
X270091122Y-27337109D01*
X269571506Y-27637109D01*
X269221506Y-27030891D01*
X269741122Y-26730891D01*
G37*
%TD.AperFunction*%
%TA.AperFunction,SMDPad,CuDef*%
G36*
X266951188Y-25325535D02*
G01*
X267487419Y-25775486D01*
X267101746Y-26235113D01*
X266565515Y-25785162D01*
X266951188Y-25325535D01*
G37*
%TD.AperFunction*%
%TA.AperFunction,SMDPad,CuDef*%
G36*
X267658254Y-24482887D02*
G01*
X268194485Y-24932838D01*
X267808812Y-25392465D01*
X267272581Y-24942514D01*
X267658254Y-24482887D01*
G37*
%TD.AperFunction*%
%TA.AperFunction,SMDPad,CuDef*%
G36*
X264565603Y-23974216D02*
G01*
X265223387Y-24213630D01*
X265018175Y-24777446D01*
X264360391Y-24538032D01*
X264565603Y-23974216D01*
G37*
%TD.AperFunction*%
%TA.AperFunction,SMDPad,CuDef*%
G36*
X264941825Y-22940554D02*
G01*
X265599609Y-23179968D01*
X265394397Y-23743784D01*
X264736613Y-23504370D01*
X264941825Y-22940554D01*
G37*
%TD.AperFunction*%
D14*
X262280000Y-24009000D03*
X262280000Y-22909000D03*
%TA.AperFunction,SMDPad,CuDef*%
D13*
G36*
X259286613Y-24313630D02*
G01*
X259944397Y-24074216D01*
X260149609Y-24638032D01*
X259491825Y-24877446D01*
X259286613Y-24313630D01*
G37*
%TD.AperFunction*%
%TA.AperFunction,SMDPad,CuDef*%
G36*
X258910391Y-23279968D02*
G01*
X259568175Y-23040554D01*
X259773387Y-23604370D01*
X259115603Y-23843784D01*
X258910391Y-23279968D01*
G37*
%TD.AperFunction*%
%TA.AperFunction,SMDPad,CuDef*%
G36*
X256972581Y-25675486D02*
G01*
X257508812Y-25225535D01*
X257894485Y-25685162D01*
X257358254Y-26135113D01*
X256972581Y-25675486D01*
G37*
%TD.AperFunction*%
%TA.AperFunction,SMDPad,CuDef*%
G36*
X256265515Y-24832838D02*
G01*
X256801746Y-24382887D01*
X257187419Y-24842514D01*
X256651188Y-25292465D01*
X256265515Y-24832838D01*
G37*
%TD.AperFunction*%
%TA.AperFunction,SMDPad,CuDef*%
G36*
X255321506Y-27887109D02*
G01*
X255671506Y-27280891D01*
X256191122Y-27580891D01*
X255841122Y-28187109D01*
X255321506Y-27887109D01*
G37*
%TD.AperFunction*%
%TA.AperFunction,SMDPad,CuDef*%
G36*
X254368878Y-27337109D02*
G01*
X254718878Y-26730891D01*
X255238494Y-27030891D01*
X254888494Y-27637109D01*
X254368878Y-27337109D01*
G37*
%TD.AperFunction*%
%TA.AperFunction,SMDPad,CuDef*%
G36*
X254565425Y-30447094D02*
G01*
X254686979Y-29757729D01*
X255277863Y-29861918D01*
X255156309Y-30551283D01*
X254565425Y-30447094D01*
G37*
%TD.AperFunction*%
%TA.AperFunction,SMDPad,CuDef*%
G36*
X253482137Y-30256082D02*
G01*
X253603691Y-29566717D01*
X254194575Y-29670906D01*
X254073021Y-30360271D01*
X253482137Y-30256082D01*
G37*
%TD.AperFunction*%
%TA.AperFunction,SMDPad,CuDef*%
G36*
X254786979Y-33060271D02*
G01*
X254665425Y-32370906D01*
X255256309Y-32266717D01*
X255377863Y-32956082D01*
X254786979Y-33060271D01*
G37*
%TD.AperFunction*%
%TA.AperFunction,SMDPad,CuDef*%
G36*
X253703691Y-33251283D02*
G01*
X253582137Y-32561918D01*
X254173021Y-32457729D01*
X254294575Y-33147094D01*
X253703691Y-33251283D01*
G37*
%TD.AperFunction*%
%TA.AperFunction,SMDPad,CuDef*%
G36*
X255771506Y-35637109D02*
G01*
X255421506Y-35030891D01*
X255941122Y-34730891D01*
X256291122Y-35337109D01*
X255771506Y-35637109D01*
G37*
%TD.AperFunction*%
%TA.AperFunction,SMDPad,CuDef*%
G36*
X254818878Y-36187109D02*
G01*
X254468878Y-35580891D01*
X254988494Y-35280891D01*
X255338494Y-35887109D01*
X254818878Y-36187109D01*
G37*
%TD.AperFunction*%
%TA.AperFunction,SMDPad,CuDef*%
G36*
X257508812Y-37692465D02*
G01*
X256972581Y-37242514D01*
X257358254Y-36782887D01*
X257894485Y-37232838D01*
X257508812Y-37692465D01*
G37*
%TD.AperFunction*%
%TA.AperFunction,SMDPad,CuDef*%
G36*
X256801746Y-38535113D02*
G01*
X256265515Y-38085162D01*
X256651188Y-37625535D01*
X257187419Y-38075486D01*
X256801746Y-38535113D01*
G37*
%TD.AperFunction*%
%TA.AperFunction,SMDPad,CuDef*%
G36*
X242587419Y-37242514D02*
G01*
X242051188Y-37692465D01*
X241665515Y-37232838D01*
X242201746Y-36782887D01*
X242587419Y-37242514D01*
G37*
%TD.AperFunction*%
%TA.AperFunction,SMDPad,CuDef*%
G36*
X243294485Y-38085162D02*
G01*
X242758254Y-38535113D01*
X242372581Y-38075486D01*
X242908812Y-37625535D01*
X243294485Y-38085162D01*
G37*
%TD.AperFunction*%
%TA.AperFunction,SMDPad,CuDef*%
G36*
X244138494Y-35030891D02*
G01*
X243788494Y-35637109D01*
X243268878Y-35337109D01*
X243618878Y-34730891D01*
X244138494Y-35030891D01*
G37*
%TD.AperFunction*%
%TA.AperFunction,SMDPad,CuDef*%
G36*
X245091122Y-35580891D02*
G01*
X244741122Y-36187109D01*
X244221506Y-35887109D01*
X244571506Y-35280891D01*
X245091122Y-35580891D01*
G37*
%TD.AperFunction*%
%TA.AperFunction,SMDPad,CuDef*%
G36*
X244994575Y-32470906D02*
G01*
X244873021Y-33160271D01*
X244282137Y-33056082D01*
X244403691Y-32366717D01*
X244994575Y-32470906D01*
G37*
%TD.AperFunction*%
%TA.AperFunction,SMDPad,CuDef*%
G36*
X246077863Y-32661918D02*
G01*
X245956309Y-33351283D01*
X245365425Y-33247094D01*
X245486979Y-32557729D01*
X246077863Y-32661918D01*
G37*
%TD.AperFunction*%
%TA.AperFunction,SMDPad,CuDef*%
G36*
X244873021Y-29757729D02*
G01*
X244994575Y-30447094D01*
X244403691Y-30551283D01*
X244282137Y-29861918D01*
X244873021Y-29757729D01*
G37*
%TD.AperFunction*%
%TA.AperFunction,SMDPad,CuDef*%
G36*
X245956309Y-29566717D02*
G01*
X246077863Y-30256082D01*
X245486979Y-30360271D01*
X245365425Y-29670906D01*
X245956309Y-29566717D01*
G37*
%TD.AperFunction*%
%TA.AperFunction,SMDPad,CuDef*%
G36*
X243788494Y-27280891D02*
G01*
X244138494Y-27887109D01*
X243618878Y-28187109D01*
X243268878Y-27580891D01*
X243788494Y-27280891D01*
G37*
%TD.AperFunction*%
%TA.AperFunction,SMDPad,CuDef*%
G36*
X244741122Y-26730891D02*
G01*
X245091122Y-27337109D01*
X244571506Y-27637109D01*
X244221506Y-27030891D01*
X244741122Y-26730891D01*
G37*
%TD.AperFunction*%
%TA.AperFunction,SMDPad,CuDef*%
G36*
X241951188Y-25325535D02*
G01*
X242487419Y-25775486D01*
X242101746Y-26235113D01*
X241565515Y-25785162D01*
X241951188Y-25325535D01*
G37*
%TD.AperFunction*%
%TA.AperFunction,SMDPad,CuDef*%
G36*
X242658254Y-24482887D02*
G01*
X243194485Y-24932838D01*
X242808812Y-25392465D01*
X242272581Y-24942514D01*
X242658254Y-24482887D01*
G37*
%TD.AperFunction*%
%TA.AperFunction,SMDPad,CuDef*%
G36*
X239565603Y-23974216D02*
G01*
X240223387Y-24213630D01*
X240018175Y-24777446D01*
X239360391Y-24538032D01*
X239565603Y-23974216D01*
G37*
%TD.AperFunction*%
%TA.AperFunction,SMDPad,CuDef*%
G36*
X239941825Y-22940554D02*
G01*
X240599609Y-23179968D01*
X240394397Y-23743784D01*
X239736613Y-23504370D01*
X239941825Y-22940554D01*
G37*
%TD.AperFunction*%
D14*
X237280000Y-24009000D03*
X237280000Y-22909000D03*
%TA.AperFunction,SMDPad,CuDef*%
D13*
G36*
X234286613Y-24313630D02*
G01*
X234944397Y-24074216D01*
X235149609Y-24638032D01*
X234491825Y-24877446D01*
X234286613Y-24313630D01*
G37*
%TD.AperFunction*%
%TA.AperFunction,SMDPad,CuDef*%
G36*
X233910391Y-23279968D02*
G01*
X234568175Y-23040554D01*
X234773387Y-23604370D01*
X234115603Y-23843784D01*
X233910391Y-23279968D01*
G37*
%TD.AperFunction*%
%TA.AperFunction,SMDPad,CuDef*%
G36*
X231972581Y-25675486D02*
G01*
X232508812Y-25225535D01*
X232894485Y-25685162D01*
X232358254Y-26135113D01*
X231972581Y-25675486D01*
G37*
%TD.AperFunction*%
%TA.AperFunction,SMDPad,CuDef*%
G36*
X231265515Y-24832838D02*
G01*
X231801746Y-24382887D01*
X232187419Y-24842514D01*
X231651188Y-25292465D01*
X231265515Y-24832838D01*
G37*
%TD.AperFunction*%
%TA.AperFunction,SMDPad,CuDef*%
G36*
X230321506Y-27887109D02*
G01*
X230671506Y-27280891D01*
X231191122Y-27580891D01*
X230841122Y-28187109D01*
X230321506Y-27887109D01*
G37*
%TD.AperFunction*%
%TA.AperFunction,SMDPad,CuDef*%
G36*
X229368878Y-27337109D02*
G01*
X229718878Y-26730891D01*
X230238494Y-27030891D01*
X229888494Y-27637109D01*
X229368878Y-27337109D01*
G37*
%TD.AperFunction*%
%TA.AperFunction,SMDPad,CuDef*%
G36*
X229565425Y-30447094D02*
G01*
X229686979Y-29757729D01*
X230277863Y-29861918D01*
X230156309Y-30551283D01*
X229565425Y-30447094D01*
G37*
%TD.AperFunction*%
%TA.AperFunction,SMDPad,CuDef*%
G36*
X228482137Y-30256082D02*
G01*
X228603691Y-29566717D01*
X229194575Y-29670906D01*
X229073021Y-30360271D01*
X228482137Y-30256082D01*
G37*
%TD.AperFunction*%
%TA.AperFunction,SMDPad,CuDef*%
G36*
X229786979Y-33060271D02*
G01*
X229665425Y-32370906D01*
X230256309Y-32266717D01*
X230377863Y-32956082D01*
X229786979Y-33060271D01*
G37*
%TD.AperFunction*%
%TA.AperFunction,SMDPad,CuDef*%
G36*
X228703691Y-33251283D02*
G01*
X228582137Y-32561918D01*
X229173021Y-32457729D01*
X229294575Y-33147094D01*
X228703691Y-33251283D01*
G37*
%TD.AperFunction*%
%TA.AperFunction,SMDPad,CuDef*%
G36*
X230771506Y-35637109D02*
G01*
X230421506Y-35030891D01*
X230941122Y-34730891D01*
X231291122Y-35337109D01*
X230771506Y-35637109D01*
G37*
%TD.AperFunction*%
%TA.AperFunction,SMDPad,CuDef*%
G36*
X229818878Y-36187109D02*
G01*
X229468878Y-35580891D01*
X229988494Y-35280891D01*
X230338494Y-35887109D01*
X229818878Y-36187109D01*
G37*
%TD.AperFunction*%
%TA.AperFunction,SMDPad,CuDef*%
G36*
X232508812Y-37692465D02*
G01*
X231972581Y-37242514D01*
X232358254Y-36782887D01*
X232894485Y-37232838D01*
X232508812Y-37692465D01*
G37*
%TD.AperFunction*%
%TA.AperFunction,SMDPad,CuDef*%
G36*
X231801746Y-38535113D02*
G01*
X231265515Y-38085162D01*
X231651188Y-37625535D01*
X232187419Y-38075486D01*
X231801746Y-38535113D01*
G37*
%TD.AperFunction*%
%TA.AperFunction,SMDPad,CuDef*%
G36*
X217587419Y-37242514D02*
G01*
X217051188Y-37692465D01*
X216665515Y-37232838D01*
X217201746Y-36782887D01*
X217587419Y-37242514D01*
G37*
%TD.AperFunction*%
%TA.AperFunction,SMDPad,CuDef*%
G36*
X218294485Y-38085162D02*
G01*
X217758254Y-38535113D01*
X217372581Y-38075486D01*
X217908812Y-37625535D01*
X218294485Y-38085162D01*
G37*
%TD.AperFunction*%
%TA.AperFunction,SMDPad,CuDef*%
G36*
X219138494Y-35030891D02*
G01*
X218788494Y-35637109D01*
X218268878Y-35337109D01*
X218618878Y-34730891D01*
X219138494Y-35030891D01*
G37*
%TD.AperFunction*%
%TA.AperFunction,SMDPad,CuDef*%
G36*
X220091122Y-35580891D02*
G01*
X219741122Y-36187109D01*
X219221506Y-35887109D01*
X219571506Y-35280891D01*
X220091122Y-35580891D01*
G37*
%TD.AperFunction*%
%TA.AperFunction,SMDPad,CuDef*%
G36*
X219994575Y-32470906D02*
G01*
X219873021Y-33160271D01*
X219282137Y-33056082D01*
X219403691Y-32366717D01*
X219994575Y-32470906D01*
G37*
%TD.AperFunction*%
%TA.AperFunction,SMDPad,CuDef*%
G36*
X221077863Y-32661918D02*
G01*
X220956309Y-33351283D01*
X220365425Y-33247094D01*
X220486979Y-32557729D01*
X221077863Y-32661918D01*
G37*
%TD.AperFunction*%
%TA.AperFunction,SMDPad,CuDef*%
G36*
X219873021Y-29757729D02*
G01*
X219994575Y-30447094D01*
X219403691Y-30551283D01*
X219282137Y-29861918D01*
X219873021Y-29757729D01*
G37*
%TD.AperFunction*%
%TA.AperFunction,SMDPad,CuDef*%
G36*
X220956309Y-29566717D02*
G01*
X221077863Y-30256082D01*
X220486979Y-30360271D01*
X220365425Y-29670906D01*
X220956309Y-29566717D01*
G37*
%TD.AperFunction*%
%TA.AperFunction,SMDPad,CuDef*%
G36*
X218788494Y-27280891D02*
G01*
X219138494Y-27887109D01*
X218618878Y-28187109D01*
X218268878Y-27580891D01*
X218788494Y-27280891D01*
G37*
%TD.AperFunction*%
%TA.AperFunction,SMDPad,CuDef*%
G36*
X219741122Y-26730891D02*
G01*
X220091122Y-27337109D01*
X219571506Y-27637109D01*
X219221506Y-27030891D01*
X219741122Y-26730891D01*
G37*
%TD.AperFunction*%
%TA.AperFunction,SMDPad,CuDef*%
G36*
X216951188Y-25325535D02*
G01*
X217487419Y-25775486D01*
X217101746Y-26235113D01*
X216565515Y-25785162D01*
X216951188Y-25325535D01*
G37*
%TD.AperFunction*%
%TA.AperFunction,SMDPad,CuDef*%
G36*
X217658254Y-24482887D02*
G01*
X218194485Y-24932838D01*
X217808812Y-25392465D01*
X217272581Y-24942514D01*
X217658254Y-24482887D01*
G37*
%TD.AperFunction*%
%TA.AperFunction,SMDPad,CuDef*%
G36*
X214565603Y-23974216D02*
G01*
X215223387Y-24213630D01*
X215018175Y-24777446D01*
X214360391Y-24538032D01*
X214565603Y-23974216D01*
G37*
%TD.AperFunction*%
%TA.AperFunction,SMDPad,CuDef*%
G36*
X214941825Y-22940554D02*
G01*
X215599609Y-23179968D01*
X215394397Y-23743784D01*
X214736613Y-23504370D01*
X214941825Y-22940554D01*
G37*
%TD.AperFunction*%
D14*
X212280000Y-24009000D03*
X212280000Y-22909000D03*
%TA.AperFunction,SMDPad,CuDef*%
D13*
G36*
X209286613Y-24313630D02*
G01*
X209944397Y-24074216D01*
X210149609Y-24638032D01*
X209491825Y-24877446D01*
X209286613Y-24313630D01*
G37*
%TD.AperFunction*%
%TA.AperFunction,SMDPad,CuDef*%
G36*
X208910391Y-23279968D02*
G01*
X209568175Y-23040554D01*
X209773387Y-23604370D01*
X209115603Y-23843784D01*
X208910391Y-23279968D01*
G37*
%TD.AperFunction*%
%TA.AperFunction,SMDPad,CuDef*%
G36*
X206972581Y-25675486D02*
G01*
X207508812Y-25225535D01*
X207894485Y-25685162D01*
X207358254Y-26135113D01*
X206972581Y-25675486D01*
G37*
%TD.AperFunction*%
%TA.AperFunction,SMDPad,CuDef*%
G36*
X206265515Y-24832838D02*
G01*
X206801746Y-24382887D01*
X207187419Y-24842514D01*
X206651188Y-25292465D01*
X206265515Y-24832838D01*
G37*
%TD.AperFunction*%
%TA.AperFunction,SMDPad,CuDef*%
G36*
X205321506Y-27887109D02*
G01*
X205671506Y-27280891D01*
X206191122Y-27580891D01*
X205841122Y-28187109D01*
X205321506Y-27887109D01*
G37*
%TD.AperFunction*%
%TA.AperFunction,SMDPad,CuDef*%
G36*
X204368878Y-27337109D02*
G01*
X204718878Y-26730891D01*
X205238494Y-27030891D01*
X204888494Y-27637109D01*
X204368878Y-27337109D01*
G37*
%TD.AperFunction*%
%TA.AperFunction,SMDPad,CuDef*%
G36*
X204565425Y-30447094D02*
G01*
X204686979Y-29757729D01*
X205277863Y-29861918D01*
X205156309Y-30551283D01*
X204565425Y-30447094D01*
G37*
%TD.AperFunction*%
%TA.AperFunction,SMDPad,CuDef*%
G36*
X203482137Y-30256082D02*
G01*
X203603691Y-29566717D01*
X204194575Y-29670906D01*
X204073021Y-30360271D01*
X203482137Y-30256082D01*
G37*
%TD.AperFunction*%
%TA.AperFunction,SMDPad,CuDef*%
G36*
X204786979Y-33060271D02*
G01*
X204665425Y-32370906D01*
X205256309Y-32266717D01*
X205377863Y-32956082D01*
X204786979Y-33060271D01*
G37*
%TD.AperFunction*%
%TA.AperFunction,SMDPad,CuDef*%
G36*
X203703691Y-33251283D02*
G01*
X203582137Y-32561918D01*
X204173021Y-32457729D01*
X204294575Y-33147094D01*
X203703691Y-33251283D01*
G37*
%TD.AperFunction*%
%TA.AperFunction,SMDPad,CuDef*%
G36*
X205771506Y-35637109D02*
G01*
X205421506Y-35030891D01*
X205941122Y-34730891D01*
X206291122Y-35337109D01*
X205771506Y-35637109D01*
G37*
%TD.AperFunction*%
%TA.AperFunction,SMDPad,CuDef*%
G36*
X204818878Y-36187109D02*
G01*
X204468878Y-35580891D01*
X204988494Y-35280891D01*
X205338494Y-35887109D01*
X204818878Y-36187109D01*
G37*
%TD.AperFunction*%
%TA.AperFunction,SMDPad,CuDef*%
G36*
X207508812Y-37692465D02*
G01*
X206972581Y-37242514D01*
X207358254Y-36782887D01*
X207894485Y-37232838D01*
X207508812Y-37692465D01*
G37*
%TD.AperFunction*%
%TA.AperFunction,SMDPad,CuDef*%
G36*
X206801746Y-38535113D02*
G01*
X206265515Y-38085162D01*
X206651188Y-37625535D01*
X207187419Y-38075486D01*
X206801746Y-38535113D01*
G37*
%TD.AperFunction*%
%TA.AperFunction,SMDPad,CuDef*%
G36*
X192587419Y-37242514D02*
G01*
X192051188Y-37692465D01*
X191665515Y-37232838D01*
X192201746Y-36782887D01*
X192587419Y-37242514D01*
G37*
%TD.AperFunction*%
%TA.AperFunction,SMDPad,CuDef*%
G36*
X193294485Y-38085162D02*
G01*
X192758254Y-38535113D01*
X192372581Y-38075486D01*
X192908812Y-37625535D01*
X193294485Y-38085162D01*
G37*
%TD.AperFunction*%
%TA.AperFunction,SMDPad,CuDef*%
G36*
X194138494Y-35030891D02*
G01*
X193788494Y-35637109D01*
X193268878Y-35337109D01*
X193618878Y-34730891D01*
X194138494Y-35030891D01*
G37*
%TD.AperFunction*%
%TA.AperFunction,SMDPad,CuDef*%
G36*
X195091122Y-35580891D02*
G01*
X194741122Y-36187109D01*
X194221506Y-35887109D01*
X194571506Y-35280891D01*
X195091122Y-35580891D01*
G37*
%TD.AperFunction*%
%TA.AperFunction,SMDPad,CuDef*%
G36*
X194994575Y-32470906D02*
G01*
X194873021Y-33160271D01*
X194282137Y-33056082D01*
X194403691Y-32366717D01*
X194994575Y-32470906D01*
G37*
%TD.AperFunction*%
%TA.AperFunction,SMDPad,CuDef*%
G36*
X196077863Y-32661918D02*
G01*
X195956309Y-33351283D01*
X195365425Y-33247094D01*
X195486979Y-32557729D01*
X196077863Y-32661918D01*
G37*
%TD.AperFunction*%
%TA.AperFunction,SMDPad,CuDef*%
G36*
X194873021Y-29757729D02*
G01*
X194994575Y-30447094D01*
X194403691Y-30551283D01*
X194282137Y-29861918D01*
X194873021Y-29757729D01*
G37*
%TD.AperFunction*%
%TA.AperFunction,SMDPad,CuDef*%
G36*
X195956309Y-29566717D02*
G01*
X196077863Y-30256082D01*
X195486979Y-30360271D01*
X195365425Y-29670906D01*
X195956309Y-29566717D01*
G37*
%TD.AperFunction*%
%TA.AperFunction,SMDPad,CuDef*%
G36*
X193788494Y-27280891D02*
G01*
X194138494Y-27887109D01*
X193618878Y-28187109D01*
X193268878Y-27580891D01*
X193788494Y-27280891D01*
G37*
%TD.AperFunction*%
%TA.AperFunction,SMDPad,CuDef*%
G36*
X194741122Y-26730891D02*
G01*
X195091122Y-27337109D01*
X194571506Y-27637109D01*
X194221506Y-27030891D01*
X194741122Y-26730891D01*
G37*
%TD.AperFunction*%
%TA.AperFunction,SMDPad,CuDef*%
G36*
X191951188Y-25325535D02*
G01*
X192487419Y-25775486D01*
X192101746Y-26235113D01*
X191565515Y-25785162D01*
X191951188Y-25325535D01*
G37*
%TD.AperFunction*%
%TA.AperFunction,SMDPad,CuDef*%
G36*
X192658254Y-24482887D02*
G01*
X193194485Y-24932838D01*
X192808812Y-25392465D01*
X192272581Y-24942514D01*
X192658254Y-24482887D01*
G37*
%TD.AperFunction*%
%TA.AperFunction,SMDPad,CuDef*%
G36*
X189565603Y-23974216D02*
G01*
X190223387Y-24213630D01*
X190018175Y-24777446D01*
X189360391Y-24538032D01*
X189565603Y-23974216D01*
G37*
%TD.AperFunction*%
%TA.AperFunction,SMDPad,CuDef*%
G36*
X189941825Y-22940554D02*
G01*
X190599609Y-23179968D01*
X190394397Y-23743784D01*
X189736613Y-23504370D01*
X189941825Y-22940554D01*
G37*
%TD.AperFunction*%
D14*
X187280000Y-24009000D03*
X187280000Y-22909000D03*
%TA.AperFunction,SMDPad,CuDef*%
D13*
G36*
X184286613Y-24313630D02*
G01*
X184944397Y-24074216D01*
X185149609Y-24638032D01*
X184491825Y-24877446D01*
X184286613Y-24313630D01*
G37*
%TD.AperFunction*%
%TA.AperFunction,SMDPad,CuDef*%
G36*
X183910391Y-23279968D02*
G01*
X184568175Y-23040554D01*
X184773387Y-23604370D01*
X184115603Y-23843784D01*
X183910391Y-23279968D01*
G37*
%TD.AperFunction*%
%TA.AperFunction,SMDPad,CuDef*%
G36*
X181972581Y-25675486D02*
G01*
X182508812Y-25225535D01*
X182894485Y-25685162D01*
X182358254Y-26135113D01*
X181972581Y-25675486D01*
G37*
%TD.AperFunction*%
%TA.AperFunction,SMDPad,CuDef*%
G36*
X181265515Y-24832838D02*
G01*
X181801746Y-24382887D01*
X182187419Y-24842514D01*
X181651188Y-25292465D01*
X181265515Y-24832838D01*
G37*
%TD.AperFunction*%
%TA.AperFunction,SMDPad,CuDef*%
G36*
X180321506Y-27887109D02*
G01*
X180671506Y-27280891D01*
X181191122Y-27580891D01*
X180841122Y-28187109D01*
X180321506Y-27887109D01*
G37*
%TD.AperFunction*%
%TA.AperFunction,SMDPad,CuDef*%
G36*
X179368878Y-27337109D02*
G01*
X179718878Y-26730891D01*
X180238494Y-27030891D01*
X179888494Y-27637109D01*
X179368878Y-27337109D01*
G37*
%TD.AperFunction*%
%TA.AperFunction,SMDPad,CuDef*%
G36*
X179565425Y-30447094D02*
G01*
X179686979Y-29757729D01*
X180277863Y-29861918D01*
X180156309Y-30551283D01*
X179565425Y-30447094D01*
G37*
%TD.AperFunction*%
%TA.AperFunction,SMDPad,CuDef*%
G36*
X178482137Y-30256082D02*
G01*
X178603691Y-29566717D01*
X179194575Y-29670906D01*
X179073021Y-30360271D01*
X178482137Y-30256082D01*
G37*
%TD.AperFunction*%
%TA.AperFunction,SMDPad,CuDef*%
G36*
X179786979Y-33060271D02*
G01*
X179665425Y-32370906D01*
X180256309Y-32266717D01*
X180377863Y-32956082D01*
X179786979Y-33060271D01*
G37*
%TD.AperFunction*%
%TA.AperFunction,SMDPad,CuDef*%
G36*
X178703691Y-33251283D02*
G01*
X178582137Y-32561918D01*
X179173021Y-32457729D01*
X179294575Y-33147094D01*
X178703691Y-33251283D01*
G37*
%TD.AperFunction*%
%TA.AperFunction,SMDPad,CuDef*%
G36*
X180771506Y-35637109D02*
G01*
X180421506Y-35030891D01*
X180941122Y-34730891D01*
X181291122Y-35337109D01*
X180771506Y-35637109D01*
G37*
%TD.AperFunction*%
%TA.AperFunction,SMDPad,CuDef*%
G36*
X179818878Y-36187109D02*
G01*
X179468878Y-35580891D01*
X179988494Y-35280891D01*
X180338494Y-35887109D01*
X179818878Y-36187109D01*
G37*
%TD.AperFunction*%
%TA.AperFunction,SMDPad,CuDef*%
G36*
X182508812Y-37692465D02*
G01*
X181972581Y-37242514D01*
X182358254Y-36782887D01*
X182894485Y-37232838D01*
X182508812Y-37692465D01*
G37*
%TD.AperFunction*%
%TA.AperFunction,SMDPad,CuDef*%
G36*
X181801746Y-38535113D02*
G01*
X181265515Y-38085162D01*
X181651188Y-37625535D01*
X182187419Y-38075486D01*
X181801746Y-38535113D01*
G37*
%TD.AperFunction*%
D15*
X181610000Y-39973000D03*
X213733000Y-25114000D03*
X264279000Y-25241000D03*
X252560010Y-25368000D03*
X239052123Y-25205232D03*
X189603000Y-25241000D03*
X207002000Y-38830000D03*
X226433398Y-26308990D03*
X202105962Y-26369989D03*
X180991018Y-36140307D03*
X192024000Y-38830000D03*
X218829673Y-25732327D03*
X253041059Y-24728773D03*
X193421039Y-25867961D03*
X201252010Y-25767951D03*
X243435120Y-25276233D03*
X202896998Y-33623000D03*
X226578994Y-25522339D03*
X266468032Y-24956976D03*
X180000928Y-33634674D03*
X220672674Y-25032326D03*
X253905143Y-24367980D03*
X244065259Y-24384054D03*
X193994040Y-25167960D03*
X201757448Y-25147829D03*
X195064000Y-28035000D03*
X227297880Y-25171310D03*
X268673373Y-26596617D03*
X179296031Y-31459000D03*
X202545959Y-24467959D03*
X254903831Y-23967968D03*
X227873272Y-24522272D03*
X194488255Y-24524663D03*
X245019509Y-23963420D03*
X222218942Y-24340957D03*
X195318000Y-30956000D03*
X180780000Y-23959000D03*
X270399099Y-28873305D03*
X228711316Y-23684228D03*
X194501133Y-23688998D03*
X203420993Y-23810801D03*
X255893152Y-23569681D03*
X245294162Y-23212032D03*
X222818952Y-23706320D03*
X201668000Y-28543000D03*
X200525000Y-23590000D03*
X204335000Y-28543000D03*
X181780000Y-23358990D03*
X270777863Y-31972000D03*
X195220537Y-23339032D03*
X204133512Y-23447021D03*
X229781001Y-23212032D03*
X256659194Y-23339030D03*
X246094175Y-23212032D03*
X223424959Y-23184042D03*
X195398989Y-33884097D03*
X182310444Y-22760118D03*
X270462728Y-35615728D03*
X263136000Y-22193000D03*
X217933062Y-22812021D03*
X234434000Y-22784037D03*
X259300857Y-22812021D03*
X242689000Y-22784031D03*
X207891000Y-23082000D03*
X199763000Y-28543000D03*
X185129656Y-22258946D03*
X192675301Y-22441358D03*
X208056746Y-37552988D03*
X222863032Y-30090344D03*
X231640000Y-36798000D03*
X244228010Y-33242000D03*
X255770000Y-33496000D03*
X266184000Y-37941000D03*
X226500870Y-38452693D03*
X192610341Y-40604968D03*
X222610603Y-36117770D03*
X225683997Y-34989757D03*
X223171670Y-34879649D03*
X225171703Y-34375287D03*
X224979023Y-33598825D03*
X223208372Y-33549276D03*
X224655000Y-32353000D03*
X223385000Y-32353000D03*
X205279981Y-31337000D03*
X226129670Y-37744012D03*
X226306000Y-39973000D03*
X225544000Y-32480000D03*
X201668000Y-33115000D03*
X202811000Y-39973000D03*
X202692000Y-41751000D03*
X205986000Y-40253012D03*
X197858000Y-28416000D03*
X198769355Y-23436222D03*
X197865813Y-24243830D03*
X223766000Y-39211000D03*
X226052000Y-36290000D03*
X201676000Y-39211000D03*
X209410947Y-40133969D03*
X225010648Y-36558761D03*
X200533000Y-36925000D03*
X201803000Y-37560000D03*
D16*
X180021644Y-30254506D02*
X179921644Y-30154506D01*
X179921644Y-28568670D02*
X180756314Y-27734000D01*
X179921644Y-30154506D02*
X179921644Y-28568670D01*
X182433533Y-26056781D02*
X182433533Y-25680324D01*
X180756314Y-27734000D02*
X182433533Y-26056781D01*
X183513618Y-25680324D02*
X184718111Y-24475831D01*
X182433533Y-25680324D02*
X183513618Y-25680324D01*
X184718111Y-24475831D02*
X185095942Y-24098000D01*
X187191000Y-24098000D02*
X187280000Y-24009000D01*
X185095942Y-24098000D02*
X187191000Y-24098000D01*
D17*
X179951000Y-31337000D02*
X180021644Y-31407644D01*
D16*
X180021644Y-31407644D02*
X180021644Y-30254506D01*
X180021644Y-32663494D02*
X180021644Y-31407644D01*
X180856314Y-35184000D02*
X180856314Y-33498164D01*
X180856314Y-33498164D02*
X180021644Y-32663494D01*
X181202724Y-35184000D02*
X180856314Y-35184000D01*
X182433533Y-37237676D02*
X182433533Y-36414809D01*
X182433533Y-36414809D02*
X181202724Y-35184000D01*
D17*
X182681965Y-37486108D02*
X182681965Y-38901035D01*
X182433533Y-37237676D02*
X182681965Y-37486108D01*
X182681965Y-38901035D02*
X181610000Y-39973000D01*
X215168111Y-23342169D02*
X214773370Y-23342169D01*
X214773370Y-23342169D02*
X213733000Y-24382539D01*
X213733000Y-24382539D02*
X213733000Y-25114000D01*
X264773370Y-23342169D02*
X265168111Y-23342169D01*
X263979001Y-24136538D02*
X264773370Y-23342169D01*
X263979001Y-24941001D02*
X263979001Y-24136538D01*
X264279000Y-25241000D02*
X263979001Y-24941001D01*
X256726467Y-38080324D02*
X256221024Y-38080324D01*
X252360011Y-33457311D02*
X252360011Y-25567999D01*
X256221024Y-38080324D02*
X253376011Y-35235311D01*
X253376011Y-34473311D02*
X252360011Y-33457311D01*
X253376011Y-35235311D02*
X253376011Y-34473311D01*
X252360011Y-25567999D02*
X252560010Y-25368000D01*
X240168111Y-23342169D02*
X239773370Y-23342169D01*
X239773370Y-23342169D02*
X239052123Y-24063416D01*
X239052123Y-24063416D02*
X239052123Y-25205232D01*
X189060381Y-24055158D02*
X189060381Y-24698381D01*
X189773370Y-23342169D02*
X189060381Y-24055158D01*
X189060381Y-24698381D02*
X189603000Y-25241000D01*
X190168111Y-23342169D02*
X189773370Y-23342169D01*
X207002000Y-38355857D02*
X206726467Y-38080324D01*
X207002000Y-38830000D02*
X207002000Y-38355857D01*
X231726467Y-38080324D02*
X231269575Y-38080324D01*
X231269575Y-38080324D02*
X227849011Y-34659759D01*
X227849011Y-34659759D02*
X227849011Y-34219311D01*
X227849011Y-34219311D02*
X226433398Y-32803698D01*
X226433398Y-32803698D02*
X226433398Y-26308990D01*
X180991018Y-37344875D02*
X180991018Y-36140307D01*
X181726467Y-38080324D02*
X180991018Y-37344875D01*
X203307031Y-34883221D02*
X202296996Y-33873186D01*
X202296996Y-26561023D02*
X202105962Y-26369989D01*
X206269575Y-38080324D02*
X203307031Y-35117780D01*
X206726467Y-38080324D02*
X206269575Y-38080324D01*
X202296996Y-33873186D02*
X202296996Y-26561023D01*
X203307031Y-35117780D02*
X203307031Y-34883221D01*
D16*
X190621974Y-24375831D02*
X192026467Y-25780324D01*
X189791889Y-24375831D02*
X190621974Y-24375831D01*
X193703686Y-27457543D02*
X193703686Y-27734000D01*
X192026467Y-25780324D02*
X193703686Y-27457543D01*
X193703686Y-27734000D02*
X194429000Y-28459314D01*
X194429000Y-29945150D02*
X194638356Y-30154506D01*
X194429000Y-28459314D02*
X194429000Y-29945150D01*
X194638356Y-30154506D02*
X194638356Y-32763494D01*
X194638356Y-34249330D02*
X194638356Y-32763494D01*
X193703686Y-35184000D02*
X194638356Y-34249330D01*
X192126467Y-36761219D02*
X193703686Y-35184000D01*
X192126467Y-37237676D02*
X192126467Y-36761219D01*
D17*
X192024000Y-37340143D02*
X192024000Y-38830000D01*
X192126467Y-37237676D02*
X192024000Y-37340143D01*
X218035022Y-24937676D02*
X218829673Y-25732327D01*
X217733533Y-24937676D02*
X218035022Y-24937676D01*
X254903686Y-35734000D02*
X254903686Y-35329855D01*
X253341058Y-25028772D02*
X253041059Y-24728773D01*
X252779012Y-33205181D02*
X252779012Y-26037000D01*
X252779012Y-26037000D02*
X253341058Y-25474954D01*
X253341058Y-25474954D02*
X253341058Y-25028772D01*
X254903686Y-35329855D02*
X252779012Y-33205181D01*
X192733533Y-25180455D02*
X193421039Y-25867961D01*
X192733533Y-24937676D02*
X192733533Y-25180455D01*
X204903686Y-35734000D02*
X202722020Y-33552334D01*
X202826332Y-33552334D02*
X202896998Y-33623000D01*
X202722020Y-33552334D02*
X202826332Y-33552334D01*
X202722020Y-26098043D02*
X202391928Y-25767951D01*
X202391928Y-25767951D02*
X201252010Y-25767951D01*
X202722020Y-33552334D02*
X202722020Y-26098043D01*
X227106022Y-26049367D02*
X226578994Y-25522339D01*
X229903686Y-35734000D02*
X229903686Y-35329855D01*
X227106022Y-32532191D02*
X227106022Y-26049367D01*
X229903686Y-35329855D02*
X227106022Y-32532191D01*
X266487332Y-24937676D02*
X266468032Y-24956976D01*
X267733533Y-24937676D02*
X266487332Y-24937676D01*
X243096563Y-24937676D02*
X243435120Y-25276233D01*
X242733533Y-24937676D02*
X243096563Y-24937676D01*
X179903686Y-35734000D02*
X179903686Y-33731916D01*
X179903686Y-33731916D02*
X180000928Y-33634674D01*
X219656314Y-26048686D02*
X220672674Y-25032326D01*
X219656314Y-27184000D02*
X219656314Y-26048686D01*
X253179023Y-26202689D02*
X253905143Y-25476569D01*
X253905143Y-25476569D02*
X253905143Y-24367980D01*
X253179023Y-32095173D02*
X253179023Y-26202689D01*
X253938356Y-32854506D02*
X253179023Y-32095173D01*
X244656314Y-27184000D02*
X244656314Y-24975109D01*
X244656314Y-24975109D02*
X244065259Y-24384054D01*
X194656314Y-25830234D02*
X193994040Y-25167960D01*
X194656314Y-27184000D02*
X194656314Y-25830234D01*
X195064000Y-27591686D02*
X194656314Y-27184000D01*
X195064000Y-28035000D02*
X195064000Y-27591686D01*
X227597879Y-31514029D02*
X227597879Y-25471309D01*
X227597879Y-25471309D02*
X227297880Y-25171310D01*
X228938356Y-32854506D02*
X227597879Y-31514029D01*
X203122031Y-25932354D02*
X202337506Y-25147829D01*
X203122031Y-32038181D02*
X203122031Y-25932354D01*
X203938356Y-32854506D02*
X203122031Y-32038181D01*
X202337506Y-25147829D02*
X201757448Y-25147829D01*
X269068931Y-26596617D02*
X268673373Y-26596617D01*
X269656314Y-27184000D02*
X269068931Y-26596617D01*
X178938356Y-31816675D02*
X179296031Y-31459000D01*
X178938356Y-32854506D02*
X178938356Y-31816675D01*
X253838356Y-29963494D02*
X253846803Y-29955047D01*
X254903831Y-25043581D02*
X254903831Y-23967968D01*
X253838356Y-26109056D02*
X254903831Y-25043581D01*
X253838356Y-29963494D02*
X253838356Y-26109056D01*
X228838356Y-29963494D02*
X228838356Y-25487356D01*
X228838356Y-25487356D02*
X227873272Y-24522272D01*
X195721644Y-29963494D02*
X195721644Y-25758052D01*
X195721644Y-25758052D02*
X194488255Y-24524663D01*
X245721644Y-29963494D02*
X245721644Y-24665555D01*
X245721644Y-24665555D02*
X245019509Y-23963420D01*
X220721644Y-25838255D02*
X222218942Y-24340957D01*
X220721644Y-29963494D02*
X220721644Y-25838255D01*
X203734999Y-29860137D02*
X203734999Y-25656999D01*
X203734999Y-25656999D02*
X202545959Y-24467959D01*
X203838356Y-29963494D02*
X203734999Y-29860137D01*
X195318000Y-30367138D02*
X195721644Y-29963494D01*
X195318000Y-30956000D02*
X195318000Y-30367138D01*
X178838356Y-25900644D02*
X180780000Y-23959000D01*
X178838356Y-29963494D02*
X178838356Y-25900644D01*
X270721644Y-29963494D02*
X270721644Y-29195850D01*
X270721644Y-29195850D02*
X270399099Y-28873305D01*
X229803686Y-27184000D02*
X229803686Y-24776598D01*
X229803686Y-24776598D02*
X228711316Y-23684228D01*
X196377873Y-25565738D02*
X194501133Y-23688998D01*
X196377873Y-32298277D02*
X196377873Y-25565738D01*
X195721644Y-32954506D02*
X196377873Y-32298277D01*
X204803686Y-27184000D02*
X204803686Y-25193494D01*
X204803686Y-25193494D02*
X203420993Y-23810801D01*
X254803686Y-27184000D02*
X255893152Y-26094534D01*
X255893152Y-26094534D02*
X255893152Y-23569681D01*
X245721644Y-32954506D02*
X246377873Y-32298277D01*
X245294162Y-23263377D02*
X245294162Y-23212032D01*
X246377873Y-24347088D02*
X245294162Y-23263377D01*
X246377873Y-32298277D02*
X246377873Y-24347088D01*
X195699000Y-32977150D02*
X195721644Y-32954506D01*
X201668000Y-28543000D02*
X201668000Y-27908000D01*
X200525000Y-26765000D02*
X200525000Y-23590000D01*
X201668000Y-27908000D02*
X200525000Y-26765000D01*
X204335000Y-27652686D02*
X204803686Y-27184000D01*
X204335000Y-28543000D02*
X204335000Y-27652686D01*
X223065581Y-30775799D02*
X223463034Y-30378346D01*
X220721644Y-32954506D02*
X220721644Y-32026056D01*
X221971901Y-30775799D02*
X223065581Y-30775799D01*
X220721644Y-32026056D02*
X221971901Y-30775799D01*
X223463034Y-30378346D02*
X223463034Y-24350402D01*
X223463034Y-24350402D02*
X222818952Y-23706320D01*
X179803686Y-25870386D02*
X181780000Y-23894072D01*
X181780000Y-23894072D02*
X181780000Y-23358990D01*
X179803686Y-27184000D02*
X179803686Y-25870386D01*
X270721644Y-32954506D02*
X270721644Y-32028219D01*
X270721644Y-32028219D02*
X270777863Y-31972000D01*
X205524167Y-24837676D02*
X204133512Y-23447021D01*
X206726467Y-24837676D02*
X205524167Y-24837676D01*
X231726467Y-24837676D02*
X230100823Y-23212032D01*
X230100823Y-23212032D02*
X229781001Y-23212032D01*
X256726467Y-23406303D02*
X256659194Y-23339030D01*
X256726467Y-24837676D02*
X256726467Y-23406303D01*
X244656314Y-35734000D02*
X246777883Y-33612431D01*
X246777883Y-33612431D02*
X246777883Y-23895740D01*
X246777883Y-23895740D02*
X246094175Y-23212032D01*
X194656314Y-35734000D02*
X195725157Y-34665157D01*
X196777883Y-24896378D02*
X195220537Y-23339032D01*
X196777883Y-33686119D02*
X196777883Y-24896378D01*
X195725157Y-34665157D02*
X195798845Y-34665157D01*
X196079501Y-34384501D02*
X196777883Y-33686119D01*
X195798845Y-34665157D02*
X196079501Y-34384501D01*
X195579097Y-33884097D02*
X195398989Y-33884097D01*
X196079501Y-34384501D02*
X195579097Y-33884097D01*
X222208359Y-31424762D02*
X222457311Y-31175810D01*
X222208359Y-33181955D02*
X222208359Y-31424762D01*
X223863045Y-30562706D02*
X223863045Y-23622128D01*
X222457311Y-31175810D02*
X223249941Y-31175810D01*
X223863045Y-23622128D02*
X223424959Y-23184042D01*
X219656314Y-35734000D02*
X222208359Y-33181955D01*
X223249941Y-31175810D02*
X223863045Y-30562706D01*
X182610443Y-23953700D02*
X182610443Y-23060117D01*
X181726467Y-24837676D02*
X182610443Y-23953700D01*
X182610443Y-23060117D02*
X182310444Y-22760118D01*
X269656314Y-35734000D02*
X270344456Y-35734000D01*
X270344456Y-35734000D02*
X270462728Y-35615728D01*
X267542311Y-22593011D02*
X263536011Y-22593011D01*
X263536011Y-22593011D02*
X263136000Y-22193000D01*
X242833533Y-38080324D02*
X243438676Y-38080324D01*
X243438676Y-38080324D02*
X247252021Y-34266979D01*
X234341889Y-23442169D02*
X234341889Y-22876148D01*
X234341889Y-22876148D02*
X234434000Y-22784037D01*
X259341889Y-22853053D02*
X259300857Y-22812021D01*
X259341889Y-23442169D02*
X259341889Y-22853053D01*
X259341889Y-23442169D02*
X258511742Y-22612022D01*
X209288000Y-23388280D02*
X209341889Y-23442169D01*
X234341889Y-23442169D02*
X233483752Y-22584032D01*
X233483752Y-22584032D02*
X218161051Y-22584032D01*
X218161051Y-22584032D02*
X217933062Y-22812021D01*
X247252021Y-22692021D02*
X247172022Y-22612022D01*
X247252021Y-34266979D02*
X247252021Y-22692021D01*
X258511742Y-22612022D02*
X247172022Y-22612022D01*
X242861010Y-22612021D02*
X242689000Y-22784031D01*
X247172022Y-22612022D02*
X242861010Y-22612021D01*
X208981720Y-23082000D02*
X209341889Y-23442169D01*
X207891000Y-23082000D02*
X208981720Y-23082000D01*
X207544999Y-22735999D02*
X200441306Y-22735999D01*
X207891000Y-23082000D02*
X207544999Y-22735999D01*
X200441306Y-22735999D02*
X199013430Y-24163875D01*
X199763000Y-24913445D02*
X199013430Y-24163875D01*
X199763000Y-28543000D02*
X199763000Y-24913445D01*
X193290425Y-38080324D02*
X197226068Y-34144681D01*
X192833533Y-38080324D02*
X193290425Y-38080324D01*
X197226068Y-34144681D02*
X197226068Y-24692381D01*
X197134022Y-24600335D02*
X197134022Y-22739022D01*
X197226068Y-24692381D02*
X197134022Y-24600335D01*
X198648465Y-24163875D02*
X197223612Y-22739022D01*
X197223612Y-22739022D02*
X197134022Y-22739022D01*
X199013430Y-24163875D02*
X198648465Y-24163875D01*
X217833533Y-38080324D02*
X218292676Y-38080324D01*
X218292676Y-38080324D02*
X222608370Y-33764630D01*
X224263056Y-22827087D02*
X224020000Y-22584031D01*
X224263056Y-30728395D02*
X224263056Y-22827087D01*
X222608370Y-31590451D02*
X222623000Y-31575821D01*
X222623000Y-31575821D02*
X223415630Y-31575821D01*
X223415630Y-31575821D02*
X224263056Y-30728395D01*
X222608370Y-33764630D02*
X222608370Y-31590451D01*
X185129656Y-22654402D02*
X185129656Y-22258946D01*
X184341889Y-23442169D02*
X185129656Y-22654402D01*
X197134022Y-22739022D02*
X192972965Y-22739022D01*
X192972965Y-22739022D02*
X192675301Y-22441358D01*
X267542311Y-22593011D02*
X271377873Y-26428573D01*
X271377873Y-26428573D02*
X271377873Y-35549127D01*
X268846676Y-38080324D02*
X267833533Y-38080324D01*
X271377873Y-35549127D02*
X268846676Y-38080324D01*
D16*
X207433533Y-36761219D02*
X205856314Y-35184000D01*
X207433533Y-37237676D02*
X207433533Y-36761219D01*
X205021644Y-34349330D02*
X205021644Y-32663494D01*
X205856314Y-35184000D02*
X205021644Y-34349330D01*
X207433533Y-26056781D02*
X207433533Y-25680324D01*
X205756314Y-27734000D02*
X207433533Y-26056781D01*
X208513618Y-25680324D02*
X209718111Y-24475831D01*
X207433533Y-25680324D02*
X208513618Y-25680324D01*
X211813169Y-24475831D02*
X212280000Y-24009000D01*
X209718111Y-24475831D02*
X211813169Y-24475831D01*
D17*
X207748845Y-37552988D02*
X208056746Y-37552988D01*
X207433533Y-37237676D02*
X207748845Y-37552988D01*
D16*
X205756314Y-29319836D02*
X205756314Y-27734000D01*
X204921644Y-30154506D02*
X205756314Y-29319836D01*
X204654979Y-32296829D02*
X204654979Y-30421171D01*
X204654979Y-30421171D02*
X204921644Y-30154506D01*
X205021644Y-32663494D02*
X204654979Y-32296829D01*
X215621974Y-24375831D02*
X214791889Y-24375831D01*
X217026467Y-25780324D02*
X215621974Y-24375831D01*
X218703686Y-27457543D02*
X218703686Y-27734000D01*
X217026467Y-25780324D02*
X218703686Y-27457543D01*
X219638356Y-28668670D02*
X219638356Y-30154506D01*
X218703686Y-27734000D02*
X219638356Y-28668670D01*
X219638356Y-34249330D02*
X218703686Y-35184000D01*
X219638356Y-32763494D02*
X219638356Y-34249330D01*
X218703686Y-35660457D02*
X217126467Y-37237676D01*
X218703686Y-35184000D02*
X218703686Y-35660457D01*
D17*
X219638356Y-30765356D02*
X221416644Y-30765356D01*
D16*
X219638356Y-30765356D02*
X219638356Y-32763494D01*
X219638356Y-30154506D02*
X219638356Y-30765356D01*
D17*
X222091656Y-30090344D02*
X222863032Y-30090344D01*
X221416644Y-30765356D02*
X222091656Y-30090344D01*
D16*
X232433533Y-37237676D02*
X232433533Y-36761219D01*
X230021644Y-34349330D02*
X230021644Y-32663494D01*
X230856314Y-35184000D02*
X230021644Y-34349330D01*
X230021644Y-30254506D02*
X229921644Y-30154506D01*
X230021644Y-32663494D02*
X230021644Y-30254506D01*
X229921644Y-28568670D02*
X230756314Y-27734000D01*
X229921644Y-30154506D02*
X229921644Y-28568670D01*
X230756314Y-27734000D02*
X230756314Y-27140686D01*
X232216676Y-25680324D02*
X232433533Y-25680324D01*
X230756314Y-27140686D02*
X232216676Y-25680324D01*
X233638026Y-24475831D02*
X234718111Y-24475831D01*
X232433533Y-25680324D02*
X233638026Y-24475831D01*
X236813169Y-24475831D02*
X237280000Y-24009000D01*
X234718111Y-24475831D02*
X236813169Y-24475831D01*
D17*
X231894000Y-36798000D02*
X232182157Y-36509843D01*
X231640000Y-36798000D02*
X231894000Y-36798000D01*
D16*
X232182157Y-36509843D02*
X230856314Y-35184000D01*
X232433533Y-36761219D02*
X232182157Y-36509843D01*
X240621974Y-24375831D02*
X242026467Y-25780324D01*
X239791889Y-24375831D02*
X240621974Y-24375831D01*
X243703686Y-27457543D02*
X243703686Y-27734000D01*
X242026467Y-25780324D02*
X243703686Y-27457543D01*
X244638356Y-28668670D02*
X244638356Y-30154506D01*
X243703686Y-27734000D02*
X244638356Y-28668670D01*
X244638356Y-30154506D02*
X244638356Y-32763494D01*
X244638356Y-34249330D02*
X243703686Y-35184000D01*
X244638356Y-32763494D02*
X244638356Y-34249330D01*
X243703686Y-35660457D02*
X242126467Y-37237676D01*
X243703686Y-35184000D02*
X243703686Y-35660457D01*
D17*
X244228010Y-33173840D02*
X244228010Y-33242000D01*
X244638356Y-32763494D02*
X244228010Y-33173840D01*
D16*
X257433533Y-36761219D02*
X255856314Y-35184000D01*
X257433533Y-37237676D02*
X257433533Y-36761219D01*
X255856314Y-35184000D02*
X255021644Y-34349330D01*
X255021644Y-30254506D02*
X254921644Y-30154506D01*
X255021644Y-32663494D02*
X255021644Y-30254506D01*
X254921644Y-28568670D02*
X255756314Y-27734000D01*
X254921644Y-30154506D02*
X254921644Y-28568670D01*
X257433533Y-26056781D02*
X257433533Y-25680324D01*
X255756314Y-27734000D02*
X257433533Y-26056781D01*
X258638026Y-24475831D02*
X259718111Y-24475831D01*
X257433533Y-25680324D02*
X258638026Y-24475831D01*
X260184942Y-24009000D02*
X262280000Y-24009000D01*
X259718111Y-24475831D02*
X260184942Y-24009000D01*
D17*
X255035288Y-33496000D02*
X255021644Y-33509644D01*
X255770000Y-33496000D02*
X255035288Y-33496000D01*
D16*
X255021644Y-33509644D02*
X255021644Y-32663494D01*
X255021644Y-34349330D02*
X255021644Y-33509644D01*
X269638356Y-28668670D02*
X269638356Y-30154506D01*
X268703686Y-27734000D02*
X269638356Y-28668670D01*
X269638356Y-30154506D02*
X269638356Y-32763494D01*
X269638356Y-34249330D02*
X268703686Y-35184000D01*
X269638356Y-32763494D02*
X269638356Y-34249330D01*
X268703686Y-35660457D02*
X267126467Y-37237676D01*
X268703686Y-35184000D02*
X268703686Y-35660457D01*
X266196382Y-25780324D02*
X267026467Y-25780324D01*
X264791889Y-24375831D02*
X266196382Y-25780324D01*
D17*
X266423143Y-37941000D02*
X267126467Y-37237676D01*
X266184000Y-37941000D02*
X266423143Y-37941000D01*
D16*
X267026467Y-25780324D02*
X267026467Y-26056781D01*
X267026467Y-26056781D02*
X268703686Y-27734000D01*
D17*
X198264318Y-34950991D02*
X192610341Y-40604968D01*
X223819573Y-41133990D02*
X208161994Y-41133990D01*
X202592411Y-40634001D02*
X202126009Y-40167599D01*
X208161994Y-41133990D02*
X206655002Y-39626998D01*
X204738702Y-39626998D02*
X203731699Y-40634001D01*
X203731699Y-40634001D02*
X202592411Y-40634001D01*
X202126009Y-40167599D02*
X202126009Y-39651401D01*
X202507009Y-35214599D02*
X202243401Y-34950991D01*
X206655002Y-39626998D02*
X204738702Y-39626998D01*
X202507009Y-39270401D02*
X202507009Y-35214599D01*
X202243401Y-34950991D02*
X198264318Y-34950991D01*
X226500870Y-38452693D02*
X223819573Y-41133990D01*
X202126009Y-39651401D02*
X202507009Y-39270401D01*
X224555984Y-36117770D02*
X225683997Y-34989757D01*
X222610603Y-36117770D02*
X224555984Y-36117770D01*
X224667341Y-34879649D02*
X223171670Y-34879649D01*
X225171703Y-34375287D02*
X224667341Y-34879649D01*
X224979023Y-33598825D02*
X223257921Y-33598825D01*
X223257921Y-33598825D02*
X223208372Y-33549276D01*
X224655000Y-32353000D02*
X223385000Y-32353000D01*
X205677873Y-31734892D02*
X205677873Y-34021955D01*
X208810937Y-40470484D02*
X209074432Y-40733979D01*
X205279981Y-31337000D02*
X205677873Y-31734892D01*
X209074432Y-40733979D02*
X223139703Y-40733979D01*
X208810937Y-37155019D02*
X208810937Y-40470484D01*
X205677873Y-34021955D02*
X208810937Y-37155019D01*
X223139703Y-40733979D02*
X226129670Y-37744012D01*
D18*
X206240000Y-41751000D02*
X209288000Y-41751000D01*
X204208000Y-41751000D02*
X206240000Y-41751000D01*
X224528000Y-41751000D02*
X226306000Y-39973000D01*
X209288000Y-41751000D02*
X224528000Y-41751000D01*
D17*
X225544000Y-32480000D02*
X227449000Y-34385000D01*
X227449000Y-38830000D02*
X226306000Y-39973000D01*
X227449000Y-34385000D02*
X227449000Y-38830000D01*
D18*
X206240000Y-41751000D02*
X206240000Y-40507012D01*
X206240000Y-40507012D02*
X205986000Y-40253012D01*
X202692000Y-41751000D02*
X204208000Y-41751000D01*
D17*
X201668000Y-33809890D02*
X202907020Y-35048910D01*
X202907020Y-39876980D02*
X202811000Y-39973000D01*
X202907020Y-35048910D02*
X202907020Y-39876980D01*
X201668000Y-33115000D02*
X201668000Y-33809890D01*
X238004979Y-22184021D02*
X243060023Y-22184021D01*
X243088013Y-22212011D02*
X261583011Y-22212011D01*
X237280000Y-22909000D02*
X238004979Y-22184021D01*
X243060023Y-22184021D02*
X243088013Y-22212011D01*
X261583011Y-22212011D02*
X262280000Y-22909000D01*
X236555021Y-22184021D02*
X237280000Y-22909000D01*
X213004979Y-22184021D02*
X236555021Y-22184021D01*
X212280000Y-22909000D02*
X213004979Y-22184021D01*
X211706988Y-22335988D02*
X212280000Y-22909000D01*
X199493012Y-22335988D02*
X211706988Y-22335988D01*
X198731012Y-22335988D02*
X199493012Y-22335988D01*
X197858000Y-28416000D02*
X197858000Y-24251643D01*
X198731012Y-22335988D02*
X198731012Y-23397879D01*
X197858000Y-24251643D02*
X197865813Y-24243830D01*
X198731012Y-23397879D02*
X198769355Y-23436222D01*
X188347643Y-21841357D02*
X198236381Y-21841357D01*
X198236381Y-21841357D02*
X198731012Y-22335988D01*
X187280000Y-22909000D02*
X188347643Y-21841357D01*
X223766000Y-39211000D02*
X226052000Y-36925000D01*
X226052000Y-36925000D02*
X226052000Y-36290000D01*
X176780000Y-37498300D02*
X176780000Y-36619000D01*
X201676000Y-39211000D02*
X198882000Y-42005000D01*
X181286700Y-42005000D02*
X176780000Y-37498300D01*
X198882000Y-42005000D02*
X181286700Y-42005000D01*
X209410947Y-40133969D02*
X209410947Y-39709705D01*
X209410947Y-39709705D02*
X210911662Y-38208990D01*
X210911662Y-38208990D02*
X215778990Y-38208990D01*
X216654000Y-39084000D02*
X222485409Y-39084000D01*
X222485409Y-39084000D02*
X225010648Y-36558761D01*
X215778990Y-38208990D02*
X216654000Y-39084000D01*
X181883678Y-41204978D02*
X178496021Y-37817321D01*
X200533000Y-36925000D02*
X197623600Y-36925000D01*
X197623600Y-36925000D02*
X193343622Y-41204978D01*
X178096010Y-34829310D02*
X178096010Y-32855010D01*
X193343622Y-41204978D02*
X181883678Y-41204978D01*
X178496021Y-37817321D02*
X178496021Y-35229321D01*
X178096010Y-32855010D02*
X176780000Y-31539000D01*
X178496021Y-35229321D02*
X178096010Y-34829310D01*
X201803000Y-37560000D02*
X197758011Y-41604989D01*
X197758011Y-41604989D02*
X181452389Y-41604989D01*
X178096010Y-35395010D02*
X176780000Y-34079000D01*
X181452389Y-41604989D02*
X178096010Y-38248610D01*
X178096010Y-38248610D02*
X178096010Y-35395010D01*
M02*
