%FSLAX45Y45*%
G04 Gerber Fmt 4.5, Leading zero omitted, Abs format (unit mm)*
G04 Created by KiCad (PCBNEW (5.1.12)-1) date 2021-11-29 00:25:57*
%MOMM*%
%LPD*%
G01*
G04 APERTURE LIST*
%TA.AperFunction,Profile*%
%ADD10C,0.050000*%
%TD*%
%ADD11C,0.200000*%
%ADD12C,0.300000*%
G04 APERTURE END LIST*
D10*
X17478000Y-4245900D02*
X17478000Y-2145900D01*
X27478000Y-4245900D02*
X17478000Y-4245900D01*
X27478000Y-2145900D02*
X27478000Y-4245900D01*
X17478000Y-2145900D02*
X27478000Y-2145900D01*
D11*
X17914603Y-3130900D02*
X17944603Y-3160900D01*
X17944603Y-3130900D02*
X17914603Y-3160900D01*
X17985093Y-3348467D02*
X18015093Y-3378467D01*
X18015093Y-3348467D02*
X17985093Y-3378467D01*
X18063000Y-2380900D02*
X18093000Y-2410900D01*
X18093000Y-2380900D02*
X18063000Y-2410900D01*
X18084102Y-3599031D02*
X18114102Y-3629031D01*
X18114102Y-3599031D02*
X18084102Y-3629031D01*
X18146000Y-3982300D02*
X18176000Y-4012300D01*
X18176000Y-3982300D02*
X18146000Y-4012300D01*
X18163000Y-2320899D02*
X18193000Y-2350899D01*
X18193000Y-2320899D02*
X18163000Y-2350899D01*
X18216044Y-2261012D02*
X18246044Y-2291012D01*
X18246044Y-2261012D02*
X18216044Y-2291012D01*
X18497966Y-2210895D02*
X18527966Y-2240895D01*
X18527966Y-2210895D02*
X18497966Y-2240895D01*
X18945300Y-2509100D02*
X18975300Y-2539100D01*
X18975300Y-2509100D02*
X18945300Y-2539100D01*
X19187400Y-3868000D02*
X19217400Y-3898000D01*
X19217400Y-3868000D02*
X19187400Y-3898000D01*
X19246034Y-4045497D02*
X19276034Y-4075497D01*
X19276034Y-4045497D02*
X19246034Y-4075497D01*
X19252530Y-2229136D02*
X19282530Y-2259136D01*
X19282530Y-2229136D02*
X19252530Y-2259136D01*
X19327104Y-2571796D02*
X19357104Y-2601796D01*
X19357104Y-2571796D02*
X19327104Y-2601796D01*
X19384404Y-2501796D02*
X19414404Y-2531796D01*
X19414404Y-2501796D02*
X19384404Y-2531796D01*
X19433826Y-2437466D02*
X19463826Y-2467466D01*
X19463826Y-2437466D02*
X19433826Y-2467466D01*
X19435113Y-2353900D02*
X19465113Y-2383900D01*
X19465113Y-2353900D02*
X19435113Y-2383900D01*
X19491400Y-2788500D02*
X19521400Y-2818500D01*
X19521400Y-2788500D02*
X19491400Y-2818500D01*
X19507054Y-2318903D02*
X19537054Y-2348903D01*
X19537054Y-2318903D02*
X19507054Y-2348903D01*
X19516800Y-3080600D02*
X19546800Y-3110600D01*
X19546800Y-3080600D02*
X19516800Y-3110600D01*
X19524899Y-3373410D02*
X19554899Y-3403410D01*
X19554899Y-3373410D02*
X19524899Y-3403410D01*
X19770800Y-2826600D02*
X19800800Y-2856600D01*
X19800800Y-2826600D02*
X19770800Y-2856600D01*
X19771581Y-2409383D02*
X19801581Y-2439383D01*
X19801581Y-2409383D02*
X19771581Y-2439383D01*
X19861936Y-2328622D02*
X19891936Y-2358622D01*
X19891936Y-2328622D02*
X19861936Y-2358622D01*
X19961300Y-2839300D02*
X19991300Y-2869300D01*
X19991300Y-2839300D02*
X19961300Y-2869300D01*
X20037500Y-2344000D02*
X20067500Y-2374000D01*
X20067500Y-2344000D02*
X20037500Y-2374000D01*
X20038300Y-3677500D02*
X20068300Y-3707500D01*
X20068300Y-3677500D02*
X20038300Y-3707500D01*
X20110201Y-2561795D02*
X20140201Y-2591795D01*
X20140201Y-2561795D02*
X20110201Y-2591795D01*
X20151800Y-2839300D02*
X20181800Y-2869300D01*
X20181800Y-2839300D02*
X20151800Y-2869300D01*
X20151800Y-3296500D02*
X20181800Y-3326500D01*
X20181800Y-3296500D02*
X20151800Y-3326500D01*
X20152600Y-3906100D02*
X20182600Y-3936100D01*
X20182600Y-3906100D02*
X20152600Y-3936100D01*
X20160745Y-2499783D02*
X20190745Y-2529783D01*
X20190745Y-2499783D02*
X20160745Y-2529783D01*
X20165300Y-3741000D02*
X20195300Y-3771000D01*
X20195300Y-3741000D02*
X20165300Y-3771000D01*
X20195596Y-2621999D02*
X20225596Y-2651999D01*
X20225596Y-2621999D02*
X20195596Y-2651999D01*
X20239596Y-2431796D02*
X20269596Y-2461796D01*
X20269596Y-2431796D02*
X20239596Y-2461796D01*
X20254200Y-4160100D02*
X20284200Y-4190100D01*
X20284200Y-4160100D02*
X20254200Y-4190100D01*
X20266100Y-3982300D02*
X20296100Y-4012300D01*
X20296100Y-3982300D02*
X20266100Y-4012300D01*
X20274700Y-3347300D02*
X20304700Y-3377300D01*
X20304700Y-3347300D02*
X20274700Y-3377300D01*
X20327099Y-2366080D02*
X20357099Y-2396080D01*
X20357099Y-2366080D02*
X20327099Y-2396080D01*
X20398351Y-2329702D02*
X20428351Y-2359702D01*
X20428351Y-2329702D02*
X20398351Y-2359702D01*
X20418500Y-2839300D02*
X20448500Y-2869300D01*
X20448500Y-2839300D02*
X20418500Y-2869300D01*
X20512998Y-3118700D02*
X20542998Y-3148700D01*
X20542998Y-3118700D02*
X20512998Y-3148700D01*
X20583600Y-4010301D02*
X20613600Y-4040301D01*
X20613600Y-4010301D02*
X20583600Y-4040301D01*
X20685200Y-3868000D02*
X20715200Y-3898000D01*
X20715200Y-3868000D02*
X20685200Y-3898000D01*
X20774100Y-2293200D02*
X20804100Y-2323200D01*
X20804100Y-2293200D02*
X20774100Y-2323200D01*
X20790675Y-3740299D02*
X20820675Y-3770299D01*
X20820675Y-3740299D02*
X20790675Y-3770299D01*
X20926095Y-3998397D02*
X20956095Y-4028397D01*
X20956095Y-3998397D02*
X20926095Y-4028397D01*
X21358300Y-2496400D02*
X21388300Y-2526400D01*
X21388300Y-2496400D02*
X21358300Y-2526400D01*
X21778306Y-2266202D02*
X21808306Y-2296202D01*
X21808306Y-2266202D02*
X21778306Y-2296202D01*
X21867967Y-2558233D02*
X21897967Y-2588233D01*
X21897967Y-2558233D02*
X21867967Y-2588233D01*
X22052267Y-2488233D02*
X22082267Y-2518233D01*
X22082267Y-2488233D02*
X22052267Y-2518233D01*
X22206894Y-2419096D02*
X22236894Y-2449096D01*
X22236894Y-2419096D02*
X22206894Y-2449096D01*
X22246060Y-3596777D02*
X22276060Y-3626777D01*
X22276060Y-3596777D02*
X22246060Y-3626777D01*
X22266895Y-2355632D02*
X22296895Y-2385632D01*
X22296895Y-2355632D02*
X22266895Y-2385632D01*
X22271303Y-2994034D02*
X22301303Y-3024034D01*
X22301303Y-2994034D02*
X22271303Y-3024034D01*
X22302167Y-3472965D02*
X22332167Y-3502965D01*
X22332167Y-3472965D02*
X22302167Y-3502965D01*
X22305837Y-3339928D02*
X22335837Y-3369928D01*
X22335837Y-3339928D02*
X22305837Y-3369928D01*
X22323500Y-3220300D02*
X22353500Y-3250300D01*
X22353500Y-3220300D02*
X22323500Y-3250300D01*
X22327496Y-2303404D02*
X22357496Y-2333404D01*
X22357496Y-2303404D02*
X22327496Y-2333404D01*
X22361600Y-3906100D02*
X22391600Y-3936100D01*
X22391600Y-3906100D02*
X22361600Y-3936100D01*
X22450500Y-3220300D02*
X22480500Y-3250300D01*
X22480500Y-3220300D02*
X22450500Y-3250300D01*
X22482902Y-3344882D02*
X22512902Y-3374882D01*
X22512902Y-3344882D02*
X22482902Y-3374882D01*
X22486065Y-3640876D02*
X22516065Y-3670876D01*
X22516065Y-3640876D02*
X22486065Y-3670876D01*
X22502170Y-3422529D02*
X22532170Y-3452529D01*
X22532170Y-3422529D02*
X22502170Y-3452529D01*
X22539400Y-3233000D02*
X22569400Y-3263000D01*
X22569400Y-3233000D02*
X22539400Y-3263000D01*
X22553400Y-3483976D02*
X22583400Y-3513976D01*
X22583400Y-3483976D02*
X22553400Y-3513976D01*
X22590200Y-3614000D02*
X22620200Y-3644000D01*
X22620200Y-3614000D02*
X22590200Y-3644000D01*
X22597967Y-3759401D02*
X22627967Y-3789401D01*
X22627967Y-3759401D02*
X22597967Y-3789401D01*
X22615600Y-3982300D02*
X22645600Y-4012300D01*
X22645600Y-3982300D02*
X22615600Y-4012300D01*
X22628340Y-2615899D02*
X22658340Y-2645899D01*
X22658340Y-2615899D02*
X22628340Y-2645899D01*
X22635087Y-3830269D02*
X22665087Y-3860269D01*
X22665087Y-3830269D02*
X22635087Y-3860269D01*
X22642899Y-2537234D02*
X22672899Y-2567234D01*
X22672899Y-2537234D02*
X22642899Y-2567234D01*
X22714788Y-2502131D02*
X22744788Y-2532131D01*
X22744788Y-2502131D02*
X22714788Y-2532131D01*
X22772327Y-2437227D02*
X22802327Y-2467227D01*
X22802327Y-2437227D02*
X22772327Y-2467227D01*
X22856132Y-2353423D02*
X22886132Y-2383423D01*
X22886132Y-2353423D02*
X22856132Y-2383423D01*
X22963100Y-2306203D02*
X22993100Y-2336203D01*
X22993100Y-2306203D02*
X22963100Y-2336203D01*
X23149000Y-3664800D02*
X23179000Y-3694800D01*
X23179000Y-3664800D02*
X23149000Y-3694800D01*
X23428400Y-2263404D02*
X23458400Y-2293404D01*
X23458400Y-2263404D02*
X23428400Y-2293404D01*
X23890212Y-2505523D02*
X23920212Y-2535523D01*
X23920212Y-2505523D02*
X23890212Y-2535523D01*
X24253900Y-2263403D02*
X24283900Y-2293403D01*
X24283900Y-2263403D02*
X24253900Y-2293403D01*
X24328512Y-2512623D02*
X24358512Y-2542623D01*
X24358512Y-2512623D02*
X24328512Y-2542623D01*
X24391526Y-2423405D02*
X24421526Y-2453405D01*
X24421526Y-2423405D02*
X24391526Y-2453405D01*
X24407801Y-3309200D02*
X24437801Y-3339200D01*
X24437801Y-3309200D02*
X24407801Y-3339200D01*
X24486951Y-2381342D02*
X24516951Y-2411342D01*
X24516951Y-2381342D02*
X24486951Y-2411342D01*
X24514416Y-2306203D02*
X24544416Y-2336203D01*
X24544416Y-2306203D02*
X24514416Y-2336203D01*
X24594417Y-2306203D02*
X24624417Y-2336203D01*
X24624417Y-2306203D02*
X24594417Y-2336203D01*
X25241001Y-2521800D02*
X25271001Y-2551800D01*
X25271001Y-2521800D02*
X25241001Y-2551800D01*
X25289106Y-2457877D02*
X25319106Y-2487877D01*
X25319106Y-2457877D02*
X25289106Y-2487877D01*
X25375514Y-2421798D02*
X25405514Y-2451798D01*
X25405514Y-2421798D02*
X25375514Y-2451798D01*
X25475383Y-2381797D02*
X25505383Y-2411797D01*
X25505383Y-2381797D02*
X25475383Y-2411797D01*
X25562000Y-3334600D02*
X25592000Y-3364600D01*
X25592000Y-3334600D02*
X25562000Y-3364600D01*
X25574315Y-2341968D02*
X25604315Y-2371968D01*
X25604315Y-2341968D02*
X25574315Y-2371968D01*
X25650919Y-2318903D02*
X25680919Y-2348903D01*
X25680919Y-2318903D02*
X25650919Y-2348903D01*
X25915086Y-2266202D02*
X25945086Y-2296202D01*
X25945086Y-2266202D02*
X25915086Y-2296202D01*
X26298600Y-2204300D02*
X26328600Y-2234300D01*
X26328600Y-2204300D02*
X26298600Y-2234300D01*
X26412900Y-2509100D02*
X26442900Y-2539100D01*
X26442900Y-2509100D02*
X26412900Y-2539100D01*
X26603400Y-3779100D02*
X26633400Y-3809100D01*
X26633400Y-3779100D02*
X26603400Y-3809100D01*
X26631803Y-2480698D02*
X26661803Y-2510698D01*
X26661803Y-2480698D02*
X26631803Y-2510698D01*
X26852337Y-2644662D02*
X26882337Y-2674662D01*
X26882337Y-2644662D02*
X26852337Y-2674662D01*
X27024910Y-2872330D02*
X27054910Y-2902330D01*
X27054910Y-2872330D02*
X27024910Y-2902330D01*
X27031273Y-3546573D02*
X27061273Y-3576573D01*
X27061273Y-3546573D02*
X27031273Y-3576573D01*
X27062786Y-3182200D02*
X27092786Y-3212200D01*
X27092786Y-3182200D02*
X27062786Y-3212200D01*
X17703800Y-2641600D02*
G75*
G03*
X17703800Y-2641600I-50800J0D01*
G01*
X17703800Y-2895600D02*
G75*
G03*
X17703800Y-2895600I-50800J0D01*
G01*
X17703800Y-3149600D02*
G75*
G03*
X17703800Y-3149600I-50800J0D01*
G01*
X17703800Y-3403600D02*
G75*
G03*
X17703800Y-3403600I-50800J0D01*
G01*
X17703800Y-3657600D02*
G75*
G03*
X17703800Y-3657600I-50800J0D01*
G01*
X27355800Y-2641600D02*
G75*
G03*
X27355800Y-2641600I-50800J0D01*
G01*
X27355800Y-2895600D02*
G75*
G03*
X27355800Y-2895600I-50800J0D01*
G01*
X27355800Y-3149600D02*
G75*
G03*
X27355800Y-3149600I-50800J0D01*
G01*
X27355800Y-3403600D02*
G75*
G03*
X27355800Y-3403600I-50800J0D01*
G01*
X27355800Y-3657600D02*
G75*
G03*
X27355800Y-3657600I-50800J0D01*
G01*
X18728000Y-2785900D02*
X18728000Y-3505900D01*
X18368000Y-3145900D02*
X19088000Y-3145900D01*
X21228000Y-2785900D02*
X21228000Y-3505900D01*
X20868000Y-3145900D02*
X21588000Y-3145900D01*
X23728000Y-2785900D02*
X23728000Y-3505900D01*
X23368000Y-3145900D02*
X24088000Y-3145900D01*
X26228000Y-2785900D02*
X26228000Y-3505900D01*
X25868000Y-3145900D02*
X26588000Y-3145900D01*
D12*
X17761928Y-4714114D02*
X17761928Y-4414114D01*
X17833357Y-4414114D01*
X17876214Y-4428400D01*
X17904786Y-4456972D01*
X17919071Y-4485543D01*
X17933357Y-4542686D01*
X17933357Y-4585543D01*
X17919071Y-4642686D01*
X17904786Y-4671257D01*
X17876214Y-4699829D01*
X17833357Y-4714114D01*
X17761928Y-4714114D01*
X18061928Y-4714114D02*
X18061928Y-4514114D01*
X18061928Y-4571257D02*
X18076214Y-4542686D01*
X18090500Y-4528400D01*
X18119071Y-4514114D01*
X18147643Y-4514114D01*
X18247643Y-4714114D02*
X18247643Y-4514114D01*
X18247643Y-4414114D02*
X18233357Y-4428400D01*
X18247643Y-4442686D01*
X18261928Y-4428400D01*
X18247643Y-4414114D01*
X18247643Y-4442686D01*
X18433357Y-4714114D02*
X18404786Y-4699829D01*
X18390500Y-4671257D01*
X18390500Y-4414114D01*
X18590500Y-4714114D02*
X18561928Y-4699829D01*
X18547643Y-4671257D01*
X18547643Y-4414114D01*
X18933357Y-4714114D02*
X18933357Y-4414114D01*
X19033357Y-4628400D01*
X19133357Y-4414114D01*
X19133357Y-4714114D01*
X19404786Y-4714114D02*
X19404786Y-4556972D01*
X19390500Y-4528400D01*
X19361928Y-4514114D01*
X19304786Y-4514114D01*
X19276214Y-4528400D01*
X19404786Y-4699829D02*
X19376214Y-4714114D01*
X19304786Y-4714114D01*
X19276214Y-4699829D01*
X19261928Y-4671257D01*
X19261928Y-4642686D01*
X19276214Y-4614114D01*
X19304786Y-4599829D01*
X19376214Y-4599829D01*
X19404786Y-4585543D01*
X19547643Y-4514114D02*
X19547643Y-4814114D01*
X19547643Y-4528400D02*
X19576214Y-4514114D01*
X19633357Y-4514114D01*
X19661928Y-4528400D01*
X19676214Y-4542686D01*
X19690500Y-4571257D01*
X19690500Y-4656972D01*
X19676214Y-4685543D01*
X19661928Y-4699829D01*
X19633357Y-4714114D01*
X19576214Y-4714114D01*
X19547643Y-4699829D01*
X19819071Y-4685543D02*
X19833357Y-4699829D01*
X19819071Y-4714114D01*
X19804786Y-4699829D01*
X19819071Y-4685543D01*
X19819071Y-4714114D01*
X19819071Y-4528400D02*
X19833357Y-4542686D01*
X19819071Y-4556972D01*
X19804786Y-4542686D01*
X19819071Y-4528400D01*
X19819071Y-4556972D01*
X17445500Y-5193400D02*
X17475500Y-5223400D01*
X17475500Y-5193400D02*
X17445500Y-5223400D01*
X17819071Y-5044114D02*
X17847643Y-5044114D01*
X17876214Y-5058400D01*
X17890500Y-5072686D01*
X17904786Y-5101257D01*
X17919071Y-5158400D01*
X17919071Y-5229829D01*
X17904786Y-5286972D01*
X17890500Y-5315543D01*
X17876214Y-5329829D01*
X17847643Y-5344114D01*
X17819071Y-5344114D01*
X17790500Y-5329829D01*
X17776214Y-5315543D01*
X17761928Y-5286972D01*
X17747643Y-5229829D01*
X17747643Y-5158400D01*
X17761928Y-5101257D01*
X17776214Y-5072686D01*
X17790500Y-5058400D01*
X17819071Y-5044114D01*
X18047643Y-5315543D02*
X18061928Y-5329829D01*
X18047643Y-5344114D01*
X18033357Y-5329829D01*
X18047643Y-5315543D01*
X18047643Y-5344114D01*
X18161928Y-5044114D02*
X18347643Y-5044114D01*
X18247643Y-5158400D01*
X18290500Y-5158400D01*
X18319071Y-5172686D01*
X18333357Y-5186972D01*
X18347643Y-5215543D01*
X18347643Y-5286972D01*
X18333357Y-5315543D01*
X18319071Y-5329829D01*
X18290500Y-5344114D01*
X18204786Y-5344114D01*
X18176214Y-5329829D01*
X18161928Y-5315543D01*
X18533357Y-5044114D02*
X18561928Y-5044114D01*
X18590500Y-5058400D01*
X18604786Y-5072686D01*
X18619071Y-5101257D01*
X18633357Y-5158400D01*
X18633357Y-5229829D01*
X18619071Y-5286972D01*
X18604786Y-5315543D01*
X18590500Y-5329829D01*
X18561928Y-5344114D01*
X18533357Y-5344114D01*
X18504786Y-5329829D01*
X18490500Y-5315543D01*
X18476214Y-5286972D01*
X18461928Y-5229829D01*
X18461928Y-5158400D01*
X18476214Y-5101257D01*
X18490500Y-5072686D01*
X18504786Y-5058400D01*
X18533357Y-5044114D01*
X18819071Y-5044114D02*
X18847643Y-5044114D01*
X18876214Y-5058400D01*
X18890500Y-5072686D01*
X18904786Y-5101257D01*
X18919071Y-5158400D01*
X18919071Y-5229829D01*
X18904786Y-5286972D01*
X18890500Y-5315543D01*
X18876214Y-5329829D01*
X18847643Y-5344114D01*
X18819071Y-5344114D01*
X18790500Y-5329829D01*
X18776214Y-5315543D01*
X18761928Y-5286972D01*
X18747643Y-5229829D01*
X18747643Y-5158400D01*
X18761928Y-5101257D01*
X18776214Y-5072686D01*
X18790500Y-5058400D01*
X18819071Y-5044114D01*
X19047643Y-5344114D02*
X19047643Y-5144114D01*
X19047643Y-5172686D02*
X19061928Y-5158400D01*
X19090500Y-5144114D01*
X19133357Y-5144114D01*
X19161928Y-5158400D01*
X19176214Y-5186972D01*
X19176214Y-5344114D01*
X19176214Y-5186972D02*
X19190500Y-5158400D01*
X19219071Y-5144114D01*
X19261928Y-5144114D01*
X19290500Y-5158400D01*
X19304786Y-5186972D01*
X19304786Y-5344114D01*
X19447643Y-5344114D02*
X19447643Y-5144114D01*
X19447643Y-5172686D02*
X19461928Y-5158400D01*
X19490500Y-5144114D01*
X19533357Y-5144114D01*
X19561928Y-5158400D01*
X19576214Y-5186972D01*
X19576214Y-5344114D01*
X19576214Y-5186972D02*
X19590500Y-5158400D01*
X19619071Y-5144114D01*
X19661928Y-5144114D01*
X19690500Y-5158400D01*
X19704786Y-5186972D01*
X19704786Y-5344114D01*
X20290500Y-5029829D02*
X20033357Y-5415543D01*
X20676214Y-5044114D02*
X20704786Y-5044114D01*
X20733357Y-5058400D01*
X20747643Y-5072686D01*
X20761928Y-5101257D01*
X20776214Y-5158400D01*
X20776214Y-5229829D01*
X20761928Y-5286972D01*
X20747643Y-5315543D01*
X20733357Y-5329829D01*
X20704786Y-5344114D01*
X20676214Y-5344114D01*
X20647643Y-5329829D01*
X20633357Y-5315543D01*
X20619071Y-5286972D01*
X20604786Y-5229829D01*
X20604786Y-5158400D01*
X20619071Y-5101257D01*
X20633357Y-5072686D01*
X20647643Y-5058400D01*
X20676214Y-5044114D01*
X20904786Y-5315543D02*
X20919071Y-5329829D01*
X20904786Y-5344114D01*
X20890500Y-5329829D01*
X20904786Y-5315543D01*
X20904786Y-5344114D01*
X21104786Y-5044114D02*
X21133357Y-5044114D01*
X21161928Y-5058400D01*
X21176214Y-5072686D01*
X21190500Y-5101257D01*
X21204786Y-5158400D01*
X21204786Y-5229829D01*
X21190500Y-5286972D01*
X21176214Y-5315543D01*
X21161928Y-5329829D01*
X21133357Y-5344114D01*
X21104786Y-5344114D01*
X21076214Y-5329829D01*
X21061928Y-5315543D01*
X21047643Y-5286972D01*
X21033357Y-5229829D01*
X21033357Y-5158400D01*
X21047643Y-5101257D01*
X21061928Y-5072686D01*
X21076214Y-5058400D01*
X21104786Y-5044114D01*
X21490500Y-5344114D02*
X21319071Y-5344114D01*
X21404786Y-5344114D02*
X21404786Y-5044114D01*
X21376214Y-5086972D01*
X21347643Y-5115543D01*
X21319071Y-5129829D01*
X21776214Y-5344114D02*
X21604786Y-5344114D01*
X21690500Y-5344114D02*
X21690500Y-5044114D01*
X21661928Y-5086972D01*
X21633357Y-5115543D01*
X21604786Y-5129829D01*
X21947643Y-5172686D02*
X21919071Y-5158400D01*
X21904786Y-5144114D01*
X21890500Y-5115543D01*
X21890500Y-5101257D01*
X21904786Y-5072686D01*
X21919071Y-5058400D01*
X21947643Y-5044114D01*
X22004786Y-5044114D01*
X22033357Y-5058400D01*
X22047643Y-5072686D01*
X22061928Y-5101257D01*
X22061928Y-5115543D01*
X22047643Y-5144114D01*
X22033357Y-5158400D01*
X22004786Y-5172686D01*
X21947643Y-5172686D01*
X21919071Y-5186972D01*
X21904786Y-5201257D01*
X21890500Y-5229829D01*
X21890500Y-5286972D01*
X21904786Y-5315543D01*
X21919071Y-5329829D01*
X21947643Y-5344114D01*
X22004786Y-5344114D01*
X22033357Y-5329829D01*
X22047643Y-5315543D01*
X22061928Y-5286972D01*
X22061928Y-5229829D01*
X22047643Y-5201257D01*
X22033357Y-5186972D01*
X22004786Y-5172686D01*
X22176214Y-5044114D02*
X22176214Y-5101257D01*
X22290500Y-5044114D02*
X22290500Y-5101257D01*
X22733357Y-5458400D02*
X22719071Y-5444114D01*
X22690500Y-5401257D01*
X22676214Y-5372686D01*
X22661928Y-5329829D01*
X22647643Y-5258400D01*
X22647643Y-5201257D01*
X22661928Y-5129829D01*
X22676214Y-5086972D01*
X22690500Y-5058400D01*
X22719071Y-5015543D01*
X22733357Y-5001257D01*
X23004786Y-5344114D02*
X22833357Y-5344114D01*
X22919071Y-5344114D02*
X22919071Y-5044114D01*
X22890500Y-5086972D01*
X22861928Y-5115543D01*
X22833357Y-5129829D01*
X23190500Y-5044114D02*
X23219071Y-5044114D01*
X23247643Y-5058400D01*
X23261928Y-5072686D01*
X23276214Y-5101257D01*
X23290500Y-5158400D01*
X23290500Y-5229829D01*
X23276214Y-5286972D01*
X23261928Y-5315543D01*
X23247643Y-5329829D01*
X23219071Y-5344114D01*
X23190500Y-5344114D01*
X23161928Y-5329829D01*
X23147643Y-5315543D01*
X23133357Y-5286972D01*
X23119071Y-5229829D01*
X23119071Y-5158400D01*
X23133357Y-5101257D01*
X23147643Y-5072686D01*
X23161928Y-5058400D01*
X23190500Y-5044114D01*
X23576214Y-5344114D02*
X23404786Y-5344114D01*
X23490500Y-5344114D02*
X23490500Y-5044114D01*
X23461928Y-5086972D01*
X23433357Y-5115543D01*
X23404786Y-5129829D01*
X23933357Y-5344114D02*
X23933357Y-5044114D01*
X24061928Y-5344114D02*
X24061928Y-5186972D01*
X24047643Y-5158400D01*
X24019071Y-5144114D01*
X23976214Y-5144114D01*
X23947643Y-5158400D01*
X23933357Y-5172686D01*
X24247643Y-5344114D02*
X24219071Y-5329829D01*
X24204786Y-5315543D01*
X24190500Y-5286972D01*
X24190500Y-5201257D01*
X24204786Y-5172686D01*
X24219071Y-5158400D01*
X24247643Y-5144114D01*
X24290500Y-5144114D01*
X24319071Y-5158400D01*
X24333357Y-5172686D01*
X24347643Y-5201257D01*
X24347643Y-5286972D01*
X24333357Y-5315543D01*
X24319071Y-5329829D01*
X24290500Y-5344114D01*
X24247643Y-5344114D01*
X24519071Y-5344114D02*
X24490500Y-5329829D01*
X24476214Y-5301257D01*
X24476214Y-5044114D01*
X24747643Y-5329829D02*
X24719071Y-5344114D01*
X24661928Y-5344114D01*
X24633357Y-5329829D01*
X24619071Y-5301257D01*
X24619071Y-5186972D01*
X24633357Y-5158400D01*
X24661928Y-5144114D01*
X24719071Y-5144114D01*
X24747643Y-5158400D01*
X24761928Y-5186972D01*
X24761928Y-5215543D01*
X24619071Y-5244114D01*
X24876214Y-5329829D02*
X24904786Y-5344114D01*
X24961928Y-5344114D01*
X24990500Y-5329829D01*
X25004786Y-5301257D01*
X25004786Y-5286972D01*
X24990500Y-5258400D01*
X24961928Y-5244114D01*
X24919071Y-5244114D01*
X24890500Y-5229829D01*
X24876214Y-5201257D01*
X24876214Y-5186972D01*
X24890500Y-5158400D01*
X24919071Y-5144114D01*
X24961928Y-5144114D01*
X24990500Y-5158400D01*
X25104786Y-5458400D02*
X25119071Y-5444114D01*
X25147643Y-5401257D01*
X25161928Y-5372686D01*
X25176214Y-5329829D01*
X25190500Y-5258400D01*
X25190500Y-5201257D01*
X25176214Y-5129829D01*
X25161928Y-5086972D01*
X25147643Y-5058400D01*
X25119071Y-5015543D01*
X25104786Y-5001257D01*
X17475500Y-5604400D02*
G75*
G03*
X17475500Y-5604400I-50800J0D01*
G01*
X17919071Y-5740114D02*
X17747643Y-5740114D01*
X17833357Y-5740114D02*
X17833357Y-5440114D01*
X17804786Y-5482972D01*
X17776214Y-5511543D01*
X17747643Y-5525829D01*
X18047643Y-5711543D02*
X18061928Y-5725829D01*
X18047643Y-5740114D01*
X18033357Y-5725829D01*
X18047643Y-5711543D01*
X18047643Y-5740114D01*
X18247643Y-5440114D02*
X18276214Y-5440114D01*
X18304786Y-5454400D01*
X18319071Y-5468686D01*
X18333357Y-5497257D01*
X18347643Y-5554400D01*
X18347643Y-5625829D01*
X18333357Y-5682971D01*
X18319071Y-5711543D01*
X18304786Y-5725829D01*
X18276214Y-5740114D01*
X18247643Y-5740114D01*
X18219071Y-5725829D01*
X18204786Y-5711543D01*
X18190500Y-5682971D01*
X18176214Y-5625829D01*
X18176214Y-5554400D01*
X18190500Y-5497257D01*
X18204786Y-5468686D01*
X18219071Y-5454400D01*
X18247643Y-5440114D01*
X18633357Y-5740114D02*
X18461928Y-5740114D01*
X18547643Y-5740114D02*
X18547643Y-5440114D01*
X18519071Y-5482972D01*
X18490500Y-5511543D01*
X18461928Y-5525829D01*
X18890500Y-5440114D02*
X18833357Y-5440114D01*
X18804786Y-5454400D01*
X18790500Y-5468686D01*
X18761928Y-5511543D01*
X18747643Y-5568686D01*
X18747643Y-5682971D01*
X18761928Y-5711543D01*
X18776214Y-5725829D01*
X18804786Y-5740114D01*
X18861928Y-5740114D01*
X18890500Y-5725829D01*
X18904786Y-5711543D01*
X18919071Y-5682971D01*
X18919071Y-5611543D01*
X18904786Y-5582972D01*
X18890500Y-5568686D01*
X18861928Y-5554400D01*
X18804786Y-5554400D01*
X18776214Y-5568686D01*
X18761928Y-5582972D01*
X18747643Y-5611543D01*
X19047643Y-5740114D02*
X19047643Y-5540114D01*
X19047643Y-5568686D02*
X19061928Y-5554400D01*
X19090500Y-5540114D01*
X19133357Y-5540114D01*
X19161928Y-5554400D01*
X19176214Y-5582972D01*
X19176214Y-5740114D01*
X19176214Y-5582972D02*
X19190500Y-5554400D01*
X19219071Y-5540114D01*
X19261928Y-5540114D01*
X19290500Y-5554400D01*
X19304786Y-5582972D01*
X19304786Y-5740114D01*
X19447643Y-5740114D02*
X19447643Y-5540114D01*
X19447643Y-5568686D02*
X19461928Y-5554400D01*
X19490500Y-5540114D01*
X19533357Y-5540114D01*
X19561928Y-5554400D01*
X19576214Y-5582972D01*
X19576214Y-5740114D01*
X19576214Y-5582972D02*
X19590500Y-5554400D01*
X19619071Y-5540114D01*
X19661928Y-5540114D01*
X19690500Y-5554400D01*
X19704786Y-5582972D01*
X19704786Y-5740114D01*
X20290500Y-5425829D02*
X20033357Y-5811543D01*
X20676214Y-5440114D02*
X20704786Y-5440114D01*
X20733357Y-5454400D01*
X20747643Y-5468686D01*
X20761928Y-5497257D01*
X20776214Y-5554400D01*
X20776214Y-5625829D01*
X20761928Y-5682971D01*
X20747643Y-5711543D01*
X20733357Y-5725829D01*
X20704786Y-5740114D01*
X20676214Y-5740114D01*
X20647643Y-5725829D01*
X20633357Y-5711543D01*
X20619071Y-5682971D01*
X20604786Y-5625829D01*
X20604786Y-5554400D01*
X20619071Y-5497257D01*
X20633357Y-5468686D01*
X20647643Y-5454400D01*
X20676214Y-5440114D01*
X20904786Y-5711543D02*
X20919071Y-5725829D01*
X20904786Y-5740114D01*
X20890500Y-5725829D01*
X20904786Y-5711543D01*
X20904786Y-5740114D01*
X21104786Y-5440114D02*
X21133357Y-5440114D01*
X21161928Y-5454400D01*
X21176214Y-5468686D01*
X21190500Y-5497257D01*
X21204786Y-5554400D01*
X21204786Y-5625829D01*
X21190500Y-5682971D01*
X21176214Y-5711543D01*
X21161928Y-5725829D01*
X21133357Y-5740114D01*
X21104786Y-5740114D01*
X21076214Y-5725829D01*
X21061928Y-5711543D01*
X21047643Y-5682971D01*
X21033357Y-5625829D01*
X21033357Y-5554400D01*
X21047643Y-5497257D01*
X21061928Y-5468686D01*
X21076214Y-5454400D01*
X21104786Y-5440114D01*
X21461928Y-5540114D02*
X21461928Y-5740114D01*
X21390500Y-5425829D02*
X21319071Y-5640114D01*
X21504786Y-5640114D01*
X21676214Y-5440114D02*
X21704786Y-5440114D01*
X21733357Y-5454400D01*
X21747643Y-5468686D01*
X21761928Y-5497257D01*
X21776214Y-5554400D01*
X21776214Y-5625829D01*
X21761928Y-5682971D01*
X21747643Y-5711543D01*
X21733357Y-5725829D01*
X21704786Y-5740114D01*
X21676214Y-5740114D01*
X21647643Y-5725829D01*
X21633357Y-5711543D01*
X21619071Y-5682971D01*
X21604786Y-5625829D01*
X21604786Y-5554400D01*
X21619071Y-5497257D01*
X21633357Y-5468686D01*
X21647643Y-5454400D01*
X21676214Y-5440114D01*
X21961928Y-5440114D02*
X21990500Y-5440114D01*
X22019071Y-5454400D01*
X22033357Y-5468686D01*
X22047643Y-5497257D01*
X22061928Y-5554400D01*
X22061928Y-5625829D01*
X22047643Y-5682971D01*
X22033357Y-5711543D01*
X22019071Y-5725829D01*
X21990500Y-5740114D01*
X21961928Y-5740114D01*
X21933357Y-5725829D01*
X21919071Y-5711543D01*
X21904786Y-5682971D01*
X21890500Y-5625829D01*
X21890500Y-5554400D01*
X21904786Y-5497257D01*
X21919071Y-5468686D01*
X21933357Y-5454400D01*
X21961928Y-5440114D01*
X22176214Y-5440114D02*
X22176214Y-5497257D01*
X22290500Y-5440114D02*
X22290500Y-5497257D01*
X22733357Y-5854400D02*
X22719071Y-5840114D01*
X22690500Y-5797257D01*
X22676214Y-5768686D01*
X22661928Y-5725829D01*
X22647643Y-5654400D01*
X22647643Y-5597257D01*
X22661928Y-5525829D01*
X22676214Y-5482972D01*
X22690500Y-5454400D01*
X22719071Y-5411543D01*
X22733357Y-5397257D01*
X23004786Y-5740114D02*
X22833357Y-5740114D01*
X22919071Y-5740114D02*
X22919071Y-5440114D01*
X22890500Y-5482972D01*
X22861928Y-5511543D01*
X22833357Y-5525829D01*
X23190500Y-5440114D02*
X23219071Y-5440114D01*
X23247643Y-5454400D01*
X23261928Y-5468686D01*
X23276214Y-5497257D01*
X23290500Y-5554400D01*
X23290500Y-5625829D01*
X23276214Y-5682971D01*
X23261928Y-5711543D01*
X23247643Y-5725829D01*
X23219071Y-5740114D01*
X23190500Y-5740114D01*
X23161928Y-5725829D01*
X23147643Y-5711543D01*
X23133357Y-5682971D01*
X23119071Y-5625829D01*
X23119071Y-5554400D01*
X23133357Y-5497257D01*
X23147643Y-5468686D01*
X23161928Y-5454400D01*
X23190500Y-5440114D01*
X23647643Y-5740114D02*
X23647643Y-5440114D01*
X23776214Y-5740114D02*
X23776214Y-5582972D01*
X23761928Y-5554400D01*
X23733357Y-5540114D01*
X23690500Y-5540114D01*
X23661928Y-5554400D01*
X23647643Y-5568686D01*
X23961928Y-5740114D02*
X23933357Y-5725829D01*
X23919071Y-5711543D01*
X23904786Y-5682971D01*
X23904786Y-5597257D01*
X23919071Y-5568686D01*
X23933357Y-5554400D01*
X23961928Y-5540114D01*
X24004786Y-5540114D01*
X24033357Y-5554400D01*
X24047643Y-5568686D01*
X24061928Y-5597257D01*
X24061928Y-5682971D01*
X24047643Y-5711543D01*
X24033357Y-5725829D01*
X24004786Y-5740114D01*
X23961928Y-5740114D01*
X24233357Y-5740114D02*
X24204786Y-5725829D01*
X24190500Y-5697257D01*
X24190500Y-5440114D01*
X24461928Y-5725829D02*
X24433357Y-5740114D01*
X24376214Y-5740114D01*
X24347643Y-5725829D01*
X24333357Y-5697257D01*
X24333357Y-5582972D01*
X24347643Y-5554400D01*
X24376214Y-5540114D01*
X24433357Y-5540114D01*
X24461928Y-5554400D01*
X24476214Y-5582972D01*
X24476214Y-5611543D01*
X24333357Y-5640114D01*
X24590500Y-5725829D02*
X24619071Y-5740114D01*
X24676214Y-5740114D01*
X24704786Y-5725829D01*
X24719071Y-5697257D01*
X24719071Y-5682971D01*
X24704786Y-5654400D01*
X24676214Y-5640114D01*
X24633357Y-5640114D01*
X24604786Y-5625829D01*
X24590500Y-5597257D01*
X24590500Y-5582972D01*
X24604786Y-5554400D01*
X24633357Y-5540114D01*
X24676214Y-5540114D01*
X24704786Y-5554400D01*
X24819071Y-5854400D02*
X24833357Y-5840114D01*
X24861928Y-5797257D01*
X24876214Y-5768686D01*
X24890500Y-5725829D01*
X24904786Y-5654400D01*
X24904786Y-5597257D01*
X24890500Y-5525829D01*
X24876214Y-5482972D01*
X24861928Y-5454400D01*
X24833357Y-5411543D01*
X24819071Y-5397257D01*
X17115500Y-5640400D02*
X17115500Y-6360400D01*
X16755500Y-6000400D02*
X17475500Y-6000400D01*
X17733357Y-5836114D02*
X17933357Y-5836114D01*
X17804786Y-6136114D01*
X18047643Y-6107543D02*
X18061928Y-6121829D01*
X18047643Y-6136114D01*
X18033357Y-6121829D01*
X18047643Y-6107543D01*
X18047643Y-6136114D01*
X18176214Y-5864686D02*
X18190500Y-5850400D01*
X18219071Y-5836114D01*
X18290500Y-5836114D01*
X18319071Y-5850400D01*
X18333357Y-5864686D01*
X18347643Y-5893257D01*
X18347643Y-5921829D01*
X18333357Y-5964686D01*
X18161928Y-6136114D01*
X18347643Y-6136114D01*
X18533357Y-5836114D02*
X18561928Y-5836114D01*
X18590500Y-5850400D01*
X18604786Y-5864686D01*
X18619071Y-5893257D01*
X18633357Y-5950400D01*
X18633357Y-6021829D01*
X18619071Y-6078971D01*
X18604786Y-6107543D01*
X18590500Y-6121829D01*
X18561928Y-6136114D01*
X18533357Y-6136114D01*
X18504786Y-6121829D01*
X18490500Y-6107543D01*
X18476214Y-6078971D01*
X18461928Y-6021829D01*
X18461928Y-5950400D01*
X18476214Y-5893257D01*
X18490500Y-5864686D01*
X18504786Y-5850400D01*
X18533357Y-5836114D01*
X18819071Y-5836114D02*
X18847643Y-5836114D01*
X18876214Y-5850400D01*
X18890500Y-5864686D01*
X18904786Y-5893257D01*
X18919071Y-5950400D01*
X18919071Y-6021829D01*
X18904786Y-6078971D01*
X18890500Y-6107543D01*
X18876214Y-6121829D01*
X18847643Y-6136114D01*
X18819071Y-6136114D01*
X18790500Y-6121829D01*
X18776214Y-6107543D01*
X18761928Y-6078971D01*
X18747643Y-6021829D01*
X18747643Y-5950400D01*
X18761928Y-5893257D01*
X18776214Y-5864686D01*
X18790500Y-5850400D01*
X18819071Y-5836114D01*
X19047643Y-6136114D02*
X19047643Y-5936114D01*
X19047643Y-5964686D02*
X19061928Y-5950400D01*
X19090500Y-5936114D01*
X19133357Y-5936114D01*
X19161928Y-5950400D01*
X19176214Y-5978971D01*
X19176214Y-6136114D01*
X19176214Y-5978971D02*
X19190500Y-5950400D01*
X19219071Y-5936114D01*
X19261928Y-5936114D01*
X19290500Y-5950400D01*
X19304786Y-5978971D01*
X19304786Y-6136114D01*
X19447643Y-6136114D02*
X19447643Y-5936114D01*
X19447643Y-5964686D02*
X19461928Y-5950400D01*
X19490500Y-5936114D01*
X19533357Y-5936114D01*
X19561928Y-5950400D01*
X19576214Y-5978971D01*
X19576214Y-6136114D01*
X19576214Y-5978971D02*
X19590500Y-5950400D01*
X19619071Y-5936114D01*
X19661928Y-5936114D01*
X19690500Y-5950400D01*
X19704786Y-5978971D01*
X19704786Y-6136114D01*
X20290500Y-5821829D02*
X20033357Y-6207543D01*
X20676214Y-5836114D02*
X20704786Y-5836114D01*
X20733357Y-5850400D01*
X20747643Y-5864686D01*
X20761928Y-5893257D01*
X20776214Y-5950400D01*
X20776214Y-6021829D01*
X20761928Y-6078971D01*
X20747643Y-6107543D01*
X20733357Y-6121829D01*
X20704786Y-6136114D01*
X20676214Y-6136114D01*
X20647643Y-6121829D01*
X20633357Y-6107543D01*
X20619071Y-6078971D01*
X20604786Y-6021829D01*
X20604786Y-5950400D01*
X20619071Y-5893257D01*
X20633357Y-5864686D01*
X20647643Y-5850400D01*
X20676214Y-5836114D01*
X20904786Y-6107543D02*
X20919071Y-6121829D01*
X20904786Y-6136114D01*
X20890500Y-6121829D01*
X20904786Y-6107543D01*
X20904786Y-6136114D01*
X21033357Y-5864686D02*
X21047643Y-5850400D01*
X21076214Y-5836114D01*
X21147643Y-5836114D01*
X21176214Y-5850400D01*
X21190500Y-5864686D01*
X21204786Y-5893257D01*
X21204786Y-5921829D01*
X21190500Y-5964686D01*
X21019071Y-6136114D01*
X21204786Y-6136114D01*
X21376214Y-5964686D02*
X21347643Y-5950400D01*
X21333357Y-5936114D01*
X21319071Y-5907543D01*
X21319071Y-5893257D01*
X21333357Y-5864686D01*
X21347643Y-5850400D01*
X21376214Y-5836114D01*
X21433357Y-5836114D01*
X21461928Y-5850400D01*
X21476214Y-5864686D01*
X21490500Y-5893257D01*
X21490500Y-5907543D01*
X21476214Y-5936114D01*
X21461928Y-5950400D01*
X21433357Y-5964686D01*
X21376214Y-5964686D01*
X21347643Y-5978971D01*
X21333357Y-5993257D01*
X21319071Y-6021829D01*
X21319071Y-6078971D01*
X21333357Y-6107543D01*
X21347643Y-6121829D01*
X21376214Y-6136114D01*
X21433357Y-6136114D01*
X21461928Y-6121829D01*
X21476214Y-6107543D01*
X21490500Y-6078971D01*
X21490500Y-6021829D01*
X21476214Y-5993257D01*
X21461928Y-5978971D01*
X21433357Y-5964686D01*
X21590500Y-5836114D02*
X21776214Y-5836114D01*
X21676214Y-5950400D01*
X21719071Y-5950400D01*
X21747643Y-5964686D01*
X21761928Y-5978971D01*
X21776214Y-6007543D01*
X21776214Y-6078971D01*
X21761928Y-6107543D01*
X21747643Y-6121829D01*
X21719071Y-6136114D01*
X21633357Y-6136114D01*
X21604786Y-6121829D01*
X21590500Y-6107543D01*
X22047643Y-5836114D02*
X21904786Y-5836114D01*
X21890500Y-5978971D01*
X21904786Y-5964686D01*
X21933357Y-5950400D01*
X22004786Y-5950400D01*
X22033357Y-5964686D01*
X22047643Y-5978971D01*
X22061928Y-6007543D01*
X22061928Y-6078971D01*
X22047643Y-6107543D01*
X22033357Y-6121829D01*
X22004786Y-6136114D01*
X21933357Y-6136114D01*
X21904786Y-6121829D01*
X21890500Y-6107543D01*
X22176214Y-5836114D02*
X22176214Y-5893257D01*
X22290500Y-5836114D02*
X22290500Y-5893257D01*
X22733357Y-6250400D02*
X22719071Y-6236114D01*
X22690500Y-6193257D01*
X22676214Y-6164686D01*
X22661928Y-6121829D01*
X22647643Y-6050400D01*
X22647643Y-5993257D01*
X22661928Y-5921829D01*
X22676214Y-5878971D01*
X22690500Y-5850400D01*
X22719071Y-5807543D01*
X22733357Y-5793257D01*
X22976214Y-5936114D02*
X22976214Y-6136114D01*
X22904786Y-5821829D02*
X22833357Y-6036114D01*
X23019071Y-6036114D01*
X23361928Y-6136114D02*
X23361928Y-5836114D01*
X23490500Y-6136114D02*
X23490500Y-5978971D01*
X23476214Y-5950400D01*
X23447643Y-5936114D01*
X23404786Y-5936114D01*
X23376214Y-5950400D01*
X23361928Y-5964686D01*
X23676214Y-6136114D02*
X23647643Y-6121829D01*
X23633357Y-6107543D01*
X23619071Y-6078971D01*
X23619071Y-5993257D01*
X23633357Y-5964686D01*
X23647643Y-5950400D01*
X23676214Y-5936114D01*
X23719071Y-5936114D01*
X23747643Y-5950400D01*
X23761928Y-5964686D01*
X23776214Y-5993257D01*
X23776214Y-6078971D01*
X23761928Y-6107543D01*
X23747643Y-6121829D01*
X23719071Y-6136114D01*
X23676214Y-6136114D01*
X23947643Y-6136114D02*
X23919071Y-6121829D01*
X23904786Y-6093257D01*
X23904786Y-5836114D01*
X24176214Y-6121829D02*
X24147643Y-6136114D01*
X24090500Y-6136114D01*
X24061928Y-6121829D01*
X24047643Y-6093257D01*
X24047643Y-5978971D01*
X24061928Y-5950400D01*
X24090500Y-5936114D01*
X24147643Y-5936114D01*
X24176214Y-5950400D01*
X24190500Y-5978971D01*
X24190500Y-6007543D01*
X24047643Y-6036114D01*
X24304786Y-6121829D02*
X24333357Y-6136114D01*
X24390500Y-6136114D01*
X24419071Y-6121829D01*
X24433357Y-6093257D01*
X24433357Y-6078971D01*
X24419071Y-6050400D01*
X24390500Y-6036114D01*
X24347643Y-6036114D01*
X24319071Y-6021829D01*
X24304786Y-5993257D01*
X24304786Y-5978971D01*
X24319071Y-5950400D01*
X24347643Y-5936114D01*
X24390500Y-5936114D01*
X24419071Y-5950400D01*
X24533357Y-6250400D02*
X24547643Y-6236114D01*
X24576214Y-6193257D01*
X24590500Y-6164686D01*
X24604786Y-6121829D01*
X24619071Y-6050400D01*
X24619071Y-5993257D01*
X24604786Y-5921829D01*
X24590500Y-5878971D01*
X24576214Y-5850400D01*
X24547643Y-5807543D01*
X24533357Y-5793257D01*
M02*
